<svg xmlns="http://www.w3.org/2000/svg" xmlns:xlink="http://www.w3.org/1999/xlink" width="500" zoomAndPan="magnify" viewBox="0 0 375 83.04" height="100" preserveAspectRatio="xMidYMid meet" version="1.2"><defs><clipPath id="5a2c675e05"><path d="M 170 5.089844 L 221.945312 5.089844 L 221.945312 58 L 170 58 Z M 170 5.089844 "/></clipPath><clipPath id="3fcce53aa1"><path d="M 167.824219 47 L 209 47 L 209 68.851562 L 167.824219 68.851562 Z M 167.824219 47 "/></clipPath><clipPath id="fed7b48270"><path d="M 0.300781 0.0429688 L 7 0.0429688 L 7 8 L 0.300781 8 Z M 0.300781 0.0429688 "/></clipPath><clipPath id="e39f930e5b"><path d="M 5 0.0429688 L 11 0.0429688 L 11 8 L 5 8 Z M 5 0.0429688 "/></clipPath><clipPath id="29562bfdbd"><path d="M 10 0.0429688 L 19 0.0429688 L 19 8 L 10 8 Z M 10 0.0429688 "/></clipPath><clipPath id="051e6a3f1e"><rect x="0" width="20" y="0" height="10"/></clipPath></defs><g id="b7a35b90d5"><g style="fill:#c9a14a;fill-opacity:1;"><g transform="translate(219.839267, 63.227961)"><path style="stroke:none" d="M 16.71875 -44.71875 L 22.359375 -18.03125 L 22.71875 -18.03125 C 22.875 -19.414062 23.050781 -20.800781 23.25 -22.1875 C 23.445312 -23.570312 23.722656 -24.9375 24.078125 -26.28125 L 28.828125 -44.71875 L 41.28125 -44.71875 L 47.390625 -18.03125 L 47.75 -18.03125 C 47.863281 -19.332031 48 -20.65625 48.15625 -22 C 48.320312 -23.34375 48.5625 -24.648438 48.875 -25.921875 L 53.375 -44.71875 L 70.28125 -44.71875 L 54.515625 0 L 40.328125 0 L 35.234375 -24.3125 L 34.703125 -24.3125 C 34.617188 -23.164062 34.523438 -22.03125 34.421875 -20.90625 C 34.328125 -19.78125 34.144531 -18.664062 33.875 -17.5625 L 29.359375 0 L 15.546875 0 L -0.125 -44.71875 Z M 16.71875 -44.71875 "/></g></g><g style="fill:#c9a14a;fill-opacity:1;"><g transform="translate(282.712341, 63.227961)"><path style="stroke:none" d="M 16.84375 0 L -0.359375 0 L 15.1875 -44.71875 L 33.15625 -44.71875 L 49.109375 0 L 31.90625 0 L 30.421875 -5.578125 L 18.15625 -5.578125 Z M 27.578125 -16.1875 C 26.078125 -22.28125 25.25 -25.84375 25.09375 -26.875 L 24.609375 -29.828125 L 24.015625 -29.828125 L 21.0625 -16.1875 Z M 27.578125 -16.1875 "/></g></g><g style="fill:#c9a14a;fill-opacity:1;"><g transform="translate(327.791154, 63.227961)"><path style="stroke:none" d="M 3.671875 -44.71875 L 24.265625 -44.71875 C 29.878906 -44.71875 34.304688 -43.285156 37.546875 -40.421875 C 40.785156 -37.554688 42.40625 -33.515625 42.40625 -28.296875 C 42.40625 -23.742188 41.078125 -20.132812 38.421875 -17.46875 C 35.773438 -14.800781 32.179688 -13.46875 27.640625 -13.46875 L 19.328125 -13.46875 L 19.328125 0 L 3.671875 0 Z M 19.328125 -24.734375 L 20.9375 -24.734375 C 23.1875 -24.734375 24.738281 -25.085938 25.59375 -25.796875 C 26.445312 -26.515625 26.875 -27.523438 26.875 -28.828125 C 26.875 -30.015625 26.457031 -30.921875 25.625 -31.546875 C 24.789062 -32.179688 23.207031 -32.5 20.875 -32.5 L 19.328125 -32.5 Z M 19.328125 -24.734375 "/></g></g><g style="fill:#0b1d3a;fill-opacity:1;"><g transform="translate(4.039405, 63.227961)"><path style="stroke:none" d="M 36.828125 -26.515625 C 33.671875 -29.554688 30.488281 -31.078125 27.28125 -31.078125 C 24.988281 -31.078125 22.941406 -30.253906 21.140625 -28.609375 C 19.347656 -26.972656 18.453125 -24.890625 18.453125 -22.359375 C 18.453125 -19.953125 19.359375 -17.894531 21.171875 -16.1875 C 22.992188 -14.488281 25.109375 -13.640625 27.515625 -13.640625 C 29.421875 -13.640625 31.144531 -14.015625 32.6875 -14.765625 C 34.226562 -15.515625 35.609375 -16.523438 36.828125 -17.796875 L 36.359375 -1.0625 C 35.367188 -0.59375 33.742188 -0.179688 31.484375 0.171875 C 29.234375 0.535156 27.003906 0.71875 24.796875 0.71875 C 20.640625 0.71875 16.8125 -0.289062 13.3125 -2.3125 C 9.8125 -4.332031 7.0625 -7.070312 5.0625 -10.53125 C 3.070312 -13.988281 2.078125 -17.796875 2.078125 -21.953125 C 2.078125 -26.179688 3.113281 -30.113281 5.1875 -33.75 C 7.257812 -37.382812 10.09375 -40.238281 13.6875 -42.3125 C 17.289062 -44.394531 21.207031 -45.4375 25.4375 -45.4375 C 29.15625 -45.4375 32.796875 -44.820312 36.359375 -43.59375 Z M 36.828125 -26.515625 "/></g></g><g style="fill:#0b1d3a;fill-opacity:1;"><g transform="translate(38.2044, 63.227961)"><path style="stroke:none" d="M 16.84375 0 L -0.359375 0 L 15.1875 -44.71875 L 33.15625 -44.71875 L 49.109375 0 L 31.90625 0 L 30.421875 -5.578125 L 18.15625 -5.578125 Z M 27.578125 -16.1875 C 26.078125 -22.28125 25.25 -25.84375 25.09375 -26.875 L 24.609375 -29.828125 L 24.015625 -29.828125 L 21.0625 -16.1875 Z M 27.578125 -16.1875 "/></g></g><g style="fill:#0b1d3a;fill-opacity:1;"><g transform="translate(82.986645, 63.227961)"><path style="stroke:none" d="M 3.671875 -44.71875 L 23.3125 -44.71875 C 29.195312 -44.71875 33.769531 -43.382812 37.03125 -40.71875 C 40.300781 -38.050781 41.9375 -34.207031 41.9375 -29.1875 C 41.9375 -26.0625 41.320312 -23.617188 40.09375 -21.859375 C 38.863281 -20.097656 36.59375 -18.664062 33.28125 -17.5625 L 33.28125 -17.203125 C 33.789062 -16.847656 34.257812 -16.460938 34.6875 -16.046875 C 35.125 -15.628906 35.5625 -15.125 36 -14.53125 L 45.734375 0 L 26.984375 0 L 19.875 -14.359375 L 19.578125 -14.359375 L 19.578125 0 L 3.671875 0 Z M 19.578125 -24.90625 L 20.703125 -24.90625 C 22.640625 -24.90625 24.007812 -25.203125 24.8125 -25.796875 C 25.625 -26.390625 26.03125 -27.335938 26.03125 -28.640625 C 26.03125 -29.953125 25.664062 -30.921875 24.9375 -31.546875 C 24.207031 -32.179688 22.832031 -32.5 20.8125 -32.5 L 19.578125 -32.5 Z M 19.578125 -24.90625 "/></g></g><g style="fill:#0b1d3a;fill-opacity:1;"><g transform="translate(123.854149, 63.227961)"><path style="stroke:none" d="M 3.796875 -44.71875 L 20.34375 -44.71875 C 25.601562 -44.71875 30.191406 -43.914062 34.109375 -42.3125 C 38.023438 -40.71875 41.128906 -38.195312 43.421875 -34.75 C 45.710938 -31.3125 46.859375 -26.960938 46.859375 -21.703125 C 46.859375 -17.429688 45.914062 -13.65625 44.03125 -10.375 C 42.15625 -7.09375 39.515625 -4.539062 36.109375 -2.71875 C 32.710938 -0.90625 28.800781 0 24.375 0 L 3.796875 0 Z M 20.046875 -13.40625 L 21.0625 -13.40625 C 24.144531 -13.40625 26.503906 -14.144531 28.140625 -15.625 C 29.785156 -17.113281 30.609375 -19.160156 30.609375 -21.765625 C 30.609375 -24.929688 29.753906 -27.210938 28.046875 -28.609375 C 26.347656 -30.015625 24.019531 -30.71875 21.0625 -30.71875 L 20.046875 -30.71875 Z M 20.046875 -13.40625 "/></g></g><g clip-rule="nonzero" clip-path="url(#5a2c675e05)"><path style=" stroke:none;fill-rule:evenodd;fill:#c9a14a;fill-opacity:1;" d="M 171.070312 29.011719 C 170.863281 27.886719 170.753906 26.679688 170.753906 25.375 L 170.753906 25.203125 C 170.753906 21.738281 171.578125 18.371094 173.351562 15.382812 C 177.8125 7.863281 186.59375 5.097656 194.902344 5.097656 C 204.273438 5.097656 212.824219 7.367188 220.195312 13.28125 C 220.542969 13.5625 220.613281 14.0625 220.355469 14.425781 L 212.015625 26.207031 C 211.746094 26.585938 211.21875 26.675781 210.839844 26.410156 C 206.15625 23.117188 200.273438 20.628906 194.472656 20.628906 C 192.578125 20.628906 189.296875 21.148438 189.296875 23.65625 L 189.296875 23.828125 C 189.296875 24.1875 189.339844 24.554688 189.472656 24.894531 C 190.359375 27.140625 197.039062 28.410156 199.039062 28.851562 C 210.011719 31.273438 222.144531 35.089844 222.144531 48.421875 L 222.144531 48.59375 C 222.144531 51.867188 221.507812 54.707031 220.371094 57.148438 C 210.066406 53.277344 200.890625 47.632812 192.78125 40.3125 L 197.84375 34.683594 Z M 171.070312 29.011719 "/></g><g clip-rule="nonzero" clip-path="url(#3fcce53aa1)"><path style=" stroke:none;fill-rule:evenodd;fill:#0b1d3a;fill-opacity:1;" d="M 196.964844 69.039062 C 186.5625 69.039062 176.042969 65.871094 168.199219 58.851562 C 167.859375 58.546875 167.824219 58.03125 168.117188 57.679688 L 176.910156 47.175781 L 179.488281 55.09375 L 183.273438 50.886719 C 190.921875 57.207031 199.324219 62.578125 208.257812 67.289062 C 204.773438 68.476562 200.902344 69.039062 196.964844 69.039062 "/></g><g transform="matrix(1,0,0,1,348,55)"><g clip-path="url(#051e6a3f1e)"><g clip-rule="nonzero" clip-path="url(#fed7b48270)"><g style="fill:#0b1d3a;fill-opacity:1;"><g transform="translate(0.747391, 7.489217)"><path style="stroke:none" d="M 0.09375 -6.828125 L 5.3125 -6.828125 L 5.3125 -4.609375 L 3.9375 -4.671875 L 3.9375 0 L 1.453125 0 L 1.453125 -4.671875 L 0.09375 -4.609375 Z M 0.09375 -6.828125 "/></g></g></g><g clip-rule="nonzero" clip-path="url(#e39f930e5b)"><g style="fill:#0b1d3a;fill-opacity:1;"><g transform="translate(5.304783, 7.489217)"><path style="stroke:none" d="M 5.625 -4.046875 C 5.144531 -4.515625 4.660156 -4.75 4.171875 -4.75 C 3.816406 -4.75 3.5 -4.625 3.21875 -4.375 C 2.945312 -4.125 2.8125 -3.804688 2.8125 -3.421875 C 2.8125 -3.046875 2.953125 -2.726562 3.234375 -2.46875 C 3.515625 -2.207031 3.835938 -2.078125 4.203125 -2.078125 C 4.492188 -2.078125 4.753906 -2.132812 4.984375 -2.25 C 5.222656 -2.363281 5.4375 -2.519531 5.625 -2.71875 L 5.5625 -0.15625 C 5.40625 -0.0820312 5.15625 -0.0195312 4.8125 0.03125 C 4.46875 0.0820312 4.125 0.109375 3.78125 0.109375 C 3.15625 0.109375 2.570312 -0.0390625 2.03125 -0.34375 C 1.5 -0.65625 1.078125 -1.078125 0.765625 -1.609375 C 0.460938 -2.140625 0.3125 -2.722656 0.3125 -3.359375 C 0.3125 -4.003906 0.46875 -4.601562 0.78125 -5.15625 C 1.101562 -5.707031 1.539062 -6.140625 2.09375 -6.453125 C 2.644531 -6.773438 3.242188 -6.9375 3.890625 -6.9375 C 4.453125 -6.9375 5.007812 -6.84375 5.5625 -6.65625 Z M 5.625 -4.046875 "/></g></g></g><g clip-rule="nonzero" clip-path="url(#29562bfdbd)"><g style="fill:#0b1d3a;fill-opacity:1;"><g transform="translate(10.678004, 7.489217)"><path style="stroke:none" d="M 7.78125 -4.03125 L 7.78125 -3.703125 C 7.78125 -3.023438 7.707031 -2.484375 7.5625 -2.078125 C 7.414062 -1.679688 7.171875 -1.3125 6.828125 -0.96875 C 6.484375 -0.632812 6.066406 -0.367188 5.578125 -0.171875 C 5.097656 0.015625 4.59375 0.109375 4.0625 0.109375 C 3.363281 0.109375 2.726562 -0.0234375 2.15625 -0.296875 C 1.582031 -0.578125 1.128906 -0.984375 0.796875 -1.515625 C 0.460938 -2.046875 0.296875 -2.664062 0.296875 -3.375 C 0.296875 -4.0625 0.453125 -4.675781 0.765625 -5.21875 C 1.078125 -5.769531 1.519531 -6.191406 2.09375 -6.484375 C 2.675781 -6.785156 3.335938 -6.9375 4.078125 -6.9375 C 4.566406 -6.9375 5.050781 -6.851562 5.53125 -6.6875 C 6.007812 -6.519531 6.398438 -6.316406 6.703125 -6.078125 C 7.015625 -5.835938 7.257812 -5.539062 7.4375 -5.1875 L 5.109375 -4.328125 C 5.015625 -4.503906 4.882812 -4.632812 4.71875 -4.71875 C 4.550781 -4.8125 4.367188 -4.859375 4.171875 -4.859375 C 3.753906 -4.859375 3.421875 -4.703125 3.171875 -4.390625 C 2.921875 -4.085938 2.796875 -3.710938 2.796875 -3.265625 C 2.796875 -2.867188 2.910156 -2.523438 3.140625 -2.234375 C 3.378906 -1.953125 3.6875 -1.8125 4.0625 -1.8125 C 4.300781 -1.8125 4.515625 -1.863281 4.703125 -1.96875 C 4.898438 -2.082031 5.023438 -2.226562 5.078125 -2.40625 L 3.953125 -2.40625 L 3.953125 -4.03125 Z M 7.78125 -4.03125 "/></g></g></g></g></g></g></svg>