<svg xmlns="http://www.w3.org/2000/svg" xmlns:xlink="http://www.w3.org/1999/xlink" width="500" zoomAndPan="magnify" viewBox="0 0 375 83.04" height="100" preserveAspectRatio="xMidYMid meet" version="1.2"><defs><clipPath id="f4fcf30ead"><path d="M 170 3 L 221.832031 3 L 221.832031 56 L 170 56 Z M 170 3 "/></clipPath><clipPath id="83c4cc1f32"><path d="M 167.707031 45 L 209 45 L 209 66.761719 L 167.707031 66.761719 Z M 167.707031 45 "/></clipPath><clipPath id="406a8770f1"><path d="M 0.300781 1 L 6 1 L 6 9 L 0.300781 9 Z M 0.300781 1 "/></clipPath><clipPath id="b7d421a04a"><rect x="0" width="20" y="0" height="11"/></clipPath></defs><g id="cdfa41e67c"><g style="fill:#ffffff;fill-opacity:1;"><g transform="translate(219.724418, 61.136933)"><path style="stroke:none" d="M 16.71875 -44.71875 L 22.359375 -18.03125 L 22.71875 -18.03125 C 22.875 -19.414062 23.050781 -20.800781 23.25 -22.1875 C 23.445312 -23.570312 23.722656 -24.9375 24.078125 -26.28125 L 28.828125 -44.71875 L 41.28125 -44.71875 L 47.390625 -18.03125 L 47.75 -18.03125 C 47.863281 -19.332031 48 -20.65625 48.15625 -22 C 48.320312 -23.34375 48.5625 -24.648438 48.875 -25.921875 L 53.375 -44.71875 L 70.28125 -44.71875 L 54.515625 0 L 40.328125 0 L 35.234375 -24.3125 L 34.703125 -24.3125 C 34.617188 -23.164062 34.523438 -22.03125 34.421875 -20.90625 C 34.328125 -19.78125 34.144531 -18.664062 33.875 -17.5625 L 29.359375 0 L 15.546875 0 L -0.125 -44.71875 Z M 16.71875 -44.71875 "/></g></g><g style="fill:#ffffff;fill-opacity:1;"><g transform="translate(282.597492, 61.136933)"><path style="stroke:none" d="M 16.84375 0 L -0.359375 0 L 15.1875 -44.71875 L 33.15625 -44.71875 L 49.109375 0 L 31.90625 0 L 30.421875 -5.578125 L 18.15625 -5.578125 Z M 27.578125 -16.1875 C 26.078125 -22.28125 25.25 -25.84375 25.09375 -26.875 L 24.609375 -29.828125 L 24.015625 -29.828125 L 21.0625 -16.1875 Z M 27.578125 -16.1875 "/></g></g><g style="fill:#ffffff;fill-opacity:1;"><g transform="translate(327.676305, 61.136933)"><path style="stroke:none" d="M 3.671875 -44.71875 L 24.265625 -44.71875 C 29.878906 -44.71875 34.304688 -43.285156 37.546875 -40.421875 C 40.785156 -37.554688 42.40625 -33.515625 42.40625 -28.296875 C 42.40625 -23.742188 41.078125 -20.132812 38.421875 -17.46875 C 35.773438 -14.800781 32.179688 -13.46875 27.640625 -13.46875 L 19.328125 -13.46875 L 19.328125 0 L 3.671875 0 Z M 19.328125 -24.734375 L 20.9375 -24.734375 C 23.1875 -24.734375 24.738281 -25.085938 25.59375 -25.796875 C 26.445312 -26.515625 26.875 -27.523438 26.875 -28.828125 C 26.875 -30.015625 26.457031 -30.921875 25.625 -31.546875 C 24.789062 -32.179688 23.207031 -32.5 20.875 -32.5 L 19.328125 -32.5 Z M 19.328125 -24.734375 "/></g></g><g style="fill:#ffffff;fill-opacity:1;"><g transform="translate(3.924545, 61.136933)"><path style="stroke:none" d="M 36.828125 -26.515625 C 33.671875 -29.554688 30.488281 -31.078125 27.28125 -31.078125 C 24.988281 -31.078125 22.941406 -30.253906 21.140625 -28.609375 C 19.347656 -26.972656 18.453125 -24.890625 18.453125 -22.359375 C 18.453125 -19.953125 19.359375 -17.894531 21.171875 -16.1875 C 22.992188 -14.488281 25.109375 -13.640625 27.515625 -13.640625 C 29.421875 -13.640625 31.144531 -14.015625 32.6875 -14.765625 C 34.226562 -15.515625 35.609375 -16.523438 36.828125 -17.796875 L 36.359375 -1.0625 C 35.367188 -0.59375 33.742188 -0.179688 31.484375 0.171875 C 29.234375 0.535156 27.003906 0.71875 24.796875 0.71875 C 20.640625 0.71875 16.8125 -0.289062 13.3125 -2.3125 C 9.8125 -4.332031 7.0625 -7.070312 5.0625 -10.53125 C 3.070312 -13.988281 2.078125 -17.796875 2.078125 -21.953125 C 2.078125 -26.179688 3.113281 -30.113281 5.1875 -33.75 C 7.257812 -37.382812 10.09375 -40.238281 13.6875 -42.3125 C 17.289062 -44.394531 21.207031 -45.4375 25.4375 -45.4375 C 29.15625 -45.4375 32.796875 -44.820312 36.359375 -43.59375 Z M 36.828125 -26.515625 "/></g></g><g style="fill:#ffffff;fill-opacity:1;"><g transform="translate(38.089539, 61.136933)"><path style="stroke:none" d="M 16.84375 0 L -0.359375 0 L 15.1875 -44.71875 L 33.15625 -44.71875 L 49.109375 0 L 31.90625 0 L 30.421875 -5.578125 L 18.15625 -5.578125 Z M 27.578125 -16.1875 C 26.078125 -22.28125 25.25 -25.84375 25.09375 -26.875 L 24.609375 -29.828125 L 24.015625 -29.828125 L 21.0625 -16.1875 Z M 27.578125 -16.1875 "/></g></g><g style="fill:#ffffff;fill-opacity:1;"><g transform="translate(82.871784, 61.136933)"><path style="stroke:none" d="M 3.671875 -44.71875 L 23.3125 -44.71875 C 29.195312 -44.71875 33.769531 -43.382812 37.03125 -40.71875 C 40.300781 -38.050781 41.9375 -34.207031 41.9375 -29.1875 C 41.9375 -26.0625 41.320312 -23.617188 40.09375 -21.859375 C 38.863281 -20.097656 36.59375 -18.664062 33.28125 -17.5625 L 33.28125 -17.203125 C 33.789062 -16.847656 34.257812 -16.460938 34.6875 -16.046875 C 35.125 -15.628906 35.5625 -15.125 36 -14.53125 L 45.734375 0 L 26.984375 0 L 19.875 -14.359375 L 19.578125 -14.359375 L 19.578125 0 L 3.671875 0 Z M 19.578125 -24.90625 L 20.703125 -24.90625 C 22.640625 -24.90625 24.007812 -25.203125 24.8125 -25.796875 C 25.625 -26.390625 26.03125 -27.335938 26.03125 -28.640625 C 26.03125 -29.953125 25.664062 -30.921875 24.9375 -31.546875 C 24.207031 -32.179688 22.832031 -32.5 20.8125 -32.5 L 19.578125 -32.5 Z M 19.578125 -24.90625 "/></g></g><g style="fill:#ffffff;fill-opacity:1;"><g transform="translate(123.739288, 61.136933)"><path style="stroke:none" d="M 3.796875 -44.71875 L 20.34375 -44.71875 C 25.601562 -44.71875 30.191406 -43.914062 34.109375 -42.3125 C 38.023438 -40.71875 41.128906 -38.195312 43.421875 -34.75 C 45.710938 -31.3125 46.859375 -26.960938 46.859375 -21.703125 C 46.859375 -17.429688 45.914062 -13.65625 44.03125 -10.375 C 42.15625 -7.09375 39.515625 -4.539062 36.109375 -2.71875 C 32.710938 -0.90625 28.800781 0 24.375 0 L 3.796875 0 Z M 20.046875 -13.40625 L 21.0625 -13.40625 C 24.144531 -13.40625 26.503906 -14.144531 28.140625 -15.625 C 29.785156 -17.113281 30.609375 -19.160156 30.609375 -21.765625 C 30.609375 -24.929688 29.753906 -27.210938 28.046875 -28.609375 C 26.347656 -30.015625 24.019531 -30.71875 21.0625 -30.71875 L 20.046875 -30.71875 Z M 20.046875 -13.40625 "/></g></g><g clip-rule="nonzero" clip-path="url(#f4fcf30ead)"><path style=" stroke:none;fill-rule:evenodd;fill:#ffffff;fill-opacity:1;" d="M 170.957031 26.921875 C 170.75 25.796875 170.640625 24.585938 170.640625 23.285156 L 170.640625 23.113281 C 170.640625 19.648438 171.464844 16.28125 173.238281 13.292969 C 177.695312 5.773438 186.476562 3.007812 194.789062 3.007812 C 204.15625 3.007812 212.710938 5.273438 220.078125 11.191406 C 220.429688 11.46875 220.5 11.972656 220.242188 12.335938 L 211.898438 24.117188 C 211.632812 24.496094 211.105469 24.585938 210.722656 24.320312 C 206.042969 21.027344 200.15625 18.539062 194.355469 18.539062 C 192.460938 18.539062 189.183594 19.058594 189.183594 21.5625 L 189.183594 21.738281 C 189.183594 22.097656 189.222656 22.464844 189.355469 22.800781 C 190.242188 25.050781 196.921875 26.316406 198.921875 26.761719 C 209.898438 29.183594 222.027344 33 222.027344 46.328125 L 222.027344 46.5 C 222.027344 49.773438 221.390625 52.617188 220.257812 55.058594 C 209.949219 51.1875 200.773438 45.539062 192.664062 38.222656 L 197.726562 32.589844 Z M 170.957031 26.921875 "/></g><g clip-rule="nonzero" clip-path="url(#83c4cc1f32)"><path style=" stroke:none;fill-rule:evenodd;fill:#ffffff;fill-opacity:1;" d="M 196.851562 66.949219 C 186.449219 66.949219 175.925781 63.78125 168.085938 56.761719 C 167.746094 56.457031 167.707031 55.9375 168 55.589844 L 176.792969 45.085938 L 179.375 53.003906 L 183.15625 48.796875 C 190.804688 55.117188 199.210938 60.488281 208.140625 65.195312 C 204.660156 66.386719 200.789062 66.949219 196.851562 66.949219 "/></g><g transform="matrix(1,0,0,1,348,52)"><g clip-path="url(#b7d421a04a)"><g clip-rule="nonzero" clip-path="url(#406a8770f1)"><g style="fill:#ffffff;fill-opacity:1;"><g transform="translate(0.632528, 8.398189)"><path style="stroke:none" d="M 0.09375 -6.828125 L 5.3125 -6.828125 L 5.3125 -4.609375 L 3.9375 -4.671875 L 3.9375 0 L 1.453125 0 L 1.453125 -4.671875 L 0.09375 -4.609375 Z M 0.09375 -6.828125 "/></g></g></g><g style="fill:#ffffff;fill-opacity:1;"><g transform="translate(5.18992, 8.398189)"><path style="stroke:none" d="M 5.625 -4.046875 C 5.144531 -4.515625 4.660156 -4.75 4.171875 -4.75 C 3.816406 -4.75 3.5 -4.625 3.21875 -4.375 C 2.945312 -4.125 2.8125 -3.804688 2.8125 -3.421875 C 2.8125 -3.046875 2.953125 -2.726562 3.234375 -2.46875 C 3.515625 -2.207031 3.835938 -2.078125 4.203125 -2.078125 C 4.492188 -2.078125 4.753906 -2.132812 4.984375 -2.25 C 5.222656 -2.363281 5.4375 -2.519531 5.625 -2.71875 L 5.5625 -0.15625 C 5.40625 -0.0820312 5.15625 -0.0195312 4.8125 0.03125 C 4.46875 0.0820312 4.125 0.109375 3.78125 0.109375 C 3.15625 0.109375 2.570312 -0.0390625 2.03125 -0.34375 C 1.5 -0.65625 1.078125 -1.078125 0.765625 -1.609375 C 0.460938 -2.140625 0.3125 -2.722656 0.3125 -3.359375 C 0.3125 -4.003906 0.46875 -4.601562 0.78125 -5.15625 C 1.101562 -5.707031 1.539062 -6.140625 2.09375 -6.453125 C 2.644531 -6.773438 3.242188 -6.9375 3.890625 -6.9375 C 4.453125 -6.9375 5.007812 -6.84375 5.5625 -6.65625 Z M 5.625 -4.046875 "/></g></g><g style="fill:#ffffff;fill-opacity:1;"><g transform="translate(10.563141, 8.398189)"><path style="stroke:none" d="M 7.78125 -4.03125 L 7.78125 -3.703125 C 7.78125 -3.023438 7.707031 -2.484375 7.5625 -2.078125 C 7.414062 -1.679688 7.171875 -1.3125 6.828125 -0.96875 C 6.484375 -0.632812 6.066406 -0.367188 5.578125 -0.171875 C 5.097656 0.015625 4.59375 0.109375 4.0625 0.109375 C 3.363281 0.109375 2.726562 -0.0234375 2.15625 -0.296875 C 1.582031 -0.578125 1.128906 -0.984375 0.796875 -1.515625 C 0.460938 -2.046875 0.296875 -2.664062 0.296875 -3.375 C 0.296875 -4.0625 0.453125 -4.675781 0.765625 -5.21875 C 1.078125 -5.769531 1.519531 -6.191406 2.09375 -6.484375 C 2.675781 -6.785156 3.335938 -6.9375 4.078125 -6.9375 C 4.566406 -6.9375 5.050781 -6.851562 5.53125 -6.6875 C 6.007812 -6.519531 6.398438 -6.316406 6.703125 -6.078125 C 7.015625 -5.835938 7.257812 -5.539062 7.4375 -5.1875 L 5.109375 -4.328125 C 5.015625 -4.503906 4.882812 -4.632812 4.71875 -4.71875 C 4.550781 -4.8125 4.367188 -4.859375 4.171875 -4.859375 C 3.753906 -4.859375 3.421875 -4.703125 3.171875 -4.390625 C 2.921875 -4.085938 2.796875 -3.710938 2.796875 -3.265625 C 2.796875 -2.867188 2.910156 -2.523438 3.140625 -2.234375 C 3.378906 -1.953125 3.6875 -1.8125 4.0625 -1.8125 C 4.300781 -1.8125 4.515625 -1.863281 4.703125 -1.96875 C 4.898438 -2.082031 5.023438 -2.226562 5.078125 -2.40625 L 3.953125 -2.40625 L 3.953125 -4.03125 Z M 7.78125 -4.03125 "/></g></g></g></g></g></svg>