<svg xmlns="http://www.w3.org/2000/svg" xmlns:xlink="http://www.w3.org/1999/xlink" width="600" zoomAndPan="magnify" viewBox="0 0 375 307.91998" height="400" preserveAspectRatio="xMidYMid meet" version="1.0"><defs><clipPath id="d938c9aa09"><path d="M 0.046875 0 L 374.949219 0 L 374.949219 299.921875 L 0.046875 299.921875 Z M 0.046875 0 " clip-rule="nonzero"/></clipPath><clipPath id="f795b7177d"><path d="M 233.351562 40 L 374.949219 40 L 374.949219 249 L 233.351562 249 Z M 233.351562 40 " clip-rule="nonzero"/></clipPath><clipPath id="748870ba94"><path d="M 236 43 L 374.949219 43 L 374.949219 246 L 236 246 Z M 236 43 " clip-rule="nonzero"/></clipPath><clipPath id="a3771b79ad"><path d="M 61 123 L 185 123 L 185 169 L 61 169 Z M 61 123 " clip-rule="nonzero"/></clipPath><clipPath id="2dfd470d87"><path d="M 131.632812 53.371094 L 257.550781 211.691406 L 156.378906 292.160156 L 30.457031 133.839844 Z M 131.632812 53.371094 " clip-rule="nonzero"/></clipPath><clipPath id="aa4c8e33fa"><path d="M 131.632812 53.371094 L 257.550781 211.691406 L 156.378906 292.160156 L 30.457031 133.839844 Z M 131.632812 53.371094 " clip-rule="nonzero"/></clipPath><clipPath id="e477d9aec3"><path d="M 35 130 L 253 130 L 253 221 L 35 221 Z M 35 130 " clip-rule="nonzero"/></clipPath><clipPath id="36336f7f1a"><path d="M 131.632812 53.371094 L 257.550781 211.691406 L 156.378906 292.160156 L 30.457031 133.839844 Z M 131.632812 53.371094 " clip-rule="nonzero"/></clipPath><clipPath id="369ec21976"><path d="M 131.632812 53.371094 L 257.550781 211.691406 L 156.378906 292.160156 L 30.457031 133.839844 Z M 131.632812 53.371094 " clip-rule="nonzero"/></clipPath><clipPath id="431cbfc714"><path d="M 75 190 L 158 190 L 158 232 L 75 232 Z M 75 190 " clip-rule="nonzero"/></clipPath><clipPath id="ff50ab05b8"><path d="M 131.632812 53.371094 L 257.550781 211.691406 L 156.378906 292.160156 L 30.457031 133.839844 Z M 131.632812 53.371094 " clip-rule="nonzero"/></clipPath><clipPath id="9017c16220"><path d="M 131.632812 53.371094 L 257.550781 211.691406 L 156.378906 292.160156 L 30.457031 133.839844 Z M 131.632812 53.371094 " clip-rule="nonzero"/></clipPath><clipPath id="97a8afbdcb"><path d="M 141 178 L 233 178 L 233 192 L 141 192 Z M 141 178 " clip-rule="nonzero"/></clipPath><clipPath id="8f2a245126"><path d="M 131.632812 53.371094 L 257.550781 211.691406 L 156.378906 292.160156 L 30.457031 133.839844 Z M 131.632812 53.371094 " clip-rule="nonzero"/></clipPath><clipPath id="c6d56160d4"><path d="M 131.632812 53.371094 L 257.550781 211.691406 L 156.378906 292.160156 L 30.457031 133.839844 Z M 131.632812 53.371094 " clip-rule="nonzero"/></clipPath><clipPath id="2c5e46b1fa"><path d="M 92 126 L 163 126 L 163 152 L 92 152 Z M 92 126 " clip-rule="nonzero"/></clipPath><clipPath id="92a5b61c1d"><path d="M 131.632812 53.371094 L 257.550781 211.691406 L 156.378906 292.160156 L 30.457031 133.839844 Z M 131.632812 53.371094 " clip-rule="nonzero"/></clipPath><clipPath id="4a92fcf4fd"><path d="M 131.632812 53.371094 L 257.550781 211.691406 L 156.378906 292.160156 L 30.457031 133.839844 Z M 131.632812 53.371094 " clip-rule="nonzero"/></clipPath><clipPath id="c07ec54012"><rect x="0" width="375" y="0" height="300"/></clipPath></defs><g clip-path="url(#d938c9aa09)"><path fill="#ffffff" d="M 0.046875 0 L 449.933594 0 L 449.933594 299.921875 L 0.046875 299.921875 Z M 0.046875 0 " fill-opacity="1" fill-rule="nonzero"/><path fill="#ffffff" d="M 0.046875 0 L 449.933594 0 L 449.933594 299.921875 L 0.046875 299.921875 Z M 0.046875 0 " fill-opacity="1" fill-rule="nonzero"/><g transform="matrix(1, 0, 0, 1, 0.000000000000000007, 0)"><g clip-path="url(#c07ec54012)"><g clip-path="url(#f795b7177d)"><path fill="#ffffff" d="M 442.398438 144.640625 C 442.050781 202.796875 395.234375 249.265625 337.078125 248.988281 C 279.613281 248.710938 233.351562 201.550781 233.628906 143.53125 C 233.90625 86.207031 281.203125 39.941406 339.222656 40.21875 C 395.859375 40.496094 442.671875 87.933594 442.398438 144.640625 Z M 442.398438 144.640625 " fill-opacity="1" fill-rule="nonzero"/></g><g clip-path="url(#748870ba94)"><path fill="#0b1d3a" d="M 435.828125 169.464844 C 435.480469 175.757812 432.371094 181.632812 429.742188 187.375 C 422.066406 203.902344 410.726562 217.316406 395.859375 227.691406 C 394.058594 228.933594 393.300781 229.417969 389.910156 231.078125 C 396.203125 222.363281 401.390625 211.371094 403.808594 201.550781 C 409.480469 178.316406 408.996094 155.082031 403.117188 131.984375 C 402.359375 129.078125 402.632812 128.457031 405.746094 129.011719 C 427.875 132.953125 436.933594 151.070312 435.828125 169.464844 Z M 399.589844 131.085938 C 399.039062 129.011719 398.070312 128.386719 395.996094 128.664062 C 391.433594 129.285156 387.074219 130.394531 382.996094 132.398438 C 373.3125 137.171875 366.605469 145.054688 360.726562 153.835938 C 348.488281 172.09375 336.871094 190.761719 323.664062 208.394531 C 318.0625 215.863281 311.214844 222.089844 302.640625 226.238281 C 298.007812 228.519531 293.167969 230.457031 287.429688 232.183594 C 289.363281 233.289062 290.609375 234.050781 291.855469 234.742188 C 314.464844 246.015625 338.046875 248.644531 362.59375 242.832031 C 373.175781 240.34375 382.855469 236.402344 389.148438 226.652344 C 391.847656 222.433594 394.40625 218.214844 396.339844 213.582031 C 401.042969 202.3125 403.324219 190.417969 404.085938 178.246094 C 405.261719 162.273438 403.808594 146.503906 399.589844 131.085938 Z M 433.40625 110.410156 C 431.679688 105.085938 428.011719 102.800781 423.3125 101.625 C 413.351562 99.136719 403.1875 98.929688 392.953125 99.898438 C 390.742188 100.105469 390.949219 100.867188 391.707031 102.386719 C 394.820312 108.679688 397.65625 115.109375 399.800781 121.820312 C 400.699219 124.585938 402.082031 125.554688 404.984375 125.96875 C 417.984375 127.765625 428.082031 134.128906 434.304688 146.023438 C 435.964844 149.0625 436.726562 152.523438 438.523438 156.394531 C 440.320312 140.074219 438.179688 125.136719 433.40625 110.410156 Z M 396.894531 122.785156 C 394.542969 116.078125 391.707031 109.507812 388.664062 103.007812 C 387.765625 101.074219 386.589844 100.449219 384.449219 100.796875 C 349.109375 106.191406 315.503906 117.253906 283.140625 132.191406 C 266.683594 139.796875 252.300781 150.308594 241.304688 165.039062 C 240.058594 166.699219 239.4375 168.21875 240.058594 170.363281 C 246.765625 194.289062 260.042969 213.511719 280.511719 227.828125 C 281.6875 228.65625 282.863281 229.210938 284.386719 229.074219 C 294.203125 227.414062 302.988281 223.539062 310.730469 217.386719 C 319.789062 210.125 325.945312 200.375 332.375 190.902344 C 341.644531 177.347656 350.5625 163.515625 359.761719 149.894531 C 368.472656 137.101562 379.398438 127.351562 395.71875 125.621094 C 398 125.34375 397.308594 124.101562 396.894531 122.785156 Z M 397.863281 63.109375 C 398.070312 73.066406 395.648438 76.664062 386.796875 80.398438 C 385.414062 80.949219 384.03125 81.433594 382.648438 81.847656 C 380.988281 82.332031 380.503906 82.886719 381.613281 84.613281 C 383.6875 87.726562 385.625 90.90625 387.351562 94.226562 C 388.457031 96.300781 389.632812 97.0625 392.125 96.855469 C 404.226562 95.816406 416.328125 95.886719 428.84375 100.242188 C 421.375 84.890625 411.140625 72.996094 397.863281 63.109375 Z M 384.378906 95.058594 C 382.304688 91.808594 380.296875 88.488281 378.363281 85.167969 C 377.464844 83.648438 376.355469 83.371094 374.695312 83.578125 C 362.457031 84.890625 350.285156 83.648438 338.183594 81.988281 C 322.488281 79.773438 306.789062 77.148438 290.886719 78.253906 C 275.671875 79.222656 262.257812 84.546875 251.054688 94.988281 C 249.1875 96.714844 247.734375 98.652344 246.628906 100.933594 C 240.058594 114.765625 236.738281 129.355469 236.808594 144.640625 C 236.808594 149.757812 237.085938 154.875 237.914062 159.851562 C 238.054688 160.613281 237.847656 161.855469 238.953125 162.132812 C 239.78125 162.273438 240.199219 161.304688 240.679688 160.683594 C 250.777344 148.234375 263.15625 138.554688 277.46875 131.636719 C 300.011719 120.78125 323.316406 111.722656 347.660156 105.429688 C 359.277344 102.386719 371.03125 100.035156 382.855469 98.101562 C 385.140625 97.683594 385.691406 97.0625 384.378906 95.058594 Z M 388.183594 56.746094 C 370.339844 46.652344 351.1875 42.292969 330.714844 43.609375 C 329.75 43.675781 328.640625 43.46875 327.882812 44.4375 C 330.992188 45.335938 334.242188 46.027344 337.21875 47.136719 C 352.152344 52.667969 364.324219 62.070312 374.351562 74.3125 C 379.398438 80.464844 379.398438 80.535156 386.730469 77.007812 C 387.144531 76.800781 387.558594 76.59375 387.972656 76.386719 C 391.640625 74.3125 394.957031 71.820312 394.890625 67.050781 C 394.820312 62.277344 392.261719 59.027344 388.183594 56.746094 Z M 373.039062 77.5625 C 364.671875 66.84375 354.503906 58.269531 342.125 52.527344 C 327.949219 46.027344 313.496094 44.160156 298.835938 51.144531 C 294.34375 53.289062 289.777344 55.363281 285.5625 57.992188 C 273.597656 65.460938 263.226562 74.519531 255.480469 86.480469 C 255.132812 87.105469 255.132812 87.242188 254.789062 87.867188 C 256.101562 86.757812 257.761719 85.722656 257.761719 85.722656 C 269.519531 78.046875 282.585938 75.070312 296.488281 74.933594 C 310.039062 74.726562 323.386719 76.800781 336.734375 78.667969 C 348.28125 80.328125 359.898438 81.710938 371.585938 80.882812 C 372.554688 80.8125 373.867188 80.949219 374.28125 79.914062 C 374.628906 79.015625 373.589844 78.253906 373.039062 77.5625 Z M 373.039062 77.5625 " fill-opacity="1" fill-rule="nonzero"/></g><g clip-path="url(#a3771b79ad)"><g clip-path="url(#2dfd470d87)"><g clip-path="url(#aa4c8e33fa)"><path fill="#0b1d3a" d="M 61.632812 123.746094 C 61.652344 123.75 61.671875 123.773438 61.671875 123.796875 C 61.667969 123.816406 61.648438 123.832031 61.621094 123.832031 C 61.371094 123.816406 61.550781 123.957031 61.808594 124.175781 C 62.179688 124.492188 62.789062 124.902344 63.078125 125.125 L 65.574219 126.867188 C 66.621094 127.542969 67.6875 128.191406 68.765625 128.828125 C 70.382812 129.769531 72.019531 130.683594 73.660156 131.582031 C 77.753906 133.847656 81.914062 135.992188 86.125 138.050781 C 90.324219 140.105469 94.566406 142.070312 98.859375 143.894531 C 111.914062 149.621094 125.464844 154.535156 139.328125 158.050781 C 153.117188 161.546875 167.214844 163.648438 181.484375 163.628906 C 182.898438 163.644531 184.039062 164.808594 184.023438 166.222656 C 184.007812 167.640625 182.847656 168.78125 181.429688 168.769531 C 166.773438 168.445312 152.324219 166.007812 138.261719 162.042969 C 124.304688 158.105469 110.734375 152.671875 97.683594 146.46875 C 93.449219 144.402344 89.261719 142.226562 85.144531 139.90625 C 81.039062 137.59375 77.011719 135.144531 73.050781 132.605469 C 71.46875 131.585938 69.894531 130.554688 68.339844 129.484375 C 67.308594 128.769531 66.285156 128.039062 65.285156 127.28125 L 62.910156 125.328125 C 62.589844 125.039062 61.855469 124.457031 61.558594 124.109375 C 61.34375 123.855469 61.328125 123.703125 61.632812 123.746094 Z M 61.632812 123.746094 " fill-opacity="1" fill-rule="evenodd"/></g></g></g><g clip-path="url(#e477d9aec3)"><g clip-path="url(#36336f7f1a)"><g clip-path="url(#369ec21976)"><path fill="#0b1d3a" d="M 35.242188 130.261719 C 35.226562 130.28125 35.203125 130.28125 35.183594 130.261719 C 35.167969 130.25 35.164062 130.226562 35.183594 130.203125 C 35.375 129.992188 35.570312 130.023438 35.761719 130.191406 C 36.1875 130.5625 36.621094 131.683594 37.050781 132.152344 L 41.085938 136.515625 C 43.199219 138.699219 45.398438 140.78125 47.65625 142.8125 C 49.914062 144.835938 52.226562 146.804688 54.558594 148.738281 C 61.035156 154.140625 67.8125 159.109375 74.792969 163.789062 C 81.769531 168.46875 88.945312 172.851562 96.257812 177.023438 C 105.070312 182.101562 114.117188 186.773438 123.335938 191.066406 C 132.546875 195.363281 141.9375 199.277344 151.472656 202.785156 C 167.402344 208.65625 183.492188 213.226562 199.765625 215.15625 C 215.933594 217.074219 232.28125 216.367188 248.824219 211.679688 C 250.191406 211.300781 251.609375 212.101562 251.984375 213.46875 C 252.363281 214.835938 251.5625 216.253906 250.195312 216.632812 C 232.957031 221.292969 215.96875 221.84375 199.203125 219.640625 C 182.632812 217.460938 166.28125 212.589844 150.121094 206.382812 C 140.542969 202.699219 131.105469 198.625 121.878906 194.128906 C 112.648438 189.632812 103.628906 184.722656 94.84375 179.429688 C 87.601562 175.015625 80.492188 170.417969 73.617188 165.488281 C 66.742188 160.550781 60.109375 155.296875 53.78125 149.636719 C 51.519531 147.601562 49.277344 145.539062 47.085938 143.414062 C 44.90625 141.292969 42.777344 139.101562 40.753906 136.828125 L 36.894531 132.289062 C 36.546875 131.878906 36.210938 130.988281 35.867188 130.488281 C 35.667969 130.195312 35.460938 130.035156 35.242188 130.261719 Z M 35.242188 130.261719 " fill-opacity="1" fill-rule="evenodd"/></g></g></g><g clip-path="url(#431cbfc714)"><g clip-path="url(#ff50ab05b8)"><g clip-path="url(#9017c16220)"><path fill="#0b1d3a" d="M 75.285156 190.929688 L 75.242188 190.855469 C 75.269531 190.847656 75.289062 190.859375 75.296875 190.882812 C 75.304688 190.902344 75.300781 190.914062 75.285156 190.929688 Z M 75.285156 190.929688 L 75.328125 190.988281 L 75.273438 190.9375 C 75.277344 190.933594 75.28125 190.929688 75.285156 190.929688 Z M 75.328125 190.988281 L 75.921875 191.589844 L 77.730469 193.25 C 78.625 194.027344 79.542969 194.777344 80.472656 195.511719 C 81.40625 196.246094 82.347656 196.960938 83.304688 197.660156 C 85.9375 199.609375 88.65625 201.417969 91.433594 203.148438 C 94.199219 204.886719 97.011719 206.535156 99.882812 208.097656 C 108.5 212.960938 117.5 217.082031 126.8125 220.25 C 136.0625 223.394531 145.609375 225.578125 155.433594 226.464844 C 156.839844 226.617188 157.863281 227.886719 157.714844 229.292969 C 157.5625 230.699219 156.296875 231.726562 154.886719 231.574219 C 144.726562 230.3125 134.871094 227.765625 125.402344 224.140625 C 116.015625 220.539062 107.015625 215.902344 98.421875 210.550781 C 95.632812 208.753906 92.882812 206.898438 90.226562 204.910156 C 87.566406 202.917969 85.007812 200.820312 82.535156 198.605469 C 81.648438 197.800781 80.769531 196.988281 79.910156 196.15625 C 79.050781 195.316406 78.21875 194.464844 77.402344 193.589844 L 75.78125 191.714844 Z M 75.328125 190.988281 " fill-opacity="1" fill-rule="evenodd"/></g></g></g><g clip-path="url(#97a8afbdcb)"><g clip-path="url(#8f2a245126)"><g clip-path="url(#c6d56160d4)"><path fill="#0b1d3a" d="M 141.351562 179.578125 C 141.367188 179.5625 141.390625 179.554688 141.410156 179.570312 C 141.429688 179.582031 141.433594 179.605469 141.421875 179.625 L 146.21875 181.609375 C 149.148438 182.582031 152.160156 183.335938 155.203125 183.988281 C 158.246094 184.632812 161.308594 185.164062 164.347656 185.613281 C 168.738281 186.320312 173.136719 186.824219 177.527344 187.164062 C 184.148438 187.679688 190.75 187.769531 197.28125 187.226562 C 208.03125 186.332031 218.578125 183.777344 228.636719 178.910156 C 229.925781 178.3125 231.457031 178.875 232.050781 180.160156 C 232.644531 181.449219 232.085938 182.972656 230.800781 183.570312 C 220.050781 188.335938 208.878906 190.707031 197.542969 191.234375 C 190.792969 191.546875 183.988281 191.242188 177.191406 190.367188 C 172.746094 189.792969 168.316406 188.964844 163.898438 187.976562 C 160.253906 187.109375 156.585938 186.15625 153.003906 184.957031 C 150.605469 184.15625 148.261719 183.253906 145.980469 182.234375 C 145.84375 182.171875 143.558594 180.957031 142.253906 180.207031 C 141.6875 179.882812 141.332031 179.609375 141.351562 179.578125 Z M 141.351562 179.578125 " fill-opacity="1" fill-rule="evenodd"/></g></g></g><g clip-path="url(#2c5e46b1fa)"><g clip-path="url(#92a5b61c1d)"><g clip-path="url(#4a92fcf4fd)"><path fill="#0b1d3a" d="M 92.917969 126.152344 C 92.929688 126.128906 92.957031 126.125 92.972656 126.140625 C 92.992188 126.152344 93 126.179688 92.988281 126.195312 C 92.925781 126.308594 93.015625 126.363281 93.152344 126.410156 C 93.425781 126.515625 93.875 126.570312 94.101562 126.707031 L 96.304688 128.03125 C 98.183594 129.144531 100.101562 130.152344 102.050781 131.128906 C 104 132.101562 105.964844 133.023438 107.953125 133.910156 C 111.230469 135.433594 114.609375 136.789062 118.042969 138.0625 C 123.121094 139.945312 128.328125 141.574219 133.628906 142.839844 C 142.445312 144.945312 151.480469 146.09375 160.378906 146.039062 C 161.792969 146.0625 162.929688 147.234375 162.90625 148.652344 C 162.882812 150.066406 161.714844 151.199219 160.296875 151.179688 C 151.042969 150.839844 141.683594 149.300781 132.613281 146.679688 C 127.230469 145.125 121.941406 143.230469 116.859375 140.953125 C 113.449219 139.417969 110.148438 137.703125 106.941406 135.875 C 105.039062 134.757812 103.160156 133.621094 101.316406 132.410156 C 99.46875 131.191406 97.679688 129.917969 95.941406 128.558594 L 93.941406 126.933594 C 93.710938 126.75 93.164062 126.632812 92.96875 126.460938 C 92.863281 126.371094 92.824219 126.273438 92.917969 126.152344 Z M 92.917969 126.152344 " fill-opacity="1" fill-rule="evenodd"/></g></g></g></g></g></g></svg>