<svg xmlns="http://www.w3.org/2000/svg" xmlns:xlink="http://www.w3.org/1999/xlink" width="600" zoomAndPan="magnify" viewBox="0 0 375 307.91998" height="400" preserveAspectRatio="xMidYMid meet" version="1.0"><defs><clipPath id="b027ef7d75"><path d="M 0.046875 0 L 374.949219 0 L 374.949219 299.921875 L 0.046875 299.921875 Z M 0.046875 0 " clip-rule="nonzero"/></clipPath><clipPath id="56595d2e72"><path d="M 110 12.324219 L 317 12.324219 L 317 287.503906 L 110 287.503906 Z M 110 12.324219 " clip-rule="nonzero"/></clipPath></defs><g clip-path="url(#b027ef7d75)"><path fill="#ffffff" d="M 0.046875 0 L 449.933594 0 L 449.933594 299.921875 L 0.046875 299.921875 Z M 0.046875 0 " fill-opacity="1" fill-rule="nonzero"/><path fill="#ffffff" d="M 0.046875 0 L 449.933594 0 L 449.933594 299.921875 L 0.046875 299.921875 Z M 0.046875 0 " fill-opacity="1" fill-rule="nonzero"/></g><g clip-path="url(#56595d2e72)"><path fill="#0b1d3a" d="M 306.726562 175.84375 C 299.851562 195.234375 273.535156 265.386719 273.269531 266.085938 C 273.074219 266.601562 272.976562 267.148438 272.976562 267.699219 L 272.976562 278.390625 L 220.980469 278.390625 C 221.214844 273.207031 221.382812 264.371094 220.683594 253.65625 C 220.097656 244.609375 216.785156 237.042969 213.859375 230.363281 C 211.132812 224.136719 208.777344 218.753906 209.398438 213.921875 C 210.828125 202.695312 220.265625 179.328125 220.359375 179.09375 C 220.582031 178.546875 220.695312 177.964844 220.695312 177.371094 L 220.695312 143.925781 C 220.695312 143.679688 221.066406 119.414062 234.074219 117.332031 C 238.953125 117.375 238.953125 118.292969 238.953125 122.957031 L 238.953125 177.371094 C 238.953125 179.902344 241.007812 181.957031 243.535156 181.957031 L 262.140625 181.957031 C 273.171875 181.957031 282.144531 172.984375 282.144531 161.957031 L 282.144531 123.5625 C 308.238281 162.171875 307.648438 173.246094 306.726562 175.84375 Z M 192.933594 195 C 191.371094 195.769531 189.699219 196.167969 187.972656 196.167969 C 183.65625 196.167969 179.792969 193.765625 177.886719 189.90625 L 173.519531 181.078125 C 175.398438 181.648438 177.382812 181.957031 179.441406 181.957031 L 209.417969 181.957031 C 208.757812 183.710938 208.007812 185.738281 207.226562 187.9375 Z M 120.238281 65.84375 C 121.199219 63 123.210938 60.703125 125.902344 59.371094 L 159.042969 42.992188 L 159.042969 151.777344 L 120.808594 74.421875 C 119.476562 71.734375 119.273438 68.6875 120.238281 65.84375 Z M 168.207031 32.734375 C 168.207031 26.542969 173.242188 21.5 179.441406 21.5 L 261.742188 21.5 C 267.9375 21.5 272.976562 26.542969 272.976562 32.734375 L 272.976562 161.554688 C 272.976562 167.75 267.9375 172.789062 261.742188 172.789062 L 248.117188 172.789062 L 248.117188 122.957031 C 248.117188 118.527344 248.117188 108.167969 233.75 108.167969 C 233.546875 108.167969 233.347656 108.183594 233.148438 108.207031 C 216.082031 110.484375 211.527344 131.730469 211.527344 143.925781 L 211.527344 172.789062 L 179.441406 172.789062 C 173.242188 172.789062 168.207031 167.75 168.207031 161.554688 Z M 282.144531 107.488281 L 282.144531 32.734375 C 282.144531 21.488281 272.988281 12.335938 261.742188 12.335938 L 179.441406 12.335938 C 168.195312 12.335938 159.042969 21.488281 159.042969 32.734375 L 159.042969 32.765625 L 121.839844 51.15625 C 116.953125 53.570312 113.304688 57.742188 111.558594 62.902344 C 109.804688 68.066406 110.179688 73.601562 112.589844 78.480469 L 169.671875 193.964844 C 173.128906 200.976562 180.144531 205.332031 187.972656 205.332031 C 191.121094 205.332031 194.15625 204.617188 196.996094 203.214844 L 203.21875 200.140625 C 201.859375 204.742188 200.753906 209.210938 200.300781 212.761719 C 199.363281 220.109375 202.324219 226.875 205.464844 234.039062 C 208.214844 240.316406 211.058594 246.808594 211.539062 254.25 C 212.59375 270.460938 211.558594 282.453125 211.546875 282.570312 C 211.433594 283.847656 211.863281 285.121094 212.730469 286.066406 C 213.597656 287.019531 214.828125 287.554688 216.113281 287.554688 L 277.558594 287.554688 C 280.089844 287.554688 282.144531 285.503906 282.144531 282.972656 L 282.144531 268.53125 C 285.0625 260.746094 308.859375 197.261719 315.363281 178.902344 C 316.8125 174.820312 321.195312 162.453125 282.144531 107.488281 " fill-opacity="1" fill-rule="nonzero"/></g><path fill="#0b1d3a" d="M 235.324219 139.074219 L 225.371094 139.074219 C 226.167969 126.71875 232.375 123.707031 235.324219 122.976562 Z M 236.84375 119.683594 C 236.703125 119.683594 222.785156 120.011719 222.25 140.5625 C 222.242188 140.976562 222.390625 141.371094 222.679688 141.667969 C 222.96875 141.960938 223.363281 142.128906 223.773438 142.128906 L 236.855469 142.128906 C 237.699219 142.128906 238.382812 141.445312 238.382812 140.601562 L 238.382812 121.214844 C 238.382812 120.804688 238.222656 120.417969 237.933594 120.128906 C 237.644531 119.84375 237.257812 119.566406 236.84375 119.683594 " fill-opacity="1" fill-rule="nonzero"/></svg>