<svg xmlns="http://www.w3.org/2000/svg" xmlns:xlink="http://www.w3.org/1999/xlink" width="600" zoomAndPan="magnify" viewBox="0 0 375 307.91998" height="400" preserveAspectRatio="xMidYMid meet" version="1.0"><defs><clipPath id="48590fcf2d"><path d="M 0.046875 0 L 374.949219 0 L 374.949219 299.921875 L 0.046875 299.921875 Z M 0.046875 0 " clip-rule="nonzero"/></clipPath><clipPath id="4e3de4e4a7"><path d="M 76 48 L 310 48 L 310 129 L 76 129 Z M 76 48 " clip-rule="nonzero"/></clipPath><clipPath id="0dc6b4c17a"><path d="M 157.183594 -74.929688 L 487.0625 61.320312 L 338.792969 420.304688 L 8.914062 284.054688 Z M 157.183594 -74.929688 " clip-rule="nonzero"/></clipPath><clipPath id="0ee3477a76"><path d="M 157.183594 -74.929688 L 487.0625 61.320312 L 338.792969 420.304688 L 8.914062 284.054688 Z M 157.183594 -74.929688 " clip-rule="nonzero"/></clipPath><clipPath id="6b9538cc65"><path d="M 8 201 L 349 201 L 349 284 L 8 284 Z M 8 201 " clip-rule="nonzero"/></clipPath><clipPath id="dc8db7c89d"><path d="M 157.183594 -74.929688 L 487.0625 61.320312 L 338.792969 420.304688 L 8.914062 284.054688 Z M 157.183594 -74.929688 " clip-rule="nonzero"/></clipPath><clipPath id="fa7d033df2"><path d="M 157.183594 -74.929688 L 487.0625 61.320312 L 338.792969 420.304688 L 8.914062 284.054688 Z M 157.183594 -74.929688 " clip-rule="nonzero"/></clipPath><clipPath id="e31cdf251e"><path d="M 124 103 L 260 103 L 260 147 L 124 147 Z M 124 103 " clip-rule="nonzero"/></clipPath><clipPath id="b7d37ad405"><path d="M 157.183594 -74.929688 L 487.0625 61.320312 L 338.792969 420.304688 L 8.914062 284.054688 Z M 157.183594 -74.929688 " clip-rule="nonzero"/></clipPath><clipPath id="c1034d8023"><path d="M 157.183594 -74.929688 L 487.0625 61.320312 L 338.792969 420.304688 L 8.914062 284.054688 Z M 157.183594 -74.929688 " clip-rule="nonzero"/></clipPath><clipPath id="510796b689"><path d="M 107 174 L 280 174 L 280 227 L 107 227 Z M 107 174 " clip-rule="nonzero"/></clipPath><clipPath id="a97493ac69"><path d="M 157.183594 -74.929688 L 487.0625 61.320312 L 338.792969 420.304688 L 8.914062 284.054688 Z M 157.183594 -74.929688 " clip-rule="nonzero"/></clipPath><clipPath id="54b9bac4b9"><path d="M 157.183594 -74.929688 L 487.0625 61.320312 L 338.792969 420.304688 L 8.914062 284.054688 Z M 157.183594 -74.929688 " clip-rule="nonzero"/></clipPath><clipPath id="a9422ca9ed"><path d="M 46 138 L 261 138 L 261 204 L 46 204 Z M 46 138 " clip-rule="nonzero"/></clipPath><clipPath id="b09ba6b788"><path d="M 157.183594 -74.929688 L 487.0625 61.320312 L 338.792969 420.304688 L 8.914062 284.054688 Z M 157.183594 -74.929688 " clip-rule="nonzero"/></clipPath><clipPath id="197cd904f2"><path d="M 157.183594 -74.929688 L 487.0625 61.320312 L 338.792969 420.304688 L 8.914062 284.054688 Z M 157.183594 -74.929688 " clip-rule="nonzero"/></clipPath><clipPath id="3ec7ccb862"><path d="M 248 20 L 374.949219 20 L 374.949219 219 L 248 219 Z M 248 20 " clip-rule="nonzero"/></clipPath><clipPath id="42894e7394"><path d="M 157.183594 -74.929688 L 487.0625 61.320312 L 338.792969 420.304688 L 8.914062 284.054688 Z M 157.183594 -74.929688 " clip-rule="nonzero"/></clipPath><clipPath id="9c6ef2bae5"><path d="M 157.183594 -74.929688 L 487.0625 61.320312 L 338.792969 420.304688 L 8.914062 284.054688 Z M 157.183594 -74.929688 " clip-rule="nonzero"/></clipPath><clipPath id="0650df0b3a"><path d="M 247 19 L 374.949219 19 L 374.949219 220 L 247 220 Z M 247 19 " clip-rule="nonzero"/></clipPath><clipPath id="99b76ac7ef"><path d="M 157.183594 -74.929688 L 487.0625 61.320312 L 338.792969 420.304688 L 8.914062 284.054688 Z M 157.183594 -74.929688 " clip-rule="nonzero"/></clipPath><clipPath id="99fd6186f9"><path d="M 157.183594 -74.929688 L 487.0625 61.320312 L 338.792969 420.304688 L 8.914062 284.054688 Z M 157.183594 -74.929688 " clip-rule="nonzero"/></clipPath></defs><g clip-path="url(#48590fcf2d)"><path fill="#ffffff" d="M 0.046875 0 L 449.933594 0 L 449.933594 299.921875 L 0.046875 299.921875 Z M 0.046875 0 " fill-opacity="1" fill-rule="nonzero"/><path fill="#ffffff" d="M 0.046875 0 L 449.933594 0 L 449.933594 299.921875 L 0.046875 299.921875 Z M 0.046875 0 " fill-opacity="1" fill-rule="nonzero"/></g><g clip-path="url(#4e3de4e4a7)"><g clip-path="url(#0dc6b4c17a)"><g clip-path="url(#0ee3477a76)"><path fill="#0b1d3a" d="M 309.160156 48.058594 L 76.804688 128.253906 L 266.40625 83.5625 Z M 309.160156 48.058594 " fill-opacity="1" fill-rule="nonzero"/></g></g></g><g clip-path="url(#6b9538cc65)"><g clip-path="url(#dc8db7c89d)"><g clip-path="url(#fa7d033df2)"><path fill="#0b1d3a" d="M 303.835938 201.902344 L 8.996094 283.792969 L 348.707031 211.761719 Z M 303.835938 201.902344 " fill-opacity="1" fill-rule="nonzero"/></g></g></g><g clip-path="url(#e31cdf251e)"><g clip-path="url(#b7d37ad405)"><g clip-path="url(#c1034d8023)"><path fill="#0b1d3a" d="M 259.109375 103.964844 L 124.445312 146.734375 L 257.226562 119.371094 Z M 259.109375 103.964844 " fill-opacity="1" fill-rule="nonzero"/></g></g></g><g clip-path="url(#510796b689)"><g clip-path="url(#a97493ac69)"><g clip-path="url(#54b9bac4b9)"><path fill="#0b1d3a" d="M 279.8125 188.214844 L 107.796875 226.8125 L 272.703125 174.542969 Z M 279.8125 188.214844 " fill-opacity="1" fill-rule="nonzero"/></g></g></g><g clip-path="url(#a9422ca9ed)"><g clip-path="url(#b09ba6b788)"><g clip-path="url(#197cd904f2)"><path fill="#0b1d3a" d="M 260.527344 160.003906 L 46.472656 203.894531 L 257.023438 138.308594 Z M 260.527344 160.003906 " fill-opacity="1" fill-rule="nonzero"/></g></g></g><g clip-path="url(#3ec7ccb862)"><g clip-path="url(#42894e7394)"><g clip-path="url(#9c6ef2bae5)"><path fill="#ffffff" d="M 439.242188 157.230469 C 460.144531 106.625 436.0625 48.65625 385.457031 27.753906 C 334.855469 6.855469 276.894531 30.9375 255.992188 81.542969 C 235.089844 132.144531 259.164062 190.105469 309.769531 211.007812 C 360.375 231.910156 418.339844 207.832031 439.242188 157.230469 " fill-opacity="1" fill-rule="nonzero"/></g></g></g><g clip-path="url(#0650df0b3a)"><g clip-path="url(#99b76ac7ef)"><g clip-path="url(#99fd6186f9)"><path fill="#0b1d3a" d="M 368.25 213.78125 C 359.550781 214.320312 354.785156 213.347656 352.222656 212.285156 C 356.804688 209.757812 366.445312 204.304688 371.550781 200.402344 C 375.683594 199.75 400.410156 195.355469 417.117188 181.101562 L 420.617188 182.710938 C 406.976562 198.378906 388.550781 209.3125 368.25 213.78125 Z M 307.605469 207.355469 C 310.605469 207.582031 313.722656 207.503906 316.789062 206.902344 C 323.457031 208.726562 338.617188 212.707031 346.632812 213.523438 C 347.378906 214.339844 348.527344 215.226562 350.308594 215.996094 C 341.667969 216.234375 332.859375 215.320312 324.070312 213.105469 C 318.324219 211.660156 312.820312 209.726562 307.605469 207.355469 Z M 260.136719 160.300781 C 260.328125 156.226562 261.128906 150.730469 261.988281 146.035156 C 265.894531 147.636719 274.503906 150.769531 282.148438 150.714844 C 282.148438 150.714844 288.585938 123.417969 291.910156 115.320312 C 297.839844 114.636719 319.148438 112.140625 332.414062 110.160156 C 336.792969 116.960938 355.238281 134.136719 361.699219 138.261719 C 359.828125 144.285156 353.46875 164.789062 349.359375 177.683594 C 345.632812 179.289062 334.847656 183.050781 315.210938 183.277344 C 302.765625 176.195312 282.660156 147.074219 282.464844 146.800781 L 282.148438 150.714844 L 279.496094 150.210938 C 280.273438 151.308594 298.371094 177.105469 311.496094 185.808594 C 311.773438 190.101562 312.378906 198.777344 312.964844 203.269531 C 306.046875 203.78125 298.992188 201.777344 294.546875 200.136719 C 279.480469 190.214844 267.644531 176.324219 260.136719 160.300781 Z M 255.351562 105.503906 C 254.648438 111.265625 252.972656 129.738281 258.507812 142.386719 C 258.070312 144.539062 257.363281 148.289062 256.800781 152.289062 C 250.972656 136.261719 249.3125 118.550781 252.800781 100.792969 C 253.621094 102.742188 254.542969 104.320312 255.351562 105.503906 Z M 397.167969 36.421875 C 396.933594 36.722656 396.703125 37.03125 396.46875 37.335938 C 377.808594 27.863281 353.066406 25.332031 351.9375 25.222656 L 351.929688 25.316406 L 346.75 22.753906 C 354.808594 22.675781 363.015625 23.613281 371.195312 25.667969 C 380.570312 28.027344 389.277344 31.695312 397.167969 36.421875 Z M 443.011719 132.492188 C 444.335938 118.238281 442.96875 105.15625 441.335938 95.820312 C 444.339844 107.707031 445.117188 120.296875 443.308594 132.984375 C 443.199219 132.8125 443.109375 132.652344 443.011719 132.492188 Z M 427.460938 143.171875 C 419.746094 135.957031 406.28125 126.164062 401.0625 122.4375 C 400.539062 117.132812 397.808594 89.789062 396.125 81.753906 C 402.425781 76.90625 411.371094 69.199219 415.855469 65.289062 C 420.273438 69.125 434.101562 82.878906 434.101562 82.878906 C 434.175781 83.113281 441.574219 106.5625 438.796875 133.34375 C 438.796875 133.34375 430.519531 141.199219 427.460938 143.171875 Z M 355.488281 68.601562 C 349.640625 57.023438 339.855469 44.609375 335.730469 39.585938 C 339.386719 36.34375 351.539062 29.324219 351.539062 29.324219 C 351.820312 29.34375 380.355469 32.253906 398.460938 43.132812 C 403.464844 47.746094 411.28125 55.671875 413.433594 61.933594 C 407.277344 67.3125 399.070312 74.261719 393.679688 78.460938 C 386.910156 75.148438 363.839844 68.199219 355.488281 68.601562 Z M 257.457031 101.03125 C 256.351562 98.929688 255.253906 96.054688 254.835938 92.441406 C 261.019531 71.117188 274.035156 53.449219 290.882812 41.238281 L 292.898438 47.757812 C 288.324219 53.859375 278.117188 68.921875 273.097656 87.820312 C 269.257812 90.28125 261.910156 95.398438 257.457031 101.03125 Z M 332.265625 106.023438 C 318.96875 108.027344 296.886719 110.605469 291.230469 111.257812 C 287.644531 107.011719 279.546875 97.082031 276.59375 90.773438 C 281.578125 70.195312 293.597656 53.570312 297.257812 48.847656 C 304.613281 46.289062 321.539062 40.933594 332.210938 41.792969 C 336.0625 46.472656 346.363281 59.449219 352.097656 71.015625 C 348.1875 77.691406 335.59375 99.257812 332.265625 106.023438 Z M 372.753906 196.007812 C 368.527344 193.617188 358.773438 187.617188 352.945312 180 C 357.390625 166.078125 364.820312 142.109375 366.011719 138.242188 C 372.820312 135.886719 391.136719 129.414062 398.277344 125.507812 C 405.339844 130.539062 419.003906 140.675781 425.640625 147.089844 C 425.148438 157.382812 420.78125 168.410156 417.84375 174.789062 C 403.914062 189.089844 380.230469 194.578125 372.753906 196.007812 Z M 371.996094 22.511719 C 323.203125 10.242188 273.601562 36.328125 255.136719 81.644531 L 255.089844 81.632812 C 255.058594 81.746094 255.039062 81.855469 255.007812 81.96875 C 253.320312 86.164062 251.886719 90.523438 250.753906 95.035156 C 237.320312 148.453125 269.851562 202.84375 323.277344 216.277344 C 376.699219 229.703125 431.082031 197.171875 444.519531 143.75 C 457.945312 90.324219 425.410156 35.9375 371.996094 22.511719 " fill-opacity="1" fill-rule="nonzero"/></g></g></g></svg>