<svg xmlns="http://www.w3.org/2000/svg" xmlns:xlink="http://www.w3.org/1999/xlink" width="600" zoomAndPan="magnify" viewBox="0 0 375 307.91998" height="400" preserveAspectRatio="xMidYMid meet" version="1.0"><defs><clipPath id="ef440ceecc"><path d="M 0.046875 0 L 374.949219 0 L 374.949219 299.921875 L 0.046875 299.921875 Z M 0.046875 0 " clip-rule="nonzero"/></clipPath><clipPath id="6194ba0c16"><path d="M 222 21.296875 L 374.949219 21.296875 L 374.949219 249.675781 L 222 249.675781 Z M 222 21.296875 " clip-rule="nonzero"/></clipPath><clipPath id="b2acf0c269"><path d="M 225 25 L 374.949219 25 L 374.949219 246 L 225 246 Z M 225 25 " clip-rule="nonzero"/></clipPath><clipPath id="b46fa60c4a"><path d="M 34 112 L 168 112 L 168 162 L 34 162 Z M 34 112 " clip-rule="nonzero"/></clipPath><clipPath id="d3ba8e492b"><path d="M 110.808594 35.9375 L 248.09375 208.546875 L 137.789062 296.28125 L 0.503906 123.667969 Z M 110.808594 35.9375 " clip-rule="nonzero"/></clipPath><clipPath id="efd1c96949"><path d="M 110.808594 35.9375 L 248.09375 208.546875 L 137.789062 296.28125 L 0.503906 123.667969 Z M 110.808594 35.9375 " clip-rule="nonzero"/></clipPath><clipPath id="b229e424b0"><path d="M 5 119 L 243 119 L 243 219 L 5 219 Z M 5 119 " clip-rule="nonzero"/></clipPath><clipPath id="0cc296af46"><path d="M 110.808594 35.9375 L 248.09375 208.546875 L 137.789062 296.28125 L 0.503906 123.667969 Z M 110.808594 35.9375 " clip-rule="nonzero"/></clipPath><clipPath id="5f8cc3ba6c"><path d="M 110.808594 35.9375 L 248.09375 208.546875 L 137.789062 296.28125 L 0.503906 123.667969 Z M 110.808594 35.9375 " clip-rule="nonzero"/></clipPath><clipPath id="fc267327a7"><path d="M 49 185 L 140 185 L 140 231 L 49 231 Z M 49 185 " clip-rule="nonzero"/></clipPath><clipPath id="1b05224958"><path d="M 110.808594 35.9375 L 248.09375 208.546875 L 137.789062 296.28125 L 0.503906 123.667969 Z M 110.808594 35.9375 " clip-rule="nonzero"/></clipPath><clipPath id="f65bd21d5e"><path d="M 110.808594 35.9375 L 248.09375 208.546875 L 137.789062 296.28125 L 0.503906 123.667969 Z M 110.808594 35.9375 " clip-rule="nonzero"/></clipPath><clipPath id="83501db15b"><path d="M 121 172 L 221 172 L 221 187 L 121 187 Z M 121 172 " clip-rule="nonzero"/></clipPath><clipPath id="1937ef9f31"><path d="M 110.808594 35.9375 L 248.09375 208.546875 L 137.789062 296.28125 L 0.503906 123.667969 Z M 110.808594 35.9375 " clip-rule="nonzero"/></clipPath><clipPath id="8cb9e1c41a"><path d="M 110.808594 35.9375 L 248.09375 208.546875 L 137.789062 296.28125 L 0.503906 123.667969 Z M 110.808594 35.9375 " clip-rule="nonzero"/></clipPath><clipPath id="94fe5561b0"><path d="M 68 115 L 145 115 L 145 143 L 68 143 Z M 68 115 " clip-rule="nonzero"/></clipPath><clipPath id="c73d367a1d"><path d="M 110.808594 35.9375 L 248.09375 208.546875 L 137.789062 296.28125 L 0.503906 123.667969 Z M 110.808594 35.9375 " clip-rule="nonzero"/></clipPath><clipPath id="66c10d9475"><path d="M 110.808594 35.9375 L 248.09375 208.546875 L 137.789062 296.28125 L 0.503906 123.667969 Z M 110.808594 35.9375 " clip-rule="nonzero"/></clipPath><clipPath id="b4d6489747"><rect x="0" width="375" y="0" height="300"/></clipPath></defs><g clip-path="url(#ef440ceecc)"><path fill="#ffffff" d="M 0.046875 0 L 449.933594 0 L 449.933594 299.921875 L 0.046875 299.921875 Z M 0.046875 0 " fill-opacity="1" fill-rule="nonzero"/><path fill="#ffffff" d="M 0.046875 0 L 449.933594 0 L 449.933594 299.921875 L 0.046875 299.921875 Z M 0.046875 0 " fill-opacity="1" fill-rule="nonzero"/><g transform="matrix(1, 0, 0, 1, 0.000000000000000007, 0)"><g clip-path="url(#b4d6489747)"><g clip-path="url(#6194ba0c16)"><path fill="#ffffff" d="M 449.625 135.441406 C 449.246094 198.847656 398.207031 249.511719 334.800781 249.210938 C 272.148438 248.910156 221.710938 197.492188 222.011719 134.234375 C 222.3125 71.734375 273.882812 21.296875 337.136719 21.597656 C 398.882812 21.898438 449.925781 73.621094 449.625 135.441406 Z M 449.625 135.441406 " fill-opacity="1" fill-rule="nonzero"/></g><g clip-path="url(#b2acf0c269)"><path fill="#c9a14a" d="M 442.460938 162.507812 C 442.085938 169.371094 438.691406 175.777344 435.828125 182.035156 C 427.457031 200.054688 415.09375 214.679688 398.882812 225.988281 C 396.925781 227.347656 396.09375 227.875 392.402344 229.683594 C 399.261719 220.183594 404.914062 208.195312 407.554688 197.492188 C 413.738281 172.160156 413.210938 146.828125 406.800781 121.644531 C 405.972656 118.480469 406.273438 117.800781 409.664062 118.402344 C 433.792969 122.699219 443.667969 142.453125 442.460938 162.507812 Z M 402.957031 120.664062 C 402.351562 118.402344 401.296875 117.726562 399.035156 118.027344 C 394.058594 118.703125 389.308594 119.910156 384.859375 122.097656 C 374.304688 127.300781 366.992188 135.894531 360.585938 145.46875 C 347.238281 165.375 334.574219 185.730469 320.175781 204.953125 C 314.066406 213.097656 306.601562 219.882812 297.253906 224.40625 C 292.203125 226.894531 286.925781 229.003906 280.667969 230.890625 C 282.777344 232.097656 284.136719 232.925781 285.492188 233.679688 C 310.148438 245.96875 335.855469 248.832031 362.621094 242.5 C 374.15625 239.785156 384.710938 235.488281 391.570312 224.859375 C 394.511719 220.257812 397.300781 215.660156 399.414062 210.609375 C 404.539062 198.320312 407.027344 185.351562 407.855469 172.082031 C 409.136719 154.667969 407.554688 137.476562 402.957031 120.664062 Z M 439.824219 98.121094 C 437.9375 92.316406 433.941406 89.828125 428.816406 88.546875 C 417.957031 85.832031 406.875 85.605469 395.71875 86.664062 C 393.304688 86.890625 393.53125 87.71875 394.359375 89.375 C 397.753906 96.238281 400.84375 103.25 403.183594 110.5625 C 404.160156 113.578125 405.667969 114.632812 408.835938 115.085938 C 423.011719 117.046875 434.019531 123.984375 440.804688 136.949219 C 442.613281 140.265625 443.441406 144.035156 445.402344 148.257812 C 447.363281 130.464844 445.023438 114.179688 439.824219 98.121094 Z M 400.015625 111.617188 C 397.453125 104.304688 394.359375 97.140625 391.042969 90.054688 C 390.0625 87.945312 388.78125 87.265625 386.445312 87.644531 C 347.917969 93.523438 311.277344 105.585938 275.992188 121.871094 C 258.050781 130.164062 242.367188 141.625 230.378906 157.683594 C 229.023438 159.492188 228.34375 161.152344 229.023438 163.488281 C 236.335938 189.574219 250.8125 210.535156 273.128906 226.140625 C 274.410156 227.046875 275.691406 227.648438 277.351562 227.496094 C 288.054688 225.6875 297.632812 221.464844 306.074219 214.757812 C 315.953125 206.839844 322.660156 196.210938 329.671875 185.878906 C 339.777344 171.101562 349.5 156.023438 359.527344 141.171875 C 369.027344 127.222656 380.941406 116.59375 398.734375 114.710938 C 401.222656 114.40625 400.46875 113.050781 400.015625 111.617188 Z M 401.070312 46.554688 C 401.296875 57.410156 398.660156 61.332031 389.007812 65.402344 C 387.5 66.003906 385.992188 66.53125 384.484375 66.984375 C 382.675781 67.511719 382.148438 68.117188 383.351562 70 C 385.617188 73.394531 387.726562 76.863281 389.609375 80.480469 C 390.816406 82.742188 392.097656 83.570312 394.8125 83.34375 C 408.007812 82.214844 421.199219 82.289062 434.847656 87.039062 C 426.703125 70.300781 415.546875 57.335938 401.070312 46.554688 Z M 386.371094 81.386719 C 384.105469 77.839844 381.921875 74.222656 379.808594 70.605469 C 378.828125 68.945312 377.625 68.644531 375.8125 68.871094 C 362.46875 70.300781 349.199219 68.945312 336.007812 67.136719 C 318.890625 64.722656 301.777344 61.859375 284.4375 63.066406 C 267.851562 64.121094 253.226562 69.925781 241.011719 81.308594 C 238.976562 83.195312 237.390625 85.304688 236.1875 87.792969 C 229.023438 102.871094 225.40625 118.78125 225.480469 135.441406 C 225.480469 141.019531 225.78125 146.601562 226.6875 152.027344 C 226.835938 152.859375 226.609375 154.214844 227.816406 154.515625 C 228.722656 154.667969 229.175781 153.613281 229.703125 152.933594 C 240.710938 139.363281 254.203125 128.808594 269.8125 121.269531 C 294.390625 109.429688 319.796875 99.554688 346.335938 92.695312 C 359 89.375 371.816406 86.8125 384.710938 84.703125 C 387.199219 84.25 387.800781 83.570312 386.371094 81.386719 Z M 390.515625 39.617188 C 371.0625 28.609375 350.179688 23.859375 327.863281 25.292969 C 326.808594 25.367188 325.601562 25.140625 324.773438 26.199219 C 328.164062 27.175781 331.710938 27.929688 334.949219 29.136719 C 351.234375 35.167969 364.503906 45.421875 375.4375 58.765625 C 380.941406 65.476562 380.941406 65.550781 388.933594 61.707031 C 389.386719 61.480469 389.835938 61.253906 390.289062 61.027344 C 394.285156 58.765625 397.90625 56.054688 397.828125 50.851562 C 397.753906 45.648438 394.964844 42.105469 390.515625 39.617188 Z M 374.003906 62.3125 C 364.882812 50.625 353.800781 41.277344 340.304688 35.019531 C 324.847656 27.929688 309.089844 25.894531 293.109375 33.511719 C 288.207031 35.847656 283.230469 38.109375 278.632812 40.972656 C 265.589844 49.117188 254.28125 58.992188 245.835938 72.035156 C 245.460938 72.714844 245.460938 72.867188 245.082031 73.542969 C 246.515625 72.339844 248.324219 71.207031 248.324219 71.207031 C 261.140625 62.839844 275.390625 59.597656 290.542969 59.445312 C 305.320312 59.21875 319.871094 61.480469 334.421875 63.515625 C 347.015625 65.328125 359.679688 66.835938 372.421875 65.929688 C 373.476562 65.855469 374.910156 66.003906 375.363281 64.875 C 375.738281 63.894531 374.609375 63.066406 374.003906 62.3125 Z M 374.003906 62.3125 " fill-opacity="1" fill-rule="nonzero"/></g><g clip-path="url(#b46fa60c4a)"><g clip-path="url(#d3ba8e492b)"><g clip-path="url(#efd1c96949)"><path fill="#ffffff" d="M 34.492188 112.664062 C 34.515625 112.667969 34.535156 112.695312 34.53125 112.71875 C 34.53125 112.742188 34.507812 112.757812 34.480469 112.757812 C 34.207031 112.738281 34.402344 112.894531 34.683594 113.132812 C 35.089844 113.476562 35.75 113.925781 36.066406 114.167969 L 38.785156 116.070312 C 39.929688 116.804688 41.09375 117.511719 42.265625 118.203125 C 44.03125 119.234375 45.816406 120.226562 47.605469 121.207031 C 52.066406 123.675781 56.601562 126.015625 61.195312 128.261719 C 65.773438 130.5 70.398438 132.644531 75.078125 134.632812 C 89.308594 140.875 104.085938 146.234375 119.199219 150.0625 C 134.230469 153.875 149.605469 156.167969 165.160156 156.148438 C 166.703125 156.164062 167.949219 157.429688 167.929688 158.976562 C 167.914062 160.519531 166.648438 161.761719 165.101562 161.75 C 149.125 161.394531 133.371094 158.738281 118.039062 154.417969 C 102.820312 150.121094 88.027344 144.199219 73.796875 137.4375 C 69.179688 135.1875 64.613281 132.8125 60.125 130.285156 C 55.652344 127.761719 51.257812 125.089844 46.9375 122.324219 C 45.214844 121.210938 43.5 120.085938 41.804688 118.917969 C 40.679688 118.140625 39.566406 117.34375 38.472656 116.519531 L 35.886719 114.390625 C 35.535156 114.074219 34.734375 113.4375 34.410156 113.058594 C 34.179688 112.785156 34.160156 112.617188 34.492188 112.664062 Z M 34.492188 112.664062 " fill-opacity="1" fill-rule="evenodd"/></g></g></g><g clip-path="url(#b229e424b0)"><g clip-path="url(#0cc296af46)"><g clip-path="url(#5f8cc3ba6c)"><path fill="#ffffff" d="M 5.71875 119.769531 C 5.703125 119.789062 5.675781 119.789062 5.65625 119.769531 C 5.636719 119.753906 5.636719 119.726562 5.652344 119.707031 C 5.863281 119.472656 6.074219 119.507812 6.285156 119.691406 C 6.75 120.09375 7.222656 121.320312 7.691406 121.828125 L 12.09375 126.585938 C 14.390625 128.964844 16.792969 131.234375 19.253906 133.449219 C 21.714844 135.660156 24.234375 137.804688 26.777344 139.910156 C 33.839844 145.804688 41.230469 151.21875 48.839844 156.324219 C 56.445312 161.421875 64.269531 166.203125 72.246094 170.75 C 81.851562 176.285156 91.710938 181.378906 101.761719 186.0625 C 111.808594 190.746094 122.042969 195.015625 132.441406 198.839844 C 149.804688 205.238281 167.351562 210.21875 185.09375 212.324219 C 202.722656 214.414062 220.542969 213.644531 238.578125 208.53125 C 240.066406 208.121094 241.613281 208.996094 242.027344 210.484375 C 242.4375 211.972656 241.566406 213.519531 240.074219 213.933594 C 221.277344 219.011719 202.757812 219.617188 184.480469 217.214844 C 166.414062 214.835938 148.589844 209.527344 130.96875 202.761719 C 120.523438 198.742188 110.234375 194.300781 100.175781 189.398438 C 90.113281 184.5 80.28125 179.144531 70.703125 173.371094 C 62.804688 168.5625 55.050781 163.546875 47.554688 158.171875 C 40.0625 152.789062 32.832031 147.0625 25.933594 140.890625 C 23.464844 138.671875 21.019531 136.425781 18.632812 134.109375 C 16.253906 131.792969 13.933594 129.40625 11.726562 126.925781 L 7.519531 121.980469 C 7.140625 121.53125 6.777344 120.558594 6.398438 120.015625 C 6.179688 119.695312 5.957031 119.519531 5.71875 119.769531 Z M 5.71875 119.769531 " fill-opacity="1" fill-rule="evenodd"/></g></g></g><g clip-path="url(#fc267327a7)"><g clip-path="url(#1b05224958)"><g clip-path="url(#f65bd21d5e)"><path fill="#ffffff" d="M 49.378906 185.910156 L 49.332031 185.832031 C 49.359375 185.824219 49.382812 185.835938 49.386719 185.859375 C 49.398438 185.878906 49.394531 185.894531 49.378906 185.910156 Z M 49.378906 185.910156 L 49.421875 185.972656 L 49.363281 185.921875 C 49.367188 185.917969 49.371094 185.914062 49.378906 185.910156 Z M 49.421875 185.972656 L 50.074219 186.628906 L 52.042969 188.441406 C 53.019531 189.289062 54.015625 190.105469 55.035156 190.90625 C 56.050781 191.707031 57.078125 192.488281 58.121094 193.25 C 60.992188 195.371094 63.953125 197.34375 66.980469 199.234375 C 69.996094 201.128906 73.066406 202.925781 76.195312 204.628906 C 85.589844 209.933594 95.402344 214.421875 105.554688 217.875 C 115.640625 221.304688 126.050781 223.6875 136.757812 224.65625 C 138.292969 224.820312 139.410156 226.203125 139.246094 227.734375 C 139.078125 229.273438 137.699219 230.390625 136.164062 230.222656 C 125.085938 228.847656 114.34375 226.074219 104.019531 222.117188 C 93.78125 218.191406 83.972656 213.136719 74.601562 207.304688 C 71.5625 205.34375 68.5625 203.320312 65.664062 201.152344 C 62.765625 198.984375 59.976562 196.695312 57.28125 194.28125 C 56.3125 193.40625 55.355469 192.519531 54.417969 191.609375 C 53.484375 190.695312 52.574219 189.765625 51.683594 188.8125 L 49.917969 186.769531 Z M 49.421875 185.972656 " fill-opacity="1" fill-rule="evenodd"/></g></g></g><g clip-path="url(#83501db15b)"><g clip-path="url(#1937ef9f31)"><g clip-path="url(#8cb9e1c41a)"><path fill="#ffffff" d="M 121.40625 173.535156 C 121.421875 173.515625 121.449219 173.507812 121.472656 173.527344 C 121.492188 173.542969 121.496094 173.566406 121.484375 173.589844 L 126.710938 175.75 C 129.90625 176.808594 133.191406 177.632812 136.507812 178.34375 C 139.824219 179.046875 143.164062 179.625 146.480469 180.117188 C 151.261719 180.886719 156.058594 181.4375 160.847656 181.804688 C 168.066406 182.371094 175.261719 182.464844 182.386719 181.875 C 194.105469 180.898438 205.605469 178.113281 216.570312 172.808594 C 217.972656 172.152344 219.644531 172.765625 220.292969 174.167969 C 220.9375 175.574219 220.328125 177.238281 218.925781 177.886719 C 207.210938 183.085938 195.027344 185.667969 182.667969 186.242188 C 175.3125 186.585938 167.890625 186.253906 160.484375 185.296875 C 155.632812 184.671875 150.800781 183.769531 145.988281 182.691406 C 142.015625 181.75 138.015625 180.707031 134.109375 179.398438 C 131.496094 178.527344 128.9375 177.542969 126.449219 176.429688 C 126.304688 176.363281 123.8125 175.039062 122.390625 174.222656 C 121.773438 173.867188 121.382812 173.570312 121.40625 173.535156 Z M 121.40625 173.535156 " fill-opacity="1" fill-rule="evenodd"/></g></g></g><g clip-path="url(#94fe5561b0)"><g clip-path="url(#c73d367a1d)"><g clip-path="url(#66c10d9475)"><path fill="#ffffff" d="M 68.601562 115.285156 C 68.613281 115.261719 68.644531 115.257812 68.664062 115.273438 C 68.679688 115.285156 68.6875 115.316406 68.675781 115.332031 C 68.609375 115.457031 68.707031 115.515625 68.855469 115.570312 C 69.152344 115.683594 69.644531 115.742188 69.890625 115.890625 L 72.292969 117.335938 C 74.339844 118.550781 76.429688 119.648438 78.558594 120.714844 C 80.679688 121.773438 82.828125 122.777344 84.992188 123.746094 C 88.566406 125.40625 92.25 126.886719 95.992188 128.273438 C 101.53125 130.324219 107.207031 132.097656 112.984375 133.480469 C 122.597656 135.773438 132.449219 137.027344 142.148438 136.972656 C 143.695312 136.996094 144.929688 138.273438 144.90625 139.816406 C 144.882812 141.359375 143.609375 142.59375 142.0625 142.574219 C 131.96875 142.203125 121.765625 140.523438 111.878906 137.667969 C 106.007812 135.972656 100.246094 133.910156 94.703125 131.421875 C 90.984375 129.75 87.386719 127.882812 83.890625 125.890625 C 81.816406 124.667969 79.765625 123.429688 77.757812 122.109375 C 75.742188 120.785156 73.792969 119.394531 71.898438 117.910156 L 69.714844 116.136719 C 69.464844 115.9375 68.867188 115.808594 68.65625 115.621094 C 68.542969 115.527344 68.5 115.417969 68.601562 115.285156 Z M 68.601562 115.285156 " fill-opacity="1" fill-rule="evenodd"/></g></g></g></g></g></g></svg>