<svg xmlns="http://www.w3.org/2000/svg" xmlns:xlink="http://www.w3.org/1999/xlink" width="600" zoomAndPan="magnify" viewBox="0 0 375 307.91998" height="400" preserveAspectRatio="xMidYMid meet" version="1.0"><defs><clipPath id="e7210747cc"><path d="M 0.046875 0 L 374.949219 0 L 374.949219 299.921875 L 0.046875 299.921875 Z M 0.046875 0 " clip-rule="nonzero"/></clipPath><clipPath id="5a242eb53a"><path d="M 62 40 L 285 40 L 285 137 L 62 137 Z M 62 40 " clip-rule="nonzero"/></clipPath><clipPath id="0d2152967c"><path d="M 126.167969 -69.460938 L 460.335938 40.0625 L 341.238281 403.445312 L 7.070312 293.921875 Z M 126.167969 -69.460938 " clip-rule="nonzero"/></clipPath><clipPath id="025ae52397"><path d="M 126.167969 -69.460938 L 460.335938 40.0625 L 341.238281 403.445312 L 7.070312 293.921875 Z M 126.167969 -69.460938 " clip-rule="nonzero"/></clipPath><clipPath id="eb40c01241"><path d="M 7 191 L 336 191 L 336 295 L 7 295 Z M 7 191 " clip-rule="nonzero"/></clipPath><clipPath id="71aa0e4af9"><path d="M 126.167969 -69.460938 L 460.335938 40.0625 L 341.238281 403.445312 L 7.070312 293.921875 Z M 126.167969 -69.460938 " clip-rule="nonzero"/></clipPath><clipPath id="be3790e1ec"><path d="M 126.167969 -69.460938 L 460.335938 40.0625 L 341.238281 403.445312 L 7.070312 293.921875 Z M 126.167969 -69.460938 " clip-rule="nonzero"/></clipPath><clipPath id="b57d9ee806"><path d="M 110 98 L 240 98 L 240 151 L 110 151 Z M 110 98 " clip-rule="nonzero"/></clipPath><clipPath id="51c65072e5"><path d="M 126.167969 -69.460938 L 460.335938 40.0625 L 341.238281 403.445312 L 7.070312 293.921875 Z M 126.167969 -69.460938 " clip-rule="nonzero"/></clipPath><clipPath id="e66470bc59"><path d="M 126.167969 -69.460938 L 460.335938 40.0625 L 341.238281 403.445312 L 7.070312 293.921875 Z M 126.167969 -69.460938 " clip-rule="nonzero"/></clipPath><clipPath id="b8cbba5093"><path d="M 99 167 L 267 167 L 267 231 L 99 231 Z M 99 167 " clip-rule="nonzero"/></clipPath><clipPath id="8ae599acba"><path d="M 126.167969 -69.460938 L 460.335938 40.0625 L 341.238281 403.445312 L 7.070312 293.921875 Z M 126.167969 -69.460938 " clip-rule="nonzero"/></clipPath><clipPath id="a44c801d82"><path d="M 126.167969 -69.460938 L 460.335938 40.0625 L 341.238281 403.445312 L 7.070312 293.921875 Z M 126.167969 -69.460938 " clip-rule="nonzero"/></clipPath><clipPath id="801027cb4a"><path d="M 37 132 L 246 132 L 246 213 L 37 213 Z M 37 132 " clip-rule="nonzero"/></clipPath><clipPath id="684a32331c"><path d="M 126.167969 -69.460938 L 460.335938 40.0625 L 341.238281 403.445312 L 7.070312 293.921875 Z M 126.167969 -69.460938 " clip-rule="nonzero"/></clipPath><clipPath id="b70da463bf"><path d="M 126.167969 -69.460938 L 460.335938 40.0625 L 341.238281 403.445312 L 7.070312 293.921875 Z M 126.167969 -69.460938 " clip-rule="nonzero"/></clipPath><clipPath id="b7b670fbcb"><path d="M 229 9 L 374.949219 9 L 374.949219 206 L 229 206 Z M 229 9 " clip-rule="nonzero"/></clipPath><clipPath id="83471064ee"><path d="M 126.167969 -69.460938 L 460.335938 40.0625 L 341.238281 403.445312 L 7.070312 293.921875 Z M 126.167969 -69.460938 " clip-rule="nonzero"/></clipPath><clipPath id="721c4890d4"><path d="M 126.167969 -69.460938 L 460.335938 40.0625 L 341.238281 403.445312 L 7.070312 293.921875 Z M 126.167969 -69.460938 " clip-rule="nonzero"/></clipPath></defs><g clip-path="url(#e7210747cc)"><path fill="#ffffff" d="M 0.046875 0 L 449.933594 0 L 449.933594 299.921875 L 0.046875 299.921875 Z M 0.046875 0 " fill-opacity="1" fill-rule="nonzero"/><path fill="#ffffff" d="M 0.046875 0 L 449.933594 0 L 449.933594 299.921875 L 0.046875 299.921875 Z M 0.046875 0 " fill-opacity="1" fill-rule="nonzero"/></g><g clip-path="url(#5a242eb53a)"><g clip-path="url(#0d2152967c)"><g clip-path="url(#025ae52397)"><path fill="#c9a14a" d="M 284.617188 40.199219 L 62.164062 136.175781 L 245.21875 78.253906 Z M 284.617188 40.199219 " fill-opacity="1" fill-rule="nonzero"/></g></g></g><g clip-path="url(#eb40c01241)"><g clip-path="url(#71aa0e4af9)"><g clip-path="url(#be3790e1ec)"><path fill="#c9a14a" d="M 290.742188 191.800781 L 7 294.054688 L 335.570312 198.179688 Z M 290.742188 191.800781 " fill-opacity="1" fill-rule="nonzero"/></g></g></g><g clip-path="url(#b57d9ee806)"><g clip-path="url(#51c65072e5)"><g clip-path="url(#e66470bc59)"><path fill="#c9a14a" d="M 239.554688 98.84375 L 110.351562 150.820312 L 238.839844 114.125 Z M 239.554688 98.84375 " fill-opacity="1" fill-rule="nonzero"/></g></g></g><g clip-path="url(#b8cbba5093)"><g clip-path="url(#8ae599acba)"><g clip-path="url(#a44c801d82)"><path fill="#c9a14a" d="M 266.121094 180.121094 L 99.902344 230.757812 L 258.121094 167.210938 Z M 266.121094 180.121094 " fill-opacity="1" fill-rule="nonzero"/></g></g></g><g clip-path="url(#801027cb4a)"><g clip-path="url(#684a32331c)"><g clip-path="url(#b70da463bf)"><path fill="#c9a14a" d="M 245.082031 153.816406 L 37.9375 212.761719 L 240.039062 132.753906 Z M 245.082031 153.816406 " fill-opacity="1" fill-rule="nonzero"/></g></g></g><g clip-path="url(#b7b670fbcb)"><g clip-path="url(#83471064ee)"><g clip-path="url(#721c4890d4)"><path fill="#ffffff" d="M 420.527344 137.894531 C 437.335938 86.617188 409.386719 31.417969 358.109375 14.613281 C 306.828125 -2.195312 251.640625 25.753906 234.832031 77.035156 C 218.027344 128.316406 245.964844 183.507812 297.246094 200.3125 C 348.527344 217.121094 403.722656 189.175781 420.527344 137.894531 " fill-opacity="1" fill-rule="nonzero"/><path fill="#c9a14a" d="M 354.929688 198.722656 C 346.417969 199.890625 341.660156 199.289062 339.0625 198.433594 C 343.382812 195.609375 352.457031 189.539062 357.183594 185.324219 C 361.199219 184.378906 385.175781 178.238281 400.546875 162.996094 L 404.105469 164.316406 C 391.851562 180.722656 374.550781 192.828125 354.929688 198.722656 Z M 294.847656 196.882812 C 297.8125 196.882812 300.875 196.574219 303.84375 195.757812 C 310.527344 197.058594 325.726562 199.851562 333.664062 200.0625 C 334.457031 200.8125 335.648438 201.597656 337.457031 202.222656 C 328.980469 203.097656 320.257812 202.847656 311.453125 201.316406 C 305.699219 200.320312 300.152344 198.828125 294.847656 196.882812 Z M 244.71875 154.136719 C 244.605469 150.117188 244.988281 144.660156 245.484375 139.980469 C 249.445312 141.269531 258.140625 143.707031 265.644531 143.09375 C 265.644531 143.09375 269.960938 115.789062 272.628906 107.582031 C 278.40625 106.472656 299.167969 102.445312 312.058594 99.523438 C 316.863281 105.882812 336.261719 121.402344 342.914062 124.980469 C 341.519531 131.039062 336.785156 151.65625 333.695312 164.636719 C 330.152344 166.492188 319.828125 170.984375 300.546875 172.65625 C 287.792969 166.613281 265.878906 139.476562 265.671875 139.222656 L 265.644531 143.09375 L 263.003906 142.792969 C 263.847656 143.8125 283.539062 167.832031 297.082031 175.417969 C 297.671875 179.617188 298.90625 188.097656 299.816406 192.46875 C 293.054688 193.484375 285.972656 192.035156 281.480469 190.75 C 265.941406 182.109375 253.28125 169.332031 244.71875 154.136719 Z M 235.972656 100.632812 C 235.707031 106.347656 235.421875 124.628906 241.796875 136.652344 C 241.527344 138.800781 241.105469 142.535156 240.851562 146.511719 C 233.941406 131.1875 231 113.902344 233.117188 96.191406 C 234.066406 98.046875 235.089844 99.527344 235.972656 100.632812 Z M 370.257812 22.265625 C 370.050781 22.578125 369.84375 22.898438 369.640625 23.21875 C 350.597656 15.28125 326.09375 14.621094 324.972656 14.597656 L 324.972656 14.6875 L 319.695312 12.554688 C 327.609375 11.886719 335.746094 12.199219 343.9375 13.613281 C 353.324219 15.238281 362.152344 18.203125 370.257812 22.265625 Z M 422.40625 113.304688 C 422.65625 99.195312 420.34375 86.441406 418.050781 77.386719 C 421.882812 88.847656 423.578125 101.164062 422.734375 113.765625 C 422.617188 113.605469 422.515625 113.457031 422.40625 113.304688 Z M 407.910156 124.949219 C 399.796875 118.429688 385.839844 109.796875 380.433594 106.519531 C 379.527344 101.347656 374.824219 74.671875 372.578125 66.898438 C 378.414062 61.671875 386.636719 53.433594 390.757812 49.261719 C 395.378906 52.703125 409.988281 65.199219 409.988281 65.199219 C 410.078125 65.425781 419.078125 87.925781 418.328125 114.453125 C 418.328125 114.453125 410.769531 122.785156 407.910156 124.949219 Z M 331.667969 56.972656 C 325.066406 46.023438 314.53125 34.546875 310.105469 29.914062 C 313.460938 26.457031 324.886719 18.65625 324.886719 18.65625 C 325.164062 18.65625 353.425781 19.410156 372.023438 28.769531 C 377.28125 32.929688 385.550781 40.140625 388.128906 46.140625 C 382.472656 51.882812 374.921875 59.316406 369.933594 63.84375 C 363.035156 61.085938 339.847656 55.960938 331.667969 56.972656 Z M 237.710938 96.082031 C 236.46875 94.097656 235.179688 91.355469 234.5 87.832031 C 239.003906 66.417969 250.488281 48.09375 266.148438 34.847656 L 268.613281 41.105469 C 264.566406 47.4375 255.644531 63 252.109375 81.945312 C 248.515625 84.644531 241.671875 90.21875 237.710938 96.082031 Z M 311.605469 95.464844 C 298.6875 98.417969 277.171875 102.582031 271.660156 103.640625 C 267.824219 99.730469 259.128906 90.570312 255.761719 84.589844 C 259.144531 63.996094 269.726562 46.769531 272.976562 41.855469 C 280.019531 38.796875 296.257812 32.285156 306.8125 32.339844 C 310.941406 36.65625 322.023438 48.652344 328.511719 59.597656 C 325.164062 66.445312 314.378906 88.574219 311.605469 95.464844 Z M 358.042969 180.917969 C 353.710938 178.882812 343.683594 173.703125 337.390625 166.648438 C 340.734375 152.636719 346.265625 128.53125 347.152344 124.644531 C 353.671875 121.820312 371.191406 114.109375 377.925781 109.742188 C 385.238281 114.167969 399.414062 123.121094 406.414062 128.933594 C 406.6875 139.085938 403.210938 150.25 400.792969 156.734375 C 388.160156 171.820312 365.285156 178.960938 358.042969 180.917969 Z M 344.488281 10.453125 C 295.625 1.996094 248.800781 31.296875 234 77.199219 L 233.953125 77.191406 C 233.929688 77.304688 233.917969 77.414062 233.898438 77.527344 C 232.546875 81.773438 231.460938 86.164062 230.679688 90.683594 C 221.421875 144.179688 257.410156 195.234375 310.910156 204.492188 C 364.40625 213.746094 415.457031 177.753906 424.71875 124.261719 C 433.972656 70.757812 397.980469 19.707031 344.488281 10.453125 " fill-opacity="1" fill-rule="nonzero"/></g></g></g></svg>