<svg xmlns="http://www.w3.org/2000/svg" xmlns:xlink="http://www.w3.org/1999/xlink" width="600" zoomAndPan="magnify" viewBox="0 0 375 307.91998" height="400" preserveAspectRatio="xMidYMid meet" version="1.0"><defs><clipPath id="0170b91a71"><path d="M 0.046875 0 L 374.949219 0 L 374.949219 299.921875 L 0.046875 299.921875 Z M 0.046875 0 " clip-rule="nonzero"/></clipPath><clipPath id="e4790ca559"><path d="M 10.488281 1.054688 L 274.304688 1.054688 L 274.304688 264.875 L 10.488281 264.875 Z M 10.488281 1.054688 " clip-rule="nonzero"/></clipPath><clipPath id="0e7cf8356d"><path d="M 142.398438 1.054688 C 69.546875 1.054688 10.488281 60.113281 10.488281 132.964844 C 10.488281 205.816406 69.546875 264.875 142.398438 264.875 C 215.25 264.875 274.304688 205.816406 274.304688 132.964844 C 274.304688 60.113281 215.25 1.054688 142.398438 1.054688 Z M 142.398438 1.054688 " clip-rule="nonzero"/></clipPath><clipPath id="6200aca0c2"><path d="M 0.488281 0.0546875 L 264.304688 0.0546875 L 264.304688 263.875 L 0.488281 263.875 Z M 0.488281 0.0546875 " clip-rule="nonzero"/></clipPath><clipPath id="219f2ff63e"><path d="M 132.398438 0.0546875 C 59.546875 0.0546875 0.488281 59.113281 0.488281 131.964844 C 0.488281 204.816406 59.546875 263.875 132.398438 263.875 C 205.25 263.875 264.304688 204.816406 264.304688 131.964844 C 264.304688 59.113281 205.25 0.0546875 132.398438 0.0546875 Z M 132.398438 0.0546875 " clip-rule="nonzero"/></clipPath><clipPath id="17cb9707bb"><rect x="0" width="265" y="0" height="264"/></clipPath><clipPath id="2e7b58cc25"><path d="M 10.488281 1.054688 L 274.242188 1.054688 L 274.242188 264.8125 L 10.488281 264.8125 Z M 10.488281 1.054688 " clip-rule="nonzero"/></clipPath><clipPath id="6a6decf097"><path d="M 0.605469 173.820312 L 114.488281 173.820312 L 114.488281 287.699219 L 0.605469 287.699219 Z M 0.605469 173.820312 " clip-rule="nonzero"/></clipPath><clipPath id="c8a9c16ea2"><path d="M 57.546875 173.820312 C 26.101562 173.820312 0.605469 199.3125 0.605469 230.757812 C 0.605469 262.207031 26.101562 287.699219 57.546875 287.699219 C 88.996094 287.699219 114.488281 262.207031 114.488281 230.757812 C 114.488281 199.3125 88.996094 173.820312 57.546875 173.820312 Z M 57.546875 173.820312 " clip-rule="nonzero"/></clipPath><clipPath id="5e3b94a643"><path d="M 0.605469 0.820312 L 114.488281 0.820312 L 114.488281 114.699219 L 0.605469 114.699219 Z M 0.605469 0.820312 " clip-rule="nonzero"/></clipPath><clipPath id="a7245f792c"><path d="M 57.546875 0.820312 C 26.101562 0.820312 0.605469 26.3125 0.605469 57.757812 C 0.605469 89.207031 26.101562 114.699219 57.546875 114.699219 C 88.996094 114.699219 114.488281 89.207031 114.488281 57.757812 C 114.488281 26.3125 88.996094 0.820312 57.546875 0.820312 Z M 57.546875 0.820312 " clip-rule="nonzero"/></clipPath><clipPath id="fa7b5e58c5"><rect x="0" width="115" y="0" height="115"/></clipPath><clipPath id="f269bb4df0"><path d="M 0.605469 173.820312 L 114.152344 173.820312 L 114.152344 287.363281 L 0.605469 287.363281 Z M 0.605469 173.820312 " clip-rule="nonzero"/></clipPath><clipPath id="552dcd6c96"><rect x="0" width="275" y="0" height="288"/></clipPath></defs><g clip-path="url(#0170b91a71)"><path fill="#ffffff" d="M 0.046875 0 L 449.933594 0 L 449.933594 299.921875 L 0.046875 299.921875 Z M 0.046875 0 " fill-opacity="1" fill-rule="nonzero"/><path fill="#ffffff" d="M 0.046875 0 L 449.933594 0 L 449.933594 299.921875 L 0.046875 299.921875 Z M 0.046875 0 " fill-opacity="1" fill-rule="nonzero"/></g><g transform="matrix(1, 0, 0, 1, 90, 3)"><g clip-path="url(#552dcd6c96)"><g clip-path="url(#e4790ca559)"><g clip-path="url(#0e7cf8356d)"><g transform="matrix(1, 0, 0, 1, 10, 1)"><g clip-path="url(#17cb9707bb)"><g clip-path="url(#6200aca0c2)"><g clip-path="url(#219f2ff63e)"><path fill="#ffffff" d="M 0.488281 0.0546875 L 264.304688 0.0546875 L 264.304688 263.875 L 0.488281 263.875 Z M 0.488281 0.0546875 " fill-opacity="1" fill-rule="nonzero"/></g></g></g></g></g></g><g clip-path="url(#2e7b58cc25)"><path fill="#c9a14a" d="M 142.394531 1.054688 C 140.234375 1.054688 138.078125 1.109375 135.921875 1.214844 C 133.765625 1.320312 131.613281 1.480469 129.464844 1.691406 C 127.316406 1.902344 125.175781 2.167969 123.039062 2.484375 C 120.902344 2.800781 118.777344 3.167969 116.660156 3.589844 C 114.542969 4.011719 112.4375 4.484375 110.34375 5.007812 C 108.25 5.535156 106.167969 6.109375 104.101562 6.734375 C 102.039062 7.363281 99.988281 8.039062 97.957031 8.765625 C 95.921875 9.492188 93.910156 10.269531 91.914062 11.097656 C 89.921875 11.921875 87.949219 12.796875 85.996094 13.71875 C 84.046875 14.644531 82.117188 15.613281 80.214844 16.632812 C 78.308594 17.648438 76.433594 18.710938 74.582031 19.824219 C 72.730469 20.933594 70.90625 22.085938 69.109375 23.285156 C 67.316406 24.484375 65.550781 25.726562 63.816406 27.015625 C 62.082031 28.300781 60.382812 29.628906 58.714844 30.996094 C 57.042969 32.367188 55.410156 33.777344 53.8125 35.226562 C 52.210938 36.675781 50.648438 38.164062 49.121094 39.691406 C 47.597656 41.214844 46.109375 42.78125 44.65625 44.378906 C 43.207031 45.980469 41.796875 47.613281 40.429688 49.28125 C 39.058594 50.949219 37.730469 52.652344 36.445312 54.386719 C 35.160156 56.121094 33.917969 57.882812 32.71875 59.679688 C 31.519531 61.472656 30.363281 63.296875 29.253906 65.148438 C 28.144531 67 27.082031 68.878906 26.0625 70.78125 C 25.046875 72.683594 24.074219 74.613281 23.152344 76.566406 C 22.230469 78.515625 21.355469 80.488281 20.527344 82.484375 C 19.703125 84.476562 18.925781 86.492188 18.199219 88.523438 C 17.472656 90.554688 16.792969 92.605469 16.167969 94.671875 C 15.542969 96.738281 14.964844 98.816406 14.441406 100.910156 C 13.917969 103.003906 13.445312 105.109375 13.023438 107.226562 C 12.601562 109.34375 12.234375 111.472656 11.914062 113.605469 C 11.597656 115.742188 11.335938 117.882812 11.125 120.03125 C 10.910156 122.179688 10.753906 124.332031 10.648438 126.488281 C 10.542969 128.644531 10.488281 130.800781 10.488281 132.960938 C 10.488281 135.121094 10.542969 137.277344 10.648438 139.433594 C 10.753906 141.589844 10.910156 143.742188 11.125 145.890625 C 11.335938 148.039062 11.597656 150.179688 11.914062 152.316406 C 12.234375 154.449219 12.601562 156.578125 13.023438 158.695312 C 13.445312 160.8125 13.917969 162.917969 14.441406 165.011719 C 14.964844 167.105469 15.542969 169.183594 16.167969 171.25 C 16.792969 173.316406 17.472656 175.367188 18.199219 177.398438 C 18.925781 179.429688 19.703125 181.445312 20.527344 183.4375 C 21.355469 185.433594 22.230469 187.40625 23.152344 189.359375 C 24.074219 191.308594 25.046875 193.238281 26.0625 195.140625 C 27.082031 197.042969 28.144531 198.921875 29.253906 200.773438 C 30.363281 202.625 31.519531 204.449219 32.71875 206.242188 C 33.917969 208.039062 35.160156 209.804688 36.445312 211.535156 C 37.730469 213.269531 39.058594 214.972656 40.429688 216.640625 C 41.796875 218.308594 43.207031 219.945312 44.65625 221.542969 C 46.109375 223.144531 47.597656 224.707031 49.121094 226.230469 C 50.648438 227.757812 52.210938 229.246094 53.8125 230.695312 C 55.410156 232.144531 57.042969 233.554688 58.714844 234.925781 C 60.382812 236.292969 62.082031 237.621094 63.816406 238.910156 C 65.550781 240.195312 67.316406 241.4375 69.109375 242.636719 C 70.90625 243.835938 72.730469 244.988281 74.582031 246.101562 C 76.433594 247.210938 78.308594 248.273438 80.214844 249.292969 C 82.117188 250.308594 84.046875 251.277344 85.996094 252.203125 C 87.949219 253.125 89.921875 254 91.914062 254.824219 C 93.910156 255.652344 95.921875 256.429688 97.957031 257.15625 C 99.988281 257.882812 102.039062 258.558594 104.101562 259.1875 C 106.167969 259.8125 108.25 260.386719 110.34375 260.914062 C 112.4375 261.4375 114.542969 261.910156 116.660156 262.332031 C 118.777344 262.753906 120.902344 263.121094 123.039062 263.4375 C 125.175781 263.753906 127.316406 264.019531 129.464844 264.230469 C 131.613281 264.441406 133.765625 264.601562 135.921875 264.707031 C 138.078125 264.8125 140.234375 264.867188 142.394531 264.867188 C 144.550781 264.867188 146.710938 264.8125 148.867188 264.707031 C 151.023438 264.601562 153.171875 264.441406 155.320312 264.230469 C 157.46875 264.019531 159.613281 263.753906 161.746094 263.4375 C 163.882812 263.121094 166.007812 262.753906 168.125 262.332031 C 170.242188 261.910156 172.347656 261.4375 174.445312 260.914062 C 176.539062 260.386719 178.617188 259.8125 180.683594 259.1875 C 182.75 258.558594 184.796875 257.882812 186.832031 257.15625 C 188.863281 256.429688 190.875 255.652344 192.871094 254.824219 C 194.867188 254 196.839844 253.125 198.789062 252.203125 C 200.742188 251.277344 202.667969 250.308594 204.574219 249.292969 C 206.476562 248.273438 208.355469 247.210938 210.207031 246.101562 C 212.058594 244.988281 213.878906 243.835938 215.675781 242.636719 C 217.46875 241.4375 219.234375 240.195312 220.96875 238.910156 C 222.703125 237.621094 224.402344 236.292969 226.074219 234.925781 C 227.742188 233.554688 229.375 232.144531 230.976562 230.695312 C 232.574219 229.246094 234.136719 227.757812 235.664062 226.230469 C 237.191406 224.707031 238.679688 223.144531 240.128906 221.542969 C 241.578125 219.945312 242.988281 218.308594 244.355469 216.640625 C 245.726562 214.972656 247.054688 213.269531 248.339844 211.535156 C 249.625 209.804688 250.867188 208.039062 252.066406 206.242188 C 253.265625 204.449219 254.421875 202.625 255.53125 200.773438 C 256.640625 198.921875 257.707031 197.042969 258.722656 195.140625 C 259.742188 193.238281 260.710938 191.308594 261.632812 189.359375 C 262.558594 187.40625 263.429688 185.433594 264.257812 183.4375 C 265.082031 181.445312 265.859375 179.429688 266.585938 177.398438 C 267.316406 175.367188 267.992188 173.316406 268.617188 171.25 C 269.246094 169.183594 269.820312 167.105469 270.34375 165.011719 C 270.871094 162.917969 271.34375 160.8125 271.765625 158.695312 C 272.183594 156.578125 272.554688 154.449219 272.871094 152.316406 C 273.1875 150.179688 273.453125 148.039062 273.664062 145.890625 C 273.875 143.742188 274.035156 141.589844 274.140625 139.433594 C 274.246094 137.277344 274.296875 135.121094 274.296875 132.960938 C 274.296875 130.804688 274.238281 128.648438 274.132812 126.492188 C 274.023438 124.335938 273.863281 122.183594 273.648438 120.039062 C 273.433594 117.890625 273.167969 115.75 272.847656 113.613281 C 272.53125 111.480469 272.160156 109.355469 271.738281 107.238281 C 271.3125 105.121094 270.839844 103.019531 270.3125 100.925781 C 269.785156 98.832031 269.210938 96.753906 268.582031 94.6875 C 267.953125 92.625 267.277344 90.578125 266.546875 88.546875 C 265.820312 86.515625 265.042969 84.5 264.214844 82.507812 C 263.386719 80.515625 262.511719 78.542969 261.589844 76.59375 C 260.664062 74.644531 259.691406 72.714844 258.675781 70.8125 C 257.65625 68.910156 256.59375 67.035156 255.484375 65.183594 C 254.371094 63.332031 253.21875 61.511719 252.019531 59.71875 C 250.820312 57.921875 249.574219 56.160156 248.289062 54.425781 C 247.003906 52.695312 245.675781 50.992188 244.308594 49.324219 C 242.9375 47.65625 241.527344 46.023438 240.078125 44.425781 C 238.628906 42.824219 237.140625 41.265625 235.617188 39.738281 C 234.089844 38.210938 232.527344 36.722656 230.929688 35.273438 C 229.332031 33.824219 227.695312 32.417969 226.027344 31.046875 C 224.359375 29.675781 222.660156 28.351562 220.925781 27.0625 C 219.195312 25.777344 217.429688 24.535156 215.636719 23.335938 C 213.84375 22.136719 212.019531 20.980469 210.171875 19.871094 C 208.320312 18.761719 206.445312 17.699219 204.539062 16.679688 C 202.636719 15.660156 200.710938 14.691406 198.761719 13.765625 C 196.8125 12.84375 194.839844 11.96875 192.847656 11.140625 C 190.851562 10.3125 188.839844 9.535156 186.808594 8.808594 C 184.777344 8.078125 182.730469 7.398438 180.664062 6.773438 C 178.601562 6.144531 176.523438 5.566406 174.429688 5.042969 C 172.335938 4.515625 170.230469 4.039062 168.117188 3.617188 C 166 3.195312 163.875 2.824219 161.738281 2.503906 C 159.605469 2.1875 157.464844 1.917969 155.316406 1.707031 C 153.167969 1.492188 151.019531 1.332031 148.863281 1.222656 C 146.707031 1.113281 144.550781 1.058594 142.394531 1.054688 Z M 142.394531 93.523438 C 143.683594 93.523438 144.972656 93.585938 146.257812 93.710938 C 147.542969 93.839844 148.820312 94.027344 150.085938 94.28125 C 151.355469 94.53125 152.605469 94.84375 153.84375 95.21875 C 155.078125 95.59375 156.292969 96.03125 157.484375 96.523438 C 158.679688 97.019531 159.84375 97.570312 160.984375 98.179688 C 162.125 98.789062 163.230469 99.449219 164.304688 100.167969 C 165.378906 100.886719 166.414062 101.65625 167.414062 102.472656 C 168.410156 103.292969 169.367188 104.160156 170.28125 105.074219 C 171.195312 105.988281 172.0625 106.941406 172.878906 107.941406 C 173.699219 108.9375 174.46875 109.976562 175.1875 111.050781 C 175.902344 112.125 176.566406 113.230469 177.175781 114.371094 C 177.785156 115.507812 178.335938 116.675781 178.832031 117.867188 C 179.324219 119.0625 179.757812 120.277344 180.132812 121.511719 C 180.507812 122.75 180.824219 124 181.074219 125.265625 C 181.328125 126.535156 181.515625 127.808594 181.644531 129.09375 C 181.769531 130.382812 181.832031 131.667969 181.832031 132.960938 C 181.832031 134.253906 181.769531 135.542969 181.644531 136.828125 C 181.515625 138.113281 181.328125 139.386719 181.074219 140.65625 C 180.824219 141.921875 180.507812 143.171875 180.132812 144.410156 C 179.757812 145.644531 179.324219 146.859375 178.832031 148.054688 C 178.335938 149.246094 177.785156 150.414062 177.175781 151.554688 C 176.566406 152.691406 175.902344 153.796875 175.1875 154.871094 C 174.46875 155.945312 173.699219 156.984375 172.878906 157.980469 C 172.0625 158.980469 171.195312 159.9375 170.28125 160.847656 C 169.367188 161.761719 168.410156 162.628906 167.414062 163.449219 C 166.414062 164.269531 165.378906 165.035156 164.304688 165.753906 C 163.230469 166.472656 162.125 167.136719 160.984375 167.742188 C 159.84375 168.351562 158.679688 168.902344 157.484375 169.398438 C 156.292969 169.894531 155.078125 170.328125 153.84375 170.703125 C 152.605469 171.078125 151.355469 171.390625 150.085938 171.644531 C 148.820312 171.894531 147.542969 172.085938 146.257812 172.210938 C 144.972656 172.335938 143.683594 172.402344 142.394531 172.402344 C 141.101562 172.402344 139.8125 172.335938 138.527344 172.210938 C 137.242188 172.085938 135.964844 171.894531 134.699219 171.644531 C 133.433594 171.390625 132.179688 171.078125 130.945312 170.703125 C 129.707031 170.328125 128.492188 169.894531 127.300781 169.398438 C 126.105469 168.902344 124.941406 168.351562 123.800781 167.742188 C 122.664062 167.136719 121.554688 166.472656 120.480469 165.753906 C 119.40625 165.035156 118.371094 164.269531 117.371094 163.449219 C 116.375 162.628906 115.417969 161.761719 114.503906 160.847656 C 113.589844 159.9375 112.726562 158.980469 111.90625 157.980469 C 111.085938 156.984375 110.316406 155.945312 109.601562 154.871094 C 108.882812 153.796875 108.21875 152.691406 107.609375 151.554688 C 107 150.414062 106.449219 149.246094 105.957031 148.054688 C 105.460938 146.859375 105.027344 145.644531 104.652344 144.410156 C 104.277344 143.171875 103.964844 141.921875 103.710938 140.65625 C 103.460938 139.386719 103.269531 138.113281 103.144531 136.828125 C 103.015625 135.542969 102.953125 134.253906 102.953125 132.960938 C 102.953125 131.667969 103.019531 130.382812 103.144531 129.097656 C 103.273438 127.8125 103.460938 126.535156 103.714844 125.269531 C 103.96875 124 104.28125 122.75 104.65625 121.515625 C 105.03125 120.277344 105.46875 119.066406 105.960938 117.871094 C 106.457031 116.679688 107.007812 115.511719 107.617188 114.375 C 108.226562 113.234375 108.890625 112.128906 109.605469 111.054688 C 110.324219 109.980469 111.09375 108.945312 111.914062 107.945312 C 112.730469 106.949219 113.597656 105.992188 114.511719 105.078125 C 115.425781 104.167969 116.378906 103.300781 117.378906 102.480469 C 118.378906 101.660156 119.414062 100.894531 120.488281 100.175781 C 121.5625 99.457031 122.667969 98.792969 123.804688 98.183594 C 124.945312 97.574219 126.109375 97.023438 127.304688 96.53125 C 128.496094 96.035156 129.710938 95.601562 130.945312 95.226562 C 132.183594 94.847656 133.433594 94.535156 134.699219 94.28125 C 135.96875 94.03125 137.242188 93.839844 138.527344 93.714844 C 139.8125 93.585938 141.101562 93.523438 142.394531 93.523438 Z M 265.503906 132.960938 C 265.507812 135.066406 265.460938 137.171875 265.359375 139.273438 C 265.253906 141.378906 265.097656 143.476562 264.886719 145.570312 C 264.675781 147.664062 264.414062 149.753906 264.097656 151.835938 C 263.777344 153.917969 263.40625 155.988281 262.984375 158.050781 C 262.558594 160.113281 262.082031 162.164062 261.554688 164.203125 C 261.023438 166.238281 260.445312 168.261719 259.808594 170.269531 C 259.175781 172.28125 258.492188 174.269531 257.757812 176.242188 C 257.023438 178.214844 256.238281 180.167969 255.402344 182.101562 C 254.566406 184.035156 253.683594 185.945312 252.75 187.832031 C 251.816406 189.71875 250.835938 191.582031 249.808594 193.417969 C 248.777344 195.253906 247.703125 197.066406 246.582031 198.847656 C 245.460938 200.628906 244.292969 202.382812 243.082031 204.101562 C 241.871094 205.824219 240.613281 207.515625 239.316406 209.171875 C 238.019531 210.828125 236.679688 212.453125 235.296875 214.042969 C 233.914062 215.632812 232.492188 217.183594 231.03125 218.699219 C 229.570312 220.214844 228.070312 221.691406 226.535156 223.132812 C 225 224.570312 223.425781 225.96875 221.816406 227.328125 C 220.207031 228.6875 218.566406 230.003906 216.890625 231.277344 C 215.210938 232.550781 213.503906 233.78125 211.765625 234.96875 C 210.027344 236.152344 208.257812 237.296875 206.460938 238.390625 C 204.660156 239.488281 202.835938 240.535156 200.984375 241.539062 C 199.132812 242.539062 197.257812 243.492188 195.355469 244.398438 C 193.453125 245.304688 191.53125 246.160156 189.585938 246.96875 C 187.644531 247.777344 185.679688 248.53125 183.695312 249.238281 C 181.710938 249.945312 179.710938 250.601562 177.695312 251.203125 C 175.675781 251.808594 173.644531 252.359375 171.601562 252.859375 C 169.554688 253.359375 167.496094 253.804688 165.429688 254.199219 C 163.359375 254.59375 161.285156 254.933594 159.199219 255.222656 C 157.113281 255.507812 155.019531 255.742188 152.921875 255.921875 C 150.824219 256.101562 148.722656 256.230469 146.621094 256.300781 C 144.515625 256.375 142.410156 256.390625 140.304688 256.355469 C 138.199219 256.320312 136.097656 256.230469 133.996094 256.085938 C 131.894531 255.941406 129.800781 255.746094 127.710938 255.496094 C 125.621094 255.242188 123.535156 254.9375 121.460938 254.582031 C 119.386719 254.222656 117.324219 253.8125 115.269531 253.347656 C 113.214844 252.882812 111.175781 252.367188 109.148438 251.800781 C 107.121094 251.230469 105.109375 250.609375 103.113281 249.9375 C 101.117188 249.265625 99.140625 248.542969 97.183594 247.769531 C 95.222656 246.996094 93.285156 246.175781 91.371094 245.300781 C 89.453125 244.429688 87.5625 243.507812 85.691406 242.539062 C 83.824219 241.570312 81.980469 240.550781 80.164062 239.488281 C 78.347656 238.421875 76.558594 237.3125 74.800781 236.15625 C 73.039062 235 71.308594 233.800781 69.613281 232.554688 C 67.914062 231.3125 66.25 230.023438 64.617188 228.695312 C 62.984375 227.363281 61.386719 225.992188 59.824219 224.582031 C 58.265625 223.167969 56.738281 221.714844 55.253906 220.226562 C 53.765625 218.734375 52.316406 217.207031 50.90625 215.644531 C 49.5 214.078125 48.132812 212.480469 46.804688 210.84375 C 45.476562 209.210938 44.191406 207.542969 42.953125 205.839844 C 41.710938 204.140625 40.511719 202.410156 39.359375 200.648438 C 38.207031 198.886719 37.101562 197.09375 36.042969 195.277344 C 34.980469 193.457031 33.96875 191.613281 33 189.742188 C 32.035156 187.871094 31.117188 185.976562 30.25 184.058594 C 29.382812 182.140625 28.5625 180.199219 27.792969 178.242188 C 27.023438 176.28125 26.304688 174.300781 25.636719 172.304688 C 24.96875 170.308594 24.351562 168.296875 23.789062 166.265625 C 23.222656 164.238281 22.710938 162.195312 22.253906 160.140625 C 21.792969 158.085938 21.386719 156.023438 21.03125 153.945312 C 20.679688 151.871094 20.378906 149.789062 20.132812 147.695312 C 19.882812 145.605469 19.691406 143.511719 19.550781 141.410156 C 19.414062 139.308594 19.328125 137.207031 19.296875 135.101562 C 19.265625 132.996094 19.285156 130.890625 19.363281 128.785156 C 19.441406 126.679688 19.570312 124.582031 19.753906 122.484375 C 19.9375 120.386719 20.175781 118.292969 20.46875 116.210938 C 32.191406 121.542969 44.25 125.972656 56.636719 129.503906 C 69.023438 133.035156 81.605469 135.621094 94.378906 137.269531 C 94.511719 138.753906 94.710938 140.226562 94.980469 141.691406 C 95.25 143.160156 95.585938 144.609375 95.988281 146.042969 C 96.390625 147.476562 96.859375 148.886719 97.390625 150.277344 C 97.925781 151.667969 98.523438 153.03125 99.183594 154.367188 C 99.84375 155.703125 100.5625 157.003906 101.34375 158.273438 C 102.125 159.542969 102.964844 160.769531 103.859375 161.960938 C 104.753906 163.152344 105.699219 164.300781 106.703125 165.402344 C 107.703125 166.503906 108.753906 167.558594 109.851562 168.566406 C 110.949219 169.570312 112.09375 170.523438 113.28125 171.421875 C 114.46875 172.324219 115.695312 173.164062 116.960938 173.953125 C 118.226562 174.738281 119.523438 175.464844 120.855469 176.128906 C 122.1875 176.792969 123.550781 177.398438 124.9375 177.9375 C 126.324219 178.476562 127.738281 178.949219 129.167969 179.359375 C 130.601562 179.765625 132.050781 180.109375 133.511719 180.382812 C 134.976562 180.65625 136.449219 180.863281 137.933594 181 C 139.417969 181.136719 140.902344 181.207031 142.394531 181.207031 C 143.882812 181.207031 145.367188 181.136719 146.851562 181 C 148.335938 180.863281 149.808594 180.65625 151.273438 180.382812 C 152.738281 180.109375 154.183594 179.765625 155.617188 179.359375 C 157.050781 178.949219 158.460938 178.476562 159.847656 177.9375 C 161.238281 177.398438 162.597656 176.792969 163.929688 176.128906 C 165.261719 175.464844 166.5625 174.738281 167.828125 173.953125 C 169.09375 173.164062 170.320312 172.324219 171.503906 171.421875 C 172.691406 170.523438 173.835938 169.570312 174.933594 168.566406 C 176.035156 167.558594 177.082031 166.503906 178.085938 165.402344 C 179.085938 164.300781 180.035156 163.152344 180.929688 161.960938 C 181.824219 160.769531 182.660156 159.542969 183.441406 158.273438 C 184.222656 157.003906 184.941406 155.703125 185.601562 154.367188 C 186.261719 153.03125 186.859375 151.667969 187.394531 150.277344 C 187.929688 148.886719 188.394531 147.476562 188.800781 146.042969 C 189.203125 144.609375 189.539062 143.160156 189.804688 141.691406 C 190.074219 140.226562 190.273438 138.753906 190.40625 137.269531 C 203.179688 135.621094 215.761719 133.035156 228.148438 129.503906 C 240.539062 125.972656 252.59375 121.542969 264.316406 116.210938 C 265.09375 121.765625 265.488281 127.351562 265.503906 132.960938 Z M 265.503906 132.960938 " fill-opacity="1" fill-rule="nonzero"/></g><path fill="#c9a14a" d="M 142.394531 160.089844 C 143.28125 160.089844 144.167969 160.046875 145.050781 159.960938 C 145.9375 159.871094 146.8125 159.742188 147.6875 159.566406 C 148.558594 159.394531 149.417969 159.179688 150.269531 158.921875 C 151.117188 158.664062 151.953125 158.363281 152.773438 158.023438 C 153.59375 157.683594 154.398438 157.304688 155.179688 156.886719 C 155.964844 156.46875 156.726562 156.011719 157.464844 155.519531 C 158.203125 155.023438 158.917969 154.496094 159.601562 153.933594 C 160.289062 153.367188 160.949219 152.773438 161.574219 152.144531 C 162.203125 151.515625 162.800781 150.859375 163.363281 150.171875 C 163.925781 149.484375 164.457031 148.773438 164.949219 148.03125 C 165.441406 147.292969 165.898438 146.53125 166.316406 145.75 C 166.738281 144.964844 167.117188 144.164062 167.457031 143.34375 C 167.796875 142.523438 168.09375 141.6875 168.351562 140.835938 C 168.613281 139.984375 168.828125 139.125 169 138.253906 C 169.171875 137.382812 169.304688 136.503906 169.390625 135.621094 C 169.476562 134.734375 169.523438 133.851562 169.523438 132.960938 C 169.523438 132.074219 169.476562 131.1875 169.390625 130.300781 C 169.304688 129.417969 169.171875 128.539062 169 127.667969 C 168.828125 126.796875 168.613281 125.9375 168.351562 125.085938 C 168.09375 124.234375 167.796875 123.398438 167.457031 122.578125 C 167.117188 121.757812 166.738281 120.957031 166.316406 120.171875 C 165.898438 119.390625 165.441406 118.628906 164.949219 117.890625 C 164.457031 117.152344 163.925781 116.4375 163.363281 115.75 C 162.800781 115.0625 162.203125 114.40625 161.574219 113.777344 C 160.949219 113.148438 160.289062 112.554688 159.601562 111.992188 C 158.917969 111.425781 158.203125 110.898438 157.464844 110.40625 C 156.726562 109.910156 155.964844 109.453125 155.179688 109.035156 C 154.398438 108.617188 153.59375 108.238281 152.773438 107.898438 C 151.953125 107.558594 151.117188 107.257812 150.269531 107 C 149.417969 106.742188 148.558594 106.527344 147.6875 106.355469 C 146.8125 106.179688 145.9375 106.050781 145.050781 105.964844 C 144.167969 105.875 143.28125 105.832031 142.394531 105.832031 C 141.503906 105.832031 140.617188 105.875 139.734375 105.964844 C 138.851562 106.050781 137.972656 106.179688 137.101562 106.355469 C 136.230469 106.527344 135.367188 106.742188 134.519531 107 C 133.667969 107.257812 132.832031 107.558594 132.011719 107.898438 C 131.191406 108.238281 130.386719 108.617188 129.605469 109.035156 C 128.820312 109.453125 128.058594 109.910156 127.320312 110.40625 C 126.582031 110.898438 125.871094 111.425781 125.183594 111.992188 C 124.496094 112.554688 123.839844 113.148438 123.210938 113.777344 C 122.582031 114.40625 121.984375 115.0625 121.421875 115.75 C 120.859375 116.4375 120.332031 117.152344 119.835938 117.890625 C 119.34375 118.628906 118.886719 119.390625 118.46875 120.171875 C 118.050781 120.957031 117.667969 121.757812 117.328125 122.578125 C 116.988281 123.398438 116.691406 124.234375 116.433594 125.085938 C 116.175781 125.9375 115.960938 126.796875 115.785156 127.667969 C 115.613281 128.539062 115.480469 129.417969 115.394531 130.300781 C 115.308594 131.1875 115.265625 132.074219 115.265625 132.960938 C 115.265625 133.847656 115.3125 134.734375 115.398438 135.617188 C 115.488281 136.503906 115.617188 137.378906 115.792969 138.25 C 115.96875 139.121094 116.183594 139.980469 116.441406 140.832031 C 116.703125 141.679688 117 142.515625 117.339844 143.335938 C 117.683594 144.15625 118.0625 144.957031 118.480469 145.742188 C 118.898438 146.523438 119.355469 147.285156 119.851562 148.023438 C 120.34375 148.761719 120.871094 149.472656 121.4375 150.160156 C 122 150.847656 122.59375 151.503906 123.222656 152.132812 C 123.851562 152.757812 124.507812 153.355469 125.195312 153.917969 C 125.882812 154.480469 126.59375 155.011719 127.332031 155.503906 C 128.070312 155.996094 128.832031 156.453125 129.613281 156.875 C 130.398438 157.292969 131.199219 157.671875 132.019531 158.011719 C 132.839844 158.351562 133.671875 158.652344 134.523438 158.910156 C 135.371094 159.171875 136.234375 159.386719 137.105469 159.5625 C 137.972656 159.734375 138.851562 159.867188 139.734375 159.953125 C 140.621094 160.042969 141.503906 160.089844 142.394531 160.089844 Z M 142.394531 114.625 C 142.992188 114.625 143.59375 114.65625 144.191406 114.714844 C 144.789062 114.773438 145.382812 114.863281 145.96875 114.980469 C 146.558594 115.097656 147.140625 115.242188 147.714844 115.414062 C 148.289062 115.589844 148.855469 115.792969 149.410156 116.023438 C 149.964844 116.25 150.507812 116.507812 151.035156 116.792969 C 151.566406 117.074219 152.082031 117.382812 152.578125 117.714844 C 153.078125 118.050781 153.558594 118.40625 154.023438 118.789062 C 154.488281 119.167969 154.933594 119.570312 155.359375 119.996094 C 155.78125 120.421875 156.183594 120.867188 156.566406 121.328125 C 156.945312 121.792969 157.304688 122.277344 157.636719 122.773438 C 157.972656 123.273438 158.28125 123.789062 158.5625 124.316406 C 158.847656 124.847656 159.101562 125.390625 159.332031 125.945312 C 159.5625 126.5 159.765625 127.0625 159.9375 127.640625 C 160.113281 128.214844 160.257812 128.796875 160.375 129.382812 C 160.492188 129.972656 160.582031 130.566406 160.640625 131.164062 C 160.699219 131.761719 160.726562 132.359375 160.726562 132.960938 C 160.726562 133.5625 160.699219 134.160156 160.640625 134.757812 C 160.582031 135.355469 160.492188 135.949219 160.375 136.539062 C 160.257812 137.128906 160.113281 137.707031 159.9375 138.285156 C 159.765625 138.859375 159.5625 139.421875 159.332031 139.976562 C 159.101562 140.53125 158.847656 141.074219 158.5625 141.605469 C 158.28125 142.132812 157.972656 142.648438 157.636719 143.148438 C 157.304688 143.648438 156.945312 144.128906 156.566406 144.59375 C 156.183594 145.058594 155.78125 145.5 155.359375 145.925781 C 154.933594 146.351562 154.488281 146.753906 154.023438 147.132812 C 153.558594 147.515625 153.078125 147.871094 152.578125 148.207031 C 152.082031 148.539062 151.566406 148.847656 151.035156 149.132812 C 150.507812 149.414062 149.964844 149.671875 149.410156 149.898438 C 148.855469 150.128906 148.289062 150.332031 147.714844 150.507812 C 147.140625 150.679688 146.558594 150.828125 145.96875 150.945312 C 145.382812 151.0625 144.789062 151.148438 144.191406 151.207031 C 143.59375 151.265625 142.992188 151.296875 142.394531 151.296875 C 141.792969 151.296875 141.195312 151.265625 140.597656 151.207031 C 140 151.148438 139.40625 151.0625 138.816406 150.945312 C 138.226562 150.828125 137.644531 150.679688 137.070312 150.507812 C 136.496094 150.332031 135.929688 150.128906 135.375 149.898438 C 134.820312 149.671875 134.28125 149.414062 133.75 149.132812 C 133.21875 148.847656 132.707031 148.539062 132.207031 148.207031 C 131.707031 147.871094 131.226562 147.515625 130.761719 147.132812 C 130.296875 146.753906 129.851562 146.351562 129.429688 145.925781 C 129.003906 145.5 128.601562 145.058594 128.21875 144.59375 C 127.839844 144.128906 127.480469 143.648438 127.148438 143.148438 C 126.816406 142.648438 126.507812 142.132812 126.222656 141.605469 C 125.941406 141.074219 125.683594 140.53125 125.453125 139.976562 C 125.222656 139.421875 125.023438 138.859375 124.847656 138.285156 C 124.671875 137.707031 124.527344 137.128906 124.410156 136.539062 C 124.292969 135.949219 124.207031 135.355469 124.148438 134.757812 C 124.085938 134.160156 124.058594 133.5625 124.058594 132.960938 C 124.058594 132.359375 124.089844 131.761719 124.148438 131.164062 C 124.207031 130.566406 124.296875 129.972656 124.414062 129.386719 C 124.53125 128.796875 124.675781 128.214844 124.851562 127.640625 C 125.027344 127.066406 125.230469 126.503906 125.457031 125.949219 C 125.6875 125.394531 125.945312 124.851562 126.226562 124.320312 C 126.511719 123.792969 126.820312 123.277344 127.152344 122.777344 C 127.488281 122.28125 127.84375 121.796875 128.226562 121.335938 C 128.605469 120.871094 129.007812 120.425781 129.433594 120 C 129.859375 119.578125 130.300781 119.175781 130.765625 118.792969 C 131.230469 118.414062 131.710938 118.054688 132.210938 117.722656 C 132.710938 117.386719 133.222656 117.078125 133.753906 116.796875 C 134.28125 116.511719 134.824219 116.257812 135.378906 116.027344 C 135.933594 115.796875 136.5 115.59375 137.074219 115.417969 C 137.648438 115.246094 138.230469 115.097656 138.816406 114.980469 C 139.40625 114.863281 140 114.777344 140.597656 114.714844 C 141.195312 114.65625 141.792969 114.625 142.394531 114.625 Z M 142.394531 114.625 " fill-opacity="1" fill-rule="nonzero"/><g clip-path="url(#6a6decf097)"><g clip-path="url(#c8a9c16ea2)"><g transform="matrix(1, 0, 0, 1, 0.000000000000014211, 173)"><g clip-path="url(#fa7b5e58c5)"><g clip-path="url(#5e3b94a643)"><g clip-path="url(#a7245f792c)"><path fill="#ffffff" d="M 0.605469 0.820312 L 114.488281 0.820312 L 114.488281 114.699219 L 0.605469 114.699219 Z M 0.605469 0.820312 " fill-opacity="1" fill-rule="nonzero"/></g></g></g></g></g></g><g clip-path="url(#f269bb4df0)"><path fill="#c9a14a" d="M 57.546875 173.820312 C 55.679688 173.820312 53.820312 173.910156 51.964844 174.09375 C 50.109375 174.277344 48.265625 174.550781 46.4375 174.914062 C 44.609375 175.277344 42.800781 175.730469 41.015625 176.269531 C 39.230469 176.8125 37.480469 177.4375 35.753906 178.152344 C 34.03125 178.867188 32.347656 179.664062 30.703125 180.542969 C 29.058594 181.421875 27.460938 182.378906 25.910156 183.414062 C 24.359375 184.449219 22.867188 185.558594 21.421875 186.742188 C 19.980469 187.925781 18.601562 189.175781 17.285156 190.496094 C 15.964844 191.8125 14.714844 193.195312 13.53125 194.636719 C 12.347656 196.078125 11.238281 197.574219 10.203125 199.125 C 9.167969 200.675781 8.207031 202.273438 7.328125 203.917969 C 6.449219 205.5625 5.65625 207.246094 4.941406 208.96875 C 4.226562 210.691406 3.601562 212.445312 3.058594 214.230469 C 2.515625 216.011719 2.066406 217.820312 1.699219 219.648438 C 1.335938 221.476562 1.0625 223.320312 0.878906 225.175781 C 0.699219 227.03125 0.605469 228.890625 0.605469 230.757812 C 0.605469 232.621094 0.699219 234.480469 0.878906 236.339844 C 1.0625 238.195312 1.335938 240.035156 1.699219 241.867188 C 2.066406 243.695312 2.515625 245.5 3.058594 247.285156 C 3.601562 249.070312 4.226562 250.824219 4.941406 252.546875 C 5.65625 254.269531 6.449219 255.953125 7.328125 257.597656 C 8.207031 259.242188 9.167969 260.839844 10.203125 262.390625 C 11.238281 263.941406 12.347656 265.4375 13.53125 266.878906 C 14.714844 268.320312 15.964844 269.699219 17.285156 271.019531 C 18.601562 272.335938 19.980469 273.589844 21.421875 274.769531 C 22.867188 275.953125 24.359375 277.0625 25.910156 278.101562 C 27.460938 279.136719 29.058594 280.09375 30.703125 280.972656 C 32.347656 281.851562 34.03125 282.648438 35.753906 283.363281 C 37.480469 284.074219 39.230469 284.703125 41.015625 285.242188 C 42.800781 285.785156 44.609375 286.238281 46.4375 286.601562 C 48.265625 286.964844 50.109375 287.238281 51.964844 287.421875 C 53.820312 287.605469 55.679688 287.695312 57.546875 287.695312 C 59.410156 287.695312 61.269531 287.605469 63.125 287.421875 C 64.980469 287.238281 66.824219 286.964844 68.652344 286.601562 C 70.480469 286.238281 72.289062 285.785156 74.074219 285.242188 C 75.859375 284.703125 77.613281 284.074219 79.335938 283.363281 C 81.058594 282.648438 82.742188 281.851562 84.386719 280.972656 C 86.03125 280.09375 87.628906 279.136719 89.179688 278.101562 C 90.730469 277.0625 92.226562 275.953125 93.667969 274.769531 C 95.109375 273.589844 96.488281 272.335938 97.808594 271.019531 C 99.125 269.699219 100.375 268.320312 101.558594 266.878906 C 102.742188 265.4375 103.851562 263.941406 104.886719 262.390625 C 105.925781 260.839844 106.882812 259.242188 107.761719 257.597656 C 108.640625 255.953125 109.4375 254.269531 110.148438 252.546875 C 110.863281 250.824219 111.492188 249.070312 112.03125 247.285156 C 112.574219 245.5 113.027344 243.695312 113.390625 241.867188 C 113.753906 240.035156 114.027344 238.195312 114.210938 236.339844 C 114.390625 234.480469 114.484375 232.621094 114.484375 230.757812 C 114.480469 228.894531 114.386719 227.035156 114.203125 225.179688 C 114.019531 223.324219 113.742188 221.480469 113.378906 219.652344 C 113.011719 217.824219 112.558594 216.019531 112.015625 214.238281 C 111.472656 212.453125 110.84375 210.699219 110.132812 208.980469 C 109.417969 207.257812 108.621094 205.574219 107.738281 203.929688 C 106.859375 202.285156 105.902344 200.691406 104.867188 199.140625 C 103.832031 197.589844 102.722656 196.09375 101.539062 194.65625 C 100.355469 193.214844 99.105469 191.835938 97.785156 190.515625 C 96.46875 189.199219 95.089844 187.949219 93.648438 186.765625 C 92.207031 185.582031 90.710938 184.472656 89.160156 183.4375 C 87.613281 182.398438 86.015625 181.441406 84.371094 180.5625 C 82.726562 179.683594 81.046875 178.886719 79.324219 178.171875 C 77.601562 177.457031 75.847656 176.828125 74.066406 176.285156 C 72.28125 175.742188 70.476562 175.289062 68.648438 174.925781 C 66.820312 174.558594 64.980469 174.285156 63.125 174.097656 C 61.269531 173.914062 59.410156 173.820312 57.546875 173.820312 Z M 57.546875 213.734375 C 58.101562 213.734375 58.660156 213.761719 59.214844 213.816406 C 59.769531 213.871094 60.320312 213.949219 60.867188 214.058594 C 61.414062 214.167969 61.953125 214.304688 62.488281 214.464844 C 63.019531 214.628906 63.546875 214.816406 64.058594 215.027344 C 64.574219 215.242188 65.078125 215.480469 65.570312 215.742188 C 66.0625 216.003906 66.539062 216.292969 67.003906 216.601562 C 67.46875 216.910156 67.914062 217.242188 68.34375 217.597656 C 68.777344 217.949219 69.1875 218.324219 69.582031 218.71875 C 69.976562 219.113281 70.351562 219.527344 70.707031 219.957031 C 71.058594 220.386719 71.390625 220.835938 71.699219 221.300781 C 72.011719 221.761719 72.296875 222.238281 72.558594 222.730469 C 72.824219 223.222656 73.0625 223.726562 73.273438 224.242188 C 73.488281 224.757812 73.675781 225.28125 73.835938 225.816406 C 74 226.347656 74.132812 226.890625 74.242188 227.4375 C 74.351562 227.984375 74.433594 228.535156 74.488281 229.089844 C 74.542969 229.644531 74.570312 230.199219 74.570312 230.757812 C 74.570312 231.316406 74.542969 231.871094 74.488281 232.425781 C 74.433594 232.980469 74.351562 233.53125 74.242188 234.078125 C 74.132812 234.625 74 235.164062 73.835938 235.699219 C 73.675781 236.234375 73.488281 236.757812 73.273438 237.273438 C 73.0625 237.789062 72.824219 238.289062 72.558594 238.78125 C 72.296875 239.273438 72.011719 239.753906 71.699219 240.214844 C 71.390625 240.679688 71.058594 241.125 70.707031 241.558594 C 70.351562 241.988281 69.976562 242.402344 69.582031 242.796875 C 69.1875 243.191406 68.777344 243.5625 68.34375 243.917969 C 67.914062 244.269531 67.46875 244.601562 67.003906 244.914062 C 66.539062 245.222656 66.0625 245.507812 65.570312 245.773438 C 65.078125 246.035156 64.574219 246.273438 64.058594 246.484375 C 63.546875 246.699219 63.019531 246.886719 62.488281 247.046875 C 61.953125 247.210938 61.414062 247.347656 60.867188 247.453125 C 60.320312 247.5625 59.769531 247.644531 59.214844 247.699219 C 58.660156 247.753906 58.101562 247.78125 57.546875 247.78125 C 56.988281 247.78125 56.429688 247.753906 55.875 247.699219 C 55.320312 247.644531 54.769531 247.5625 54.222656 247.453125 C 53.675781 247.347656 53.136719 247.210938 52.601562 247.046875 C 52.070312 246.886719 51.546875 246.699219 51.03125 246.484375 C 50.515625 246.273438 50.011719 246.035156 49.519531 245.773438 C 49.027344 245.507812 48.550781 245.222656 48.085938 244.914062 C 47.625 244.601562 47.175781 244.269531 46.746094 243.917969 C 46.3125 243.5625 45.902344 243.191406 45.507812 242.796875 C 45.113281 242.402344 44.738281 241.988281 44.386719 241.558594 C 44.03125 241.125 43.699219 240.679688 43.390625 240.214844 C 43.078125 239.753906 42.792969 239.273438 42.53125 238.78125 C 42.269531 238.289062 42.03125 237.789062 41.816406 237.273438 C 41.601562 236.757812 41.414062 236.234375 41.253906 235.699219 C 41.09375 235.164062 40.957031 234.625 40.847656 234.078125 C 40.738281 233.53125 40.65625 232.980469 40.601562 232.425781 C 40.546875 231.871094 40.519531 231.316406 40.519531 230.757812 C 40.519531 230.199219 40.546875 229.644531 40.601562 229.089844 C 40.660156 228.535156 40.742188 227.984375 40.847656 227.4375 C 40.957031 226.890625 41.09375 226.351562 41.253906 225.816406 C 41.417969 225.28125 41.605469 224.757812 41.820312 224.242188 C 42.03125 223.730469 42.269531 223.226562 42.535156 222.734375 C 42.796875 222.242188 43.082031 221.765625 43.394531 221.300781 C 43.703125 220.835938 44.035156 220.390625 44.386719 219.960938 C 44.742188 219.527344 45.117188 219.117188 45.511719 218.722656 C 45.902344 218.328125 46.316406 217.953125 46.746094 217.601562 C 47.179688 217.246094 47.625 216.914062 48.089844 216.605469 C 48.550781 216.292969 49.03125 216.007812 49.523438 215.746094 C 50.011719 215.484375 50.515625 215.246094 51.03125 215.03125 C 51.546875 214.816406 52.070312 214.628906 52.605469 214.46875 C 53.136719 214.304688 53.679688 214.171875 54.222656 214.0625 C 54.769531 213.953125 55.320312 213.871094 55.875 213.816406 C 56.429688 213.761719 56.988281 213.734375 57.546875 213.734375 Z M 110.6875 230.757812 C 110.691406 231.667969 110.667969 232.574219 110.625 233.480469 C 110.582031 234.390625 110.511719 235.296875 110.421875 236.199219 C 110.332031 237.105469 110.21875 238.007812 110.078125 238.90625 C 109.941406 239.804688 109.78125 240.699219 109.601562 241.585938 C 109.417969 242.476562 109.210938 243.363281 108.984375 244.242188 C 108.753906 245.121094 108.503906 245.996094 108.230469 246.863281 C 107.957031 247.730469 107.660156 248.589844 107.34375 249.441406 C 107.027344 250.292969 106.6875 251.136719 106.328125 251.96875 C 105.96875 252.804688 105.585938 253.628906 105.183594 254.441406 C 104.78125 255.257812 104.355469 256.0625 103.910156 256.855469 C 103.46875 257.648438 103.003906 258.429688 102.519531 259.199219 C 102.035156 259.96875 101.53125 260.722656 101.007812 261.464844 C 100.484375 262.210938 99.945312 262.9375 99.382812 263.65625 C 98.824219 264.371094 98.246094 265.070312 97.648438 265.757812 C 97.050781 266.441406 96.4375 267.113281 95.808594 267.765625 C 95.175781 268.421875 94.53125 269.058594 93.867188 269.679688 C 93.203125 270.300781 92.523438 270.90625 91.828125 271.492188 C 91.136719 272.078125 90.425781 272.648438 89.703125 273.195312 C 88.980469 273.746094 88.242188 274.277344 87.492188 274.789062 C 86.738281 275.300781 85.976562 275.792969 85.199219 276.265625 C 84.425781 276.742188 83.636719 277.191406 82.835938 277.625 C 82.039062 278.058594 81.226562 278.46875 80.40625 278.859375 C 79.585938 279.25 78.757812 279.621094 77.917969 279.96875 C 77.078125 280.320312 76.230469 280.644531 75.375 280.949219 C 74.519531 281.253906 73.652344 281.539062 72.785156 281.796875 C 71.914062 282.058594 71.035156 282.296875 70.152344 282.511719 C 69.269531 282.726562 68.382812 282.921875 67.488281 283.089844 C 66.597656 283.261719 65.699219 283.410156 64.800781 283.53125 C 63.898438 283.65625 62.996094 283.757812 62.089844 283.835938 C 61.183594 283.914062 60.277344 283.96875 59.371094 284 C 58.460938 284.03125 57.554688 284.039062 56.644531 284.023438 C 55.734375 284.007812 54.828125 283.96875 53.921875 283.90625 C 53.015625 283.84375 52.109375 283.757812 51.207031 283.652344 C 50.304688 283.542969 49.40625 283.410156 48.511719 283.257812 C 47.613281 283.101562 46.722656 282.925781 45.835938 282.722656 C 44.949219 282.523438 44.070312 282.300781 43.195312 282.054688 C 42.320312 281.808594 41.449219 281.542969 40.589844 281.253906 C 39.726562 280.960938 38.875 280.648438 38.027344 280.316406 C 37.183594 279.984375 36.347656 279.628906 35.519531 279.25 C 34.691406 278.875 33.875 278.476562 33.070312 278.058594 C 32.261719 277.640625 31.46875 277.199219 30.683594 276.742188 C 29.898438 276.28125 29.128906 275.800781 28.367188 275.304688 C 27.609375 274.804688 26.863281 274.285156 26.128906 273.75 C 25.394531 273.210938 24.675781 272.65625 23.972656 272.082031 C 23.265625 271.507812 22.578125 270.914062 21.902344 270.304688 C 21.230469 269.695312 20.570312 269.070312 19.929688 268.425781 C 19.289062 267.78125 18.664062 267.125 18.054688 266.449219 C 17.445312 265.773438 16.855469 265.082031 16.28125 264.375 C 15.710938 263.671875 15.15625 262.949219 14.621094 262.21875 C 14.085938 261.484375 13.566406 260.734375 13.070312 259.976562 C 12.574219 259.214844 12.09375 258.441406 11.636719 257.65625 C 11.179688 256.871094 10.742188 256.074219 10.324219 255.265625 C 9.90625 254.460938 9.511719 253.640625 9.136719 252.8125 C 8.761719 251.984375 8.410156 251.148438 8.078125 250.300781 C 7.746094 249.457031 7.433594 248.601562 7.144531 247.742188 C 6.859375 246.878906 6.589844 246.011719 6.347656 245.132812 C 6.105469 244.257812 5.882812 243.378906 5.683594 242.492188 C 5.488281 241.601562 5.3125 240.710938 5.15625 239.816406 C 5.003906 238.921875 4.875 238.019531 4.769531 237.117188 C 4.664062 236.214844 4.578125 235.3125 4.519531 234.402344 C 4.460938 233.496094 4.421875 232.589844 4.410156 231.679688 C 4.394531 230.773438 4.40625 229.863281 4.4375 228.953125 C 4.472656 228.046875 4.527344 227.140625 4.605469 226.234375 C 4.6875 225.328125 4.789062 224.425781 4.914062 223.527344 C 15.09375 228.15625 25.730469 231.1875 36.820312 232.617188 C 36.875 233.257812 36.960938 233.894531 37.078125 234.527344 C 37.195312 235.160156 37.339844 235.785156 37.511719 236.402344 C 37.6875 237.023438 37.890625 237.632812 38.121094 238.234375 C 38.351562 238.832031 38.609375 239.421875 38.894531 239.996094 C 39.179688 240.574219 39.488281 241.136719 39.824219 241.683594 C 40.164062 242.230469 40.523438 242.761719 40.910156 243.277344 C 41.296875 243.789062 41.707031 244.285156 42.136719 244.761719 C 42.570312 245.238281 43.023438 245.691406 43.5 246.125 C 43.972656 246.558594 44.464844 246.972656 44.976562 247.359375 C 45.492188 247.75 46.019531 248.113281 46.566406 248.453125 C 47.113281 248.789062 47.671875 249.105469 48.25 249.390625 C 48.824219 249.679688 49.410156 249.9375 50.011719 250.171875 C 50.609375 250.402344 51.21875 250.609375 51.835938 250.785156 C 52.457031 250.960938 53.082031 251.109375 53.710938 251.226562 C 54.34375 251.347656 54.980469 251.433594 55.621094 251.496094 C 56.261719 251.554688 56.902344 251.582031 57.546875 251.582031 C 58.1875 251.582031 58.828125 251.554688 59.46875 251.496094 C 60.109375 251.433594 60.746094 251.347656 61.378906 251.226562 C 62.011719 251.109375 62.636719 250.960938 63.253906 250.785156 C 63.871094 250.609375 64.480469 250.402344 65.082031 250.171875 C 65.679688 249.9375 66.265625 249.679688 66.84375 249.390625 C 67.417969 249.105469 67.976562 248.789062 68.523438 248.453125 C 69.070312 248.113281 69.597656 247.75 70.113281 247.359375 C 70.625 246.972656 71.117188 246.558594 71.59375 246.125 C 72.066406 245.691406 72.519531 245.238281 72.953125 244.761719 C 73.382812 244.285156 73.792969 243.789062 74.179688 243.277344 C 74.566406 242.761719 74.925781 242.230469 75.265625 241.683594 C 75.601562 241.136719 75.914062 240.574219 76.199219 239.996094 C 76.484375 239.421875 76.738281 238.832031 76.96875 238.234375 C 77.199219 237.632812 77.402344 237.023438 77.578125 236.402344 C 77.75 235.785156 77.894531 235.160156 78.011719 234.527344 C 78.128906 233.894531 78.214844 233.257812 78.269531 232.617188 C 89.363281 231.1875 99.996094 228.15625 110.175781 223.527344 C 110.511719 225.925781 110.679688 228.335938 110.6875 230.757812 Z M 110.6875 230.757812 " fill-opacity="1" fill-rule="nonzero"/></g><path fill="#c9a14a" d="M 57.546875 242.46875 C 58.3125 242.46875 59.074219 242.394531 59.828125 242.242188 C 60.582031 242.09375 61.316406 241.871094 62.027344 241.578125 C 62.738281 241.28125 63.410156 240.921875 64.050781 240.492188 C 64.691406 240.066406 65.28125 239.582031 65.824219 239.039062 C 66.371094 238.492188 66.855469 237.902344 67.28125 237.261719 C 67.710938 236.625 68.070312 235.949219 68.363281 235.238281 C 68.660156 234.527344 68.878906 233.796875 69.03125 233.042969 C 69.179688 232.289062 69.253906 231.527344 69.253906 230.757812 C 69.253906 229.988281 69.179688 229.226562 69.03125 228.472656 C 68.878906 227.71875 68.660156 226.984375 68.363281 226.277344 C 68.070312 225.566406 67.710938 224.890625 67.28125 224.25 C 66.855469 223.613281 66.371094 223.019531 65.824219 222.476562 C 65.28125 221.933594 64.691406 221.449219 64.050781 221.019531 C 63.410156 220.59375 62.738281 220.234375 62.027344 219.9375 C 61.316406 219.644531 60.582031 219.421875 59.828125 219.273438 C 59.074219 219.121094 58.3125 219.046875 57.546875 219.046875 C 56.777344 219.046875 56.015625 219.121094 55.261719 219.273438 C 54.507812 219.421875 53.773438 219.644531 53.0625 219.9375 C 52.351562 220.234375 51.679688 220.59375 51.039062 221.019531 C 50.398438 221.449219 49.808594 221.933594 49.265625 222.476562 C 48.722656 223.019531 48.234375 223.613281 47.808594 224.25 C 47.382812 224.890625 47.019531 225.566406 46.726562 226.277344 C 46.433594 226.984375 46.210938 227.71875 46.058594 228.472656 C 45.910156 229.226562 45.835938 229.988281 45.835938 230.757812 C 45.835938 231.527344 45.914062 232.285156 46.0625 233.039062 C 46.214844 233.792969 46.4375 234.527344 46.730469 235.234375 C 47.027344 235.945312 47.386719 236.621094 47.8125 237.257812 C 48.242188 237.898438 48.726562 238.488281 49.269531 239.03125 C 49.8125 239.574219 50.40625 240.0625 51.042969 240.488281 C 51.683594 240.914062 52.355469 241.277344 53.066406 241.570312 C 53.777344 241.867188 54.507812 242.089844 55.261719 242.238281 C 56.015625 242.390625 56.777344 242.464844 57.546875 242.46875 Z M 57.546875 222.84375 C 58.066406 222.84375 58.578125 222.894531 59.089844 222.996094 C 59.597656 223.097656 60.09375 223.246094 60.574219 223.445312 C 61.054688 223.644531 61.511719 223.886719 61.941406 224.175781 C 62.375 224.464844 62.773438 224.792969 63.140625 225.160156 C 63.507812 225.527344 63.835938 225.929688 64.125 226.359375 C 64.414062 226.792969 64.660156 227.25 64.855469 227.726562 C 65.054688 228.207031 65.207031 228.703125 65.308594 229.214844 C 65.410156 229.722656 65.460938 230.238281 65.460938 230.757812 C 65.460938 231.277344 65.410156 231.792969 65.308594 232.300781 C 65.207031 232.8125 65.054688 233.304688 64.855469 233.785156 C 64.660156 234.265625 64.414062 234.722656 64.125 235.152344 C 63.835938 235.585938 63.507812 235.984375 63.140625 236.355469 C 62.773438 236.722656 62.375 237.050781 61.941406 237.335938 C 61.511719 237.625 61.054688 237.871094 60.574219 238.070312 C 60.09375 238.269531 59.597656 238.417969 59.089844 238.519531 C 58.578125 238.621094 58.066406 238.671875 57.546875 238.671875 C 57.027344 238.671875 56.511719 238.621094 56 238.519531 C 55.492188 238.417969 54.996094 238.269531 54.515625 238.070312 C 54.035156 237.871094 53.582031 237.625 53.148438 237.335938 C 52.714844 237.050781 52.316406 236.722656 51.949219 236.355469 C 51.582031 235.984375 51.253906 235.585938 50.964844 235.152344 C 50.675781 234.722656 50.433594 234.265625 50.234375 233.785156 C 50.035156 233.304688 49.882812 232.8125 49.78125 232.300781 C 49.679688 231.792969 49.628906 231.277344 49.628906 230.757812 C 49.632812 230.238281 49.683594 229.722656 49.785156 229.214844 C 49.886719 228.703125 50.035156 228.210938 50.234375 227.730469 C 50.433594 227.25 50.679688 226.792969 50.96875 226.363281 C 51.253906 225.929688 51.582031 225.53125 51.949219 225.164062 C 52.320312 224.796875 52.71875 224.46875 53.148438 224.179688 C 53.582031 223.890625 54.039062 223.644531 54.519531 223.445312 C 54.996094 223.25 55.492188 223.097656 56 222.996094 C 56.511719 222.894531 57.027344 222.84375 57.546875 222.84375 Z M 57.546875 222.84375 " fill-opacity="1" fill-rule="nonzero"/></g></g></svg>