<svg xmlns="http://www.w3.org/2000/svg" xmlns:xlink="http://www.w3.org/1999/xlink" width="600" zoomAndPan="magnify" viewBox="0 0 375 307.91998" height="400" preserveAspectRatio="xMidYMid meet" version="1.0"><defs><clipPath id="5c030ef2e1"><path d="M 0.046875 0 L 374.949219 0 L 374.949219 299.921875 L 0.046875 299.921875 Z M 0.046875 0 " clip-rule="nonzero"/></clipPath><clipPath id="507e5e112c"><path d="M 10.074219 0.214844 L 265.472656 0.214844 L 265.472656 255.609375 L 10.074219 255.609375 Z M 10.074219 0.214844 " clip-rule="nonzero"/></clipPath><clipPath id="e5fc963110"><path d="M 137.773438 0.214844 C 67.246094 0.214844 10.074219 57.386719 10.074219 127.914062 C 10.074219 198.4375 67.246094 255.609375 137.773438 255.609375 C 208.300781 255.609375 265.472656 198.4375 265.472656 127.914062 C 265.472656 57.386719 208.300781 0.214844 137.773438 0.214844 Z M 137.773438 0.214844 " clip-rule="nonzero"/></clipPath><clipPath id="ae2f6cfc3c"><path d="M 0.0742188 0.214844 L 255.472656 0.214844 L 255.472656 255.609375 L 0.0742188 255.609375 Z M 0.0742188 0.214844 " clip-rule="nonzero"/></clipPath><clipPath id="06613e7e12"><path d="M 127.773438 0.214844 C 57.246094 0.214844 0.0742188 57.386719 0.0742188 127.914062 C 0.0742188 198.4375 57.246094 255.609375 127.773438 255.609375 C 198.300781 255.609375 255.472656 198.4375 255.472656 127.914062 C 255.472656 57.386719 198.300781 0.214844 127.773438 0.214844 Z M 127.773438 0.214844 " clip-rule="nonzero"/></clipPath><clipPath id="2672eb4fc0"><rect x="0" width="256" y="0" height="256"/></clipPath><clipPath id="9e9cce36c2"><path d="M 10.074219 0.214844 L 265.410156 0.214844 L 265.410156 255.546875 L 10.074219 255.546875 Z M 10.074219 0.214844 " clip-rule="nonzero"/></clipPath><clipPath id="573f96a28d"><path d="M 0.507812 167.460938 L 110.753906 167.460938 L 110.753906 277.707031 L 0.507812 277.707031 Z M 0.507812 167.460938 " clip-rule="nonzero"/></clipPath><clipPath id="118077308e"><path d="M 55.632812 167.460938 C 25.1875 167.460938 0.507812 192.140625 0.507812 222.585938 C 0.507812 253.027344 25.1875 277.707031 55.632812 277.707031 C 86.074219 277.707031 110.753906 253.027344 110.753906 222.585938 C 110.753906 192.140625 86.074219 167.460938 55.632812 167.460938 Z M 55.632812 167.460938 " clip-rule="nonzero"/></clipPath><clipPath id="f24b59738d"><path d="M 0.507812 0.460938 L 110.753906 0.460938 L 110.753906 110.707031 L 0.507812 110.707031 Z M 0.507812 0.460938 " clip-rule="nonzero"/></clipPath><clipPath id="681f0efab6"><path d="M 55.632812 0.460938 C 25.1875 0.460938 0.507812 25.140625 0.507812 55.585938 C 0.507812 86.027344 25.1875 110.707031 55.632812 110.707031 C 86.074219 110.707031 110.753906 86.027344 110.753906 55.585938 C 110.753906 25.140625 86.074219 0.460938 55.632812 0.460938 Z M 55.632812 0.460938 " clip-rule="nonzero"/></clipPath><clipPath id="546abdd229"><rect x="0" width="111" y="0" height="111"/></clipPath><clipPath id="b450d95d7b"><path d="M 0.507812 167.460938 L 110.429688 167.460938 L 110.429688 277.382812 L 0.507812 277.382812 Z M 0.507812 167.460938 " clip-rule="nonzero"/></clipPath><clipPath id="8a24724c8f"><rect x="0" width="266" y="0" height="278"/></clipPath></defs><g clip-path="url(#5c030ef2e1)"><path fill="#ffffff" d="M 0.046875 0 L 449.933594 0 L 449.933594 299.921875 L 0.046875 299.921875 Z M 0.046875 0 " fill-opacity="1" fill-rule="nonzero"/><path fill="#ffffff" d="M 0.046875 0 L 449.933594 0 L 449.933594 299.921875 L 0.046875 299.921875 Z M 0.046875 0 " fill-opacity="1" fill-rule="nonzero"/></g><g transform="matrix(1, 0, 0, 1, 92, 11)"><g clip-path="url(#8a24724c8f)"><g clip-path="url(#507e5e112c)"><g clip-path="url(#e5fc963110)"><g transform="matrix(1, 0, 0, 1, 10, 0.000000000000001776)"><g clip-path="url(#2672eb4fc0)"><g clip-path="url(#ae2f6cfc3c)"><g clip-path="url(#06613e7e12)"><path fill="#ffffff" d="M 0.0742188 0.214844 L 255.472656 0.214844 L 255.472656 255.609375 L 0.0742188 255.609375 Z M 0.0742188 0.214844 " fill-opacity="1" fill-rule="nonzero"/></g></g></g></g></g></g><g clip-path="url(#9e9cce36c2)"><path fill="#0b1d3a" d="M 137.769531 0.214844 C 135.679688 0.214844 133.589844 0.265625 131.503906 0.367188 C 129.417969 0.472656 127.332031 0.625 125.253906 0.828125 C 123.171875 1.035156 121.101562 1.289062 119.03125 1.597656 C 116.964844 1.902344 114.90625 2.261719 112.855469 2.667969 C 110.808594 3.074219 108.769531 3.535156 106.742188 4.042969 C 104.714844 4.550781 102.703125 5.105469 100.703125 5.714844 C 98.703125 6.320312 96.71875 6.976562 94.75 7.679688 C 92.78125 8.382812 90.832031 9.136719 88.902344 9.933594 C 86.972656 10.734375 85.0625 11.582031 83.171875 12.476562 C 81.285156 13.367188 79.417969 14.308594 77.574219 15.292969 C 75.730469 16.277344 73.914062 17.308594 72.121094 18.382812 C 70.328125 19.457031 68.5625 20.574219 66.828125 21.734375 C 65.089844 22.894531 63.378906 24.097656 61.703125 25.34375 C 60.023438 26.589844 58.375 27.875 56.761719 29.199219 C 55.144531 30.527344 53.5625 31.890625 52.015625 33.292969 C 50.46875 34.695312 48.953125 36.136719 47.476562 37.617188 C 46 39.09375 44.558594 40.605469 43.15625 42.15625 C 41.75 43.703125 40.386719 45.285156 39.058594 46.902344 C 37.734375 48.515625 36.449219 50.164062 35.203125 51.839844 C 33.960938 53.519531 32.757812 55.226562 31.59375 56.964844 C 30.433594 58.703125 29.316406 60.46875 28.242188 62.261719 C 27.167969 64.054688 26.136719 65.871094 25.152344 67.714844 C 24.167969 69.558594 23.230469 71.421875 22.335938 73.3125 C 21.441406 75.203125 20.59375 77.113281 19.796875 79.042969 C 18.996094 80.972656 18.242188 82.921875 17.539062 84.890625 C 16.835938 86.859375 16.179688 88.839844 15.574219 90.839844 C 14.96875 92.839844 14.410156 94.855469 13.902344 96.882812 C 13.394531 98.910156 12.9375 100.945312 12.527344 102.996094 C 12.121094 105.046875 11.765625 107.105469 11.457031 109.171875 C 11.152344 111.238281 10.894531 113.3125 10.691406 115.390625 C 10.484375 117.472656 10.332031 119.554688 10.230469 121.644531 C 10.125 123.730469 10.074219 125.820312 10.074219 127.910156 C 10.074219 130 10.125 132.085938 10.230469 134.175781 C 10.332031 136.261719 10.484375 138.34375 10.691406 140.425781 C 10.894531 142.503906 11.152344 144.578125 11.457031 146.644531 C 11.765625 148.710938 12.121094 150.769531 12.527344 152.820312 C 12.9375 154.871094 13.394531 156.910156 13.902344 158.9375 C 14.410156 160.960938 14.96875 162.976562 15.574219 164.976562 C 16.179688 166.976562 16.835938 168.960938 17.539062 170.925781 C 18.242188 172.894531 18.996094 174.84375 19.796875 176.773438 C 20.59375 178.707031 21.441406 180.617188 22.335938 182.503906 C 23.230469 184.394531 24.167969 186.261719 25.152344 188.101562 C 26.136719 189.945312 27.167969 191.765625 28.242188 193.554688 C 29.316406 195.347656 30.433594 197.113281 31.59375 198.851562 C 32.757812 200.589844 33.960938 202.296875 35.203125 203.976562 C 36.449219 205.652344 37.734375 207.300781 39.058594 208.917969 C 40.386719 210.53125 41.75 212.113281 43.15625 213.664062 C 44.558594 215.210938 46 216.722656 47.476562 218.203125 C 48.953125 219.679688 50.46875 221.121094 52.015625 222.523438 C 53.5625 223.925781 55.144531 225.292969 56.761719 226.617188 C 58.375 227.941406 60.023438 229.226562 61.703125 230.472656 C 63.378906 231.71875 65.089844 232.921875 66.828125 234.082031 C 68.5625 235.242188 70.328125 236.359375 72.121094 237.433594 C 73.914062 238.507812 75.730469 239.539062 77.574219 240.523438 C 79.417969 241.507812 81.285156 242.449219 83.171875 243.34375 C 85.0625 244.234375 86.972656 245.082031 88.902344 245.882812 C 90.832031 246.683594 92.78125 247.433594 94.75 248.136719 C 96.71875 248.84375 98.703125 249.496094 100.703125 250.105469 C 102.703125 250.710938 104.714844 251.269531 106.742188 251.777344 C 108.769531 252.285156 110.808594 252.742188 112.855469 253.148438 C 114.90625 253.554688 116.964844 253.914062 119.03125 254.21875 C 121.101562 254.527344 123.171875 254.78125 125.253906 254.988281 C 127.332031 255.191406 129.417969 255.347656 131.503906 255.449219 C 133.589844 255.550781 135.679688 255.601562 137.769531 255.601562 C 139.859375 255.601562 141.949219 255.550781 144.035156 255.449219 C 146.121094 255.347656 148.207031 255.191406 150.285156 254.988281 C 152.363281 254.78125 154.4375 254.527344 156.503906 254.21875 C 158.574219 253.914062 160.632812 253.554688 162.679688 253.148438 C 164.730469 252.742188 166.769531 252.285156 168.796875 251.777344 C 170.824219 251.269531 172.835938 250.710938 174.835938 250.105469 C 176.835938 249.496094 178.820312 248.84375 180.789062 248.136719 C 182.753906 247.433594 184.703125 246.683594 186.636719 245.882812 C 188.566406 245.082031 190.476562 244.234375 192.367188 243.34375 C 194.253906 242.449219 196.121094 241.507812 197.964844 240.523438 C 199.808594 239.539062 201.625 238.507812 203.417969 237.433594 C 205.210938 236.359375 206.972656 235.242188 208.710938 234.082031 C 210.449219 232.921875 212.15625 231.71875 213.835938 230.472656 C 215.515625 229.226562 217.160156 227.941406 218.777344 226.617188 C 220.394531 225.292969 221.976562 223.925781 223.523438 222.523438 C 225.070312 221.121094 226.585938 219.679688 228.0625 218.203125 C 229.539062 216.722656 230.980469 215.210938 232.382812 213.664062 C 233.789062 212.113281 235.152344 210.53125 236.476562 208.917969 C 237.804688 207.300781 239.089844 205.652344 240.332031 203.976562 C 241.578125 202.296875 242.78125 200.589844 243.941406 198.851562 C 245.105469 197.113281 246.222656 195.347656 247.296875 193.554688 C 248.371094 191.765625 249.398438 189.945312 250.386719 188.101562 C 251.371094 186.261719 252.308594 184.394531 253.203125 182.503906 C 254.097656 180.617188 254.941406 178.707031 255.742188 176.773438 C 256.542969 174.84375 257.292969 172.894531 258 170.925781 C 258.703125 168.960938 259.359375 166.976562 259.964844 164.976562 C 260.570312 162.976562 261.128906 160.960938 261.636719 158.9375 C 262.144531 156.910156 262.601562 154.871094 263.007812 152.820312 C 263.417969 150.769531 263.773438 148.710938 264.082031 146.644531 C 264.386719 144.578125 264.644531 142.503906 264.847656 140.425781 C 265.054688 138.34375 265.207031 136.261719 265.308594 134.175781 C 265.410156 132.085938 265.464844 130 265.464844 127.910156 C 265.460938 125.820312 265.40625 123.730469 265.300781 121.644531 C 265.195312 119.558594 265.039062 117.476562 264.835938 115.398438 C 264.628906 113.320312 264.371094 111.246094 264.0625 109.179688 C 263.753906 107.113281 263.394531 105.054688 262.984375 103.007812 C 262.574219 100.960938 262.113281 98.921875 261.605469 96.894531 C 261.097656 94.871094 260.539062 92.855469 259.929688 90.859375 C 259.320312 88.859375 258.664062 86.878906 257.960938 84.910156 C 257.253906 82.945312 256.5 80.996094 255.699219 79.066406 C 254.898438 77.136719 254.054688 75.226562 253.160156 73.339844 C 252.265625 71.453125 251.324219 69.585938 250.339844 67.746094 C 249.351562 65.902344 248.324219 64.085938 247.25 62.296875 C 246.171875 60.503906 245.054688 58.738281 243.894531 57.003906 C 242.734375 55.265625 241.53125 53.558594 240.285156 51.882812 C 239.039062 50.203125 237.753906 48.558594 236.429688 46.941406 C 235.105469 45.328125 233.738281 43.746094 232.335938 42.199219 C 230.933594 40.652344 229.492188 39.136719 228.015625 37.660156 C 226.539062 36.183594 225.027344 34.742188 223.480469 33.339844 C 221.929688 31.9375 220.351562 30.574219 218.734375 29.25 C 217.121094 27.921875 215.472656 26.636719 213.796875 25.390625 C 212.117188 24.148438 210.410156 22.945312 208.675781 21.785156 C 206.9375 20.621094 205.175781 19.503906 203.382812 18.429688 C 201.589844 17.355469 199.773438 16.324219 197.933594 15.339844 C 196.089844 14.351562 194.226562 13.414062 192.335938 12.519531 C 190.449219 11.625 188.539062 10.777344 186.609375 9.976562 C 184.679688 9.175781 182.734375 8.421875 180.765625 7.71875 C 178.800781 7.011719 176.816406 6.355469 174.820312 5.75 C 172.820312 5.140625 170.808594 4.582031 168.78125 4.074219 C 166.757812 3.5625 164.71875 3.105469 162.671875 2.695312 C 160.621094 2.285156 158.5625 1.925781 156.496094 1.617188 C 154.433594 1.308594 152.359375 1.050781 150.28125 0.84375 C 148.203125 0.636719 146.117188 0.480469 144.03125 0.375 C 141.945312 0.269531 139.859375 0.21875 137.769531 0.214844 Z M 137.769531 89.726562 C 139.019531 89.726562 140.265625 89.789062 141.511719 89.910156 C 142.757812 90.035156 143.992188 90.21875 145.21875 90.460938 C 146.445312 90.707031 147.65625 91.007812 148.851562 91.371094 C 150.050781 91.734375 151.226562 92.15625 152.378906 92.632812 C 153.535156 93.113281 154.664062 93.648438 155.765625 94.238281 C 156.871094 94.824219 157.941406 95.46875 158.980469 96.164062 C 160.019531 96.859375 161.023438 97.601562 161.992188 98.394531 C 162.957031 99.1875 163.882812 100.027344 164.765625 100.910156 C 165.652344 101.796875 166.488281 102.71875 167.28125 103.6875 C 168.078125 104.652344 168.820312 105.65625 169.515625 106.695312 C 170.210938 107.738281 170.851562 108.808594 171.441406 109.910156 C 172.03125 111.011719 172.566406 112.140625 173.042969 113.296875 C 173.523438 114.453125 173.941406 115.628906 174.304688 116.824219 C 174.667969 118.023438 174.972656 119.234375 175.214844 120.460938 C 175.460938 121.6875 175.644531 122.921875 175.765625 124.167969 C 175.886719 125.410156 175.949219 126.65625 175.949219 127.910156 C 175.949219 129.160156 175.886719 130.40625 175.765625 131.652344 C 175.644531 132.894531 175.460938 134.128906 175.214844 135.355469 C 174.972656 136.582031 174.667969 137.796875 174.304688 138.992188 C 173.941406 140.1875 173.523438 141.363281 173.042969 142.519531 C 172.566406 143.675781 172.03125 144.804688 171.441406 145.90625 C 170.851562 147.007812 170.210938 148.082031 169.515625 149.121094 C 168.820312 150.160156 168.078125 151.164062 167.28125 152.128906 C 166.488281 153.097656 165.652344 154.023438 164.765625 154.90625 C 163.882812 155.789062 162.957031 156.628906 161.992188 157.421875 C 161.023438 158.214844 160.019531 158.960938 158.980469 159.65625 C 157.941406 160.347656 156.871094 160.992188 155.765625 161.582031 C 154.664062 162.171875 153.535156 162.703125 152.378906 163.183594 C 151.226562 163.660156 150.050781 164.082031 148.851562 164.445312 C 147.65625 164.808594 146.445312 165.113281 145.21875 165.355469 C 143.992188 165.597656 142.757812 165.78125 141.511719 165.90625 C 140.265625 166.027344 139.019531 166.089844 137.769531 166.089844 C 136.519531 166.089844 135.269531 166.027344 134.027344 165.90625 C 132.78125 165.78125 131.546875 165.597656 130.320312 165.355469 C 129.09375 165.113281 127.882812 164.808594 126.6875 164.445312 C 125.488281 164.082031 124.3125 163.660156 123.15625 163.183594 C 122.003906 162.703125 120.875 162.171875 119.769531 161.582031 C 118.667969 160.992188 117.597656 160.347656 116.558594 159.65625 C 115.519531 158.960938 114.515625 158.214844 113.546875 157.421875 C 112.582031 156.628906 111.65625 155.789062 110.773438 154.90625 C 109.886719 154.023438 109.046875 153.097656 108.253906 152.128906 C 107.460938 151.164062 106.71875 150.160156 106.023438 149.121094 C 105.328125 148.082031 104.6875 147.007812 104.097656 145.90625 C 103.507812 144.804688 102.972656 143.675781 102.496094 142.519531 C 102.015625 141.363281 101.597656 140.1875 101.234375 138.992188 C 100.871094 137.796875 100.566406 136.582031 100.324219 135.355469 C 100.078125 134.128906 99.894531 132.894531 99.773438 131.652344 C 99.648438 130.40625 99.589844 129.160156 99.589844 127.910156 C 99.589844 126.660156 99.652344 125.410156 99.773438 124.167969 C 99.898438 122.921875 100.082031 121.6875 100.324219 120.460938 C 100.570312 119.234375 100.875 118.023438 101.238281 116.828125 C 101.601562 115.632812 102.023438 114.457031 102.5 113.300781 C 102.980469 112.144531 103.515625 111.015625 104.101562 109.914062 C 104.691406 108.8125 105.335938 107.742188 106.03125 106.703125 C 106.726562 105.664062 107.46875 104.660156 108.261719 103.691406 C 109.054688 102.726562 109.894531 101.800781 110.777344 100.917969 C 111.660156 100.03125 112.585938 99.195312 113.554688 98.402344 C 114.519531 97.609375 115.523438 96.863281 116.5625 96.167969 C 117.601562 95.472656 118.671875 94.832031 119.773438 94.242188 C 120.878906 93.652344 122.007812 93.117188 123.160156 92.640625 C 124.316406 92.160156 125.492188 91.742188 126.6875 91.378906 C 127.882812 91.011719 129.097656 90.710938 130.320312 90.464844 C 131.546875 90.222656 132.785156 90.035156 134.027344 89.914062 C 135.273438 89.789062 136.519531 89.730469 137.769531 89.726562 Z M 256.949219 127.910156 C 256.957031 129.945312 256.90625 131.984375 256.808594 134.019531 C 256.707031 136.054688 256.558594 138.085938 256.351562 140.117188 C 256.148438 142.144531 255.894531 144.164062 255.585938 146.179688 C 255.277344 148.195312 254.917969 150.203125 254.507812 152.199219 C 254.097656 154.195312 253.636719 156.179688 253.125 158.152344 C 252.613281 160.125 252.050781 162.082031 251.4375 164.027344 C 250.824219 165.972656 250.164062 167.898438 249.453125 169.808594 C 248.738281 171.71875 247.980469 173.609375 247.171875 175.480469 C 246.363281 177.351562 245.507812 179.199219 244.601562 181.027344 C 243.699219 182.855469 242.75 184.65625 241.753906 186.4375 C 240.757812 188.214844 239.714844 189.964844 238.628906 191.691406 C 237.546875 193.414062 236.414062 195.113281 235.242188 196.777344 C 234.070312 198.445312 232.855469 200.082031 231.597656 201.6875 C 230.339844 203.292969 229.042969 204.863281 227.707031 206.402344 C 226.371094 207.9375 224.992188 209.441406 223.578125 210.910156 C 222.164062 212.378906 220.710938 213.808594 219.226562 215.199219 C 217.738281 216.59375 216.214844 217.949219 214.65625 219.261719 C 213.097656 220.578125 211.507812 221.851562 209.886719 223.085938 C 208.265625 224.320312 206.609375 225.507812 204.925781 226.660156 C 203.242188 227.808594 201.53125 228.910156 199.789062 229.972656 C 198.050781 231.03125 196.28125 232.046875 194.488281 233.019531 C 192.695312 233.988281 190.878906 234.910156 189.039062 235.789062 C 187.199219 236.664062 185.339844 237.496094 183.457031 238.277344 C 181.574219 239.058594 179.671875 239.789062 177.753906 240.472656 C 175.832031 241.15625 173.894531 241.792969 171.941406 242.375 C 169.992188 242.960938 168.023438 243.496094 166.042969 243.976562 C 164.0625 244.460938 162.074219 244.894531 160.070312 245.277344 C 158.066406 245.65625 156.058594 245.988281 154.039062 246.265625 C 152.019531 246.542969 149.992188 246.769531 147.960938 246.945312 C 145.933594 247.117188 143.898438 247.242188 141.859375 247.3125 C 139.824219 247.378906 137.785156 247.398438 135.75 247.363281 C 133.710938 247.328125 131.675781 247.242188 129.640625 247.101562 C 127.605469 246.964844 125.578125 246.773438 123.554688 246.53125 C 121.53125 246.285156 119.515625 245.992188 117.507812 245.644531 C 115.496094 245.300781 113.5 244.902344 111.511719 244.453125 C 109.523438 244.003906 107.546875 243.503906 105.585938 242.953125 C 103.621094 242.402344 101.675781 241.800781 99.742188 241.152344 C 97.8125 240.5 95.898438 239.800781 94 239.054688 C 92.105469 238.304688 90.230469 237.507812 88.375 236.664062 C 86.519531 235.820312 84.6875 234.925781 82.878906 233.988281 C 81.070312 233.050781 79.285156 232.066406 77.527344 231.035156 C 75.769531 230.003906 74.035156 228.929688 72.332031 227.808594 C 70.628906 226.691406 68.957031 225.527344 67.3125 224.324219 C 65.667969 223.117188 64.054688 221.871094 62.476562 220.585938 C 60.894531 219.296875 59.351562 217.96875 57.839844 216.601562 C 56.324219 215.234375 54.851562 213.832031 53.410156 212.386719 C 51.96875 210.945312 50.570312 209.464844 49.203125 207.953125 C 47.839844 206.4375 46.515625 204.886719 45.230469 203.304688 C 43.949219 201.722656 42.703125 200.109375 41.503906 198.460938 C 40.300781 196.816406 39.140625 195.140625 38.027344 193.433594 C 36.910156 191.726562 35.839844 189.996094 34.8125 188.234375 C 33.785156 186.472656 32.804688 184.6875 31.871094 182.875 C 30.933594 181.0625 30.046875 179.230469 29.207031 177.375 C 28.363281 175.515625 27.570312 173.640625 26.828125 171.742188 C 26.082031 169.84375 25.386719 167.929688 24.742188 165.996094 C 24.09375 164.0625 23.496094 162.113281 22.953125 160.152344 C 22.40625 158.1875 21.910156 156.210938 21.464844 154.222656 C 21.019531 152.234375 20.625 150.234375 20.28125 148.222656 C 19.941406 146.214844 19.648438 144.199219 19.410156 142.175781 C 19.171875 140.148438 18.984375 138.121094 18.851562 136.085938 C 18.714844 134.054688 18.632812 132.015625 18.601562 129.980469 C 18.570312 127.941406 18.59375 125.902344 18.667969 123.867188 C 18.742188 121.828125 18.867188 119.796875 19.046875 117.765625 C 19.226562 115.734375 19.457031 113.710938 19.738281 111.691406 C 31.085938 116.855469 42.757812 121.144531 54.75 124.5625 C 66.742188 127.980469 78.921875 130.484375 91.289062 132.078125 C 91.417969 133.515625 91.609375 134.945312 91.871094 136.363281 C 92.128906 137.78125 92.453125 139.183594 92.84375 140.570312 C 93.234375 141.960938 93.6875 143.328125 94.203125 144.671875 C 94.722656 146.019531 95.300781 147.339844 95.9375 148.632812 C 96.578125 149.925781 97.273438 151.183594 98.03125 152.414062 C 98.785156 153.640625 99.597656 154.832031 100.464844 155.984375 C 101.332031 157.136719 102.25 158.246094 103.21875 159.3125 C 104.1875 160.382812 105.203125 161.402344 106.265625 162.375 C 107.332031 163.347656 108.4375 164.273438 109.585938 165.144531 C 110.734375 166.011719 111.921875 166.828125 113.148438 167.589844 C 114.371094 168.351562 115.628906 169.054688 116.917969 169.699219 C 118.210938 170.34375 119.527344 170.925781 120.871094 171.449219 C 122.214844 171.96875 123.582031 172.429688 124.96875 172.824219 C 126.355469 173.21875 127.753906 173.550781 129.171875 173.816406 C 130.589844 174.082031 132.015625 174.28125 133.453125 174.414062 C 134.886719 174.546875 136.328125 174.613281 137.769531 174.613281 C 139.210938 174.613281 140.648438 174.546875 142.085938 174.414062 C 143.523438 174.28125 144.949219 174.082031 146.367188 173.816406 C 147.78125 173.550781 149.183594 173.21875 150.570312 172.824219 C 151.957031 172.429688 153.324219 171.96875 154.667969 171.449219 C 156.011719 170.925781 157.328125 170.34375 158.617188 169.699219 C 159.910156 169.054688 161.167969 168.351562 162.390625 167.589844 C 163.617188 166.828125 164.804688 166.011719 165.953125 165.144531 C 167.101562 164.273438 168.207031 163.347656 169.273438 162.375 C 170.335938 161.402344 171.351562 160.382812 172.320312 159.3125 C 173.289062 158.246094 174.207031 157.136719 175.074219 155.984375 C 175.941406 154.832031 176.75 153.640625 177.507812 152.414062 C 178.261719 151.183594 178.960938 149.925781 179.601562 148.632812 C 180.238281 147.339844 180.816406 146.019531 181.332031 144.671875 C 181.851562 143.328125 182.304688 141.960938 182.695312 140.570312 C 183.082031 139.183594 183.410156 137.78125 183.667969 136.363281 C 183.929688 134.945312 184.121094 133.515625 184.25 132.078125 C 196.617188 130.484375 208.796875 127.980469 220.789062 124.5625 C 232.78125 121.144531 244.449219 116.855469 255.800781 111.691406 C 256.550781 117.070312 256.933594 122.476562 256.949219 127.910156 Z M 256.949219 127.910156 " fill-opacity="1" fill-rule="nonzero"/></g><path fill="#0b1d3a" d="M 137.769531 154.171875 C 138.628906 154.171875 139.488281 154.128906 140.34375 154.042969 C 141.199219 153.960938 142.050781 153.835938 142.894531 153.667969 C 143.738281 153.5 144.570312 153.289062 145.394531 153.039062 C 146.214844 152.789062 147.023438 152.5 147.820312 152.171875 C 148.613281 151.84375 149.390625 151.476562 150.148438 151.070312 C 150.90625 150.664062 151.644531 150.222656 152.359375 149.746094 C 153.074219 149.265625 153.765625 148.753906 154.429688 148.210938 C 155.09375 147.664062 155.730469 147.085938 156.339844 146.480469 C 156.949219 145.871094 157.523438 145.234375 158.070312 144.570312 C 158.617188 143.90625 159.128906 143.214844 159.605469 142.5 C 160.082031 141.785156 160.523438 141.046875 160.929688 140.289062 C 161.335938 139.53125 161.703125 138.753906 162.03125 137.957031 C 162.363281 137.164062 162.652344 136.355469 162.902344 135.53125 C 163.152344 134.710938 163.359375 133.875 163.527344 133.03125 C 163.695312 132.1875 163.820312 131.339844 163.90625 130.484375 C 163.988281 129.625 164.03125 128.769531 164.03125 127.910156 C 164.03125 127.046875 163.988281 126.191406 163.90625 125.335938 C 163.820312 124.476562 163.695312 123.628906 163.527344 122.785156 C 163.359375 121.941406 163.152344 121.109375 162.902344 120.285156 C 162.652344 119.460938 162.363281 118.652344 162.03125 117.859375 C 161.703125 117.0625 161.335938 116.289062 160.929688 115.527344 C 160.523438 114.769531 160.082031 114.03125 159.605469 113.316406 C 159.128906 112.601562 158.617188 111.914062 158.070312 111.246094 C 157.523438 110.582031 156.949219 109.945312 156.339844 109.339844 C 155.730469 108.730469 155.09375 108.152344 154.429688 107.609375 C 153.765625 107.0625 153.074219 106.550781 152.359375 106.070312 C 151.644531 105.59375 150.90625 105.152344 150.148438 104.746094 C 149.390625 104.339844 148.613281 103.972656 147.820312 103.644531 C 147.023438 103.316406 146.214844 103.027344 145.394531 102.777344 C 144.570312 102.527344 143.738281 102.320312 142.894531 102.152344 C 142.050781 101.984375 141.199219 101.855469 140.34375 101.773438 C 139.488281 101.6875 138.628906 101.644531 137.769531 101.644531 C 136.910156 101.644531 136.050781 101.6875 135.195312 101.773438 C 134.339844 101.855469 133.488281 101.984375 132.644531 102.152344 C 131.800781 102.320312 130.96875 102.527344 130.144531 102.777344 C 129.324219 103.027344 128.515625 103.316406 127.71875 103.644531 C 126.925781 103.972656 126.148438 104.339844 125.390625 104.746094 C 124.628906 105.152344 123.894531 105.59375 123.179688 106.070312 C 122.464844 106.550781 121.773438 107.0625 121.109375 107.609375 C 120.445312 108.152344 119.808594 108.730469 119.199219 109.339844 C 118.589844 109.945312 118.015625 110.582031 117.46875 111.246094 C 116.921875 111.914062 116.410156 112.601562 115.933594 113.316406 C 115.453125 114.03125 115.011719 114.769531 114.609375 115.527344 C 114.203125 116.289062 113.835938 117.0625 113.507812 117.859375 C 113.175781 118.652344 112.886719 119.460938 112.636719 120.285156 C 112.386719 121.109375 112.179688 121.941406 112.011719 122.785156 C 111.84375 123.628906 111.71875 124.476562 111.632812 125.335938 C 111.550781 126.191406 111.507812 127.046875 111.507812 127.910156 C 111.507812 128.769531 111.550781 129.625 111.636719 130.480469 C 111.722656 131.335938 111.851562 132.1875 112.019531 133.027344 C 112.1875 133.871094 112.398438 134.703125 112.648438 135.527344 C 112.898438 136.351562 113.1875 137.15625 113.515625 137.953125 C 113.847656 138.746094 114.214844 139.523438 114.621094 140.28125 C 115.027344 141.039062 115.46875 141.773438 115.945312 142.488281 C 116.425781 143.203125 116.9375 143.894531 117.480469 144.558594 C 118.027344 145.222656 118.601562 145.859375 119.210938 146.464844 C 119.820312 147.074219 120.457031 147.652344 121.121094 148.195312 C 121.785156 148.742188 122.472656 149.253906 123.1875 149.730469 C 123.902344 150.210938 124.640625 150.652344 125.398438 151.058594 C 126.15625 151.464844 126.929688 151.832031 127.726562 152.160156 C 128.519531 152.488281 129.328125 152.78125 130.152344 153.03125 C 130.972656 153.28125 131.804688 153.492188 132.648438 153.660156 C 133.492188 153.828125 134.339844 153.957031 135.195312 154.039062 C 136.050781 154.125 136.910156 154.167969 137.769531 154.171875 Z M 137.769531 110.160156 C 138.351562 110.160156 138.929688 110.1875 139.507812 110.246094 C 140.085938 110.300781 140.660156 110.386719 141.230469 110.5 C 141.800781 110.613281 142.367188 110.753906 142.921875 110.921875 C 143.476562 111.09375 144.023438 111.289062 144.5625 111.511719 C 145.097656 111.734375 145.625 111.980469 146.136719 112.253906 C 146.648438 112.527344 147.148438 112.828125 147.628906 113.152344 C 148.113281 113.472656 148.578125 113.820312 149.03125 114.1875 C 149.480469 114.558594 149.910156 114.945312 150.320312 115.359375 C 150.730469 115.769531 151.121094 116.199219 151.488281 116.648438 C 151.859375 117.097656 152.203125 117.5625 152.527344 118.046875 C 152.851562 118.53125 153.148438 119.027344 153.421875 119.542969 C 153.695312 120.054688 153.945312 120.578125 154.167969 121.117188 C 154.390625 121.652344 154.585938 122.199219 154.753906 122.757812 C 154.921875 123.3125 155.0625 123.875 155.175781 124.445312 C 155.292969 125.015625 155.375 125.589844 155.433594 126.167969 C 155.488281 126.746094 155.519531 127.328125 155.519531 127.910156 C 155.519531 128.488281 155.488281 129.070312 155.433594 129.648438 C 155.375 130.226562 155.292969 130.800781 155.175781 131.371094 C 155.0625 131.941406 154.921875 132.503906 154.753906 133.0625 C 154.585938 133.617188 154.390625 134.164062 154.167969 134.699219 C 153.945312 135.238281 153.695312 135.761719 153.421875 136.277344 C 153.148438 136.789062 152.851562 137.285156 152.527344 137.769531 C 152.203125 138.253906 151.859375 138.71875 151.488281 139.167969 C 151.121094 139.617188 150.730469 140.046875 150.320312 140.460938 C 149.910156 140.871094 149.480469 141.261719 149.03125 141.628906 C 148.578125 141.996094 148.113281 142.34375 147.628906 142.667969 C 147.148438 142.988281 146.648438 143.289062 146.136719 143.5625 C 145.625 143.835938 145.097656 144.085938 144.5625 144.308594 C 144.023438 144.53125 143.476562 144.726562 142.921875 144.894531 C 142.367188 145.0625 141.800781 145.203125 141.230469 145.316406 C 140.660156 145.429688 140.085938 145.515625 139.507812 145.574219 C 138.929688 145.628906 138.351562 145.65625 137.769531 145.65625 C 137.1875 145.65625 136.609375 145.628906 136.03125 145.574219 C 135.449219 145.515625 134.875 145.429688 134.304688 145.316406 C 133.738281 145.203125 133.171875 145.0625 132.617188 144.894531 C 132.0625 144.726562 131.515625 144.53125 130.976562 144.308594 C 130.441406 144.085938 129.914062 143.835938 129.402344 143.5625 C 128.890625 143.289062 128.390625 142.988281 127.90625 142.667969 C 127.425781 142.34375 126.957031 141.996094 126.507812 141.628906 C 126.058594 141.261719 125.628906 140.871094 125.21875 140.460938 C 124.808594 140.046875 124.417969 139.617188 124.046875 139.167969 C 123.679688 138.71875 123.335938 138.253906 123.011719 137.769531 C 122.6875 137.285156 122.390625 136.789062 122.117188 136.277344 C 121.839844 135.761719 121.59375 135.238281 121.371094 134.699219 C 121.148438 134.164062 120.953125 133.617188 120.785156 133.0625 C 120.617188 132.503906 120.472656 131.941406 120.359375 131.371094 C 120.246094 130.800781 120.164062 130.226562 120.105469 129.648438 C 120.046875 129.070312 120.019531 128.488281 120.019531 127.910156 C 120.019531 127.328125 120.050781 126.746094 120.105469 126.167969 C 120.164062 125.589844 120.25 125.015625 120.363281 124.445312 C 120.476562 123.878906 120.617188 123.3125 120.789062 122.757812 C 120.957031 122.203125 121.152344 121.65625 121.375 121.117188 C 121.597656 120.582031 121.847656 120.058594 122.121094 119.546875 C 122.394531 119.03125 122.691406 118.535156 123.015625 118.050781 C 123.339844 117.570312 123.683594 117.101562 124.054688 116.652344 C 124.421875 116.203125 124.8125 115.773438 125.222656 115.363281 C 125.632812 114.953125 126.066406 114.5625 126.511719 114.191406 C 126.960938 113.824219 127.429688 113.480469 127.914062 113.15625 C 128.394531 112.832031 128.894531 112.535156 129.40625 112.261719 C 129.917969 111.984375 130.441406 111.738281 130.980469 111.515625 C 131.515625 111.292969 132.0625 111.097656 132.617188 110.925781 C 133.175781 110.757812 133.738281 110.617188 134.308594 110.503906 C 134.878906 110.390625 135.453125 110.304688 136.03125 110.246094 C 136.609375 110.1875 137.1875 110.160156 137.769531 110.160156 Z M 137.769531 110.160156 " fill-opacity="1" fill-rule="nonzero"/><g clip-path="url(#573f96a28d)"><g clip-path="url(#118077308e)"><g transform="matrix(1, 0, 0, 1, 0.000000000000014211, 167)"><g clip-path="url(#546abdd229)"><g clip-path="url(#f24b59738d)"><g clip-path="url(#681f0efab6)"><path fill="#ffffff" d="M 0.507812 0.460938 L 110.753906 0.460938 L 110.753906 110.707031 L 0.507812 110.707031 Z M 0.507812 0.460938 " fill-opacity="1" fill-rule="nonzero"/></g></g></g></g></g></g><g clip-path="url(#b450d95d7b)"><path fill="#0b1d3a" d="M 55.628906 167.460938 C 53.824219 167.460938 52.023438 167.550781 50.226562 167.726562 C 48.429688 167.902344 46.648438 168.167969 44.875 168.519531 C 43.105469 168.871094 41.355469 169.3125 39.628906 169.835938 C 37.902344 170.359375 36.203125 170.964844 34.535156 171.65625 C 32.867188 172.347656 31.238281 173.121094 29.644531 173.96875 C 28.054688 174.820312 26.507812 175.75 25.007812 176.75 C 23.503906 177.753906 22.058594 178.828125 20.660156 179.972656 C 19.265625 181.117188 17.929688 182.328125 16.652344 183.605469 C 15.378906 184.882812 14.167969 186.21875 13.019531 187.613281 C 11.875 189.007812 10.800781 190.457031 9.800781 191.957031 C 8.796875 193.460938 7.867188 195.007812 7.019531 196.597656 C 6.167969 198.191406 5.394531 199.820312 4.707031 201.488281 C 4.015625 203.15625 3.40625 204.855469 2.882812 206.582031 C 2.359375 208.308594 1.921875 210.058594 1.570312 211.828125 C 1.214844 213.597656 0.953125 215.382812 0.773438 217.179688 C 0.597656 218.976562 0.507812 220.777344 0.507812 222.582031 C 0.507812 224.386719 0.597656 226.1875 0.773438 227.984375 C 0.953125 229.78125 1.214844 231.566406 1.570312 233.335938 C 1.921875 235.105469 2.359375 236.855469 2.882812 238.582031 C 3.40625 240.3125 4.015625 242.007812 4.707031 243.675781 C 5.394531 245.34375 6.167969 246.972656 7.019531 248.566406 C 7.867188 250.160156 8.796875 251.703125 9.800781 253.207031 C 10.800781 254.707031 11.875 256.15625 13.019531 257.550781 C 14.167969 258.945312 15.378906 260.28125 16.652344 261.558594 C 17.929688 262.835938 19.265625 264.046875 20.660156 265.191406 C 22.058594 266.335938 23.503906 267.410156 25.007812 268.414062 C 26.507812 269.417969 28.054688 270.34375 29.644531 271.195312 C 31.238281 272.046875 32.867188 272.816406 34.535156 273.507812 C 36.203125 274.199219 37.902344 274.804688 39.628906 275.328125 C 41.355469 275.855469 43.105469 276.292969 44.875 276.644531 C 46.648438 276.996094 48.429688 277.261719 50.226562 277.4375 C 52.023438 277.613281 53.824219 277.703125 55.628906 277.703125 C 57.433594 277.703125 59.238281 277.613281 61.03125 277.4375 C 62.828125 277.261719 64.613281 276.996094 66.382812 276.644531 C 68.15625 276.292969 69.902344 275.855469 71.632812 275.328125 C 73.359375 274.804688 75.054688 274.199219 76.722656 273.507812 C 78.390625 272.816406 80.023438 272.046875 81.613281 271.195312 C 83.207031 270.34375 84.753906 269.417969 86.253906 268.414062 C 87.753906 267.410156 89.203125 266.335938 90.597656 265.191406 C 91.992188 264.046875 93.328125 262.835938 94.605469 261.558594 C 95.882812 260.28125 97.09375 258.945312 98.238281 257.550781 C 99.382812 256.15625 100.457031 254.707031 101.460938 253.207031 C 102.464844 251.703125 103.390625 250.160156 104.242188 248.566406 C 105.09375 246.972656 105.863281 245.34375 106.554688 243.675781 C 107.246094 242.007812 107.851562 240.3125 108.378906 238.582031 C 108.902344 236.855469 109.339844 235.105469 109.691406 233.335938 C 110.042969 231.566406 110.308594 229.78125 110.484375 227.984375 C 110.664062 226.1875 110.75 224.386719 110.75 222.582031 C 110.75 220.777344 110.660156 218.976562 110.480469 217.183594 C 110.300781 215.386719 110.035156 213.601562 109.679688 211.832031 C 109.328125 210.0625 108.886719 208.316406 108.363281 206.589844 C 107.835938 204.863281 107.230469 203.167969 106.535156 201.5 C 105.84375 199.832031 105.074219 198.203125 104.222656 196.613281 C 103.371094 195.019531 102.445312 193.476562 101.441406 191.976562 C 100.4375 190.476562 99.363281 189.027344 98.21875 187.632812 C 97.074219 186.238281 95.863281 184.902344 94.585938 183.625 C 93.308594 182.351562 91.976562 181.140625 90.582031 179.996094 C 89.183594 178.847656 87.738281 177.773438 86.238281 176.773438 C 84.738281 175.769531 83.191406 174.839844 81.601562 173.992188 C 80.007812 173.140625 78.378906 172.367188 76.714844 171.675781 C 75.046875 170.984375 73.351562 170.375 71.625 169.851562 C 69.898438 169.324219 68.148438 168.886719 66.378906 168.53125 C 64.609375 168.179688 62.828125 167.910156 61.03125 167.734375 C 59.234375 167.554688 57.433594 167.464844 55.628906 167.460938 Z M 55.628906 206.101562 C 56.171875 206.101562 56.707031 206.128906 57.246094 206.179688 C 57.78125 206.234375 58.316406 206.3125 58.84375 206.417969 C 59.375 206.523438 59.898438 206.65625 60.414062 206.8125 C 60.929688 206.96875 61.4375 207.148438 61.9375 207.355469 C 62.4375 207.5625 62.921875 207.792969 63.398438 208.046875 C 63.875 208.300781 64.335938 208.578125 64.785156 208.878906 C 65.234375 209.179688 65.667969 209.5 66.085938 209.84375 C 66.503906 210.183594 66.902344 210.546875 67.285156 210.929688 C 67.664062 211.308594 68.027344 211.710938 68.371094 212.125 C 68.710938 212.542969 69.035156 212.976562 69.332031 213.425781 C 69.632812 213.875 69.910156 214.335938 70.164062 214.8125 C 70.417969 215.289062 70.648438 215.777344 70.855469 216.277344 C 71.0625 216.773438 71.246094 217.28125 71.402344 217.796875 C 71.558594 218.316406 71.6875 218.835938 71.792969 219.367188 C 71.898438 219.898438 71.980469 220.429688 72.03125 220.96875 C 72.085938 221.503906 72.109375 222.042969 72.109375 222.582031 C 72.109375 223.121094 72.085938 223.660156 72.03125 224.199219 C 71.980469 224.734375 71.898438 225.269531 71.792969 225.796875 C 71.6875 226.328125 71.558594 226.851562 71.402344 227.367188 C 71.246094 227.882812 71.0625 228.390625 70.855469 228.890625 C 70.648438 229.386719 70.417969 229.875 70.164062 230.351562 C 69.910156 230.828125 69.632812 231.289062 69.332031 231.738281 C 69.035156 232.1875 68.710938 232.621094 68.371094 233.039062 C 68.027344 233.457031 67.664062 233.855469 67.285156 234.238281 C 66.902344 234.617188 66.503906 234.980469 66.085938 235.324219 C 65.667969 235.664062 65.234375 235.984375 64.785156 236.285156 C 64.335938 236.585938 63.875 236.863281 63.398438 237.117188 C 62.921875 237.371094 62.4375 237.601562 61.9375 237.808594 C 61.4375 238.015625 60.929688 238.195312 60.414062 238.355469 C 59.898438 238.511719 59.375 238.640625 58.84375 238.746094 C 58.316406 238.851562 57.78125 238.929688 57.246094 238.984375 C 56.707031 239.039062 56.171875 239.0625 55.628906 239.0625 C 55.089844 239.0625 54.550781 239.039062 54.015625 238.984375 C 53.476562 238.929688 52.945312 238.851562 52.414062 238.746094 C 51.886719 238.640625 51.363281 238.511719 50.847656 238.355469 C 50.328125 238.195312 49.820312 238.015625 49.324219 237.808594 C 48.824219 237.601562 48.335938 237.371094 47.859375 237.117188 C 47.386719 236.863281 46.921875 236.585938 46.472656 236.285156 C 46.023438 235.984375 45.59375 235.664062 45.175781 235.324219 C 44.757812 234.980469 44.359375 234.617188 43.976562 234.238281 C 43.59375 233.855469 43.234375 233.457031 42.890625 233.039062 C 42.546875 232.621094 42.226562 232.1875 41.925781 231.738281 C 41.625 231.289062 41.347656 230.828125 41.09375 230.351562 C 40.839844 229.875 40.609375 229.386719 40.402344 228.890625 C 40.195312 228.390625 40.015625 227.882812 39.859375 227.367188 C 39.703125 226.851562 39.570312 226.328125 39.464844 225.796875 C 39.359375 225.269531 39.28125 224.734375 39.226562 224.199219 C 39.175781 223.660156 39.148438 223.121094 39.148438 222.582031 C 39.148438 222.042969 39.175781 221.503906 39.230469 220.96875 C 39.28125 220.429688 39.363281 219.898438 39.46875 219.367188 C 39.574219 218.839844 39.703125 218.316406 39.859375 217.800781 C 40.019531 217.28125 40.199219 216.773438 40.40625 216.277344 C 40.613281 215.777344 40.84375 215.292969 41.097656 214.816406 C 41.351562 214.339844 41.628906 213.875 41.929688 213.429688 C 42.230469 212.980469 42.550781 212.546875 42.894531 212.128906 C 43.234375 211.710938 43.597656 211.3125 43.980469 210.929688 C 44.359375 210.550781 44.761719 210.1875 45.175781 209.84375 C 45.59375 209.503906 46.027344 209.179688 46.476562 208.882812 C 46.925781 208.582031 47.386719 208.304688 47.863281 208.050781 C 48.339844 207.796875 48.824219 207.566406 49.324219 207.359375 C 49.824219 207.152344 50.332031 206.96875 50.847656 206.8125 C 51.363281 206.65625 51.886719 206.523438 52.414062 206.417969 C 52.945312 206.3125 53.476562 206.234375 54.015625 206.179688 C 54.550781 206.128906 55.089844 206.101562 55.628906 206.101562 Z M 107.078125 222.582031 C 107.082031 224.34375 106.996094 226.101562 106.820312 227.851562 C 106.644531 229.605469 106.378906 231.34375 106.023438 233.066406 C 105.667969 234.792969 105.226562 236.496094 104.695312 238.171875 C 104.167969 239.851562 103.554688 241.5 102.855469 243.117188 C 102.15625 244.734375 101.375 246.308594 100.515625 247.847656 C 99.65625 249.382812 98.71875 250.871094 97.707031 252.3125 C 96.691406 253.75 95.609375 255.136719 94.453125 256.464844 C 93.296875 257.792969 92.078125 259.058594 90.792969 260.261719 C 89.507812 261.464844 88.164062 262.601562 86.761719 263.667969 C 85.359375 264.730469 83.90625 265.722656 82.402344 266.640625 C 80.898438 267.554688 79.351562 268.394531 77.761719 269.152344 C 76.171875 269.90625 74.546875 270.582031 72.890625 271.171875 C 71.230469 271.761719 69.546875 272.269531 67.835938 272.6875 C 66.125 273.101562 64.398438 273.433594 62.652344 273.671875 C 60.910156 273.914062 59.15625 274.0625 57.394531 274.125 C 55.636719 274.183594 53.878906 274.15625 52.121094 274.035156 C 50.363281 273.914062 48.617188 273.703125 46.882812 273.40625 C 45.148438 273.105469 43.433594 272.71875 41.738281 272.242188 C 40.042969 271.765625 38.375 271.207031 36.738281 270.558594 C 35.097656 269.914062 33.5 269.183594 31.9375 268.371094 C 30.371094 267.5625 28.855469 266.671875 27.382812 265.707031 C 25.914062 264.738281 24.492188 263.699219 23.128906 262.585938 C 21.765625 261.476562 20.460938 260.296875 19.214844 259.050781 C 17.972656 257.800781 16.792969 256.496094 15.683594 255.128906 C 14.574219 253.761719 13.539062 252.339844 12.574219 250.867188 C 11.609375 249.394531 10.726562 247.875 9.917969 246.308594 C 9.109375 244.746094 8.382812 243.144531 7.742188 241.503906 C 7.097656 239.863281 6.539062 238.195312 6.066406 236.5 C 5.59375 234.804688 5.210938 233.089844 4.914062 231.351562 C 4.621094 229.617188 4.414062 227.871094 4.296875 226.113281 C 4.179688 224.355469 4.152344 222.597656 4.21875 220.835938 C 4.28125 219.078125 4.4375 217.324219 4.679688 215.582031 C 14.535156 220.066406 24.828125 223 35.566406 224.382812 C 35.675781 225.625 35.902344 226.847656 36.238281 228.046875 C 36.574219 229.25 37.019531 230.410156 37.574219 231.527344 C 38.125 232.644531 38.777344 233.703125 39.527344 234.703125 C 40.277344 235.699219 41.109375 236.617188 42.03125 237.460938 C 42.953125 238.304688 43.941406 239.054688 45 239.710938 C 46.0625 240.371094 47.171875 240.925781 48.335938 241.375 C 49.5 241.828125 50.691406 242.167969 51.917969 242.398438 C 53.144531 242.628906 54.382812 242.742188 55.628906 242.742188 C 56.878906 242.742188 58.113281 242.628906 59.339844 242.398438 C 60.566406 242.167969 61.761719 241.828125 62.925781 241.375 C 64.085938 240.925781 65.199219 240.371094 66.257812 239.710938 C 67.316406 239.054688 68.308594 238.304688 69.230469 237.460938 C 70.148438 236.617188 70.984375 235.699219 71.734375 234.703125 C 72.484375 233.703125 73.132812 232.644531 73.6875 231.527344 C 74.238281 230.410156 74.683594 229.25 75.023438 228.046875 C 75.359375 226.847656 75.582031 225.625 75.695312 224.382812 C 86.429688 223 96.726562 220.066406 106.582031 215.582031 C 106.90625 217.90625 107.070312 220.238281 107.078125 222.582031 Z M 107.078125 222.582031 " fill-opacity="1" fill-rule="nonzero"/></g><path fill="#0b1d3a" d="M 55.628906 233.917969 C 56.375 233.917969 57.113281 233.847656 57.84375 233.699219 C 58.570312 233.554688 59.28125 233.339844 59.96875 233.054688 C 60.65625 232.769531 61.308594 232.421875 61.929688 232.007812 C 62.546875 231.59375 63.121094 231.125 63.644531 230.597656 C 64.171875 230.070312 64.644531 229.5 65.054688 228.878906 C 65.46875 228.261719 65.820312 227.609375 66.105469 226.921875 C 66.386719 226.234375 66.605469 225.523438 66.75 224.792969 C 66.894531 224.0625 66.964844 223.328125 66.964844 222.582031 C 66.964844 221.839844 66.894531 221.101562 66.75 220.371094 C 66.605469 219.640625 66.386719 218.933594 66.105469 218.246094 C 65.820312 217.554688 65.46875 216.902344 65.054688 216.285156 C 64.644531 215.664062 64.171875 215.09375 63.644531 214.566406 C 63.121094 214.039062 62.546875 213.570312 61.929688 213.15625 C 61.308594 212.742188 60.65625 212.394531 59.96875 212.109375 C 59.28125 211.824219 58.570312 211.609375 57.84375 211.464844 C 57.113281 211.320312 56.375 211.246094 55.628906 211.246094 C 54.886719 211.246094 54.148438 211.320312 53.417969 211.464844 C 52.6875 211.609375 51.980469 211.824219 51.292969 212.109375 C 50.605469 212.394531 49.949219 212.742188 49.332031 213.15625 C 48.714844 213.570312 48.140625 214.039062 47.613281 214.566406 C 47.085938 215.09375 46.617188 215.664062 46.203125 216.285156 C 45.789062 216.902344 45.441406 217.554688 45.15625 218.246094 C 44.871094 218.933594 44.65625 219.640625 44.511719 220.371094 C 44.367188 221.101562 44.292969 221.839844 44.292969 222.582031 C 44.292969 223.328125 44.367188 224.0625 44.515625 224.792969 C 44.660156 225.523438 44.875 226.230469 45.160156 226.917969 C 45.445312 227.605469 45.796875 228.257812 46.210938 228.875 C 46.625 229.496094 47.09375 230.066406 47.621094 230.59375 C 48.144531 231.121094 48.71875 231.589844 49.335938 232.003906 C 49.953125 232.417969 50.609375 232.765625 51.292969 233.050781 C 51.980469 233.335938 52.691406 233.550781 53.417969 233.699219 C 54.148438 233.84375 54.886719 233.917969 55.628906 233.917969 Z M 55.628906 214.921875 C 56.132812 214.921875 56.632812 214.96875 57.125 215.066406 C 57.617188 215.167969 58.097656 215.3125 58.5625 215.503906 C 59.027344 215.695312 59.46875 215.933594 59.886719 216.210938 C 60.304688 216.492188 60.691406 216.808594 61.046875 217.164062 C 61.402344 217.519531 61.722656 217.90625 62 218.324219 C 62.28125 218.742188 62.515625 219.1875 62.707031 219.652344 C 62.902344 220.113281 63.046875 220.59375 63.144531 221.085938 C 63.242188 221.582031 63.292969 222.078125 63.292969 222.582031 C 63.292969 223.085938 63.242188 223.582031 63.144531 224.078125 C 63.046875 224.570312 62.902344 225.050781 62.707031 225.515625 C 62.515625 225.980469 62.28125 226.421875 62 226.839844 C 61.722656 227.257812 61.402344 227.644531 61.046875 228 C 60.691406 228.355469 60.304688 228.671875 59.886719 228.953125 C 59.46875 229.234375 59.027344 229.46875 58.5625 229.660156 C 58.097656 229.855469 57.617188 230 57.125 230.097656 C 56.632812 230.195312 56.132812 230.246094 55.628906 230.246094 C 55.128906 230.246094 54.628906 230.195312 54.136719 230.097656 C 53.640625 230 53.164062 229.855469 52.699219 229.660156 C 52.234375 229.46875 51.792969 229.234375 51.375 228.953125 C 50.957031 228.671875 50.566406 228.355469 50.210938 228 C 49.855469 227.644531 49.539062 227.257812 49.257812 226.839844 C 48.980469 226.421875 48.742188 225.980469 48.550781 225.515625 C 48.359375 225.050781 48.214844 224.570312 48.117188 224.078125 C 48.015625 223.582031 47.96875 223.085938 47.96875 222.582031 C 47.96875 222.078125 48.019531 221.582031 48.117188 221.089844 C 48.214844 220.59375 48.359375 220.117188 48.554688 219.652344 C 48.746094 219.1875 48.980469 218.746094 49.261719 218.328125 C 49.542969 217.910156 49.859375 217.523438 50.214844 217.167969 C 50.570312 216.8125 50.957031 216.492188 51.375 216.214844 C 51.792969 215.933594 52.234375 215.699219 52.699219 215.503906 C 53.164062 215.3125 53.644531 215.167969 54.136719 215.070312 C 54.628906 214.96875 55.128906 214.921875 55.628906 214.921875 Z M 55.628906 214.921875 " fill-opacity="1" fill-rule="nonzero"/></g></g></svg>