<svg xmlns="http://www.w3.org/2000/svg" xmlns:xlink="http://www.w3.org/1999/xlink" width="600" zoomAndPan="magnify" viewBox="0 0 375 307.91998" height="400" preserveAspectRatio="xMidYMid meet" version="1.0"><defs><clipPath id="b5a6776c8d"><path d="M 0.046875 0 L 374.949219 0 L 374.949219 299.921875 L 0.046875 299.921875 Z M 0.046875 0 " clip-rule="nonzero"/></clipPath><clipPath id="c9bb3589d2"><path d="M 151 7.578125 L 298 7.578125 L 298 292.503906 L 151 292.503906 Z M 151 7.578125 " clip-rule="nonzero"/></clipPath><clipPath id="e3e6dc5e4c"><path d="M 215.617188 134.03125 L 234.363281 134.03125 L 234.363281 156.527344 L 215.617188 156.527344 Z M 215.617188 134.03125 " clip-rule="nonzero"/></clipPath></defs><g clip-path="url(#b5a6776c8d)"><path fill="#ffffff" d="M 0.046875 0 L 449.933594 0 L 449.933594 299.921875 L 0.046875 299.921875 Z M 0.046875 0 " fill-opacity="1" fill-rule="nonzero"/><path fill="#ffffff" d="M 0.046875 0 L 449.933594 0 L 449.933594 299.921875 L 0.046875 299.921875 Z M 0.046875 0 " fill-opacity="1" fill-rule="nonzero"/></g><g clip-path="url(#c9bb3589d2)"><path fill="#0b1d3a" d="M 295.894531 175.246094 L 283.683594 141.910156 C 283.152344 140.640625 282.480469 139.449219 281.679688 138.335938 C 280.875 137.21875 279.953125 136.207031 278.917969 135.304688 C 277.882812 134.398438 276.757812 133.621094 275.546875 132.972656 C 274.335938 132.324219 273.0625 131.824219 271.738281 131.464844 L 270.761719 131.199219 L 269.675781 137.738281 L 270 137.828125 C 270.835938 138.050781 271.632812 138.363281 272.394531 138.765625 C 273.160156 139.167969 273.867188 139.648438 274.519531 140.210938 C 275.175781 140.777344 275.757812 141.402344 276.269531 142.097656 C 276.78125 142.792969 277.207031 143.535156 277.550781 144.328125 L 289.703125 177.515625 C 290.28125 179.089844 290.710938 180.703125 290.992188 182.355469 C 291.269531 184.007812 291.398438 185.671875 291.371094 187.347656 C 291.34375 189.027344 291.164062 190.683594 290.832031 192.328125 C 290.5 193.972656 290.019531 195.570312 289.390625 197.125 L 263.085938 262.367188 L 262.167969 262.367188 L 262.167969 285.265625 L 208.960938 285.265625 L 208.960938 262.367188 L 205.988281 262.367188 C 203.234375 256.417969 201.339844 250.207031 200.296875 243.734375 C 198.945312 235.507812 199.234375 223.675781 202.566406 212.476562 C 203.128906 210.578125 203.785156 208.707031 204.53125 206.863281 C 205.527344 204.410156 206.699219 202.046875 208.054688 199.773438 C 209.25 197.757812 210.597656 195.847656 212.101562 194.050781 L 212.101562 143.058594 C 212.097656 142.011719 212.1875 140.972656 212.371094 139.941406 C 212.894531 137.035156 214.171875 134.757812 215.960938 133.101562 C 217.183594 131.984375 218.578125 131.15625 220.148438 130.625 C 221.730469 130.097656 223.355469 129.820312 225.019531 129.800781 C 226.6875 129.78125 228.320312 130.011719 229.914062 130.5 C 230.867188 130.777344 231.777344 131.164062 232.644531 131.65625 C 234.425781 132.730469 235.800781 134.1875 236.769531 136.03125 C 237.453125 137.257812 237.925781 138.5625 238.183594 139.941406 C 238.363281 140.972656 238.453125 142.011719 238.449219 143.058594 L 238.449219 191.140625 C 238.449219 191.140625 238.308594 192.664062 238.933594 193.714844 L 244.003906 202.414062 L 245.855469 205.585938 C 246.074219 205.972656 246.355469 206.300781 246.703125 206.574219 C 247.050781 206.84375 247.441406 207.039062 247.867188 207.15625 C 248.292969 207.269531 248.726562 207.300781 249.164062 207.242188 C 249.601562 207.183594 250.011719 207.042969 250.394531 206.820312 C 250.773438 206.597656 251.097656 206.308594 251.363281 205.957031 C 251.628906 205.605469 251.816406 205.214844 251.925781 204.785156 C 252.035156 204.355469 252.058594 203.925781 251.992188 203.488281 C 251.929688 203.050781 251.78125 202.640625 251.550781 202.265625 L 246.304688 193.265625 C 246.359375 193.28125 261.550781 179.988281 261.550781 179.988281 L 258.835938 169.992188 C 257.839844 170.480469 256.796875 170.839844 255.710938 171.074219 C 254.859375 171.257812 253.996094 171.355469 253.121094 171.363281 C 252.871094 171.363281 252.609375 171.316406 252.355469 171.300781 L 254.105469 177.742188 L 245.917969 184.90625 L 245.917969 162.320312 L 246.9375 162.488281 L 252.292969 163.378906 C 252.578125 163.425781 252.867188 163.453125 253.160156 163.453125 C 253.425781 163.433594 253.515625 163.421875 253.605469 163.414062 C 253.800781 163.398438 253.996094 163.371094 254.191406 163.332031 C 254.316406 163.308594 254.433594 163.269531 254.554688 163.234375 C 254.734375 163.183594 254.90625 163.121094 255.078125 163.050781 C 255.292969 162.949219 255.359375 162.917969 255.425781 162.882812 C 255.585938 162.800781 255.738281 162.707031 255.890625 162.609375 C 256.128906 162.4375 256.164062 162.414062 256.199219 162.386719 C 256.34375 162.273438 256.480469 162.152344 256.609375 162.027344 C 256.730469 161.898438 256.78125 161.851562 256.828125 161.800781 C 256.96875 161.644531 257.097656 161.480469 257.214844 161.308594 C 257.304688 161.183594 257.359375 161.109375 257.410156 161.027344 C 257.519531 160.839844 257.617188 160.648438 257.703125 160.449219 C 257.746094 160.347656 257.796875 160.261719 257.828125 160.171875 C 257.945312 159.867188 258.027344 159.554688 258.082031 159.234375 L 262 135.644531 L 263.085938 129.105469 L 266.199219 110.347656 L 269.582031 89.984375 L 279.597656 29.632812 C 279.652344 29.304688 279.671875 28.976562 279.660156 28.648438 C 279.652344 28.316406 279.609375 27.992188 279.53125 27.667969 C 279.457031 27.347656 279.351562 27.035156 279.214844 26.734375 C 279.078125 26.433594 278.914062 26.148438 278.722656 25.878906 C 278.53125 25.613281 278.316406 25.363281 278.074219 25.136719 C 277.832031 24.910156 277.570312 24.710938 277.292969 24.535156 C 277.011719 24.359375 276.714844 24.214844 276.40625 24.097656 C 276.097656 23.980469 275.78125 23.894531 275.453125 23.839844 L 178.917969 7.816406 C 178.589844 7.761719 178.261719 7.738281 177.933594 7.746094 C 177.601562 7.757812 177.273438 7.800781 176.953125 7.875 C 176.632812 7.949219 176.320312 8.054688 176.019531 8.191406 C 175.714844 8.328125 175.429688 8.492188 175.164062 8.683594 C 174.894531 8.875 174.644531 9.09375 174.421875 9.332031 C 174.195312 9.574219 173.992188 9.835938 173.820312 10.117188 C 173.644531 10.398438 173.5 10.691406 173.382812 11.003906 C 173.265625 11.3125 173.183594 11.628906 173.128906 11.957031 L 151.609375 141.5625 C 151.554688 141.886719 151.535156 142.214844 151.546875 142.542969 C 151.558594 142.875 151.601562 143.199219 151.675781 143.523438 C 151.75 143.84375 151.855469 144.15625 151.992188 144.457031 C 152.128906 144.757812 152.292969 145.042969 152.484375 145.308594 C 152.675781 145.578125 152.890625 145.828125 153.132812 146.050781 C 153.375 146.277344 153.632812 146.480469 153.914062 146.652344 C 154.195312 146.828125 154.488281 146.976562 154.796875 147.089844 C 155.105469 147.207031 155.421875 147.292969 155.75 147.347656 L 195.785156 153.996094 L 204.53125 155.449219 L 204.53125 174.316406 L 191.90625 181.25 C 191.375 181.53125 190.820312 181.753906 190.238281 181.90625 C 190.0625 181.957031 189.882812 181.980469 189.703125 182.015625 C 189.308594 182.097656 188.90625 182.148438 188.503906 182.164062 C 188.402344 182.167969 188.300781 182.203125 188.199219 182.203125 C 188.109375 182.203125 188.023438 182.171875 187.9375 182.167969 C 187.425781 182.152344 186.925781 182.085938 186.429688 181.96875 C 186.332031 181.945312 186.230469 181.941406 186.128906 181.914062 C 185.546875 181.746094 184.992188 181.515625 184.464844 181.222656 C 184.328125 181.144531 184.203125 181.050781 184.066406 180.964844 C 183.667969 180.710938 183.300781 180.425781 182.953125 180.105469 C 182.824219 179.980469 182.691406 179.867188 182.570312 179.734375 C 182.367188 179.523438 182.175781 179.300781 182 179.066406 C 181.820312 178.832031 181.65625 178.589844 181.507812 178.335938 C 181.359375 178.085938 181.226562 177.824219 181.105469 177.554688 C 180.988281 177.289062 180.882812 177.015625 180.796875 176.734375 C 180.707031 176.453125 180.636719 176.171875 180.582031 175.882812 C 180.527344 175.59375 180.488281 175.304688 180.46875 175.011719 C 180.445312 174.71875 180.441406 174.425781 180.453125 174.132812 C 180.464844 173.839844 180.496094 173.546875 180.542969 173.257812 C 180.585938 172.96875 180.648438 172.683594 180.730469 172.398438 C 180.808594 172.117188 180.902344 171.839844 181.015625 171.570312 C 181.125 171.296875 181.253906 171.03125 181.394531 170.777344 C 181.535156 170.519531 181.691406 170.269531 181.859375 170.03125 C 182.03125 169.792969 182.214844 169.566406 182.410156 169.347656 C 182.609375 169.128906 182.816406 168.921875 183.035156 168.730469 C 183.257812 168.535156 183.488281 168.355469 183.730469 168.1875 C 183.96875 168.023438 184.21875 167.867188 184.480469 167.730469 L 195.085938 161.90625 L 184.566406 160.15625 L 181.304688 161.949219 C 180.632812 162.316406 179.996094 162.734375 179.390625 163.207031 C 178.785156 163.675781 178.222656 164.191406 177.703125 164.75 C 177.179688 165.308594 176.707031 165.910156 176.28125 166.546875 C 175.859375 167.179688 175.488281 167.847656 175.167969 168.542969 C 174.851562 169.238281 174.589844 169.957031 174.386719 170.695312 C 174.183594 171.433594 174.042969 172.183594 173.960938 172.941406 C 173.875 173.703125 173.855469 174.464844 173.894531 175.230469 C 173.9375 175.996094 174.035156 176.75 174.199219 177.5 C 174.359375 178.246094 174.582031 178.976562 174.859375 179.691406 C 175.140625 180.402344 175.472656 181.089844 175.863281 181.746094 C 176.25 182.40625 176.691406 183.03125 177.179688 183.617188 C 177.671875 184.207031 178.203125 184.75 178.78125 185.253906 C 179.359375 185.757812 179.972656 186.210938 180.621094 186.613281 C 181.269531 187.019531 181.949219 187.367188 182.65625 187.664062 C 183.363281 187.957031 184.085938 188.195312 184.832031 188.371094 C 185.574219 188.550781 186.328125 188.667969 187.09375 188.726562 L 185.839844 189.726562 C 185.269531 190.179688 184.738281 190.675781 184.246094 191.214844 C 183.753906 191.753906 183.304688 192.324219 182.902344 192.929688 C 182.496094 193.539062 182.140625 194.171875 181.832031 194.832031 C 181.527344 195.496094 181.273438 196.175781 181.074219 196.878906 C 180.871094 197.578125 180.726562 198.289062 180.632812 199.015625 C 180.542969 199.738281 180.507812 200.464844 180.527344 201.191406 C 180.550781 201.921875 180.625 202.644531 180.757812 203.363281 C 180.890625 204.078125 181.078125 204.78125 181.320312 205.46875 C 181.5625 206.15625 181.855469 206.824219 182.199219 207.464844 C 182.542969 208.109375 182.933594 208.722656 183.375 209.304688 C 183.8125 209.886719 184.292969 210.429688 184.816406 210.9375 C 185.339844 211.449219 185.898438 211.914062 186.492188 212.332031 C 187.089844 212.753906 187.710938 213.128906 188.367188 213.453125 C 189.019531 213.777344 189.691406 214.050781 190.386719 214.273438 C 191.082031 214.496094 191.789062 214.660156 192.511719 214.773438 C 193.230469 214.882812 193.957031 214.941406 194.683594 214.941406 C 194.851562 214.941406 195.015625 214.902344 195.179688 214.898438 C 192.597656 225.859375 192.484375 236.859375 193.789062 244.800781 C 195.253906 253.726562 198.417969 262.300781 201.382812 267.871094 L 201.382812 292.351562 L 269.175781 292.351562 L 269.175781 264.902344 L 295.503906 199.589844 C 296.285156 197.660156 296.882812 195.675781 297.296875 193.636719 C 297.707031 191.597656 297.933594 189.535156 297.964844 187.453125 C 298 185.375 297.839844 183.308594 297.492188 181.253906 C 297.144531 179.203125 296.613281 177.199219 295.894531 175.246094 Z M 158.375 141.101562 L 179.378906 14.578125 L 272.835938 30.089844 L 254.054688 143.214844 L 251.832031 156.617188 L 245.753906 155.578125 L 245.753906 143.144531 C 245.753906 131.453125 236.917969 123.203125 225.28125 123.203125 C 213.636719 123.203125 204.863281 131.289062 204.863281 142.980469 L 204.863281 148.847656 Z M 196.90625 207.992188 C 196.738281 208.046875 196.574219 208.082031 196.402344 208.121094 C 196.125 208.1875 195.84375 208.238281 195.558594 208.273438 C 195.382812 208.292969 195.207031 208.308594 195.03125 208.316406 C 194.914062 208.320312 194.800781 208.34375 194.683594 208.34375 C 194.5625 208.34375 194.445312 208.308594 194.328125 208.304688 C 194.011719 208.289062 193.695312 208.253906 193.382812 208.199219 C 193.175781 208.164062 192.972656 208.125 192.769531 208.070312 C 192.457031 207.988281 192.152344 207.882812 191.851562 207.757812 C 191.664062 207.683594 191.476562 207.613281 191.292969 207.523438 C 190.976562 207.359375 190.671875 207.171875 190.382812 206.960938 C 190.234375 206.859375 190.082031 206.777344 189.945312 206.664062 C 189.503906 206.3125 189.105469 205.914062 188.753906 205.46875 C 188.402344 205.027344 188.105469 204.550781 187.859375 204.039062 C 187.613281 203.527344 187.429688 202.996094 187.304688 202.445312 C 187.179688 201.894531 187.117188 201.335938 187.117188 200.769531 C 187.121094 200.203125 187.183594 199.644531 187.308594 199.09375 C 187.4375 198.539062 187.621094 198.007812 187.867188 197.5 C 188.113281 196.988281 188.414062 196.515625 188.765625 196.070312 C 189.117188 195.628906 189.515625 195.230469 189.957031 194.878906 L 203.367188 184.160156 C 203.730469 183.871094 204.117188 183.617188 204.53125 183.402344 L 204.53125 193.125 C 201.402344 197.710938 198.960938 202.636719 197.210938 207.902344 C 197.109375 207.9375 197.007812 207.960938 196.90625 207.992188 Z M 196.90625 207.992188 " fill-opacity="1" fill-rule="nonzero"/></g><g clip-path="url(#e3e6dc5e4c)"><path fill="#0b1d3a" d="M 233.1875 156.878906 L 216.78125 156.878906 C 216.140625 156.878906 215.617188 156.355469 215.617188 155.714844 L 215.617188 143.410156 C 215.617188 142.148438 215.867188 140.921875 216.355469 139.765625 C 216.828125 138.648438 217.5 137.648438 218.363281 136.789062 C 219.222656 135.929688 220.222656 135.253906 221.339844 134.78125 C 222.492188 134.292969 223.71875 134.042969 224.984375 134.042969 C 226.25 134.042969 227.476562 134.292969 228.628906 134.78125 C 229.746094 135.253906 230.746094 135.929688 231.609375 136.789062 C 232.46875 137.648438 233.140625 138.648438 233.613281 139.765625 C 234.101562 140.921875 234.351562 142.148438 234.351562 143.410156 L 234.351562 155.714844 C 234.351562 156.355469 233.828125 156.878906 233.1875 156.878906 Z M 217.945312 154.550781 L 232.023438 154.550781 L 232.023438 143.410156 C 232.023438 139.53125 228.867188 136.371094 224.984375 136.371094 C 221.101562 136.371094 217.945312 139.53125 217.945312 143.410156 Z M 217.945312 154.550781 " fill-opacity="1" fill-rule="nonzero"/></g></svg>