<svg xmlns="http://www.w3.org/2000/svg" xmlns:xlink="http://www.w3.org/1999/xlink" width="600" zoomAndPan="magnify" viewBox="0 0 450 299.999988" height="400" preserveAspectRatio="xMidYMid meet" version="1.0"><defs><filter x="0%" y="0%" width="100%" height="100%" id="62f236849e"><feColorMatrix values="0 0 0 0 1 0 0 0 0 1 0 0 0 0 1 0 0 0 1 0" color-interpolation-filters="sRGB"/></filter><clipPath id="f1523f27fd"><path d="M 82.335938 26.5625 L 259 26.5625 L 259 253 L 82.335938 253 Z M 82.335938 26.5625 " clip-rule="nonzero"/></clipPath><clipPath id="23f81eaada"><path d="M 82.335938 36.3125 L 82.335938 259.980469 C 82.335938 265.367188 86.699219 269.730469 92.085938 269.730469 L 265.660156 269.730469 C 271.042969 269.730469 275.410156 265.367188 275.410156 259.980469 L 275.410156 36.3125 C 275.410156 30.925781 271.042969 26.5625 265.660156 26.5625 L 92.085938 26.5625 C 86.699219 26.5625 82.335938 30.925781 82.335938 36.3125 Z M 82.335938 36.3125 " clip-rule="nonzero"/></clipPath><clipPath id="ccb2be4cb0"><path d="M 82.335938 26.5625 L 261 26.5625 L 261 255 L 82.335938 255 Z M 82.335938 26.5625 " clip-rule="nonzero"/></clipPath><clipPath id="e466af77ca"><path d="M 82.335938 36.3125 L 82.335938 259.980469 C 82.335938 265.367188 86.699219 269.730469 92.085938 269.730469 L 265.660156 269.730469 C 271.042969 269.730469 275.410156 265.367188 275.410156 259.980469 L 275.410156 36.3125 C 275.410156 30.925781 271.042969 26.5625 265.660156 26.5625 L 92.085938 26.5625 C 86.699219 26.5625 82.335938 30.925781 82.335938 36.3125 Z M 82.335938 36.3125 " clip-rule="nonzero"/></clipPath><clipPath id="246e735e4a"><path d="M 82.335938 236 L 244 236 L 244 238 L 82.335938 238 Z M 82.335938 236 " clip-rule="nonzero"/></clipPath><clipPath id="5a158f1269"><path d="M 82.335938 36.3125 L 82.335938 259.980469 C 82.335938 265.367188 86.699219 269.730469 92.085938 269.730469 L 265.660156 269.730469 C 271.042969 269.730469 275.410156 265.367188 275.410156 259.980469 L 275.410156 36.3125 C 275.410156 30.925781 271.042969 26.5625 265.660156 26.5625 L 92.085938 26.5625 C 86.699219 26.5625 82.335938 30.925781 82.335938 36.3125 Z M 82.335938 36.3125 " clip-rule="nonzero"/></clipPath><clipPath id="fff69d73eb"><path d="M 251 236 L 256 236 L 256 238 L 251 238 Z M 251 236 " clip-rule="nonzero"/></clipPath><clipPath id="18f8893570"><path d="M 82.335938 36.3125 L 82.335938 259.980469 C 82.335938 265.367188 86.699219 269.730469 92.085938 269.730469 L 265.660156 269.730469 C 271.042969 269.730469 275.410156 265.367188 275.410156 259.980469 L 275.410156 36.3125 C 275.410156 30.925781 271.042969 26.5625 265.660156 26.5625 L 92.085938 26.5625 C 86.699219 26.5625 82.335938 30.925781 82.335938 36.3125 Z M 82.335938 36.3125 " clip-rule="nonzero"/></clipPath><clipPath id="0a39ce5a20"><path d="M 82.335938 38 L 265 38 L 265 253 L 82.335938 253 Z M 82.335938 38 " clip-rule="nonzero"/></clipPath><clipPath id="37c08c704e"><path d="M 82.335938 36.3125 L 82.335938 259.980469 C 82.335938 265.367188 86.699219 269.730469 92.085938 269.730469 L 265.660156 269.730469 C 271.042969 269.730469 275.410156 265.367188 275.410156 259.980469 L 275.410156 36.3125 C 275.410156 30.925781 271.042969 26.5625 265.660156 26.5625 L 92.085938 26.5625 C 86.699219 26.5625 82.335938 30.925781 82.335938 36.3125 Z M 82.335938 36.3125 " clip-rule="nonzero"/></clipPath><mask id="09b0499ea3"><g filter="url(#62f236849e)"><rect x="-45" width="540" fill="#000000" y="-29.999999" height="359.999986" fill-opacity="0.5"/></g></mask><clipPath id="7f5f0e4d2d"><path d="M 0.335938 0.160156 L 182.71875 0.160156 L 182.71875 214.960938 L 0.335938 214.960938 Z M 0.335938 0.160156 " clip-rule="nonzero"/></clipPath><clipPath id="7382be34af"><path d="M 0.335938 -1.6875 L 0.335938 221.980469 C 0.335938 227.367188 4.699219 231.730469 10.085938 231.730469 L 183.660156 231.730469 C 189.042969 231.730469 193.410156 227.367188 193.410156 221.980469 L 193.410156 -1.6875 C 193.410156 -7.074219 189.042969 -11.4375 183.660156 -11.4375 L 10.085938 -11.4375 C 4.699219 -11.4375 0.335938 -7.074219 0.335938 -1.6875 Z M 0.335938 -1.6875 " clip-rule="nonzero"/></clipPath><clipPath id="ae6036cdbc"><rect x="0" width="183" y="0" height="215"/></clipPath><clipPath id="b64bb42c05"><path d="M 82.335938 27 L 274 27 L 274 269 L 82.335938 269 Z M 82.335938 27 " clip-rule="nonzero"/></clipPath><clipPath id="0ac8cd4356"><path d="M 82.335938 36.3125 L 82.335938 259.980469 C 82.335938 265.367188 86.699219 269.730469 92.085938 269.730469 L 265.660156 269.730469 C 271.042969 269.730469 275.410156 265.367188 275.410156 259.980469 L 275.410156 36.3125 C 275.410156 30.925781 271.042969 26.5625 265.660156 26.5625 L 92.085938 26.5625 C 86.699219 26.5625 82.335938 30.925781 82.335938 36.3125 Z M 82.335938 36.3125 " clip-rule="nonzero"/></clipPath><clipPath id="e5e496a525"><path d="M 99 47 L 258 47 L 258 171 L 99 171 Z M 99 47 " clip-rule="nonzero"/></clipPath><clipPath id="174c6a788f"><path d="M 82.335938 36.3125 L 82.335938 259.980469 C 82.335938 265.367188 86.699219 269.730469 92.085938 269.730469 L 265.660156 269.730469 C 271.042969 269.730469 275.410156 265.367188 275.410156 259.980469 L 275.410156 36.3125 C 275.410156 30.925781 271.042969 26.5625 265.660156 26.5625 L 92.085938 26.5625 C 86.699219 26.5625 82.335938 30.925781 82.335938 36.3125 Z M 82.335938 36.3125 " clip-rule="nonzero"/></clipPath><clipPath id="92bfa29e59"><path d="M 82.335938 26.5625 L 275.085938 26.5625 L 275.085938 201 L 82.335938 201 Z M 82.335938 26.5625 " clip-rule="nonzero"/></clipPath><clipPath id="fc247cd026"><path d="M 82.335938 36.3125 L 82.335938 259.980469 C 82.335938 265.367188 86.699219 269.730469 92.085938 269.730469 L 265.660156 269.730469 C 271.042969 269.730469 275.410156 265.367188 275.410156 259.980469 L 275.410156 36.3125 C 275.410156 30.925781 271.042969 26.5625 265.660156 26.5625 L 92.085938 26.5625 C 86.699219 26.5625 82.335938 30.925781 82.335938 36.3125 Z M 82.335938 36.3125 " clip-rule="nonzero"/></clipPath><clipPath id="09e446d6a4"><path d="M 99 186 L 258 186 L 258 194 L 99 194 Z M 99 186 " clip-rule="nonzero"/></clipPath><clipPath id="1ba08c2b78"><path d="M 82.335938 36.3125 L 82.335938 259.980469 C 82.335938 265.367188 86.699219 269.730469 92.085938 269.730469 L 265.660156 269.730469 C 271.042969 269.730469 275.410156 265.367188 275.410156 259.980469 L 275.410156 36.3125 C 275.410156 30.925781 271.042969 26.5625 265.660156 26.5625 L 92.085938 26.5625 C 86.699219 26.5625 82.335938 30.925781 82.335938 36.3125 Z M 82.335938 36.3125 " clip-rule="nonzero"/></clipPath><clipPath id="51293664bc"><path d="M 99 214 L 179 214 L 179 222 L 99 222 Z M 99 214 " clip-rule="nonzero"/></clipPath><clipPath id="6b40cee52d"><path d="M 82.335938 36.3125 L 82.335938 259.980469 C 82.335938 265.367188 86.699219 269.730469 92.085938 269.730469 L 265.660156 269.730469 C 271.042969 269.730469 275.410156 265.367188 275.410156 259.980469 L 275.410156 36.3125 C 275.410156 30.925781 271.042969 26.5625 265.660156 26.5625 L 92.085938 26.5625 C 86.699219 26.5625 82.335938 30.925781 82.335938 36.3125 Z M 82.335938 36.3125 " clip-rule="nonzero"/></clipPath><clipPath id="87df03f727"><path d="M 99 242 L 139 242 L 139 250 L 99 250 Z M 99 242 " clip-rule="nonzero"/></clipPath><clipPath id="b04bc32264"><path d="M 82.335938 36.3125 L 82.335938 259.980469 C 82.335938 265.367188 86.699219 269.730469 92.085938 269.730469 L 265.660156 269.730469 C 271.042969 269.730469 275.410156 265.367188 275.410156 259.980469 L 275.410156 36.3125 C 275.410156 30.925781 271.042969 26.5625 265.660156 26.5625 L 92.085938 26.5625 C 86.699219 26.5625 82.335938 30.925781 82.335938 36.3125 Z M 82.335938 36.3125 " clip-rule="nonzero"/></clipPath><clipPath id="72e27439c0"><path d="M 217 242 L 258 242 L 258 250 L 217 250 Z M 217 242 " clip-rule="nonzero"/></clipPath><clipPath id="b69ebe06b9"><path d="M 82.335938 36.3125 L 82.335938 259.980469 C 82.335938 265.367188 86.699219 269.730469 92.085938 269.730469 L 265.660156 269.730469 C 271.042969 269.730469 275.410156 265.367188 275.410156 259.980469 L 275.410156 36.3125 C 275.410156 30.925781 271.042969 26.5625 265.660156 26.5625 L 92.085938 26.5625 C 86.699219 26.5625 82.335938 30.925781 82.335938 36.3125 Z M 82.335938 36.3125 " clip-rule="nonzero"/></clipPath><clipPath id="c747124106"><path d="M 99 200 L 258 200 L 258 208 L 99 208 Z M 99 200 " clip-rule="nonzero"/></clipPath><clipPath id="4e606c4d87"><path d="M 82.335938 36.3125 L 82.335938 259.980469 C 82.335938 265.367188 86.699219 269.730469 92.085938 269.730469 L 265.660156 269.730469 C 271.042969 269.730469 275.410156 265.367188 275.410156 259.980469 L 275.410156 36.3125 C 275.410156 30.925781 271.042969 26.5625 265.660156 26.5625 L 92.085938 26.5625 C 86.699219 26.5625 82.335938 30.925781 82.335938 36.3125 Z M 82.335938 36.3125 " clip-rule="nonzero"/></clipPath><clipPath id="9b68b9dbf3"><path d="M 114 61 L 243 61 L 243 69 L 114 69 Z M 114 61 " clip-rule="nonzero"/></clipPath><clipPath id="96d80bd2f9"><path d="M 82.335938 36.3125 L 82.335938 259.980469 C 82.335938 265.367188 86.699219 269.730469 92.085938 269.730469 L 265.660156 269.730469 C 271.042969 269.730469 275.410156 265.367188 275.410156 259.980469 L 275.410156 36.3125 C 275.410156 30.925781 271.042969 26.5625 265.660156 26.5625 L 92.085938 26.5625 C 86.699219 26.5625 82.335938 30.925781 82.335938 36.3125 Z M 82.335938 36.3125 " clip-rule="nonzero"/></clipPath><clipPath id="ccb03988d9"><path d="M 82.335938 251 L 275 251 L 275 269 L 82.335938 269 Z M 82.335938 251 " clip-rule="nonzero"/></clipPath><clipPath id="43b668a481"><path d="M 82.335938 36.3125 L 82.335938 259.980469 C 82.335938 265.367188 86.699219 269.730469 92.085938 269.730469 L 265.660156 269.730469 C 271.042969 269.730469 275.410156 265.367188 275.410156 259.980469 L 275.410156 36.3125 C 275.410156 30.925781 271.042969 26.5625 265.660156 26.5625 L 92.085938 26.5625 C 86.699219 26.5625 82.335938 30.925781 82.335938 36.3125 Z M 82.335938 36.3125 " clip-rule="nonzero"/></clipPath><mask id="191efeccb2"><g filter="url(#62f236849e)"><rect x="-45" width="540" fill="#000000" y="-29.999999" height="359.999986" fill-opacity="0.5"/></g></mask><clipPath id="fe36738e32"><path d="M 0.800781 1 L 192 1 L 192 17.320312 L 0.800781 17.320312 Z M 0.800781 1 " clip-rule="nonzero"/></clipPath><clipPath id="d539afe9d7"><path d="M 0.335938 -214.6875 L 0.335938 8.980469 C 0.335938 14.367188 4.699219 18.730469 10.085938 18.730469 L 183.660156 18.730469 C 189.042969 18.730469 193.410156 14.367188 193.410156 8.980469 L 193.410156 -214.6875 C 193.410156 -220.074219 189.042969 -224.4375 183.660156 -224.4375 L 10.085938 -224.4375 C 4.699219 -224.4375 0.335938 -220.074219 0.335938 -214.6875 Z M 0.335938 -214.6875 " clip-rule="nonzero"/></clipPath><clipPath id="be1d82cea5"><rect x="0" width="193" y="0" height="18"/></clipPath><clipPath id="2b99277609"><path d="M 82.335938 26.5625 L 275.085938 26.5625 L 275.085938 269.5625 L 82.335938 269.5625 Z M 82.335938 26.5625 " clip-rule="nonzero"/></clipPath><clipPath id="41ec76d080"><path d="M 82.335938 36.3125 L 82.335938 259.980469 C 82.335938 265.367188 86.699219 269.730469 92.085938 269.730469 L 265.660156 269.730469 C 271.042969 269.730469 275.410156 265.367188 275.410156 259.980469 L 275.410156 36.3125 C 275.410156 30.925781 271.042969 26.5625 265.660156 26.5625 L 92.085938 26.5625 C 86.699219 26.5625 82.335938 30.925781 82.335938 36.3125 Z M 82.335938 36.3125 " clip-rule="nonzero"/></clipPath><clipPath id="946f0242c4"><path d="M 112.804688 47.761719 L 289 47.761719 L 289 274 L 112.804688 274 Z M 112.804688 47.761719 " clip-rule="nonzero"/></clipPath><clipPath id="16073cca3e"><path d="M 112.804688 57.511719 L 112.804688 281.179688 C 112.804688 286.566406 117.167969 290.929688 122.554688 290.929688 L 296.128906 290.929688 C 301.511719 290.929688 305.878906 286.566406 305.878906 281.179688 L 305.878906 57.511719 C 305.878906 52.125 301.511719 47.761719 296.128906 47.761719 L 122.554688 47.761719 C 117.167969 47.761719 112.804688 52.125 112.804688 57.511719 Z M 112.804688 57.511719 " clip-rule="nonzero"/></clipPath><clipPath id="92d4db19ca"><path d="M 112.804688 47.761719 L 291 47.761719 L 291 276 L 112.804688 276 Z M 112.804688 47.761719 " clip-rule="nonzero"/></clipPath><clipPath id="929ae08a3a"><path d="M 112.804688 57.511719 L 112.804688 281.179688 C 112.804688 286.566406 117.167969 290.929688 122.554688 290.929688 L 296.128906 290.929688 C 301.511719 290.929688 305.878906 286.566406 305.878906 281.179688 L 305.878906 57.511719 C 305.878906 52.125 301.511719 47.761719 296.128906 47.761719 L 122.554688 47.761719 C 117.167969 47.761719 112.804688 52.125 112.804688 57.511719 Z M 112.804688 57.511719 " clip-rule="nonzero"/></clipPath><clipPath id="34e77db5fe"><path d="M 112.804688 257 L 275 257 L 275 260 L 112.804688 260 Z M 112.804688 257 " clip-rule="nonzero"/></clipPath><clipPath id="195284fa22"><path d="M 112.804688 57.511719 L 112.804688 281.179688 C 112.804688 286.566406 117.167969 290.929688 122.554688 290.929688 L 296.128906 290.929688 C 301.511719 290.929688 305.878906 286.566406 305.878906 281.179688 L 305.878906 57.511719 C 305.878906 52.125 301.511719 47.761719 296.128906 47.761719 L 122.554688 47.761719 C 117.167969 47.761719 112.804688 52.125 112.804688 57.511719 Z M 112.804688 57.511719 " clip-rule="nonzero"/></clipPath><clipPath id="9fb08f111f"><path d="M 282 257 L 287 257 L 287 260 L 282 260 Z M 282 257 " clip-rule="nonzero"/></clipPath><clipPath id="59ec1ac161"><path d="M 112.804688 57.511719 L 112.804688 281.179688 C 112.804688 286.566406 117.167969 290.929688 122.554688 290.929688 L 296.128906 290.929688 C 301.511719 290.929688 305.878906 286.566406 305.878906 281.179688 L 305.878906 57.511719 C 305.878906 52.125 301.511719 47.761719 296.128906 47.761719 L 122.554688 47.761719 C 117.167969 47.761719 112.804688 52.125 112.804688 57.511719 Z M 112.804688 57.511719 " clip-rule="nonzero"/></clipPath><clipPath id="c683b22d34"><path d="M 112.804688 59 L 296 59 L 296 275 L 112.804688 275 Z M 112.804688 59 " clip-rule="nonzero"/></clipPath><clipPath id="281b3c0d05"><path d="M 112.804688 57.511719 L 112.804688 281.179688 C 112.804688 286.566406 117.167969 290.929688 122.554688 290.929688 L 296.128906 290.929688 C 301.511719 290.929688 305.878906 286.566406 305.878906 281.179688 L 305.878906 57.511719 C 305.878906 52.125 301.511719 47.761719 296.128906 47.761719 L 122.554688 47.761719 C 117.167969 47.761719 112.804688 52.125 112.804688 57.511719 Z M 112.804688 57.511719 " clip-rule="nonzero"/></clipPath><mask id="f6cde16e41"><g filter="url(#62f236849e)"><rect x="-45" width="540" fill="#000000" y="-29.999999" height="359.999986" fill-opacity="0.5"/></g></mask><clipPath id="5ac6d8771b"><path d="M 0.804688 0.519531 L 183 0.519531 L 183 215 L 0.804688 215 Z M 0.804688 0.519531 " clip-rule="nonzero"/></clipPath><clipPath id="202685ad23"><path d="M 0.804688 -1.488281 L 0.804688 222.179688 C 0.804688 227.566406 5.167969 231.929688 10.554688 231.929688 L 184.128906 231.929688 C 189.511719 231.929688 193.878906 227.566406 193.878906 222.179688 L 193.878906 -1.488281 C 193.878906 -6.875 189.511719 -11.238281 184.128906 -11.238281 L 10.554688 -11.238281 C 5.167969 -11.238281 0.804688 -6.875 0.804688 -1.488281 Z M 0.804688 -1.488281 " clip-rule="nonzero"/></clipPath><clipPath id="605ecf4a98"><rect x="0" width="184" y="0" height="216"/></clipPath><clipPath id="7b0b77868f"><path d="M 113 48 L 305 48 L 305 290 L 113 290 Z M 113 48 " clip-rule="nonzero"/></clipPath><clipPath id="b99b236f51"><path d="M 112.804688 57.511719 L 112.804688 281.179688 C 112.804688 286.566406 117.167969 290.929688 122.554688 290.929688 L 296.128906 290.929688 C 301.511719 290.929688 305.878906 286.566406 305.878906 281.179688 L 305.878906 57.511719 C 305.878906 52.125 301.511719 47.761719 296.128906 47.761719 L 122.554688 47.761719 C 117.167969 47.761719 112.804688 52.125 112.804688 57.511719 Z M 112.804688 57.511719 " clip-rule="nonzero"/></clipPath><clipPath id="b447b5bc54"><path d="M 129 68 L 289 68 L 289 192 L 129 192 Z M 129 68 " clip-rule="nonzero"/></clipPath><clipPath id="c82d5d3e59"><path d="M 112.804688 57.511719 L 112.804688 281.179688 C 112.804688 286.566406 117.167969 290.929688 122.554688 290.929688 L 296.128906 290.929688 C 301.511719 290.929688 305.878906 286.566406 305.878906 281.179688 L 305.878906 57.511719 C 305.878906 52.125 301.511719 47.761719 296.128906 47.761719 L 122.554688 47.761719 C 117.167969 47.761719 112.804688 52.125 112.804688 57.511719 Z M 112.804688 57.511719 " clip-rule="nonzero"/></clipPath><clipPath id="3dc10cad01"><path d="M 112.804688 47.761719 L 305.554688 47.761719 L 305.554688 222 L 112.804688 222 Z M 112.804688 47.761719 " clip-rule="nonzero"/></clipPath><clipPath id="79f20dde54"><path d="M 112.804688 57.511719 L 112.804688 281.179688 C 112.804688 286.566406 117.167969 290.929688 122.554688 290.929688 L 296.128906 290.929688 C 301.511719 290.929688 305.878906 286.566406 305.878906 281.179688 L 305.878906 57.511719 C 305.878906 52.125 301.511719 47.761719 296.128906 47.761719 L 122.554688 47.761719 C 117.167969 47.761719 112.804688 52.125 112.804688 57.511719 Z M 112.804688 57.511719 " clip-rule="nonzero"/></clipPath><clipPath id="b753d64219"><path d="M 129 207 L 289 207 L 289 215 L 129 215 Z M 129 207 " clip-rule="nonzero"/></clipPath><clipPath id="820b3f95ea"><path d="M 112.804688 57.511719 L 112.804688 281.179688 C 112.804688 286.566406 117.167969 290.929688 122.554688 290.929688 L 296.128906 290.929688 C 301.511719 290.929688 305.878906 286.566406 305.878906 281.179688 L 305.878906 57.511719 C 305.878906 52.125 301.511719 47.761719 296.128906 47.761719 L 122.554688 47.761719 C 117.167969 47.761719 112.804688 52.125 112.804688 57.511719 Z M 112.804688 57.511719 " clip-rule="nonzero"/></clipPath><clipPath id="b59af8e975"><path d="M 129 235 L 209 235 L 209 243 L 129 243 Z M 129 235 " clip-rule="nonzero"/></clipPath><clipPath id="77875338cb"><path d="M 112.804688 57.511719 L 112.804688 281.179688 C 112.804688 286.566406 117.167969 290.929688 122.554688 290.929688 L 296.128906 290.929688 C 301.511719 290.929688 305.878906 286.566406 305.878906 281.179688 L 305.878906 57.511719 C 305.878906 52.125 301.511719 47.761719 296.128906 47.761719 L 122.554688 47.761719 C 117.167969 47.761719 112.804688 52.125 112.804688 57.511719 Z M 112.804688 57.511719 " clip-rule="nonzero"/></clipPath><clipPath id="1c7cfdecc7"><path d="M 129 263 L 170 263 L 170 271 L 129 271 Z M 129 263 " clip-rule="nonzero"/></clipPath><clipPath id="a9bb405412"><path d="M 112.804688 57.511719 L 112.804688 281.179688 C 112.804688 286.566406 117.167969 290.929688 122.554688 290.929688 L 296.128906 290.929688 C 301.511719 290.929688 305.878906 286.566406 305.878906 281.179688 L 305.878906 57.511719 C 305.878906 52.125 301.511719 47.761719 296.128906 47.761719 L 122.554688 47.761719 C 117.167969 47.761719 112.804688 52.125 112.804688 57.511719 Z M 112.804688 57.511719 " clip-rule="nonzero"/></clipPath><clipPath id="5d327eab0c"><path d="M 248 263 L 289 263 L 289 271 L 248 271 Z M 248 263 " clip-rule="nonzero"/></clipPath><clipPath id="a0b23208b9"><path d="M 112.804688 57.511719 L 112.804688 281.179688 C 112.804688 286.566406 117.167969 290.929688 122.554688 290.929688 L 296.128906 290.929688 C 301.511719 290.929688 305.878906 286.566406 305.878906 281.179688 L 305.878906 57.511719 C 305.878906 52.125 301.511719 47.761719 296.128906 47.761719 L 122.554688 47.761719 C 117.167969 47.761719 112.804688 52.125 112.804688 57.511719 Z M 112.804688 57.511719 " clip-rule="nonzero"/></clipPath><clipPath id="08f3deaf4f"><path d="M 129 221 L 289 221 L 289 229 L 129 229 Z M 129 221 " clip-rule="nonzero"/></clipPath><clipPath id="e6e24565ad"><path d="M 112.804688 57.511719 L 112.804688 281.179688 C 112.804688 286.566406 117.167969 290.929688 122.554688 290.929688 L 296.128906 290.929688 C 301.511719 290.929688 305.878906 286.566406 305.878906 281.179688 L 305.878906 57.511719 C 305.878906 52.125 301.511719 47.761719 296.128906 47.761719 L 122.554688 47.761719 C 117.167969 47.761719 112.804688 52.125 112.804688 57.511719 Z M 112.804688 57.511719 " clip-rule="nonzero"/></clipPath><clipPath id="23890f9a09"><path d="M 144 82 L 273 82 L 273 91 L 144 91 Z M 144 82 " clip-rule="nonzero"/></clipPath><clipPath id="710323a8a7"><path d="M 112.804688 57.511719 L 112.804688 281.179688 C 112.804688 286.566406 117.167969 290.929688 122.554688 290.929688 L 296.128906 290.929688 C 301.511719 290.929688 305.878906 286.566406 305.878906 281.179688 L 305.878906 57.511719 C 305.878906 52.125 301.511719 47.761719 296.128906 47.761719 L 122.554688 47.761719 C 117.167969 47.761719 112.804688 52.125 112.804688 57.511719 Z M 112.804688 57.511719 " clip-rule="nonzero"/></clipPath><clipPath id="2fb6e4b417"><path d="M 113 272 L 305 272 L 305 290 L 113 290 Z M 113 272 " clip-rule="nonzero"/></clipPath><clipPath id="6b39ec2225"><path d="M 112.804688 57.511719 L 112.804688 281.179688 C 112.804688 286.566406 117.167969 290.929688 122.554688 290.929688 L 296.128906 290.929688 C 301.511719 290.929688 305.878906 286.566406 305.878906 281.179688 L 305.878906 57.511719 C 305.878906 52.125 301.511719 47.761719 296.128906 47.761719 L 122.554688 47.761719 C 117.167969 47.761719 112.804688 52.125 112.804688 57.511719 Z M 112.804688 57.511719 " clip-rule="nonzero"/></clipPath><mask id="5982feba97"><g filter="url(#62f236849e)"><rect x="-45" width="540" fill="#000000" y="-29.999999" height="359.999986" fill-opacity="0.5"/></g></mask><clipPath id="eb34f84fbd"><path d="M 0.28125 1 L 191.558594 1 L 191.558594 17.441406 L 0.28125 17.441406 Z M 0.28125 1 " clip-rule="nonzero"/></clipPath><clipPath id="4090fee8a1"><path d="M -0.195312 -214.488281 L -0.195312 9.179688 C -0.195312 14.566406 4.167969 18.929688 9.554688 18.929688 L 183.128906 18.929688 C 188.511719 18.929688 192.878906 14.566406 192.878906 9.179688 L 192.878906 -214.488281 C 192.878906 -219.875 188.511719 -224.238281 183.128906 -224.238281 L 9.554688 -224.238281 C 4.167969 -224.238281 -0.195312 -219.875 -0.195312 -214.488281 Z M -0.195312 -214.488281 " clip-rule="nonzero"/></clipPath><clipPath id="c252e7ffff"><rect x="0" width="192" y="0" height="18"/></clipPath><clipPath id="d8c8f121ff"><path d="M 112.804688 47.761719 L 305.554688 47.761719 L 305.554688 290.761719 L 112.804688 290.761719 Z M 112.804688 47.761719 " clip-rule="nonzero"/></clipPath><clipPath id="e048d921fa"><path d="M 112.804688 57.511719 L 112.804688 281.179688 C 112.804688 286.566406 117.167969 290.929688 122.554688 290.929688 L 296.128906 290.929688 C 301.511719 290.929688 305.878906 286.566406 305.878906 281.179688 L 305.878906 57.511719 C 305.878906 52.125 301.511719 47.761719 296.128906 47.761719 L 122.554688 47.761719 C 117.167969 47.761719 112.804688 52.125 112.804688 57.511719 Z M 112.804688 57.511719 " clip-rule="nonzero"/></clipPath><clipPath id="64b16ba827"><path d="M 155.355469 9.070312 L 349 9.070312 L 349 258 L 155.355469 258 Z M 155.355469 9.070312 " clip-rule="nonzero"/></clipPath><clipPath id="2d06b16f58"><path d="M 155.355469 18.820312 L 155.355469 266.714844 C 155.355469 272.101562 159.722656 276.464844 165.105469 276.464844 L 357.914062 276.464844 C 363.300781 276.464844 367.664062 272.101562 367.664062 266.714844 L 367.664062 18.820312 C 367.664062 13.433594 363.300781 9.070312 357.914062 9.070312 L 165.105469 9.070312 C 159.722656 9.070312 155.355469 13.433594 155.355469 18.820312 Z M 155.355469 18.820312 " clip-rule="nonzero"/></clipPath><clipPath id="291cb8fc8b"><path d="M 155.355469 9.070312 L 351 9.070312 L 351 260 L 155.355469 260 Z M 155.355469 9.070312 " clip-rule="nonzero"/></clipPath><clipPath id="6b6e8cafa0"><path d="M 155.355469 18.820312 L 155.355469 266.714844 C 155.355469 272.101562 159.722656 276.464844 165.105469 276.464844 L 357.914062 276.464844 C 363.300781 276.464844 367.664062 272.101562 367.664062 266.714844 L 367.664062 18.820312 C 367.664062 13.433594 363.300781 9.070312 357.914062 9.070312 L 165.105469 9.070312 C 159.722656 9.070312 155.355469 13.433594 155.355469 18.820312 Z M 155.355469 18.820312 " clip-rule="nonzero"/></clipPath><clipPath id="7221e4e09a"><path d="M 155.355469 239 L 333 239 L 333 242 L 155.355469 242 Z M 155.355469 239 " clip-rule="nonzero"/></clipPath><clipPath id="b8dd00c5b8"><path d="M 155.355469 18.820312 L 155.355469 266.714844 C 155.355469 272.101562 159.722656 276.464844 165.105469 276.464844 L 357.914062 276.464844 C 363.300781 276.464844 367.664062 272.101562 367.664062 266.714844 L 367.664062 18.820312 C 367.664062 13.433594 363.300781 9.070312 357.914062 9.070312 L 165.105469 9.070312 C 159.722656 9.070312 155.355469 13.433594 155.355469 18.820312 Z M 155.355469 18.820312 " clip-rule="nonzero"/></clipPath><clipPath id="8230a97966"><path d="M 341 239 L 347 239 L 347 242 L 341 242 Z M 341 239 " clip-rule="nonzero"/></clipPath><clipPath id="4aecb5946f"><path d="M 155.355469 18.820312 L 155.355469 266.714844 C 155.355469 272.101562 159.722656 276.464844 165.105469 276.464844 L 357.914062 276.464844 C 363.300781 276.464844 367.664062 272.101562 367.664062 266.714844 L 367.664062 18.820312 C 367.664062 13.433594 363.300781 9.070312 357.914062 9.070312 L 165.105469 9.070312 C 159.722656 9.070312 155.355469 13.433594 155.355469 18.820312 Z M 155.355469 18.820312 " clip-rule="nonzero"/></clipPath><clipPath id="03973989bf"><path d="M 155.355469 21 L 356 21 L 356 258 L 155.355469 258 Z M 155.355469 21 " clip-rule="nonzero"/></clipPath><clipPath id="0d0a2c56c4"><path d="M 155.355469 18.820312 L 155.355469 266.714844 C 155.355469 272.101562 159.722656 276.464844 165.105469 276.464844 L 357.914062 276.464844 C 363.300781 276.464844 367.664062 272.101562 367.664062 266.714844 L 367.664062 18.820312 C 367.664062 13.433594 363.300781 9.070312 357.914062 9.070312 L 165.105469 9.070312 C 159.722656 9.070312 155.355469 13.433594 155.355469 18.820312 Z M 155.355469 18.820312 " clip-rule="nonzero"/></clipPath><mask id="c48be69420"><g filter="url(#62f236849e)"><rect x="-45" width="540" fill="#000000" y="-29.999999" height="359.999986" fill-opacity="0.5"/></g></mask><clipPath id="72796dc4ea"><path d="M 0.355469 1 L 200.921875 1 L 200.921875 237 L 0.355469 237 Z M 0.355469 1 " clip-rule="nonzero"/></clipPath><clipPath id="17be28f15c"><path d="M 0.355469 -2.179688 L 0.355469 245.714844 C 0.355469 251.101562 4.722656 255.464844 10.105469 255.464844 L 202.914062 255.464844 C 208.300781 255.464844 212.664062 251.101562 212.664062 245.714844 L 212.664062 -2.179688 C 212.664062 -7.566406 208.300781 -11.929688 202.914062 -11.929688 L 10.105469 -11.929688 C 4.722656 -11.929688 0.355469 -7.566406 0.355469 -2.179688 Z M 0.355469 -2.179688 " clip-rule="nonzero"/></clipPath><clipPath id="d5b9325156"><rect x="0" width="201" y="0" height="237"/></clipPath><clipPath id="7978a9a1da"><path d="M 156 10 L 366 10 L 366 275 L 156 275 Z M 156 10 " clip-rule="nonzero"/></clipPath><clipPath id="9b1726130b"><path d="M 155.355469 18.820312 L 155.355469 266.714844 C 155.355469 272.101562 159.722656 276.464844 165.105469 276.464844 L 357.914062 276.464844 C 363.300781 276.464844 367.664062 272.101562 367.664062 266.714844 L 367.664062 18.820312 C 367.664062 13.433594 363.300781 9.070312 357.914062 9.070312 L 165.105469 9.070312 C 159.722656 9.070312 155.355469 13.433594 155.355469 18.820312 Z M 155.355469 18.820312 " clip-rule="nonzero"/></clipPath><clipPath id="d2100a264d"><path d="M 173 32 L 349 32 L 349 168 L 173 168 Z M 173 32 " clip-rule="nonzero"/></clipPath><clipPath id="497c23465e"><path d="M 155.355469 18.820312 L 155.355469 266.714844 C 155.355469 272.101562 159.722656 276.464844 165.105469 276.464844 L 357.914062 276.464844 C 363.300781 276.464844 367.664062 272.101562 367.664062 266.714844 L 367.664062 18.820312 C 367.664062 13.433594 363.300781 9.070312 357.914062 9.070312 L 165.105469 9.070312 C 159.722656 9.070312 155.355469 13.433594 155.355469 18.820312 Z M 155.355469 18.820312 " clip-rule="nonzero"/></clipPath><clipPath id="c52d892b2b"><path d="M 155.355469 9.070312 L 367.605469 9.070312 L 367.605469 201 L 155.355469 201 Z M 155.355469 9.070312 " clip-rule="nonzero"/></clipPath><clipPath id="c1377a913a"><path d="M 155.355469 18.820312 L 155.355469 266.714844 C 155.355469 272.101562 159.722656 276.464844 165.105469 276.464844 L 357.914062 276.464844 C 363.300781 276.464844 367.664062 272.101562 367.664062 266.714844 L 367.664062 18.820312 C 367.664062 13.433594 363.300781 9.070312 357.914062 9.070312 L 165.105469 9.070312 C 159.722656 9.070312 155.355469 13.433594 155.355469 18.820312 Z M 155.355469 18.820312 " clip-rule="nonzero"/></clipPath><clipPath id="2ad9e80151"><path d="M 173 184 L 349 184 L 349 193 L 173 193 Z M 173 184 " clip-rule="nonzero"/></clipPath><clipPath id="e41d8a04d2"><path d="M 155.355469 18.820312 L 155.355469 266.714844 C 155.355469 272.101562 159.722656 276.464844 165.105469 276.464844 L 357.914062 276.464844 C 363.300781 276.464844 367.664062 272.101562 367.664062 266.714844 L 367.664062 18.820312 C 367.664062 13.433594 363.300781 9.070312 357.914062 9.070312 L 165.105469 9.070312 C 159.722656 9.070312 155.355469 13.433594 155.355469 18.820312 Z M 155.355469 18.820312 " clip-rule="nonzero"/></clipPath><clipPath id="c61b214b2c"><path d="M 173 215 L 262 215 L 262 224 L 173 224 Z M 173 215 " clip-rule="nonzero"/></clipPath><clipPath id="a2294e92fb"><path d="M 155.355469 18.820312 L 155.355469 266.714844 C 155.355469 272.101562 159.722656 276.464844 165.105469 276.464844 L 357.914062 276.464844 C 363.300781 276.464844 367.664062 272.101562 367.664062 266.714844 L 367.664062 18.820312 C 367.664062 13.433594 363.300781 9.070312 357.914062 9.070312 L 165.105469 9.070312 C 159.722656 9.070312 155.355469 13.433594 155.355469 18.820312 Z M 155.355469 18.820312 " clip-rule="nonzero"/></clipPath><clipPath id="ae58435047"><path d="M 173 246 L 218 246 L 218 255 L 173 255 Z M 173 246 " clip-rule="nonzero"/></clipPath><clipPath id="7a84bb42df"><path d="M 155.355469 18.820312 L 155.355469 266.714844 C 155.355469 272.101562 159.722656 276.464844 165.105469 276.464844 L 357.914062 276.464844 C 363.300781 276.464844 367.664062 272.101562 367.664062 266.714844 L 367.664062 18.820312 C 367.664062 13.433594 363.300781 9.070312 357.914062 9.070312 L 165.105469 9.070312 C 159.722656 9.070312 155.355469 13.433594 155.355469 18.820312 Z M 155.355469 18.820312 " clip-rule="nonzero"/></clipPath><clipPath id="07ed9f1d3e"><path d="M 304 246 L 349 246 L 349 255 L 304 255 Z M 304 246 " clip-rule="nonzero"/></clipPath><clipPath id="02255ee096"><path d="M 155.355469 18.820312 L 155.355469 266.714844 C 155.355469 272.101562 159.722656 276.464844 165.105469 276.464844 L 357.914062 276.464844 C 363.300781 276.464844 367.664062 272.101562 367.664062 266.714844 L 367.664062 18.820312 C 367.664062 13.433594 363.300781 9.070312 357.914062 9.070312 L 165.105469 9.070312 C 159.722656 9.070312 155.355469 13.433594 155.355469 18.820312 Z M 155.355469 18.820312 " clip-rule="nonzero"/></clipPath><clipPath id="69a73b4eec"><path d="M 173 199 L 349 199 L 349 208 L 173 208 Z M 173 199 " clip-rule="nonzero"/></clipPath><clipPath id="488889a688"><path d="M 155.355469 18.820312 L 155.355469 266.714844 C 155.355469 272.101562 159.722656 276.464844 165.105469 276.464844 L 357.914062 276.464844 C 363.300781 276.464844 367.664062 272.101562 367.664062 266.714844 L 367.664062 18.820312 C 367.664062 13.433594 363.300781 9.070312 357.914062 9.070312 L 165.105469 9.070312 C 159.722656 9.070312 155.355469 13.433594 155.355469 18.820312 Z M 155.355469 18.820312 " clip-rule="nonzero"/></clipPath><clipPath id="26f97ba31e"><path d="M 190 47 L 332 47 L 332 56 L 190 56 Z M 190 47 " clip-rule="nonzero"/></clipPath><clipPath id="242145829a"><path d="M 155.355469 18.820312 L 155.355469 266.714844 C 155.355469 272.101562 159.722656 276.464844 165.105469 276.464844 L 357.914062 276.464844 C 363.300781 276.464844 367.664062 272.101562 367.664062 266.714844 L 367.664062 18.820312 C 367.664062 13.433594 363.300781 9.070312 357.914062 9.070312 L 165.105469 9.070312 C 159.722656 9.070312 155.355469 13.433594 155.355469 18.820312 Z M 155.355469 18.820312 " clip-rule="nonzero"/></clipPath><clipPath id="9d0b62b06f"><path d="M 155.355469 256 L 367 256 L 367 276 L 155.355469 276 Z M 155.355469 256 " clip-rule="nonzero"/></clipPath><clipPath id="3fbed08a88"><path d="M 155.355469 18.820312 L 155.355469 266.714844 C 155.355469 272.101562 159.722656 276.464844 165.105469 276.464844 L 357.914062 276.464844 C 363.300781 276.464844 367.664062 272.101562 367.664062 266.714844 L 367.664062 18.820312 C 367.664062 13.433594 363.300781 9.070312 357.914062 9.070312 L 165.105469 9.070312 C 159.722656 9.070312 155.355469 13.433594 155.355469 18.820312 Z M 155.355469 18.820312 " clip-rule="nonzero"/></clipPath><mask id="7c05d222a1"><g filter="url(#62f236849e)"><rect x="-45" width="540" fill="#000000" y="-29.999999" height="359.999986" fill-opacity="0.5"/></g></mask><clipPath id="94eeb81cec"><path d="M 1 1 L 211 1 L 211 19 L 1 19 Z M 1 1 " clip-rule="nonzero"/></clipPath><clipPath id="3574186c84"><path d="M 0.355469 -237.179688 L 0.355469 10.714844 C 0.355469 16.101562 4.722656 20.464844 10.105469 20.464844 L 202.914062 20.464844 C 208.300781 20.464844 212.664062 16.101562 212.664062 10.714844 L 212.664062 -237.179688 C 212.664062 -242.566406 208.300781 -246.929688 202.914062 -246.929688 L 10.105469 -246.929688 C 4.722656 -246.929688 0.355469 -242.566406 0.355469 -237.179688 Z M 0.355469 -237.179688 " clip-rule="nonzero"/></clipPath><clipPath id="9ba1492180"><rect x="0" width="212" y="0" height="20"/></clipPath><clipPath id="8461db5919"><path d="M 155.355469 9.070312 L 367.605469 9.070312 L 367.605469 276.257812 L 155.355469 276.257812 Z M 155.355469 9.070312 " clip-rule="nonzero"/></clipPath><clipPath id="5945f49850"><path d="M 155.355469 18.820312 L 155.355469 266.714844 C 155.355469 272.101562 159.722656 276.464844 165.105469 276.464844 L 357.914062 276.464844 C 363.300781 276.464844 367.664062 272.101562 367.664062 266.714844 L 367.664062 18.820312 C 367.664062 13.433594 363.300781 9.070312 357.914062 9.070312 L 165.105469 9.070312 C 159.722656 9.070312 155.355469 13.433594 155.355469 18.820312 Z M 155.355469 18.820312 " clip-rule="nonzero"/></clipPath></defs><rect x="-45" width="540" fill="#ffffff" y="-29.999999" height="359.999986" fill-opacity="1"/><rect x="-45" width="540" fill="#ffffff" y="-29.999999" height="359.999986" fill-opacity="1"/><g clip-path="url(#f1523f27fd)"><g clip-path="url(#23f81eaada)"><path fill="#ffffff" d="M 61.253906 -5.125 L 64.359375 10.40625 L 64.359375 237.121094 L 61.253906 252.648438 L 258.300781 252.648438 L 255.195312 237.121094 L 255.195312 10.40625 L 258.300781 -5.125 Z M 61.253906 -5.125 " fill-opacity="1" fill-rule="nonzero"/></g></g><g clip-path="url(#ccb2be4cb0)"><g clip-path="url(#e466af77ca)"><path fill="#0b1d3a" d="M 260.195312 254.203125 L 59.359375 254.203125 C 59.359375 254.203125 62.804688 236.96875 62.804688 236.96875 L 62.804688 10.558594 L 59.359375 -6.679688 L 260.195312 -6.679688 C 260.195312 -6.679688 256.746094 10.558594 256.746094 10.558594 L 256.746094 236.96875 C 256.746094 236.96875 260.195312 254.203125 260.195312 254.203125 Z M 63.144531 251.097656 L 256.40625 251.097656 C 256.40625 251.097656 253.640625 237.273438 253.640625 237.273438 L 253.640625 10.25 C 253.640625 10.25 256.40625 -3.574219 256.40625 -3.574219 L 63.144531 -3.574219 C 63.144531 -3.574219 65.910156 10.25 65.910156 10.25 L 65.910156 237.273438 Z M 63.144531 251.097656 " fill-opacity="1" fill-rule="nonzero"/></g></g><g clip-path="url(#246e735e4a)"><g clip-path="url(#5a158f1269)"><path fill="#0b1d3a" d="M 243.703125 237.898438 L 237.261719 237.898438 L 237.261719 236.34375 L 243.703125 236.34375 Z M 229.03125 237.898438 L 222.585938 237.898438 L 222.585938 236.34375 L 229.03125 236.34375 Z M 214.355469 237.898438 L 207.914062 237.898438 L 207.914062 236.34375 L 214.355469 236.34375 Z M 199.683594 237.898438 L 193.238281 237.898438 L 193.238281 236.34375 L 199.683594 236.34375 Z M 185.007812 237.898438 L 178.566406 237.898438 L 178.566406 236.34375 L 185.007812 236.34375 Z M 170.335938 237.898438 L 163.890625 237.898438 L 163.890625 236.34375 L 170.335938 236.34375 Z M 155.660156 237.898438 L 149.214844 237.898438 L 149.214844 236.34375 L 155.660156 236.34375 Z M 140.988281 237.898438 L 134.542969 237.898438 L 134.542969 236.34375 L 140.988281 236.34375 Z M 126.3125 237.898438 L 119.867188 237.898438 L 119.867188 236.34375 L 126.3125 236.34375 Z M 111.640625 237.898438 L 105.195312 237.898438 L 105.195312 236.34375 L 111.640625 236.34375 Z M 96.964844 237.898438 L 90.519531 237.898438 L 90.519531 236.34375 L 96.964844 236.34375 Z M 82.292969 237.898438 L 75.847656 237.898438 L 75.847656 236.34375 L 82.292969 236.34375 Z M 82.292969 237.898438 " fill-opacity="1" fill-rule="nonzero"/></g></g><g clip-path="url(#fff69d73eb)"><g clip-path="url(#18f8893570)"><path fill="#0b1d3a" d="M 251.933594 236.34375 L 255.96875 236.34375 L 255.96875 237.898438 L 251.933594 237.898438 Z M 251.933594 236.34375 " fill-opacity="1" fill-rule="nonzero"/></g></g><g clip-path="url(#0a39ce5a20)"><g clip-path="url(#37c08c704e)"><g mask="url(#09b0499ea3)"><g transform="matrix(1, 0, 0, 1, 82, 38)"><g clip-path="url(#ae6036cdbc)"><g clip-path="url(#7f5f0e4d2d)"><g clip-path="url(#7382be34af)"><path fill="#0b1d3a" d="M 1.617188 0.441406 L 172.574219 0.441406 C 178.058594 0.441406 182.511719 4.894531 182.511719 10.382812 L 182.511719 214.648438 L -8.324219 214.648438 L -8.324219 10.382812 C -8.324219 4.894531 -3.871094 0.441406 1.617188 0.441406 Z M 1.617188 0.441406 " fill-opacity="1" fill-rule="nonzero"/></g></g></g></g></g></g></g><g clip-path="url(#b64bb42c05)"><g clip-path="url(#0ac8cd4356)"><path fill="#f4f4f4" d="M 92.933594 27.691406 L 263.890625 27.691406 C 269.375 27.691406 273.828125 32.144531 273.828125 37.628906 L 273.828125 258.238281 C 273.828125 263.726562 269.375 268.179688 263.890625 268.179688 L 92.933594 268.179688 C 87.449219 268.179688 82.992188 263.726562 82.992188 258.238281 L 82.992188 37.628906 C 82.992188 32.144531 87.449219 27.691406 92.933594 27.691406 Z M 92.933594 27.691406 " fill-opacity="1" fill-rule="nonzero"/></g></g><g clip-path="url(#e5e496a525)"><g clip-path="url(#174c6a788f)"><path fill="#ffffff" d="M 107.046875 47.644531 L 249.777344 47.644531 C 250.289062 47.644531 250.792969 47.695312 251.292969 47.792969 C 251.796875 47.894531 252.28125 48.042969 252.753906 48.238281 C 253.222656 48.433594 253.671875 48.671875 254.097656 48.953125 C 254.519531 49.238281 254.914062 49.5625 255.273438 49.921875 C 255.636719 50.28125 255.957031 50.675781 256.242188 51.097656 C 256.523438 51.523438 256.765625 51.972656 256.960938 52.445312 C 257.15625 52.914062 257.304688 53.402344 257.402344 53.902344 C 257.503906 54.402344 257.550781 54.90625 257.550781 55.417969 L 257.550781 162.804688 C 257.550781 163.316406 257.503906 163.820312 257.402344 164.320312 C 257.304688 164.820312 257.15625 165.308594 256.960938 165.78125 C 256.765625 166.25 256.523438 166.699219 256.242188 167.125 C 255.957031 167.546875 255.636719 167.941406 255.273438 168.300781 C 254.914062 168.664062 254.519531 168.984375 254.097656 169.269531 C 253.671875 169.550781 253.222656 169.792969 252.753906 169.988281 C 252.28125 170.183594 251.796875 170.328125 251.292969 170.429688 C 250.792969 170.527344 250.289062 170.578125 249.777344 170.578125 L 107.046875 170.578125 C 106.535156 170.578125 106.03125 170.527344 105.53125 170.429688 C 105.03125 170.328125 104.542969 170.183594 104.074219 169.988281 C 103.601562 169.792969 103.152344 169.550781 102.726562 169.269531 C 102.304688 168.984375 101.910156 168.664062 101.550781 168.300781 C 101.191406 167.941406 100.867188 167.546875 100.582031 167.125 C 100.300781 166.699219 100.0625 166.25 99.867188 165.78125 C 99.671875 165.308594 99.523438 164.820312 99.421875 164.320312 C 99.324219 163.820312 99.273438 163.316406 99.273438 162.804688 L 99.273438 55.417969 C 99.273438 54.90625 99.324219 54.402344 99.421875 53.902344 C 99.523438 53.402344 99.671875 52.914062 99.867188 52.445312 C 100.0625 51.972656 100.300781 51.523438 100.582031 51.097656 C 100.867188 50.675781 101.191406 50.28125 101.550781 49.921875 C 101.910156 49.5625 102.304688 49.238281 102.726562 48.953125 C 103.152344 48.671875 103.601562 48.433594 104.074219 48.238281 C 104.542969 48.042969 105.03125 47.894531 105.53125 47.792969 C 106.03125 47.695312 106.535156 47.644531 107.046875 47.644531 Z M 107.046875 47.644531 " fill-opacity="1" fill-rule="nonzero"/></g></g><g clip-path="url(#92bfa29e59)"><g clip-path="url(#fc247cd026)"><path stroke-linecap="butt" transform="matrix(0.21228, 0, 0, 0.21228, -44.909265, -80.753043)" fill="none" stroke-linejoin="miter" d="M 715.82793 604.849333 L 1388.195997 604.849333 C 1390.606578 604.849333 1392.980356 605.088551 1395.335733 605.548585 C 1397.709511 606.027021 1399.991282 606.726274 1402.21785 607.646343 C 1404.426015 608.566412 1406.542174 609.688896 1408.547925 611.013795 C 1410.535274 612.357096 1412.393813 613.884411 1414.08674 615.577338 C 1415.798069 617.270265 1417.306982 619.128805 1418.650283 621.116154 C 1419.975182 623.121904 1421.116068 625.238063 1422.036137 627.46463 C 1422.956206 629.672796 1423.655459 631.972969 1424.115493 634.328345 C 1424.593929 636.683722 1424.814746 639.0575 1424.814746 641.468081 L 1424.814746 1147.340451 C 1424.814746 1149.751032 1424.593929 1152.12481 1424.115493 1154.480187 C 1423.655459 1156.835564 1422.956206 1159.135737 1422.036137 1161.362304 C 1421.116068 1163.570469 1419.975182 1165.686628 1418.650283 1167.692379 C 1417.306982 1169.679728 1415.798069 1171.538267 1414.08674 1173.231194 C 1412.393813 1174.942523 1410.535274 1176.451436 1408.547925 1177.794737 C 1406.542174 1179.119636 1404.426015 1180.260522 1402.21785 1181.180591 C 1399.991282 1182.10066 1397.709511 1182.781511 1395.335733 1183.259947 C 1392.980356 1183.719982 1390.606578 1183.9592 1388.195997 1183.9592 L 715.82793 1183.9592 C 713.417349 1183.9592 711.043571 1183.719982 708.688194 1183.259947 C 706.332818 1182.781511 704.032645 1182.10066 701.824479 1181.180591 C 699.597912 1180.260522 697.481753 1179.119636 695.476003 1177.794737 C 693.488654 1176.451436 691.630114 1174.942523 689.937187 1173.231194 C 688.24426 1171.538267 686.716945 1169.679728 685.373645 1167.692379 C 684.048745 1165.686628 682.926261 1163.570469 682.006192 1161.362304 C 681.086123 1159.135737 680.38687 1156.835564 679.908434 1154.480187 C 679.4484 1152.12481 679.209182 1149.751032 679.209182 1147.340451 L 679.209182 641.468081 C 679.209182 639.0575 679.4484 636.683722 679.908434 634.328345 C 680.38687 631.972969 681.086123 629.672796 682.006192 627.46463 C 682.926261 625.238063 684.048745 623.121904 685.373645 621.116154 C 686.716945 619.128805 688.24426 617.270265 689.937187 615.577338 C 691.630114 613.884411 693.488654 612.357096 695.476003 611.013795 C 697.481753 609.688896 699.597912 608.566412 701.824479 607.646343 C 704.032645 606.726274 706.332818 606.027021 708.688194 605.548585 C 711.043571 605.088551 713.417349 604.849333 715.82793 604.849333 Z M 715.82793 604.849333 " stroke="#010101" stroke-width="10" stroke-opacity="1" stroke-miterlimit="10"/></g></g><g clip-path="url(#09e446d6a4)"><g clip-path="url(#1ba08c2b78)"><path fill="#0b1d3a" d="M 254.023438 193.117188 L 102.800781 193.117188 C 100.851562 193.117188 99.269531 191.535156 99.269531 189.585938 C 99.269531 187.636719 100.851562 186.054688 102.800781 186.054688 L 254.023438 186.054688 C 255.96875 186.054688 257.550781 187.636719 257.550781 189.585938 C 257.550781 191.535156 255.972656 193.117188 254.023438 193.117188 Z M 254.023438 193.117188 " fill-opacity="1" fill-rule="nonzero"/></g></g><g clip-path="url(#51293664bc)"><g clip-path="url(#6b40cee52d)"><path fill="#0b1d3a" d="M 102.804688 214.296875 L 174.882812 214.296875 C 175.351562 214.296875 175.800781 214.386719 176.234375 214.5625 C 176.667969 214.742188 177.046875 215 177.378906 215.328125 C 177.710938 215.660156 177.964844 216.042969 178.144531 216.472656 C 178.324219 216.90625 178.414062 217.355469 178.414062 217.824219 C 178.414062 218.292969 178.324219 218.742188 178.144531 219.175781 C 177.964844 219.609375 177.710938 219.992188 177.378906 220.320312 C 177.046875 220.652344 176.667969 220.90625 176.234375 221.085938 C 175.800781 221.265625 175.351562 221.355469 174.882812 221.355469 L 102.804688 221.355469 C 102.335938 221.355469 101.886719 221.265625 101.453125 221.085938 C 101.019531 220.90625 100.636719 220.652344 100.308594 220.320312 C 99.976562 219.992188 99.722656 219.609375 99.542969 219.175781 C 99.363281 218.742188 99.273438 218.292969 99.273438 217.824219 C 99.273438 217.355469 99.363281 216.90625 99.542969 216.472656 C 99.722656 216.042969 99.976562 215.660156 100.308594 215.328125 C 100.636719 215 101.019531 214.742188 101.453125 214.5625 C 101.886719 214.386719 102.335938 214.296875 102.804688 214.296875 Z M 102.804688 214.296875 " fill-opacity="1" fill-rule="nonzero"/></g></g><g clip-path="url(#87df03f727)"><g clip-path="url(#b04bc32264)"><path fill="#0b1d3a" d="M 102.804688 242.53125 L 135.3125 242.53125 C 135.78125 242.53125 136.230469 242.621094 136.664062 242.800781 C 137.097656 242.980469 137.476562 243.234375 137.808594 243.566406 C 138.140625 243.898438 138.394531 244.28125 138.574219 244.710938 C 138.753906 245.144531 138.84375 245.59375 138.84375 246.0625 C 138.84375 246.53125 138.753906 246.980469 138.574219 247.414062 C 138.394531 247.847656 138.140625 248.226562 137.808594 248.558594 C 137.476562 248.890625 137.097656 249.144531 136.664062 249.324219 C 136.230469 249.503906 135.78125 249.59375 135.3125 249.59375 L 102.804688 249.59375 C 102.335938 249.59375 101.886719 249.503906 101.453125 249.324219 C 101.019531 249.144531 100.636719 248.890625 100.308594 248.558594 C 99.976562 248.226562 99.722656 247.847656 99.542969 247.414062 C 99.363281 246.980469 99.273438 246.53125 99.273438 246.0625 C 99.273438 245.59375 99.363281 245.144531 99.542969 244.710938 C 99.722656 244.28125 99.976562 243.898438 100.308594 243.566406 C 100.636719 243.234375 101.019531 242.980469 101.453125 242.800781 C 101.886719 242.621094 102.335938 242.53125 102.804688 242.53125 Z M 102.804688 242.53125 " fill-opacity="1" fill-rule="nonzero"/></g></g><g clip-path="url(#72e27439c0)"><g clip-path="url(#b69ebe06b9)"><path fill="#0b1d3a" d="M 221.511719 242.53125 L 254.023438 242.53125 C 254.488281 242.53125 254.941406 242.621094 255.371094 242.800781 C 255.804688 242.980469 256.1875 243.234375 256.519531 243.566406 C 256.847656 243.898438 257.105469 244.28125 257.28125 244.710938 C 257.460938 245.144531 257.550781 245.59375 257.550781 246.0625 C 257.550781 246.53125 257.460938 246.980469 257.28125 247.414062 C 257.105469 247.847656 256.847656 248.226562 256.519531 248.558594 C 256.1875 248.890625 255.804688 249.144531 255.371094 249.324219 C 254.941406 249.503906 254.488281 249.59375 254.023438 249.59375 L 221.511719 249.59375 C 221.042969 249.59375 220.59375 249.503906 220.160156 249.324219 C 219.730469 249.144531 219.347656 248.890625 219.015625 248.558594 C 218.6875 248.226562 218.429688 247.847656 218.25 247.414062 C 218.074219 246.980469 217.984375 246.53125 217.984375 246.0625 C 217.984375 245.59375 218.074219 245.144531 218.25 244.710938 C 218.429688 244.28125 218.6875 243.898438 219.015625 243.566406 C 219.347656 243.234375 219.730469 242.980469 220.160156 242.800781 C 220.59375 242.621094 221.042969 242.53125 221.511719 242.53125 Z M 221.511719 242.53125 " fill-opacity="1" fill-rule="nonzero"/></g></g><g clip-path="url(#c747124106)"><g clip-path="url(#4e606c4d87)"><path fill="#0b1d3a" d="M 254.023438 207.234375 L 102.800781 207.234375 C 100.851562 207.234375 99.269531 205.65625 99.269531 203.703125 C 99.269531 201.757812 100.851562 200.175781 102.800781 200.175781 L 254.023438 200.175781 C 255.96875 200.175781 257.550781 201.753906 257.550781 203.703125 C 257.550781 205.652344 255.972656 207.234375 254.023438 207.234375 Z M 254.023438 207.234375 " fill-opacity="1" fill-rule="nonzero"/></g></g><g clip-path="url(#9b68b9dbf3)"><g clip-path="url(#96d80bd2f9)"><path fill="#0b1d3a" d="M 238.785156 68.824219 L 118.035156 68.824219 C 116.089844 68.824219 114.507812 67.246094 114.507812 65.292969 C 114.507812 63.34375 116.085938 61.761719 118.035156 61.761719 L 238.785156 61.761719 C 240.734375 61.761719 242.316406 63.34375 242.316406 65.292969 C 242.316406 67.242188 240.738281 68.824219 238.785156 68.824219 Z M 238.785156 68.824219 " fill-opacity="1" fill-rule="nonzero"/></g></g><g clip-path="url(#ccb03988d9)"><g clip-path="url(#43b668a481)"><g mask="url(#191efeccb2)"><g transform="matrix(1, 0, 0, 1, 82, 251)"><g clip-path="url(#be1d82cea5)"><g clip-path="url(#fe36738e32)"><g clip-path="url(#d539afe9d7)"><path fill="#0b1d3a" d="M 191.828125 1.027344 L 191.828125 7.238281 C 191.828125 12.726562 187.382812 17.179688 181.890625 17.179688 L 10.933594 17.179688 C 5.445312 17.179688 0.992188 12.726562 0.992188 7.238281 L 0.992188 1.027344 C 0.992188 6.515625 5.445312 10.96875 10.933594 10.96875 L 181.890625 10.96875 C 187.382812 10.96875 191.828125 6.515625 191.828125 1.027344 Z M 191.828125 1.027344 " fill-opacity="1" fill-rule="nonzero"/></g></g></g></g></g></g></g><g clip-path="url(#2b99277609)"><g clip-path="url(#41ec76d080)"><path fill="#0b1d3a" d="M 263.894531 269.730469 L 92.933594 269.730469 C 86.597656 269.730469 81.441406 264.574219 81.441406 258.238281 L 81.441406 37.628906 C 81.441406 31.292969 86.597656 26.136719 92.933594 26.136719 L 263.894531 26.136719 C 270.230469 26.136719 275.386719 31.292969 275.386719 37.628906 L 275.386719 258.238281 C 275.386719 264.574219 270.230469 269.730469 263.894531 269.730469 Z M 92.933594 29.246094 C 88.308594 29.246094 84.546875 33.003906 84.546875 37.628906 L 84.546875 258.238281 C 84.546875 262.863281 88.308594 266.625 92.933594 266.625 L 263.890625 266.625 C 268.515625 266.625 272.277344 262.863281 272.277344 258.238281 L 272.277344 37.628906 C 272.277344 33.003906 268.515625 29.246094 263.890625 29.246094 Z M 92.933594 29.246094 " fill-opacity="1" fill-rule="nonzero"/></g></g><g clip-path="url(#946f0242c4)"><g clip-path="url(#16073cca3e)"><path fill="#ffffff" d="M 91.71875 16.074219 L 94.824219 31.601562 L 94.824219 258.316406 L 91.71875 273.847656 L 288.769531 273.847656 L 285.664062 258.316406 L 285.664062 31.601562 L 288.769531 16.074219 Z M 91.71875 16.074219 " fill-opacity="1" fill-rule="nonzero"/></g></g><g clip-path="url(#92d4db19ca)"><g clip-path="url(#929ae08a3a)"><path fill="#f4f4f4" d="M 290.660156 275.402344 L 89.824219 275.402344 C 89.824219 275.402344 93.273438 258.164062 93.273438 258.164062 L 93.273438 31.753906 L 89.824219 14.519531 L 290.660156 14.519531 C 290.660156 14.519531 287.214844 31.753906 287.214844 31.753906 L 287.214844 258.164062 C 287.214844 258.164062 290.660156 275.402344 290.660156 275.402344 Z M 93.613281 272.292969 L 286.871094 272.292969 C 286.871094 272.292969 284.109375 258.472656 284.109375 258.472656 L 284.109375 31.449219 C 284.109375 31.449219 286.875 17.625 286.875 17.625 L 93.613281 17.625 C 93.613281 17.625 96.375 31.449219 96.375 31.449219 L 96.375 258.472656 Z M 93.613281 272.292969 " fill-opacity="1" fill-rule="nonzero"/></g></g><g clip-path="url(#34e77db5fe)"><g clip-path="url(#195284fa22)"><path fill="#f4f4f4" d="M 274.171875 259.09375 L 267.726562 259.09375 L 267.726562 257.542969 L 274.171875 257.542969 Z M 259.496094 259.09375 L 253.050781 259.09375 L 253.050781 257.542969 L 259.496094 257.542969 Z M 244.824219 259.09375 L 238.378906 259.09375 L 238.378906 257.542969 L 244.824219 257.542969 Z M 230.148438 259.09375 L 223.703125 259.09375 L 223.703125 257.542969 L 230.148438 257.542969 Z M 215.476562 259.09375 L 209.03125 259.09375 L 209.03125 257.542969 L 215.476562 257.542969 Z M 200.804688 259.09375 L 194.359375 259.09375 L 194.359375 257.542969 L 200.804688 257.542969 Z M 186.128906 259.09375 L 179.683594 259.09375 L 179.683594 257.542969 L 186.128906 257.542969 Z M 171.457031 259.09375 L 165.011719 259.09375 L 165.011719 257.542969 L 171.457031 257.542969 Z M 156.78125 259.09375 L 150.335938 259.09375 L 150.335938 257.542969 L 156.78125 257.542969 Z M 142.109375 259.09375 L 135.664062 259.09375 L 135.664062 257.542969 L 142.109375 257.542969 Z M 127.433594 259.09375 L 120.988281 259.09375 L 120.988281 257.542969 L 127.433594 257.542969 Z M 112.761719 259.09375 L 106.316406 259.09375 L 106.316406 257.542969 L 112.761719 257.542969 Z M 112.761719 259.09375 " fill-opacity="1" fill-rule="nonzero"/></g></g><g clip-path="url(#9fb08f111f)"><g clip-path="url(#59ec1ac161)"><path fill="#f4f4f4" d="M 282.398438 257.542969 L 286.4375 257.542969 L 286.4375 259.097656 L 282.398438 259.097656 Z M 282.398438 257.542969 " fill-opacity="1" fill-rule="nonzero"/></g></g><g clip-path="url(#c683b22d34)"><g clip-path="url(#281b3c0d05)"><g mask="url(#f6cde16e41)"><g transform="matrix(1, 0, 0, 1, 112, 59)"><g clip-path="url(#605ecf4a98)"><g clip-path="url(#5ac6d8771b)"><g clip-path="url(#202685ad23)"><path fill="#f4f4f4" d="M 2.082031 0.640625 L 173.039062 0.640625 C 178.527344 0.640625 182.980469 5.09375 182.980469 10.578125 L 182.980469 214.847656 L -7.855469 214.847656 L -7.855469 10.578125 C -7.855469 5.09375 -3.402344 0.640625 2.082031 0.640625 Z M 2.082031 0.640625 " fill-opacity="1" fill-rule="nonzero"/></g></g></g></g></g></g></g><g clip-path="url(#7b0b77868f)"><g clip-path="url(#b99b236f51)"><path fill="#0b1d3a" d="M 123.398438 48.890625 L 294.359375 48.890625 C 299.84375 48.890625 304.296875 53.34375 304.296875 58.828125 L 304.296875 279.4375 C 304.296875 284.921875 299.84375 289.375 294.359375 289.375 L 123.398438 289.375 C 117.914062 289.375 113.460938 284.921875 113.460938 279.4375 L 113.460938 58.828125 C 113.460938 53.34375 117.914062 48.890625 123.398438 48.890625 Z M 123.398438 48.890625 " fill-opacity="1" fill-rule="nonzero"/></g></g><g clip-path="url(#b447b5bc54)"><g clip-path="url(#c82d5d3e59)"><path fill="#ffffff" d="M 137.515625 68.84375 L 280.246094 68.84375 C 280.757812 68.84375 281.261719 68.894531 281.761719 68.992188 C 282.261719 69.09375 282.75 69.238281 283.21875 69.433594 C 283.691406 69.628906 284.140625 69.871094 284.5625 70.152344 C 284.988281 70.4375 285.382812 70.757812 285.742188 71.121094 C 286.101562 71.480469 286.425781 71.875 286.710938 72.296875 C 286.992188 72.722656 287.230469 73.171875 287.425781 73.640625 C 287.621094 74.113281 287.769531 74.601562 287.871094 75.101562 C 287.96875 75.601562 288.019531 76.105469 288.019531 76.617188 L 288.019531 184.003906 C 288.019531 184.511719 287.96875 185.019531 287.871094 185.519531 C 287.769531 186.019531 287.621094 186.507812 287.425781 186.976562 C 287.230469 187.449219 286.992188 187.898438 286.710938 188.320312 C 286.425781 188.746094 286.101562 189.140625 285.742188 189.5 C 285.382812 189.859375 284.988281 190.183594 284.5625 190.464844 C 284.140625 190.75 283.691406 190.988281 283.21875 191.183594 C 282.75 191.378906 282.261719 191.527344 281.761719 191.628906 C 281.261719 191.726562 280.757812 191.777344 280.246094 191.777344 L 137.515625 191.777344 C 137.003906 191.777344 136.5 191.726562 135.996094 191.628906 C 135.496094 191.527344 135.011719 191.378906 134.539062 191.183594 C 134.066406 190.988281 133.621094 190.75 133.195312 190.464844 C 132.769531 190.183594 132.378906 189.859375 132.019531 189.5 C 131.65625 189.140625 131.335938 188.746094 131.050781 188.320312 C 130.765625 187.898438 130.527344 187.449219 130.332031 186.976562 C 130.136719 186.507812 129.988281 186.019531 129.890625 185.519531 C 129.789062 185.019531 129.742188 184.511719 129.742188 184.003906 L 129.742188 76.617188 C 129.742188 76.105469 129.789062 75.601562 129.890625 75.101562 C 129.988281 74.601562 130.136719 74.113281 130.332031 73.640625 C 130.527344 73.171875 130.765625 72.722656 131.050781 72.296875 C 131.335938 71.875 131.65625 71.480469 132.019531 71.121094 C 132.378906 70.757812 132.769531 70.4375 133.195312 70.152344 C 133.621094 69.871094 134.066406 69.628906 134.539062 69.433594 C 135.011719 69.238281 135.496094 69.09375 135.996094 68.992188 C 136.5 68.894531 137.003906 68.84375 137.515625 68.84375 Z M 137.515625 68.84375 " fill-opacity="1" fill-rule="nonzero"/></g></g><g clip-path="url(#3dc10cad01)"><g clip-path="url(#79f20dde54)"><path stroke-linecap="butt" transform="matrix(0.21228, 0, 0, 0.21228, -14.441958, -59.554534)" fill="none" stroke-linejoin="miter" d="M 715.834727 604.852674 L 1388.202793 604.852674 C 1390.613374 604.852674 1392.987153 605.091892 1395.342529 605.551926 C 1397.697906 606.030362 1399.998079 606.711213 1402.206245 607.631283 C 1404.432812 608.551352 1406.548971 609.692237 1408.53632 611.017137 C 1410.54207 612.360437 1412.40061 613.869351 1414.093537 615.580679 C 1415.786464 617.273606 1417.313779 619.132146 1418.657079 621.119495 C 1419.981979 623.125245 1421.104463 625.241404 1422.024532 627.44957 C 1422.944601 629.676137 1423.643854 631.97631 1424.12229 634.331687 C 1424.582324 636.687063 1424.821542 639.060842 1424.821542 641.471423 L 1424.821542 1147.343792 C 1424.821542 1149.735972 1424.582324 1152.128152 1424.12229 1154.483528 C 1423.643854 1156.838905 1422.944601 1159.139078 1422.024532 1161.347244 C 1421.104463 1163.573811 1419.981979 1165.689969 1418.657079 1167.677319 C 1417.313779 1169.683069 1415.786464 1171.541609 1414.093537 1173.234536 C 1412.40061 1174.927463 1410.54207 1176.454777 1408.53632 1177.779677 C 1406.548971 1179.122978 1404.432812 1180.245462 1402.206245 1181.165531 C 1399.998079 1182.0856 1397.697906 1182.784853 1395.342529 1183.263288 C 1392.987153 1183.723323 1390.613374 1183.962541 1388.202793 1183.962541 L 715.834727 1183.962541 C 713.424146 1183.962541 711.050368 1183.723323 708.676589 1183.263288 C 706.321213 1182.784853 704.039441 1182.0856 701.812874 1181.165531 C 699.586307 1180.245462 697.48855 1179.122978 695.482799 1177.779677 C 693.477049 1176.454777 691.63691 1174.927463 689.943983 1173.234536 C 688.232655 1171.541609 686.723742 1169.683069 685.380441 1167.677319 C 684.03714 1165.689969 682.914656 1163.573811 681.994587 1161.347244 C 681.074518 1159.139078 680.375265 1156.838905 679.915231 1154.483528 C 679.436795 1152.128152 679.215978 1149.735972 679.215978 1147.343792 L 679.215978 641.471423 C 679.215978 639.060842 679.436795 636.687063 679.915231 634.331687 C 680.375265 631.97631 681.074518 629.676137 681.994587 627.44957 C 682.914656 625.241404 684.03714 623.125245 685.380441 621.119495 C 686.723742 619.132146 688.232655 617.273606 689.943983 615.580679 C 691.63691 613.869351 693.477049 612.360437 695.482799 611.017137 C 697.48855 609.692237 699.586307 608.551352 701.812874 607.631283 C 704.039441 606.711213 706.321213 606.030362 708.676589 605.551926 C 711.050368 605.091892 713.424146 604.852674 715.834727 604.852674 Z M 715.834727 604.852674 " stroke="#010101" stroke-width="10" stroke-opacity="1" stroke-miterlimit="10"/></g></g><g clip-path="url(#b753d64219)"><g clip-path="url(#820b3f95ea)"><path fill="#f4f4f4" d="M 284.488281 214.316406 L 133.269531 214.316406 C 131.320312 214.316406 129.738281 212.734375 129.738281 210.785156 C 129.738281 208.835938 131.316406 207.253906 133.269531 207.253906 L 284.488281 207.253906 C 286.4375 207.253906 288.019531 208.832031 288.019531 210.785156 C 288.019531 212.734375 286.441406 214.316406 284.488281 214.316406 Z M 284.488281 214.316406 " fill-opacity="1" fill-rule="nonzero"/></g></g><g clip-path="url(#b59af8e975)"><g clip-path="url(#77875338cb)"><path fill="#f4f4f4" d="M 133.269531 235.492188 L 205.351562 235.492188 C 205.820312 235.492188 206.269531 235.582031 206.703125 235.761719 C 207.132812 235.941406 207.515625 236.195312 207.847656 236.527344 C 208.179688 236.859375 208.433594 237.242188 208.613281 237.671875 C 208.792969 238.105469 208.882812 238.554688 208.882812 239.023438 C 208.882812 239.492188 208.792969 239.941406 208.613281 240.375 C 208.433594 240.808594 208.179688 241.1875 207.847656 241.519531 C 207.515625 241.851562 207.132812 242.105469 206.703125 242.285156 C 206.269531 242.464844 205.820312 242.554688 205.351562 242.554688 L 133.269531 242.554688 C 132.804688 242.554688 132.351562 242.464844 131.921875 242.285156 C 131.488281 242.105469 131.105469 241.851562 130.773438 241.519531 C 130.445312 241.1875 130.1875 240.808594 130.007812 240.375 C 129.832031 239.941406 129.742188 239.492188 129.742188 239.023438 C 129.742188 238.554688 129.832031 238.105469 130.007812 237.671875 C 130.1875 237.242188 130.445312 236.859375 130.773438 236.527344 C 131.105469 236.195312 131.488281 235.941406 131.921875 235.761719 C 132.351562 235.582031 132.804688 235.492188 133.269531 235.492188 Z M 133.269531 235.492188 " fill-opacity="1" fill-rule="nonzero"/></g></g><g clip-path="url(#1c7cfdecc7)"><g clip-path="url(#a9bb405412)"><path fill="#f4f4f4" d="M 133.269531 263.730469 L 165.78125 263.730469 C 166.246094 263.730469 166.699219 263.820312 167.128906 264 C 167.5625 264.179688 167.945312 264.433594 168.277344 264.765625 C 168.605469 265.097656 168.863281 265.476562 169.042969 265.910156 C 169.21875 266.34375 169.308594 266.792969 169.308594 267.261719 C 169.308594 267.730469 169.21875 268.179688 169.042969 268.613281 C 168.863281 269.046875 168.605469 269.425781 168.277344 269.757812 C 167.945312 270.089844 167.5625 270.34375 167.128906 270.523438 C 166.699219 270.703125 166.246094 270.792969 165.78125 270.792969 L 133.269531 270.792969 C 132.804688 270.792969 132.351562 270.703125 131.921875 270.523438 C 131.488281 270.34375 131.105469 270.089844 130.773438 269.757812 C 130.445312 269.425781 130.1875 269.046875 130.007812 268.613281 C 129.832031 268.179688 129.742188 267.730469 129.742188 267.261719 C 129.742188 266.792969 129.832031 266.34375 130.007812 265.910156 C 130.1875 265.476562 130.445312 265.097656 130.773438 264.765625 C 131.105469 264.433594 131.488281 264.179688 131.921875 264 C 132.351562 263.820312 132.804688 263.730469 133.269531 263.730469 Z M 133.269531 263.730469 " fill-opacity="1" fill-rule="nonzero"/></g></g><g clip-path="url(#5d327eab0c)"><g clip-path="url(#a0b23208b9)"><path fill="#f4f4f4" d="M 251.980469 263.730469 L 284.488281 263.730469 C 284.957031 263.730469 285.40625 263.820312 285.839844 264 C 286.273438 264.179688 286.652344 264.433594 286.984375 264.765625 C 287.316406 265.097656 287.570312 265.476562 287.75 265.910156 C 287.929688 266.34375 288.019531 266.792969 288.019531 267.261719 C 288.019531 267.730469 287.929688 268.179688 287.75 268.613281 C 287.570312 269.046875 287.316406 269.425781 286.984375 269.757812 C 286.652344 270.089844 286.273438 270.34375 285.839844 270.523438 C 285.40625 270.703125 284.957031 270.792969 284.488281 270.792969 L 251.980469 270.792969 C 251.511719 270.792969 251.0625 270.703125 250.628906 270.523438 C 250.195312 270.34375 249.816406 270.089844 249.484375 269.757812 C 249.152344 269.425781 248.898438 269.046875 248.71875 268.613281 C 248.539062 268.179688 248.449219 267.730469 248.449219 267.261719 C 248.449219 266.792969 248.539062 266.34375 248.71875 265.910156 C 248.898438 265.476562 249.152344 265.097656 249.484375 264.765625 C 249.816406 264.433594 250.195312 264.179688 250.628906 264 C 251.0625 263.820312 251.511719 263.730469 251.980469 263.730469 Z M 251.980469 263.730469 " fill-opacity="1" fill-rule="nonzero"/></g></g><g clip-path="url(#08f3deaf4f)"><g clip-path="url(#e6e24565ad)"><path fill="#f4f4f4" d="M 284.488281 228.433594 L 133.269531 228.433594 C 131.320312 228.433594 129.738281 226.855469 129.738281 224.902344 C 129.738281 222.953125 131.316406 221.371094 133.269531 221.371094 L 284.488281 221.371094 C 286.4375 221.371094 288.019531 222.953125 288.019531 224.902344 C 288.019531 226.851562 286.441406 228.433594 284.488281 228.433594 Z M 284.488281 228.433594 " fill-opacity="1" fill-rule="nonzero"/></g></g><g clip-path="url(#23890f9a09)"><g clip-path="url(#710323a8a7)"><path fill="#f4f4f4" d="M 269.253906 90.023438 L 148.503906 90.023438 C 146.554688 90.023438 144.972656 88.441406 144.972656 86.492188 C 144.972656 84.542969 146.554688 82.960938 148.503906 82.960938 L 269.253906 82.960938 C 271.203125 82.960938 272.785156 84.542969 272.785156 86.492188 C 272.785156 88.441406 271.203125 90.023438 269.253906 90.023438 Z M 269.253906 90.023438 " fill-opacity="1" fill-rule="nonzero"/></g></g><g clip-path="url(#2fb6e4b417)"><g clip-path="url(#6b39ec2225)"><g mask="url(#5982feba97)"><g transform="matrix(1, 0, 0, 1, 113, 272)"><g clip-path="url(#c252e7ffff)"><g clip-path="url(#eb34f84fbd)"><g clip-path="url(#4090fee8a1)"><path fill="#f4f4f4" d="M 191.296875 1.226562 L 191.296875 7.4375 C 191.296875 12.925781 186.847656 17.375 181.359375 17.375 L 10.398438 17.375 C 4.914062 17.375 0.460938 12.925781 0.460938 7.4375 L 0.460938 1.226562 C 0.460938 6.714844 4.914062 11.164062 10.398438 11.164062 L 181.359375 11.164062 C 186.847656 11.164062 191.296875 6.714844 191.296875 1.226562 Z M 191.296875 1.226562 " fill-opacity="1" fill-rule="nonzero"/></g></g></g></g></g></g></g><g clip-path="url(#d8c8f121ff)"><g clip-path="url(#e048d921fa)"><path fill="#f4f4f4" d="M 294.359375 290.929688 L 123.402344 290.929688 C 117.066406 290.929688 111.910156 285.773438 111.910156 279.4375 L 111.910156 58.828125 C 111.910156 52.492188 117.066406 47.335938 123.402344 47.335938 L 294.359375 47.335938 C 300.695312 47.335938 305.851562 52.492188 305.851562 58.828125 L 305.851562 279.4375 C 305.851562 285.773438 300.695312 290.929688 294.359375 290.929688 Z M 123.398438 50.441406 C 118.777344 50.441406 115.015625 54.203125 115.015625 58.828125 L 115.015625 279.4375 C 115.015625 284.0625 118.777344 287.824219 123.398438 287.824219 L 294.359375 287.824219 C 298.980469 287.824219 302.742188 284.0625 302.742188 279.4375 L 302.742188 58.828125 C 302.742188 54.203125 298.980469 50.441406 294.359375 50.441406 Z M 123.398438 50.441406 " fill-opacity="1" fill-rule="nonzero"/></g></g><g clip-path="url(#64b16ba827)"><g clip-path="url(#2d06b16f58)"><path fill="#e10600" d="M 132.171875 -25.773438 L 135.585938 -8.695312 L 135.585938 240.605469 L 132.171875 257.683594 L 348.851562 257.683594 L 345.4375 240.605469 L 345.4375 -8.695312 L 348.851562 -25.773438 Z M 132.171875 -25.773438 " fill-opacity="1" fill-rule="nonzero"/></g></g><g clip-path="url(#291cb8fc8b)"><g clip-path="url(#6b6e8cafa0)"><path fill="#0b1d3a" d="M 350.933594 259.394531 L 130.089844 259.394531 C 130.089844 259.394531 133.878906 240.4375 133.878906 240.4375 L 133.878906 -8.527344 L 130.089844 -27.484375 L 350.933594 -27.484375 C 350.933594 -27.484375 347.144531 -8.527344 347.144531 -8.527344 L 347.144531 240.4375 C 347.144531 240.4375 350.933594 259.394531 350.933594 259.394531 Z M 134.253906 255.976562 L 346.769531 255.976562 C 346.769531 255.976562 343.730469 240.773438 343.730469 240.773438 L 343.730469 -8.867188 C 343.730469 -8.867188 346.769531 -24.066406 346.769531 -24.066406 L 134.253906 -24.066406 C 134.253906 -24.066406 137.292969 -8.867188 137.292969 -8.867188 L 137.292969 240.773438 Z M 134.253906 255.976562 " fill-opacity="1" fill-rule="nonzero"/></g></g><g clip-path="url(#7221e4e09a)"><g clip-path="url(#b8dd00c5b8)"><path fill="#0b1d3a" d="M 332.800781 241.460938 L 325.714844 241.460938 L 325.714844 239.753906 L 332.800781 239.753906 Z M 316.664062 241.460938 L 309.578125 241.460938 L 309.578125 239.753906 L 316.664062 239.753906 Z M 300.53125 241.460938 L 293.445312 241.460938 L 293.445312 239.753906 L 300.53125 239.753906 Z M 284.394531 241.460938 L 277.308594 241.460938 L 277.308594 239.753906 L 284.394531 239.753906 Z M 268.257812 241.460938 L 261.171875 241.460938 L 261.171875 239.753906 L 268.257812 239.753906 Z M 252.125 241.460938 L 245.039062 241.460938 L 245.039062 239.753906 L 252.125 239.753906 Z M 235.988281 241.460938 L 228.902344 241.460938 L 228.902344 239.753906 L 235.988281 239.753906 Z M 219.851562 241.460938 L 212.765625 241.460938 L 212.765625 239.753906 L 219.851562 239.753906 Z M 203.714844 241.460938 L 196.628906 241.460938 L 196.628906 239.753906 L 203.714844 239.753906 Z M 187.582031 241.460938 L 180.496094 241.460938 L 180.496094 239.753906 L 187.582031 239.753906 Z M 171.445312 241.460938 L 164.355469 241.460938 L 164.355469 239.753906 L 171.445312 239.753906 Z M 155.308594 241.460938 L 148.222656 241.460938 L 148.222656 239.753906 L 155.308594 239.753906 Z M 155.308594 241.460938 " fill-opacity="1" fill-rule="nonzero"/></g></g><g clip-path="url(#8230a97966)"><g clip-path="url(#4aecb5946f)"><path fill="#0b1d3a" d="M 341.851562 239.753906 L 346.289062 239.753906 L 346.289062 241.464844 L 341.851562 241.464844 Z M 341.851562 239.753906 " fill-opacity="1" fill-rule="nonzero"/></g></g><g clip-path="url(#03973989bf)"><g clip-path="url(#0d0a2c56c4)"><g mask="url(#c48be69420)"><g transform="matrix(1, 0, 0, 1, 155, 21)"><g clip-path="url(#d5b9325156)"><g clip-path="url(#72796dc4ea)"><g clip-path="url(#17be28f15c)"><path fill="#0b1d3a" d="M 1.765625 1.136719 L 189.753906 1.136719 C 195.785156 1.136719 200.683594 6.03125 200.683594 12.0625 L 200.683594 236.683594 L -9.164062 236.683594 L -9.164062 12.0625 C -9.164062 6.03125 -4.269531 1.136719 1.765625 1.136719 Z M 1.765625 1.136719 " fill-opacity="1" fill-rule="nonzero"/></g></g></g></g></g></g></g><g clip-path="url(#7978a9a1da)"><g clip-path="url(#9b1726130b)"><path fill="#ffffff" d="M 167.007812 10.3125 L 355 10.3125 C 361.03125 10.3125 365.929688 15.210938 365.929688 21.242188 L 365.929688 263.832031 C 365.929688 269.863281 361.03125 274.761719 355 274.761719 L 167.007812 274.761719 C 160.976562 274.761719 156.078125 269.863281 156.078125 263.832031 L 156.078125 21.242188 C 156.078125 15.210938 160.976562 10.3125 167.007812 10.3125 Z M 167.007812 10.3125 " fill-opacity="1" fill-rule="nonzero"/></g></g><g clip-path="url(#d2100a264d)"><g clip-path="url(#497c23465e)"><path fill="#f4f4f4" d="M 182.53125 32.253906 L 339.480469 32.253906 C 340.042969 32.253906 340.597656 32.308594 341.148438 32.417969 C 341.699219 32.527344 342.234375 32.691406 342.753906 32.90625 C 343.269531 33.121094 343.761719 33.382812 344.230469 33.695312 C 344.695312 34.007812 345.128906 34.359375 345.527344 34.757812 C 345.921875 35.15625 346.277344 35.585938 346.589844 36.054688 C 346.902344 36.519531 347.164062 37.011719 347.378906 37.53125 C 347.59375 38.050781 347.753906 38.585938 347.863281 39.132812 C 347.972656 39.683594 348.03125 40.242188 348.03125 40.800781 L 348.03125 158.886719 C 348.03125 159.449219 347.972656 160.003906 347.863281 160.554688 C 347.753906 161.105469 347.59375 161.640625 347.378906 162.160156 C 347.164062 162.675781 346.902344 163.171875 346.589844 163.636719 C 346.277344 164.101562 345.921875 164.535156 345.527344 164.933594 C 345.128906 165.328125 344.695312 165.683594 344.230469 165.996094 C 343.761719 166.308594 343.269531 166.570312 342.753906 166.785156 C 342.234375 167 341.699219 167.160156 341.148438 167.269531 C 340.597656 167.382812 340.042969 167.4375 339.480469 167.4375 L 182.53125 167.4375 C 181.96875 167.4375 181.414062 167.382812 180.863281 167.269531 C 180.3125 167.160156 179.777344 167 179.257812 166.785156 C 178.738281 166.570312 178.246094 166.308594 177.78125 165.996094 C 177.3125 165.683594 176.882812 165.328125 176.484375 164.933594 C 176.089844 164.535156 175.734375 164.101562 175.421875 163.636719 C 175.109375 163.171875 174.847656 162.675781 174.632812 162.160156 C 174.417969 161.640625 174.253906 161.105469 174.144531 160.554688 C 174.035156 160.003906 173.980469 159.449219 173.980469 158.886719 L 173.980469 40.800781 C 173.980469 40.242188 174.035156 39.683594 174.144531 39.132812 C 174.253906 38.585938 174.417969 38.050781 174.632812 37.53125 C 174.847656 37.011719 175.109375 36.519531 175.421875 36.054688 C 175.734375 35.585938 176.089844 35.15625 176.484375 34.757812 C 176.882812 34.359375 177.3125 34.007812 177.78125 33.695312 C 178.246094 33.382812 178.738281 33.121094 179.257812 32.90625 C 179.777344 32.691406 180.3125 32.527344 180.863281 32.417969 C 181.414062 32.308594 181.96875 32.253906 182.53125 32.253906 Z M 182.53125 32.253906 " fill-opacity="1" fill-rule="nonzero"/></g></g><g clip-path="url(#c52d892b2b)"><g clip-path="url(#c1377a913a)"><path stroke-linecap="butt" transform="matrix(0.23343, 0, 0, 0.23343, 15.433558, -108.936027)" fill="none" stroke-linejoin="miter" d="M 715.836406 604.849134 L 1388.197365 604.849134 C 1390.607081 604.849134 1392.983329 605.083412 1395.342842 605.551967 C 1397.702356 606.020523 1399.994933 606.723357 1402.220573 607.643735 C 1404.429479 608.564112 1406.537981 609.6853 1408.546078 611.024031 C 1410.53744 612.362762 1412.39493 613.868834 1414.101812 615.575717 C 1415.79196 617.282599 1417.314766 619.123354 1418.653497 621.131451 C 1419.992228 623.122813 1421.113416 625.231315 1422.033793 627.456955 C 1422.954171 629.682596 1423.640271 631.975173 1424.108827 634.317952 C 1424.577382 636.677465 1424.828395 639.070447 1424.828395 641.463429 L 1424.828395 1147.336442 C 1424.828395 1149.746158 1424.577382 1152.122406 1424.108827 1154.481919 C 1423.640271 1156.841433 1422.954171 1159.13401 1422.033793 1161.35965 C 1421.113416 1163.568557 1419.992228 1165.693792 1418.653497 1167.685155 C 1417.314766 1169.676517 1415.79196 1171.534007 1414.101812 1173.240889 C 1412.39493 1174.931037 1410.53744 1176.453844 1408.546078 1177.792575 C 1406.537981 1179.131306 1404.429479 1180.252493 1402.220573 1181.172871 C 1399.994933 1182.093248 1397.702356 1182.779348 1395.342842 1183.247904 C 1392.983329 1183.733194 1390.607081 1183.967472 1388.197365 1183.967472 L 715.836406 1183.967472 C 713.42669 1183.967472 711.050442 1183.733194 708.690929 1183.247904 C 706.331415 1182.779348 704.038838 1182.093248 701.813198 1181.172871 C 699.587557 1180.252493 697.479056 1179.131306 695.487693 1177.792575 C 693.479597 1176.453844 691.638841 1174.931037 689.931959 1173.240889 C 688.241811 1171.534007 686.719005 1169.676517 685.380274 1167.685155 C 684.041542 1165.693792 682.920355 1163.568557 681.999977 1161.35965 C 681.0796 1159.13401 680.376766 1156.841433 679.90821 1154.481919 C 679.439654 1152.122406 679.205376 1149.746158 679.205376 1147.336442 L 679.205376 641.463429 C 679.205376 639.070447 679.439654 636.677465 679.90821 634.317952 C 680.376766 631.975173 681.0796 629.682596 681.999977 627.456955 C 682.920355 625.231315 684.041542 623.122813 685.380274 621.131451 C 686.719005 619.123354 688.241811 617.282599 689.931959 615.575717 C 691.638841 613.868834 693.479597 612.362762 695.487693 611.024031 C 697.479056 609.6853 699.587557 608.564112 701.813198 607.643735 C 704.038838 606.723357 706.331415 606.020523 708.690929 605.551967 C 711.050442 605.083412 713.42669 604.849134 715.836406 604.849134 Z M 715.836406 604.849134 " stroke="#010101" stroke-width="10" stroke-opacity="1" stroke-miterlimit="10"/></g></g><g clip-path="url(#2ad9e80151)"><g clip-path="url(#e41d8a04d2)"><path fill="#0b1d3a" d="M 344.148438 192.21875 L 177.859375 192.21875 C 175.71875 192.21875 173.980469 190.480469 173.980469 188.335938 C 173.980469 186.195312 175.714844 184.457031 177.859375 184.457031 L 344.148438 184.457031 C 346.289062 184.457031 348.027344 186.191406 348.027344 188.335938 C 348.027344 190.480469 346.292969 192.21875 344.148438 192.21875 Z M 344.148438 192.21875 " fill-opacity="1" fill-rule="nonzero"/></g></g><g clip-path="url(#c61b214b2c)"><g clip-path="url(#a2294e92fb)"><path fill="#0b1d3a" d="M 177.863281 215.507812 L 257.125 215.507812 C 257.640625 215.507812 258.132812 215.605469 258.609375 215.804688 C 259.085938 216 259.503906 216.28125 259.871094 216.644531 C 260.234375 217.007812 260.515625 217.429688 260.710938 217.90625 C 260.90625 218.378906 261.007812 218.875 261.007812 219.390625 C 261.007812 219.90625 260.90625 220.398438 260.710938 220.875 C 260.515625 221.351562 260.234375 221.769531 259.871094 222.136719 C 259.503906 222.5 259.085938 222.78125 258.609375 222.976562 C 258.132812 223.171875 257.640625 223.273438 257.125 223.273438 L 177.863281 223.273438 C 177.347656 223.273438 176.855469 223.171875 176.378906 222.976562 C 175.902344 222.78125 175.484375 222.5 175.117188 222.136719 C 174.753906 221.769531 174.472656 221.351562 174.277344 220.875 C 174.078125 220.398438 173.980469 219.90625 173.980469 219.390625 C 173.980469 218.875 174.078125 218.378906 174.277344 217.90625 C 174.472656 217.429688 174.753906 217.007812 175.117188 216.644531 C 175.484375 216.28125 175.902344 216 176.378906 215.804688 C 176.855469 215.605469 177.347656 215.507812 177.863281 215.507812 Z M 177.863281 215.507812 " fill-opacity="1" fill-rule="nonzero"/></g></g><g clip-path="url(#ae58435047)"><g clip-path="url(#7a84bb42df)"><path fill="#0b1d3a" d="M 177.863281 246.558594 L 213.609375 246.558594 C 214.125 246.558594 214.621094 246.65625 215.097656 246.855469 C 215.570312 247.050781 215.992188 247.332031 216.355469 247.695312 C 216.71875 248.058594 217 248.480469 217.199219 248.957031 C 217.394531 249.429688 217.492188 249.925781 217.492188 250.441406 C 217.492188 250.957031 217.394531 251.449219 217.199219 251.925781 C 217 252.402344 216.71875 252.820312 216.355469 253.1875 C 215.992188 253.550781 215.570312 253.832031 215.097656 254.027344 C 214.621094 254.222656 214.125 254.324219 213.609375 254.324219 L 177.863281 254.324219 C 177.347656 254.324219 176.855469 254.222656 176.378906 254.027344 C 175.902344 253.832031 175.484375 253.550781 175.117188 253.1875 C 174.753906 252.820312 174.472656 252.402344 174.277344 251.925781 C 174.078125 251.449219 173.980469 250.957031 173.980469 250.441406 C 173.980469 249.925781 174.078125 249.429688 174.277344 248.957031 C 174.472656 248.480469 174.753906 248.058594 175.117188 247.695312 C 175.484375 247.332031 175.902344 247.050781 176.378906 246.855469 C 176.855469 246.65625 177.347656 246.558594 177.863281 246.558594 Z M 177.863281 246.558594 " fill-opacity="1" fill-rule="nonzero"/></g></g><g clip-path="url(#07ed9f1d3e)"><g clip-path="url(#02255ee096)"><path fill="#0b1d3a" d="M 308.398438 246.558594 L 344.148438 246.558594 C 344.664062 246.558594 345.15625 246.65625 345.632812 246.855469 C 346.109375 247.050781 346.527344 247.332031 346.890625 247.695312 C 347.257812 248.058594 347.535156 248.480469 347.734375 248.957031 C 347.929688 249.429688 348.027344 249.925781 348.03125 250.441406 C 348.027344 250.957031 347.929688 251.449219 347.734375 251.925781 C 347.535156 252.402344 347.257812 252.820312 346.890625 253.1875 C 346.527344 253.550781 346.109375 253.832031 345.632812 254.027344 C 345.15625 254.222656 344.664062 254.324219 344.148438 254.324219 L 308.398438 254.324219 C 307.886719 254.324219 307.390625 254.222656 306.914062 254.027344 C 306.4375 253.832031 306.019531 253.550781 305.65625 253.1875 C 305.289062 252.820312 305.011719 252.402344 304.8125 251.925781 C 304.617188 251.449219 304.519531 250.957031 304.519531 250.441406 C 304.519531 249.925781 304.617188 249.429688 304.8125 248.957031 C 305.011719 248.480469 305.289062 248.058594 305.65625 247.695312 C 306.019531 247.332031 306.4375 247.050781 306.914062 246.855469 C 307.390625 246.65625 307.886719 246.558594 308.398438 246.558594 Z M 308.398438 246.558594 " fill-opacity="1" fill-rule="nonzero"/></g></g><g clip-path="url(#69a73b4eec)"><g clip-path="url(#488889a688)"><path fill="#0b1d3a" d="M 344.148438 207.746094 L 177.859375 207.746094 C 175.71875 207.746094 173.980469 206.007812 173.980469 203.863281 C 173.980469 201.71875 175.714844 199.980469 177.859375 199.980469 L 344.148438 199.980469 C 346.289062 199.980469 348.027344 201.71875 348.027344 203.863281 C 348.027344 206.003906 346.292969 207.746094 344.148438 207.746094 Z M 344.148438 207.746094 " fill-opacity="1" fill-rule="nonzero"/></g></g><g clip-path="url(#26f97ba31e)"><g clip-path="url(#242145829a)"><path fill="#0b1d3a" d="M 327.394531 55.542969 L 194.613281 55.542969 C 192.472656 55.542969 190.734375 53.808594 190.734375 51.660156 C 190.734375 49.519531 192.46875 47.78125 194.613281 47.78125 L 327.394531 47.78125 C 329.535156 47.78125 331.277344 49.515625 331.277344 51.660156 C 331.277344 53.804688 329.539062 55.542969 327.394531 55.542969 Z M 327.394531 55.542969 " fill-opacity="1" fill-rule="nonzero"/></g></g><g clip-path="url(#9d0b62b06f)"><g clip-path="url(#3fbed08a88)"><g mask="url(#7c05d222a1)"><g transform="matrix(1, 0, 0, 1, 155, 256)"><g clip-path="url(#9ba1492180)"><g clip-path="url(#94eeb81cec)"><g clip-path="url(#3574186c84)"><path fill="#0b1d3a" d="M 210.929688 1 L 210.929688 7.832031 C 210.929688 13.863281 206.039062 18.761719 200 18.761719 L 12.007812 18.761719 C 5.976562 18.761719 1.078125 13.863281 1.078125 7.832031 L 1.078125 1 C 1.078125 7.035156 5.976562 11.929688 12.007812 11.929688 L 200 11.929688 C 206.039062 11.929688 210.929688 7.035156 210.929688 1 Z M 210.929688 1 " fill-opacity="1" fill-rule="nonzero"/></g></g></g></g></g></g></g><g clip-path="url(#8461db5919)"><g clip-path="url(#5945f49850)"><path fill="#0b1d3a" d="M 355 276.46875 L 167.011719 276.46875 C 160.042969 276.46875 154.375 270.796875 154.375 263.832031 L 154.375 21.242188 C 154.375 14.273438 160.042969 8.601562 167.011719 8.601562 L 355 8.601562 C 361.96875 8.601562 367.640625 14.273438 367.640625 21.242188 L 367.640625 263.832031 C 367.640625 270.796875 361.96875 276.46875 355 276.46875 Z M 167.007812 12.019531 C 161.925781 12.019531 157.789062 16.15625 157.789062 21.242188 L 157.789062 263.832031 C 157.789062 268.914062 161.925781 273.050781 167.007812 273.050781 L 355 273.050781 C 360.082031 273.050781 364.21875 268.914062 364.21875 263.832031 L 364.21875 21.242188 C 364.21875 16.15625 360.082031 12.019531 355 12.019531 Z M 167.007812 12.019531 " fill-opacity="1" fill-rule="nonzero"/></g></g></svg>