<svg xmlns="http://www.w3.org/2000/svg" xmlns:xlink="http://www.w3.org/1999/xlink" width="600" zoomAndPan="magnify" viewBox="0 0 375 307.91998" height="400" preserveAspectRatio="xMidYMid meet" version="1.0"><defs><filter x="0%" y="0%" width="100%" height="100%" id="5650f84b7e"><feColorMatrix values="0 0 0 0 1 0 0 0 0 1 0 0 0 0 1 0 0 0 1 0" color-interpolation-filters="sRGB"/></filter><clipPath id="c9a819d831"><path d="M 0.046875 0 L 374.949219 0 L 374.949219 299.921875 L 0.046875 299.921875 Z M 0.046875 0 " clip-rule="nonzero"/></clipPath><clipPath id="63dd70c519"><path d="M 82.363281 26.554688 L 259 26.554688 L 259 253 L 82.363281 253 Z M 82.363281 26.554688 " clip-rule="nonzero"/></clipPath><clipPath id="14b5e46ad3"><path d="M 82.363281 36.300781 L 82.363281 259.914062 C 82.363281 262.5 83.390625 264.976562 85.21875 266.804688 C 87.046875 268.632812 89.527344 269.660156 92.109375 269.660156 L 265.640625 269.660156 C 268.226562 269.660156 270.703125 268.632812 272.53125 266.804688 C 274.359375 264.976562 275.386719 262.5 275.386719 259.914062 L 275.386719 36.300781 C 275.386719 33.71875 274.359375 31.238281 272.53125 29.410156 C 270.703125 27.582031 268.226562 26.554688 265.640625 26.554688 L 92.109375 26.554688 C 89.527344 26.554688 87.046875 27.582031 85.21875 29.410156 C 83.390625 31.238281 82.363281 33.71875 82.363281 36.300781 Z M 82.363281 36.300781 " clip-rule="nonzero"/></clipPath><clipPath id="e35c90dab3"><path d="M 82.363281 26.554688 L 261 26.554688 L 261 255 L 82.363281 255 Z M 82.363281 26.554688 " clip-rule="nonzero"/></clipPath><clipPath id="ec67e0b8fc"><path d="M 82.363281 36.300781 L 82.363281 259.914062 C 82.363281 262.5 83.390625 264.976562 85.21875 266.804688 C 87.046875 268.632812 89.527344 269.660156 92.109375 269.660156 L 265.640625 269.660156 C 268.226562 269.660156 270.703125 268.632812 272.53125 266.804688 C 274.359375 264.976562 275.386719 262.5 275.386719 259.914062 L 275.386719 36.300781 C 275.386719 33.71875 274.359375 31.238281 272.53125 29.410156 C 270.703125 27.582031 268.226562 26.554688 265.640625 26.554688 L 92.109375 26.554688 C 89.527344 26.554688 87.046875 27.582031 85.21875 29.410156 C 83.390625 31.238281 82.363281 33.71875 82.363281 36.300781 Z M 82.363281 36.300781 " clip-rule="nonzero"/></clipPath><clipPath id="8111bf4be2"><path d="M 82.363281 236 L 244 236 L 244 238 L 82.363281 238 Z M 82.363281 236 " clip-rule="nonzero"/></clipPath><clipPath id="ad43005149"><path d="M 82.363281 36.300781 L 82.363281 259.914062 C 82.363281 262.5 83.390625 264.976562 85.21875 266.804688 C 87.046875 268.632812 89.527344 269.660156 92.109375 269.660156 L 265.640625 269.660156 C 268.226562 269.660156 270.703125 268.632812 272.53125 266.804688 C 274.359375 264.976562 275.386719 262.5 275.386719 259.914062 L 275.386719 36.300781 C 275.386719 33.71875 274.359375 31.238281 272.53125 29.410156 C 270.703125 27.582031 268.226562 26.554688 265.640625 26.554688 L 92.109375 26.554688 C 89.527344 26.554688 87.046875 27.582031 85.21875 29.410156 C 83.390625 31.238281 82.363281 33.71875 82.363281 36.300781 Z M 82.363281 36.300781 " clip-rule="nonzero"/></clipPath><clipPath id="a51f72feaa"><path d="M 251 236 L 256 236 L 256 238 L 251 238 Z M 251 236 " clip-rule="nonzero"/></clipPath><clipPath id="a283ba0400"><path d="M 82.363281 36.300781 L 82.363281 259.914062 C 82.363281 262.5 83.390625 264.976562 85.21875 266.804688 C 87.046875 268.632812 89.527344 269.660156 92.109375 269.660156 L 265.640625 269.660156 C 268.226562 269.660156 270.703125 268.632812 272.53125 266.804688 C 274.359375 264.976562 275.386719 262.5 275.386719 259.914062 L 275.386719 36.300781 C 275.386719 33.71875 274.359375 31.238281 272.53125 29.410156 C 270.703125 27.582031 268.226562 26.554688 265.640625 26.554688 L 92.109375 26.554688 C 89.527344 26.554688 87.046875 27.582031 85.21875 29.410156 C 83.390625 31.238281 82.363281 33.71875 82.363281 36.300781 Z M 82.363281 36.300781 " clip-rule="nonzero"/></clipPath><clipPath id="1ffb7a6554"><path d="M 82.363281 38 L 265 38 L 265 253 L 82.363281 253 Z M 82.363281 38 " clip-rule="nonzero"/></clipPath><clipPath id="371e35647d"><path d="M 82.363281 36.300781 L 82.363281 259.914062 C 82.363281 262.5 83.390625 264.976562 85.21875 266.804688 C 87.046875 268.632812 89.527344 269.660156 92.109375 269.660156 L 265.640625 269.660156 C 268.226562 269.660156 270.703125 268.632812 272.53125 266.804688 C 274.359375 264.976562 275.386719 262.5 275.386719 259.914062 L 275.386719 36.300781 C 275.386719 33.71875 274.359375 31.238281 272.53125 29.410156 C 270.703125 27.582031 268.226562 26.554688 265.640625 26.554688 L 92.109375 26.554688 C 89.527344 26.554688 87.046875 27.582031 85.21875 29.410156 C 83.390625 31.238281 82.363281 33.71875 82.363281 36.300781 Z M 82.363281 36.300781 " clip-rule="nonzero"/></clipPath><mask id="9408d8851c"><g filter="url(#5650f84b7e)"><rect x="-82.5" width="540" fill="#000000" y="-67.742396" height="443.404771" fill-opacity="0.5"/></g></mask><clipPath id="f9e8ad72a6"><path d="M 0.363281 0.148438 L 182.699219 0.148438 L 182.699219 214.894531 L 0.363281 214.894531 Z M 0.363281 0.148438 " clip-rule="nonzero"/></clipPath><clipPath id="a52d5571ab"><path d="M 0.363281 -1.699219 L 0.363281 221.914062 C 0.363281 224.5 1.390625 226.976562 3.21875 228.804688 C 5.046875 230.632812 7.527344 231.660156 10.109375 231.660156 L 183.640625 231.660156 C 186.226562 231.660156 188.703125 230.632812 190.53125 228.804688 C 192.359375 226.976562 193.386719 224.5 193.386719 221.914062 L 193.386719 -1.699219 C 193.386719 -4.28125 192.359375 -6.761719 190.53125 -8.589844 C 188.703125 -10.417969 186.226562 -11.445312 183.640625 -11.445312 L 10.109375 -11.445312 C 7.527344 -11.445312 5.046875 -10.417969 3.21875 -8.589844 C 1.390625 -6.761719 0.363281 -4.28125 0.363281 -1.699219 Z M 0.363281 -1.699219 " clip-rule="nonzero"/></clipPath><clipPath id="27fbcae37a"><rect x="0" width="183" y="0" height="215"/></clipPath><clipPath id="a8b0444b80"><path d="M 83 27 L 274 27 L 274 269 L 83 269 Z M 83 27 " clip-rule="nonzero"/></clipPath><clipPath id="0945b637d0"><path d="M 82.363281 36.300781 L 82.363281 259.914062 C 82.363281 262.5 83.390625 264.976562 85.21875 266.804688 C 87.046875 268.632812 89.527344 269.660156 92.109375 269.660156 L 265.640625 269.660156 C 268.226562 269.660156 270.703125 268.632812 272.53125 266.804688 C 274.359375 264.976562 275.386719 262.5 275.386719 259.914062 L 275.386719 36.300781 C 275.386719 33.71875 274.359375 31.238281 272.53125 29.410156 C 270.703125 27.582031 268.226562 26.554688 265.640625 26.554688 L 92.109375 26.554688 C 89.527344 26.554688 87.046875 27.582031 85.21875 29.410156 C 83.390625 31.238281 82.363281 33.71875 82.363281 36.300781 Z M 82.363281 36.300781 " clip-rule="nonzero"/></clipPath><clipPath id="a338c647af"><path d="M 99 47 L 258 47 L 258 171 L 99 171 Z M 99 47 " clip-rule="nonzero"/></clipPath><clipPath id="6189f498ac"><path d="M 82.363281 36.300781 L 82.363281 259.914062 C 82.363281 262.5 83.390625 264.976562 85.21875 266.804688 C 87.046875 268.632812 89.527344 269.660156 92.109375 269.660156 L 265.640625 269.660156 C 268.226562 269.660156 270.703125 268.632812 272.53125 266.804688 C 274.359375 264.976562 275.386719 262.5 275.386719 259.914062 L 275.386719 36.300781 C 275.386719 33.71875 274.359375 31.238281 272.53125 29.410156 C 270.703125 27.582031 268.226562 26.554688 265.640625 26.554688 L 92.109375 26.554688 C 89.527344 26.554688 87.046875 27.582031 85.21875 29.410156 C 83.390625 31.238281 82.363281 33.71875 82.363281 36.300781 Z M 82.363281 36.300781 " clip-rule="nonzero"/></clipPath><clipPath id="8eb22ed30d"><path d="M 82.363281 26.554688 L 275.328125 26.554688 L 275.328125 201 L 82.363281 201 Z M 82.363281 26.554688 " clip-rule="nonzero"/></clipPath><clipPath id="27c52fbc1b"><path d="M 82.363281 36.300781 L 82.363281 259.914062 C 82.363281 262.5 83.390625 264.976562 85.21875 266.804688 C 87.046875 268.632812 89.527344 269.660156 92.109375 269.660156 L 265.640625 269.660156 C 268.226562 269.660156 270.703125 268.632812 272.53125 266.804688 C 274.359375 264.976562 275.386719 262.5 275.386719 259.914062 L 275.386719 36.300781 C 275.386719 33.71875 274.359375 31.238281 272.53125 29.410156 C 270.703125 27.582031 268.226562 26.554688 265.640625 26.554688 L 92.109375 26.554688 C 89.527344 26.554688 87.046875 27.582031 85.21875 29.410156 C 83.390625 31.238281 82.363281 33.71875 82.363281 36.300781 Z M 82.363281 36.300781 " clip-rule="nonzero"/></clipPath><clipPath id="ee7a22d721"><path d="M 99 186 L 258 186 L 258 194 L 99 194 Z M 99 186 " clip-rule="nonzero"/></clipPath><clipPath id="a42625467f"><path d="M 82.363281 36.300781 L 82.363281 259.914062 C 82.363281 262.5 83.390625 264.976562 85.21875 266.804688 C 87.046875 268.632812 89.527344 269.660156 92.109375 269.660156 L 265.640625 269.660156 C 268.226562 269.660156 270.703125 268.632812 272.53125 266.804688 C 274.359375 264.976562 275.386719 262.5 275.386719 259.914062 L 275.386719 36.300781 C 275.386719 33.71875 274.359375 31.238281 272.53125 29.410156 C 270.703125 27.582031 268.226562 26.554688 265.640625 26.554688 L 92.109375 26.554688 C 89.527344 26.554688 87.046875 27.582031 85.21875 29.410156 C 83.390625 31.238281 82.363281 33.71875 82.363281 36.300781 Z M 82.363281 36.300781 " clip-rule="nonzero"/></clipPath><clipPath id="c41922b72d"><path d="M 99 214 L 179 214 L 179 222 L 99 222 Z M 99 214 " clip-rule="nonzero"/></clipPath><clipPath id="ad63450ca8"><path d="M 82.363281 36.300781 L 82.363281 259.914062 C 82.363281 262.5 83.390625 264.976562 85.21875 266.804688 C 87.046875 268.632812 89.527344 269.660156 92.109375 269.660156 L 265.640625 269.660156 C 268.226562 269.660156 270.703125 268.632812 272.53125 266.804688 C 274.359375 264.976562 275.386719 262.5 275.386719 259.914062 L 275.386719 36.300781 C 275.386719 33.71875 274.359375 31.238281 272.53125 29.410156 C 270.703125 27.582031 268.226562 26.554688 265.640625 26.554688 L 92.109375 26.554688 C 89.527344 26.554688 87.046875 27.582031 85.21875 29.410156 C 83.390625 31.238281 82.363281 33.71875 82.363281 36.300781 Z M 82.363281 36.300781 " clip-rule="nonzero"/></clipPath><clipPath id="dcf4ee0e85"><path d="M 99 242 L 139 242 L 139 250 L 99 250 Z M 99 242 " clip-rule="nonzero"/></clipPath><clipPath id="9f2e493d02"><path d="M 82.363281 36.300781 L 82.363281 259.914062 C 82.363281 262.5 83.390625 264.976562 85.21875 266.804688 C 87.046875 268.632812 89.527344 269.660156 92.109375 269.660156 L 265.640625 269.660156 C 268.226562 269.660156 270.703125 268.632812 272.53125 266.804688 C 274.359375 264.976562 275.386719 262.5 275.386719 259.914062 L 275.386719 36.300781 C 275.386719 33.71875 274.359375 31.238281 272.53125 29.410156 C 270.703125 27.582031 268.226562 26.554688 265.640625 26.554688 L 92.109375 26.554688 C 89.527344 26.554688 87.046875 27.582031 85.21875 29.410156 C 83.390625 31.238281 82.363281 33.71875 82.363281 36.300781 Z M 82.363281 36.300781 " clip-rule="nonzero"/></clipPath><clipPath id="b1f704764f"><path d="M 217 242 L 258 242 L 258 250 L 217 250 Z M 217 242 " clip-rule="nonzero"/></clipPath><clipPath id="487dc1417a"><path d="M 82.363281 36.300781 L 82.363281 259.914062 C 82.363281 262.5 83.390625 264.976562 85.21875 266.804688 C 87.046875 268.632812 89.527344 269.660156 92.109375 269.660156 L 265.640625 269.660156 C 268.226562 269.660156 270.703125 268.632812 272.53125 266.804688 C 274.359375 264.976562 275.386719 262.5 275.386719 259.914062 L 275.386719 36.300781 C 275.386719 33.71875 274.359375 31.238281 272.53125 29.410156 C 270.703125 27.582031 268.226562 26.554688 265.640625 26.554688 L 92.109375 26.554688 C 89.527344 26.554688 87.046875 27.582031 85.21875 29.410156 C 83.390625 31.238281 82.363281 33.71875 82.363281 36.300781 Z M 82.363281 36.300781 " clip-rule="nonzero"/></clipPath><clipPath id="5e5856500a"><path d="M 99 200 L 258 200 L 258 208 L 99 208 Z M 99 200 " clip-rule="nonzero"/></clipPath><clipPath id="193d138bcf"><path d="M 82.363281 36.300781 L 82.363281 259.914062 C 82.363281 262.5 83.390625 264.976562 85.21875 266.804688 C 87.046875 268.632812 89.527344 269.660156 92.109375 269.660156 L 265.640625 269.660156 C 268.226562 269.660156 270.703125 268.632812 272.53125 266.804688 C 274.359375 264.976562 275.386719 262.5 275.386719 259.914062 L 275.386719 36.300781 C 275.386719 33.71875 274.359375 31.238281 272.53125 29.410156 C 270.703125 27.582031 268.226562 26.554688 265.640625 26.554688 L 92.109375 26.554688 C 89.527344 26.554688 87.046875 27.582031 85.21875 29.410156 C 83.390625 31.238281 82.363281 33.71875 82.363281 36.300781 Z M 82.363281 36.300781 " clip-rule="nonzero"/></clipPath><clipPath id="14bd2a3cfb"><path d="M 114 61 L 243 61 L 243 69 L 114 69 Z M 114 61 " clip-rule="nonzero"/></clipPath><clipPath id="e518fb7d2d"><path d="M 82.363281 36.300781 L 82.363281 259.914062 C 82.363281 262.5 83.390625 264.976562 85.21875 266.804688 C 87.046875 268.632812 89.527344 269.660156 92.109375 269.660156 L 265.640625 269.660156 C 268.226562 269.660156 270.703125 268.632812 272.53125 266.804688 C 274.359375 264.976562 275.386719 262.5 275.386719 259.914062 L 275.386719 36.300781 C 275.386719 33.71875 274.359375 31.238281 272.53125 29.410156 C 270.703125 27.582031 268.226562 26.554688 265.640625 26.554688 L 92.109375 26.554688 C 89.527344 26.554688 87.046875 27.582031 85.21875 29.410156 C 83.390625 31.238281 82.363281 33.71875 82.363281 36.300781 Z M 82.363281 36.300781 " clip-rule="nonzero"/></clipPath><clipPath id="ddb381433c"><path d="M 82.363281 251 L 275 251 L 275 269 L 82.363281 269 Z M 82.363281 251 " clip-rule="nonzero"/></clipPath><clipPath id="a7de9825ab"><path d="M 82.363281 36.300781 L 82.363281 259.914062 C 82.363281 262.5 83.390625 264.976562 85.21875 266.804688 C 87.046875 268.632812 89.527344 269.660156 92.109375 269.660156 L 265.640625 269.660156 C 268.226562 269.660156 270.703125 268.632812 272.53125 266.804688 C 274.359375 264.976562 275.386719 262.5 275.386719 259.914062 L 275.386719 36.300781 C 275.386719 33.71875 274.359375 31.238281 272.53125 29.410156 C 270.703125 27.582031 268.226562 26.554688 265.640625 26.554688 L 92.109375 26.554688 C 89.527344 26.554688 87.046875 27.582031 85.21875 29.410156 C 83.390625 31.238281 82.363281 33.71875 82.363281 36.300781 Z M 82.363281 36.300781 " clip-rule="nonzero"/></clipPath><mask id="f54696aaa6"><g filter="url(#5650f84b7e)"><rect x="-82.5" width="540" fill="#000000" y="-67.742396" height="443.404771" fill-opacity="0.5"/></g></mask><clipPath id="7888bb44e7"><path d="M 1 0.695312 L 192 0.695312 L 192 17.25 L 1 17.25 Z M 1 0.695312 " clip-rule="nonzero"/></clipPath><clipPath id="907548e612"><path d="M 0.363281 -214.699219 L 0.363281 8.914062 C 0.363281 11.5 1.390625 13.976562 3.21875 15.804688 C 5.046875 17.632812 7.527344 18.660156 10.109375 18.660156 L 183.640625 18.660156 C 186.226562 18.660156 188.703125 17.632812 190.53125 15.804688 C 192.359375 13.976562 193.386719 11.5 193.386719 8.914062 L 193.386719 -214.699219 C 193.386719 -217.28125 192.359375 -219.761719 190.53125 -221.589844 C 188.703125 -223.417969 186.226562 -224.445312 183.640625 -224.445312 L 10.109375 -224.445312 C 7.527344 -224.445312 5.046875 -223.417969 3.21875 -221.589844 C 1.390625 -219.761719 0.363281 -217.28125 0.363281 -214.699219 Z M 0.363281 -214.699219 " clip-rule="nonzero"/></clipPath><clipPath id="74fa1af9e7"><rect x="0" width="193" y="0" height="18"/></clipPath><clipPath id="ba9116d914"><path d="M 82.363281 26.554688 L 275.328125 26.554688 L 275.328125 269.890625 L 82.363281 269.890625 Z M 82.363281 26.554688 " clip-rule="nonzero"/></clipPath><clipPath id="b3aec8b860"><path d="M 82.363281 36.300781 L 82.363281 259.914062 C 82.363281 262.5 83.390625 264.976562 85.21875 266.804688 C 87.046875 268.632812 89.527344 269.660156 92.109375 269.660156 L 265.640625 269.660156 C 268.226562 269.660156 270.703125 268.632812 272.53125 266.804688 C 274.359375 264.976562 275.386719 262.5 275.386719 259.914062 L 275.386719 36.300781 C 275.386719 33.71875 274.359375 31.238281 272.53125 29.410156 C 270.703125 27.582031 268.226562 26.554688 265.640625 26.554688 L 92.109375 26.554688 C 89.527344 26.554688 87.046875 27.582031 85.21875 29.410156 C 83.390625 31.238281 82.363281 33.71875 82.363281 36.300781 Z M 82.363281 36.300781 " clip-rule="nonzero"/></clipPath><clipPath id="311e6344e7"><path d="M 112.824219 47.746094 L 289 47.746094 L 289 274 L 112.824219 274 Z M 112.824219 47.746094 " clip-rule="nonzero"/></clipPath><clipPath id="2b44da8003"><path d="M 112.824219 57.496094 L 112.824219 281.105469 C 112.824219 283.691406 113.847656 286.171875 115.675781 288 C 117.503906 289.828125 119.984375 290.855469 122.570312 290.855469 L 296.097656 290.855469 C 298.683594 290.855469 301.164062 289.828125 302.992188 288 C 304.820312 286.171875 305.847656 283.691406 305.847656 281.105469 L 305.847656 57.496094 C 305.847656 54.910156 304.820312 52.429688 302.992188 50.601562 C 301.164062 48.773438 298.683594 47.746094 296.097656 47.746094 L 122.570312 47.746094 C 119.984375 47.746094 117.503906 48.773438 115.675781 50.601562 C 113.847656 52.429688 112.824219 54.910156 112.824219 57.496094 Z M 112.824219 57.496094 " clip-rule="nonzero"/></clipPath><clipPath id="6b6c418cac"><path d="M 112.824219 47.746094 L 291 47.746094 L 291 276 L 112.824219 276 Z M 112.824219 47.746094 " clip-rule="nonzero"/></clipPath><clipPath id="91a07c628a"><path d="M 112.824219 57.496094 L 112.824219 281.105469 C 112.824219 283.691406 113.847656 286.171875 115.675781 288 C 117.503906 289.828125 119.984375 290.855469 122.570312 290.855469 L 296.097656 290.855469 C 298.683594 290.855469 301.164062 289.828125 302.992188 288 C 304.820312 286.171875 305.847656 283.691406 305.847656 281.105469 L 305.847656 57.496094 C 305.847656 54.910156 304.820312 52.429688 302.992188 50.601562 C 301.164062 48.773438 298.683594 47.746094 296.097656 47.746094 L 122.570312 47.746094 C 119.984375 47.746094 117.503906 48.773438 115.675781 50.601562 C 113.847656 52.429688 112.824219 54.910156 112.824219 57.496094 Z M 112.824219 57.496094 " clip-rule="nonzero"/></clipPath><clipPath id="b4700f8e14"><path d="M 112.824219 257 L 275 257 L 275 260 L 112.824219 260 Z M 112.824219 257 " clip-rule="nonzero"/></clipPath><clipPath id="9ed152662b"><path d="M 112.824219 57.496094 L 112.824219 281.105469 C 112.824219 283.691406 113.847656 286.171875 115.675781 288 C 117.503906 289.828125 119.984375 290.855469 122.570312 290.855469 L 296.097656 290.855469 C 298.683594 290.855469 301.164062 289.828125 302.992188 288 C 304.820312 286.171875 305.847656 283.691406 305.847656 281.105469 L 305.847656 57.496094 C 305.847656 54.910156 304.820312 52.429688 302.992188 50.601562 C 301.164062 48.773438 298.683594 47.746094 296.097656 47.746094 L 122.570312 47.746094 C 119.984375 47.746094 117.503906 48.773438 115.675781 50.601562 C 113.847656 52.429688 112.824219 54.910156 112.824219 57.496094 Z M 112.824219 57.496094 " clip-rule="nonzero"/></clipPath><clipPath id="ba93c87d17"><path d="M 282 257 L 287 257 L 287 260 L 282 260 Z M 282 257 " clip-rule="nonzero"/></clipPath><clipPath id="dcce022c5e"><path d="M 112.824219 57.496094 L 112.824219 281.105469 C 112.824219 283.691406 113.847656 286.171875 115.675781 288 C 117.503906 289.828125 119.984375 290.855469 122.570312 290.855469 L 296.097656 290.855469 C 298.683594 290.855469 301.164062 289.828125 302.992188 288 C 304.820312 286.171875 305.847656 283.691406 305.847656 281.105469 L 305.847656 57.496094 C 305.847656 54.910156 304.820312 52.429688 302.992188 50.601562 C 301.164062 48.773438 298.683594 47.746094 296.097656 47.746094 L 122.570312 47.746094 C 119.984375 47.746094 117.503906 48.773438 115.675781 50.601562 C 113.847656 52.429688 112.824219 54.910156 112.824219 57.496094 Z M 112.824219 57.496094 " clip-rule="nonzero"/></clipPath><clipPath id="f05ce282fa"><path d="M 112.824219 59 L 296 59 L 296 275 L 112.824219 275 Z M 112.824219 59 " clip-rule="nonzero"/></clipPath><clipPath id="16abbc9fba"><path d="M 112.824219 57.496094 L 112.824219 281.105469 C 112.824219 283.691406 113.847656 286.171875 115.675781 288 C 117.503906 289.828125 119.984375 290.855469 122.570312 290.855469 L 296.097656 290.855469 C 298.683594 290.855469 301.164062 289.828125 302.992188 288 C 304.820312 286.171875 305.847656 283.691406 305.847656 281.105469 L 305.847656 57.496094 C 305.847656 54.910156 304.820312 52.429688 302.992188 50.601562 C 301.164062 48.773438 298.683594 47.746094 296.097656 47.746094 L 122.570312 47.746094 C 119.984375 47.746094 117.503906 48.773438 115.675781 50.601562 C 113.847656 52.429688 112.824219 54.910156 112.824219 57.496094 Z M 112.824219 57.496094 " clip-rule="nonzero"/></clipPath><mask id="d82fa8fa14"><g filter="url(#5650f84b7e)"><rect x="-82.5" width="540" fill="#000000" y="-67.742396" height="443.404771" fill-opacity="0.5"/></g></mask><clipPath id="feb43a5293"><path d="M 0.824219 0.503906 L 183 0.503906 L 183 215 L 0.824219 215 Z M 0.824219 0.503906 " clip-rule="nonzero"/></clipPath><clipPath id="29bb953b2c"><path d="M 0.824219 -1.503906 L 0.824219 222.105469 C 0.824219 224.691406 1.847656 227.171875 3.675781 229 C 5.503906 230.828125 7.984375 231.855469 10.570312 231.855469 L 184.097656 231.855469 C 186.683594 231.855469 189.164062 230.828125 190.992188 229 C 192.820312 227.171875 193.847656 224.691406 193.847656 222.105469 L 193.847656 -1.503906 C 193.847656 -4.089844 192.820312 -6.570312 190.992188 -8.398438 C 189.164062 -10.226562 186.683594 -11.253906 184.097656 -11.253906 L 10.570312 -11.253906 C 7.984375 -11.253906 5.503906 -10.226562 3.675781 -8.398438 C 1.847656 -6.570312 0.824219 -4.089844 0.824219 -1.503906 Z M 0.824219 -1.503906 " clip-rule="nonzero"/></clipPath><clipPath id="92271ad189"><rect x="0" width="184" y="0" height="216"/></clipPath><clipPath id="fe3982c595"><path d="M 113 48 L 305 48 L 305 290 L 113 290 Z M 113 48 " clip-rule="nonzero"/></clipPath><clipPath id="b7f6a3d8db"><path d="M 112.824219 57.496094 L 112.824219 281.105469 C 112.824219 283.691406 113.847656 286.171875 115.675781 288 C 117.503906 289.828125 119.984375 290.855469 122.570312 290.855469 L 296.097656 290.855469 C 298.683594 290.855469 301.164062 289.828125 302.992188 288 C 304.820312 286.171875 305.847656 283.691406 305.847656 281.105469 L 305.847656 57.496094 C 305.847656 54.910156 304.820312 52.429688 302.992188 50.601562 C 301.164062 48.773438 298.683594 47.746094 296.097656 47.746094 L 122.570312 47.746094 C 119.984375 47.746094 117.503906 48.773438 115.675781 50.601562 C 113.847656 52.429688 112.824219 54.910156 112.824219 57.496094 Z M 112.824219 57.496094 " clip-rule="nonzero"/></clipPath><clipPath id="07848c5477"><path d="M 129 68 L 288 68 L 288 192 L 129 192 Z M 129 68 " clip-rule="nonzero"/></clipPath><clipPath id="043df40919"><path d="M 112.824219 57.496094 L 112.824219 281.105469 C 112.824219 283.691406 113.847656 286.171875 115.675781 288 C 117.503906 289.828125 119.984375 290.855469 122.570312 290.855469 L 296.097656 290.855469 C 298.683594 290.855469 301.164062 289.828125 302.992188 288 C 304.820312 286.171875 305.847656 283.691406 305.847656 281.105469 L 305.847656 57.496094 C 305.847656 54.910156 304.820312 52.429688 302.992188 50.601562 C 301.164062 48.773438 298.683594 47.746094 296.097656 47.746094 L 122.570312 47.746094 C 119.984375 47.746094 117.503906 48.773438 115.675781 50.601562 C 113.847656 52.429688 112.824219 54.910156 112.824219 57.496094 Z M 112.824219 57.496094 " clip-rule="nonzero"/></clipPath><clipPath id="7a78f0bfe0"><path d="M 112.824219 47.746094 L 305.785156 47.746094 L 305.785156 222 L 112.824219 222 Z M 112.824219 47.746094 " clip-rule="nonzero"/></clipPath><clipPath id="940ce591ab"><path d="M 112.824219 57.496094 L 112.824219 281.105469 C 112.824219 283.691406 113.847656 286.171875 115.675781 288 C 117.503906 289.828125 119.984375 290.855469 122.570312 290.855469 L 296.097656 290.855469 C 298.683594 290.855469 301.164062 289.828125 302.992188 288 C 304.820312 286.171875 305.847656 283.691406 305.847656 281.105469 L 305.847656 57.496094 C 305.847656 54.910156 304.820312 52.429688 302.992188 50.601562 C 301.164062 48.773438 298.683594 47.746094 296.097656 47.746094 L 122.570312 47.746094 C 119.984375 47.746094 117.503906 48.773438 115.675781 50.601562 C 113.847656 52.429688 112.824219 54.910156 112.824219 57.496094 Z M 112.824219 57.496094 " clip-rule="nonzero"/></clipPath><clipPath id="c9e1839586"><path d="M 129 207 L 288 207 L 288 215 L 129 215 Z M 129 207 " clip-rule="nonzero"/></clipPath><clipPath id="36e94fb6e6"><path d="M 112.824219 57.496094 L 112.824219 281.105469 C 112.824219 283.691406 113.847656 286.171875 115.675781 288 C 117.503906 289.828125 119.984375 290.855469 122.570312 290.855469 L 296.097656 290.855469 C 298.683594 290.855469 301.164062 289.828125 302.992188 288 C 304.820312 286.171875 305.847656 283.691406 305.847656 281.105469 L 305.847656 57.496094 C 305.847656 54.910156 304.820312 52.429688 302.992188 50.601562 C 301.164062 48.773438 298.683594 47.746094 296.097656 47.746094 L 122.570312 47.746094 C 119.984375 47.746094 117.503906 48.773438 115.675781 50.601562 C 113.847656 52.429688 112.824219 54.910156 112.824219 57.496094 Z M 112.824219 57.496094 " clip-rule="nonzero"/></clipPath><clipPath id="e9923839cd"><path d="M 129 235 L 209 235 L 209 243 L 129 243 Z M 129 235 " clip-rule="nonzero"/></clipPath><clipPath id="d06c06676e"><path d="M 112.824219 57.496094 L 112.824219 281.105469 C 112.824219 283.691406 113.847656 286.171875 115.675781 288 C 117.503906 289.828125 119.984375 290.855469 122.570312 290.855469 L 296.097656 290.855469 C 298.683594 290.855469 301.164062 289.828125 302.992188 288 C 304.820312 286.171875 305.847656 283.691406 305.847656 281.105469 L 305.847656 57.496094 C 305.847656 54.910156 304.820312 52.429688 302.992188 50.601562 C 301.164062 48.773438 298.683594 47.746094 296.097656 47.746094 L 122.570312 47.746094 C 119.984375 47.746094 117.503906 48.773438 115.675781 50.601562 C 113.847656 52.429688 112.824219 54.910156 112.824219 57.496094 Z M 112.824219 57.496094 " clip-rule="nonzero"/></clipPath><clipPath id="b98c430d94"><path d="M 129 263 L 170 263 L 170 271 L 129 271 Z M 129 263 " clip-rule="nonzero"/></clipPath><clipPath id="16bc2e584c"><path d="M 112.824219 57.496094 L 112.824219 281.105469 C 112.824219 283.691406 113.847656 286.171875 115.675781 288 C 117.503906 289.828125 119.984375 290.855469 122.570312 290.855469 L 296.097656 290.855469 C 298.683594 290.855469 301.164062 289.828125 302.992188 288 C 304.820312 286.171875 305.847656 283.691406 305.847656 281.105469 L 305.847656 57.496094 C 305.847656 54.910156 304.820312 52.429688 302.992188 50.601562 C 301.164062 48.773438 298.683594 47.746094 296.097656 47.746094 L 122.570312 47.746094 C 119.984375 47.746094 117.503906 48.773438 115.675781 50.601562 C 113.847656 52.429688 112.824219 54.910156 112.824219 57.496094 Z M 112.824219 57.496094 " clip-rule="nonzero"/></clipPath><clipPath id="a4ee886013"><path d="M 248 263 L 288 263 L 288 271 L 248 271 Z M 248 263 " clip-rule="nonzero"/></clipPath><clipPath id="16c74d8be9"><path d="M 112.824219 57.496094 L 112.824219 281.105469 C 112.824219 283.691406 113.847656 286.171875 115.675781 288 C 117.503906 289.828125 119.984375 290.855469 122.570312 290.855469 L 296.097656 290.855469 C 298.683594 290.855469 301.164062 289.828125 302.992188 288 C 304.820312 286.171875 305.847656 283.691406 305.847656 281.105469 L 305.847656 57.496094 C 305.847656 54.910156 304.820312 52.429688 302.992188 50.601562 C 301.164062 48.773438 298.683594 47.746094 296.097656 47.746094 L 122.570312 47.746094 C 119.984375 47.746094 117.503906 48.773438 115.675781 50.601562 C 113.847656 52.429688 112.824219 54.910156 112.824219 57.496094 Z M 112.824219 57.496094 " clip-rule="nonzero"/></clipPath><clipPath id="a9884fa8f2"><path d="M 129 221 L 288 221 L 288 229 L 129 229 Z M 129 221 " clip-rule="nonzero"/></clipPath><clipPath id="8c9cd82619"><path d="M 112.824219 57.496094 L 112.824219 281.105469 C 112.824219 283.691406 113.847656 286.171875 115.675781 288 C 117.503906 289.828125 119.984375 290.855469 122.570312 290.855469 L 296.097656 290.855469 C 298.683594 290.855469 301.164062 289.828125 302.992188 288 C 304.820312 286.171875 305.847656 283.691406 305.847656 281.105469 L 305.847656 57.496094 C 305.847656 54.910156 304.820312 52.429688 302.992188 50.601562 C 301.164062 48.773438 298.683594 47.746094 296.097656 47.746094 L 122.570312 47.746094 C 119.984375 47.746094 117.503906 48.773438 115.675781 50.601562 C 113.847656 52.429688 112.824219 54.910156 112.824219 57.496094 Z M 112.824219 57.496094 " clip-rule="nonzero"/></clipPath><clipPath id="43e4f2d692"><path d="M 144 82 L 273 82 L 273 90 L 144 90 Z M 144 82 " clip-rule="nonzero"/></clipPath><clipPath id="358bddc209"><path d="M 112.824219 57.496094 L 112.824219 281.105469 C 112.824219 283.691406 113.847656 286.171875 115.675781 288 C 117.503906 289.828125 119.984375 290.855469 122.570312 290.855469 L 296.097656 290.855469 C 298.683594 290.855469 301.164062 289.828125 302.992188 288 C 304.820312 286.171875 305.847656 283.691406 305.847656 281.105469 L 305.847656 57.496094 C 305.847656 54.910156 304.820312 52.429688 302.992188 50.601562 C 301.164062 48.773438 298.683594 47.746094 296.097656 47.746094 L 122.570312 47.746094 C 119.984375 47.746094 117.503906 48.773438 115.675781 50.601562 C 113.847656 52.429688 112.824219 54.910156 112.824219 57.496094 Z M 112.824219 57.496094 " clip-rule="nonzero"/></clipPath><clipPath id="f1d6275f5e"><path d="M 113 272 L 305 272 L 305 290 L 113 290 Z M 113 272 " clip-rule="nonzero"/></clipPath><clipPath id="a1807a2493"><path d="M 112.824219 57.496094 L 112.824219 281.105469 C 112.824219 283.691406 113.847656 286.171875 115.675781 288 C 117.503906 289.828125 119.984375 290.855469 122.570312 290.855469 L 296.097656 290.855469 C 298.683594 290.855469 301.164062 289.828125 302.992188 288 C 304.820312 286.171875 305.847656 283.691406 305.847656 281.105469 L 305.847656 57.496094 C 305.847656 54.910156 304.820312 52.429688 302.992188 50.601562 C 301.164062 48.773438 298.683594 47.746094 296.097656 47.746094 L 122.570312 47.746094 C 119.984375 47.746094 117.503906 48.773438 115.675781 50.601562 C 113.847656 52.429688 112.824219 54.910156 112.824219 57.496094 Z M 112.824219 57.496094 " clip-rule="nonzero"/></clipPath><mask id="709247236d"><g filter="url(#5650f84b7e)"><rect x="-82.5" width="540" fill="#000000" y="-67.742396" height="443.404771" fill-opacity="0.5"/></g></mask><clipPath id="97022859b4"><path d="M 0.300781 1 L 191.53125 1 L 191.53125 17.605469 L 0.300781 17.605469 Z M 0.300781 1 " clip-rule="nonzero"/></clipPath><clipPath id="92c890a1d8"><path d="M -0.175781 -214.503906 L -0.175781 9.105469 C -0.175781 11.691406 0.847656 14.171875 2.675781 16 C 4.503906 17.828125 6.984375 18.855469 9.570312 18.855469 L 183.097656 18.855469 C 185.683594 18.855469 188.164062 17.828125 189.992188 16 C 191.820312 14.171875 192.847656 11.691406 192.847656 9.105469 L 192.847656 -214.503906 C 192.847656 -217.089844 191.820312 -219.570312 189.992188 -221.398438 C 188.164062 -223.226562 185.683594 -224.253906 183.097656 -224.253906 L 9.570312 -224.253906 C 6.984375 -224.253906 4.503906 -223.226562 2.675781 -221.398438 C 0.847656 -219.570312 -0.175781 -217.089844 -0.175781 -214.503906 Z M -0.175781 -214.503906 " clip-rule="nonzero"/></clipPath><clipPath id="18c949fcfe"><rect x="0" width="192" y="0" height="18"/></clipPath><clipPath id="b45c580fe4"><path d="M 112.824219 47.746094 L 305.785156 47.746094 L 305.785156 291 L 112.824219 291 Z M 112.824219 47.746094 " clip-rule="nonzero"/></clipPath><clipPath id="0076b5048c"><path d="M 112.824219 57.496094 L 112.824219 281.105469 C 112.824219 283.691406 113.847656 286.171875 115.675781 288 C 117.503906 289.828125 119.984375 290.855469 122.570312 290.855469 L 296.097656 290.855469 C 298.683594 290.855469 301.164062 289.828125 302.992188 288 C 304.820312 286.171875 305.847656 283.691406 305.847656 281.105469 L 305.847656 57.496094 C 305.847656 54.910156 304.820312 52.429688 302.992188 50.601562 C 301.164062 48.773438 298.683594 47.746094 296.097656 47.746094 L 122.570312 47.746094 C 119.984375 47.746094 117.503906 48.773438 115.675781 50.601562 C 113.847656 52.429688 112.824219 54.910156 112.824219 57.496094 Z M 112.824219 57.496094 " clip-rule="nonzero"/></clipPath><clipPath id="a86f15433b"><path d="M 155.363281 9.066406 L 349 9.066406 L 349 258 L 155.363281 258 Z M 155.363281 9.066406 " clip-rule="nonzero"/></clipPath><clipPath id="eab787b832"><path d="M 155.363281 18.816406 L 155.363281 266.644531 C 155.363281 269.230469 156.390625 271.710938 158.21875 273.539062 C 160.046875 275.367188 162.527344 276.394531 165.113281 276.394531 L 357.871094 276.394531 C 360.453125 276.394531 362.933594 275.367188 364.761719 273.539062 C 366.589844 271.710938 367.617188 269.230469 367.617188 266.644531 L 367.617188 18.816406 C 367.617188 16.230469 366.589844 13.75 364.761719 11.921875 C 362.933594 10.09375 360.453125 9.066406 357.871094 9.066406 L 165.113281 9.066406 C 162.527344 9.066406 160.046875 10.09375 158.21875 11.921875 C 156.390625 13.75 155.363281 16.230469 155.363281 18.816406 Z M 155.363281 18.816406 " clip-rule="nonzero"/></clipPath><clipPath id="e48b556bbd"><path d="M 155.363281 9.066406 L 351 9.066406 L 351 260 L 155.363281 260 Z M 155.363281 9.066406 " clip-rule="nonzero"/></clipPath><clipPath id="74f4c6dc9b"><path d="M 155.363281 18.816406 L 155.363281 266.644531 C 155.363281 269.230469 156.390625 271.710938 158.21875 273.539062 C 160.046875 275.367188 162.527344 276.394531 165.113281 276.394531 L 357.871094 276.394531 C 360.453125 276.394531 362.933594 275.367188 364.761719 273.539062 C 366.589844 271.710938 367.617188 269.230469 367.617188 266.644531 L 367.617188 18.816406 C 367.617188 16.230469 366.589844 13.75 364.761719 11.921875 C 362.933594 10.09375 360.453125 9.066406 357.871094 9.066406 L 165.113281 9.066406 C 162.527344 9.066406 160.046875 10.09375 158.21875 11.921875 C 156.390625 13.75 155.363281 16.230469 155.363281 18.816406 Z M 155.363281 18.816406 " clip-rule="nonzero"/></clipPath><clipPath id="8fb648fbe1"><path d="M 155.363281 239 L 333 239 L 333 242 L 155.363281 242 Z M 155.363281 239 " clip-rule="nonzero"/></clipPath><clipPath id="02205a447e"><path d="M 155.363281 18.816406 L 155.363281 266.644531 C 155.363281 269.230469 156.390625 271.710938 158.21875 273.539062 C 160.046875 275.367188 162.527344 276.394531 165.113281 276.394531 L 357.871094 276.394531 C 360.453125 276.394531 362.933594 275.367188 364.761719 273.539062 C 366.589844 271.710938 367.617188 269.230469 367.617188 266.644531 L 367.617188 18.816406 C 367.617188 16.230469 366.589844 13.75 364.761719 11.921875 C 362.933594 10.09375 360.453125 9.066406 357.871094 9.066406 L 165.113281 9.066406 C 162.527344 9.066406 160.046875 10.09375 158.21875 11.921875 C 156.390625 13.75 155.363281 16.230469 155.363281 18.816406 Z M 155.363281 18.816406 " clip-rule="nonzero"/></clipPath><clipPath id="1b3a7d816e"><path d="M 341 239 L 347 239 L 347 242 L 341 242 Z M 341 239 " clip-rule="nonzero"/></clipPath><clipPath id="c7514feb7f"><path d="M 155.363281 18.816406 L 155.363281 266.644531 C 155.363281 269.230469 156.390625 271.710938 158.21875 273.539062 C 160.046875 275.367188 162.527344 276.394531 165.113281 276.394531 L 357.871094 276.394531 C 360.453125 276.394531 362.933594 275.367188 364.761719 273.539062 C 366.589844 271.710938 367.617188 269.230469 367.617188 266.644531 L 367.617188 18.816406 C 367.617188 16.230469 366.589844 13.75 364.761719 11.921875 C 362.933594 10.09375 360.453125 9.066406 357.871094 9.066406 L 165.113281 9.066406 C 162.527344 9.066406 160.046875 10.09375 158.21875 11.921875 C 156.390625 13.75 155.363281 16.230469 155.363281 18.816406 Z M 155.363281 18.816406 " clip-rule="nonzero"/></clipPath><clipPath id="c2ccd0d2e4"><path d="M 155.363281 21 L 356 21 L 356 258 L 155.363281 258 Z M 155.363281 21 " clip-rule="nonzero"/></clipPath><clipPath id="290d86ff65"><path d="M 155.363281 18.816406 L 155.363281 266.644531 C 155.363281 269.230469 156.390625 271.710938 158.21875 273.539062 C 160.046875 275.367188 162.527344 276.394531 165.113281 276.394531 L 357.871094 276.394531 C 360.453125 276.394531 362.933594 275.367188 364.761719 273.539062 C 366.589844 271.710938 367.617188 269.230469 367.617188 266.644531 L 367.617188 18.816406 C 367.617188 16.230469 366.589844 13.75 364.761719 11.921875 C 362.933594 10.09375 360.453125 9.066406 357.871094 9.066406 L 165.113281 9.066406 C 162.527344 9.066406 160.046875 10.09375 158.21875 11.921875 C 156.390625 13.75 155.363281 16.230469 155.363281 18.816406 Z M 155.363281 18.816406 " clip-rule="nonzero"/></clipPath><mask id="c761f43c51"><g filter="url(#5650f84b7e)"><rect x="-82.5" width="540" fill="#000000" y="-67.742396" height="443.404771" fill-opacity="0.5"/></g></mask><clipPath id="98953f853d"><path d="M 0.363281 1 L 200.875 1 L 200.875 236.933594 L 0.363281 236.933594 Z M 0.363281 1 " clip-rule="nonzero"/></clipPath><clipPath id="df79df0c7a"><path d="M 0.363281 -2.183594 L 0.363281 245.644531 C 0.363281 248.230469 1.390625 250.710938 3.21875 252.539062 C 5.046875 254.367188 7.527344 255.394531 10.113281 255.394531 L 202.871094 255.394531 C 205.453125 255.394531 207.933594 254.367188 209.761719 252.539062 C 211.589844 250.710938 212.617188 248.230469 212.617188 245.644531 L 212.617188 -2.183594 C 212.617188 -4.769531 211.589844 -7.25 209.761719 -9.078125 C 207.933594 -10.90625 205.453125 -11.933594 202.871094 -11.933594 L 10.113281 -11.933594 C 7.527344 -11.933594 5.046875 -10.90625 3.21875 -9.078125 C 1.390625 -7.25 0.363281 -4.769531 0.363281 -2.183594 Z M 0.363281 -2.183594 " clip-rule="nonzero"/></clipPath><clipPath id="f9e15f4f89"><rect x="0" width="201" y="0" height="237"/></clipPath><clipPath id="f36fe0d132"><path d="M 156 10 L 366 10 L 366 275 L 156 275 Z M 156 10 " clip-rule="nonzero"/></clipPath><clipPath id="2bd4da8186"><path d="M 155.363281 18.816406 L 155.363281 266.644531 C 155.363281 269.230469 156.390625 271.710938 158.21875 273.539062 C 160.046875 275.367188 162.527344 276.394531 165.113281 276.394531 L 357.871094 276.394531 C 360.453125 276.394531 362.933594 275.367188 364.761719 273.539062 C 366.589844 271.710938 367.617188 269.230469 367.617188 266.644531 L 367.617188 18.816406 C 367.617188 16.230469 366.589844 13.75 364.761719 11.921875 C 362.933594 10.09375 360.453125 9.066406 357.871094 9.066406 L 165.113281 9.066406 C 162.527344 9.066406 160.046875 10.09375 158.21875 11.921875 C 156.390625 13.75 155.363281 16.230469 155.363281 18.816406 Z M 155.363281 18.816406 " clip-rule="nonzero"/></clipPath><clipPath id="1b39cb136f"><path d="M 173 32 L 348 32 L 348 168 L 173 168 Z M 173 32 " clip-rule="nonzero"/></clipPath><clipPath id="9f8abed3aa"><path d="M 155.363281 18.816406 L 155.363281 266.644531 C 155.363281 269.230469 156.390625 271.710938 158.21875 273.539062 C 160.046875 275.367188 162.527344 276.394531 165.113281 276.394531 L 357.871094 276.394531 C 360.453125 276.394531 362.933594 275.367188 364.761719 273.539062 C 366.589844 271.710938 367.617188 269.230469 367.617188 266.644531 L 367.617188 18.816406 C 367.617188 16.230469 366.589844 13.75 364.761719 11.921875 C 362.933594 10.09375 360.453125 9.066406 357.871094 9.066406 L 165.113281 9.066406 C 162.527344 9.066406 160.046875 10.09375 158.21875 11.921875 C 156.390625 13.75 155.363281 16.230469 155.363281 18.816406 Z M 155.363281 18.816406 " clip-rule="nonzero"/></clipPath><clipPath id="4f48155ffb"><path d="M 155.363281 9.066406 L 367.703125 9.066406 L 367.703125 201 L 155.363281 201 Z M 155.363281 9.066406 " clip-rule="nonzero"/></clipPath><clipPath id="60e22431a2"><path d="M 155.363281 18.816406 L 155.363281 266.644531 C 155.363281 269.230469 156.390625 271.710938 158.21875 273.539062 C 160.046875 275.367188 162.527344 276.394531 165.113281 276.394531 L 357.871094 276.394531 C 360.453125 276.394531 362.933594 275.367188 364.761719 273.539062 C 366.589844 271.710938 367.617188 269.230469 367.617188 266.644531 L 367.617188 18.816406 C 367.617188 16.230469 366.589844 13.75 364.761719 11.921875 C 362.933594 10.09375 360.453125 9.066406 357.871094 9.066406 L 165.113281 9.066406 C 162.527344 9.066406 160.046875 10.09375 158.21875 11.921875 C 156.390625 13.75 155.363281 16.230469 155.363281 18.816406 Z M 155.363281 18.816406 " clip-rule="nonzero"/></clipPath><clipPath id="3a7c46be41"><path d="M 173 184 L 348 184 L 348 193 L 173 193 Z M 173 184 " clip-rule="nonzero"/></clipPath><clipPath id="238058ada2"><path d="M 155.363281 18.816406 L 155.363281 266.644531 C 155.363281 269.230469 156.390625 271.710938 158.21875 273.539062 C 160.046875 275.367188 162.527344 276.394531 165.113281 276.394531 L 357.871094 276.394531 C 360.453125 276.394531 362.933594 275.367188 364.761719 273.539062 C 366.589844 271.710938 367.617188 269.230469 367.617188 266.644531 L 367.617188 18.816406 C 367.617188 16.230469 366.589844 13.75 364.761719 11.921875 C 362.933594 10.09375 360.453125 9.066406 357.871094 9.066406 L 165.113281 9.066406 C 162.527344 9.066406 160.046875 10.09375 158.21875 11.921875 C 156.390625 13.75 155.363281 16.230469 155.363281 18.816406 Z M 155.363281 18.816406 " clip-rule="nonzero"/></clipPath><clipPath id="046e4f9c90"><path d="M 173 215 L 261 215 L 261 224 L 173 224 Z M 173 215 " clip-rule="nonzero"/></clipPath><clipPath id="2bf7dc9acd"><path d="M 155.363281 18.816406 L 155.363281 266.644531 C 155.363281 269.230469 156.390625 271.710938 158.21875 273.539062 C 160.046875 275.367188 162.527344 276.394531 165.113281 276.394531 L 357.871094 276.394531 C 360.453125 276.394531 362.933594 275.367188 364.761719 273.539062 C 366.589844 271.710938 367.617188 269.230469 367.617188 266.644531 L 367.617188 18.816406 C 367.617188 16.230469 366.589844 13.75 364.761719 11.921875 C 362.933594 10.09375 360.453125 9.066406 357.871094 9.066406 L 165.113281 9.066406 C 162.527344 9.066406 160.046875 10.09375 158.21875 11.921875 C 156.390625 13.75 155.363281 16.230469 155.363281 18.816406 Z M 155.363281 18.816406 " clip-rule="nonzero"/></clipPath><clipPath id="a5ae95fe2c"><path d="M 173 246 L 218 246 L 218 255 L 173 255 Z M 173 246 " clip-rule="nonzero"/></clipPath><clipPath id="d9147d3818"><path d="M 155.363281 18.816406 L 155.363281 266.644531 C 155.363281 269.230469 156.390625 271.710938 158.21875 273.539062 C 160.046875 275.367188 162.527344 276.394531 165.113281 276.394531 L 357.871094 276.394531 C 360.453125 276.394531 362.933594 275.367188 364.761719 273.539062 C 366.589844 271.710938 367.617188 269.230469 367.617188 266.644531 L 367.617188 18.816406 C 367.617188 16.230469 366.589844 13.75 364.761719 11.921875 C 362.933594 10.09375 360.453125 9.066406 357.871094 9.066406 L 165.113281 9.066406 C 162.527344 9.066406 160.046875 10.09375 158.21875 11.921875 C 156.390625 13.75 155.363281 16.230469 155.363281 18.816406 Z M 155.363281 18.816406 " clip-rule="nonzero"/></clipPath><clipPath id="8c2d31f15c"><path d="M 304 246 L 348 246 L 348 255 L 304 255 Z M 304 246 " clip-rule="nonzero"/></clipPath><clipPath id="9b73968ced"><path d="M 155.363281 18.816406 L 155.363281 266.644531 C 155.363281 269.230469 156.390625 271.710938 158.21875 273.539062 C 160.046875 275.367188 162.527344 276.394531 165.113281 276.394531 L 357.871094 276.394531 C 360.453125 276.394531 362.933594 275.367188 364.761719 273.539062 C 366.589844 271.710938 367.617188 269.230469 367.617188 266.644531 L 367.617188 18.816406 C 367.617188 16.230469 366.589844 13.75 364.761719 11.921875 C 362.933594 10.09375 360.453125 9.066406 357.871094 9.066406 L 165.113281 9.066406 C 162.527344 9.066406 160.046875 10.09375 158.21875 11.921875 C 156.390625 13.75 155.363281 16.230469 155.363281 18.816406 Z M 155.363281 18.816406 " clip-rule="nonzero"/></clipPath><clipPath id="68c42b68d2"><path d="M 173 199 L 348 199 L 348 208 L 173 208 Z M 173 199 " clip-rule="nonzero"/></clipPath><clipPath id="eb026d0527"><path d="M 155.363281 18.816406 L 155.363281 266.644531 C 155.363281 269.230469 156.390625 271.710938 158.21875 273.539062 C 160.046875 275.367188 162.527344 276.394531 165.113281 276.394531 L 357.871094 276.394531 C 360.453125 276.394531 362.933594 275.367188 364.761719 273.539062 C 366.589844 271.710938 367.617188 269.230469 367.617188 266.644531 L 367.617188 18.816406 C 367.617188 16.230469 366.589844 13.75 364.761719 11.921875 C 362.933594 10.09375 360.453125 9.066406 357.871094 9.066406 L 165.113281 9.066406 C 162.527344 9.066406 160.046875 10.09375 158.21875 11.921875 C 156.390625 13.75 155.363281 16.230469 155.363281 18.816406 Z M 155.363281 18.816406 " clip-rule="nonzero"/></clipPath><clipPath id="9797ffdb86"><path d="M 190 47 L 332 47 L 332 56 L 190 56 Z M 190 47 " clip-rule="nonzero"/></clipPath><clipPath id="b6aa468fd9"><path d="M 155.363281 18.816406 L 155.363281 266.644531 C 155.363281 269.230469 156.390625 271.710938 158.21875 273.539062 C 160.046875 275.367188 162.527344 276.394531 165.113281 276.394531 L 357.871094 276.394531 C 360.453125 276.394531 362.933594 275.367188 364.761719 273.539062 C 366.589844 271.710938 367.617188 269.230469 367.617188 266.644531 L 367.617188 18.816406 C 367.617188 16.230469 366.589844 13.75 364.761719 11.921875 C 362.933594 10.09375 360.453125 9.066406 357.871094 9.066406 L 165.113281 9.066406 C 162.527344 9.066406 160.046875 10.09375 158.21875 11.921875 C 156.390625 13.75 155.363281 16.230469 155.363281 18.816406 Z M 155.363281 18.816406 " clip-rule="nonzero"/></clipPath><clipPath id="133f1df453"><path d="M 155.363281 256 L 367 256 L 367 275 L 155.363281 275 Z M 155.363281 256 " clip-rule="nonzero"/></clipPath><clipPath id="8ff7104734"><path d="M 155.363281 18.816406 L 155.363281 266.644531 C 155.363281 269.230469 156.390625 271.710938 158.21875 273.539062 C 160.046875 275.367188 162.527344 276.394531 165.113281 276.394531 L 357.871094 276.394531 C 360.453125 276.394531 362.933594 275.367188 364.761719 273.539062 C 366.589844 271.710938 367.617188 269.230469 367.617188 266.644531 L 367.617188 18.816406 C 367.617188 16.230469 366.589844 13.75 364.761719 11.921875 C 362.933594 10.09375 360.453125 9.066406 357.871094 9.066406 L 165.113281 9.066406 C 162.527344 9.066406 160.046875 10.09375 158.21875 11.921875 C 156.390625 13.75 155.363281 16.230469 155.363281 18.816406 Z M 155.363281 18.816406 " clip-rule="nonzero"/></clipPath><mask id="7efe05970e"><g filter="url(#5650f84b7e)"><rect x="-82.5" width="540" fill="#000000" y="-67.742396" height="443.404771" fill-opacity="0.5"/></g></mask><clipPath id="0f9da85867"><path d="M 1 0.734375 L 211 0.734375 L 211 18.96875 L 1 18.96875 Z M 1 0.734375 " clip-rule="nonzero"/></clipPath><clipPath id="573b223232"><path d="M 0.363281 -237.183594 L 0.363281 10.644531 C 0.363281 13.230469 1.390625 15.710938 3.21875 17.539062 C 5.046875 19.367188 7.527344 20.394531 10.113281 20.394531 L 202.871094 20.394531 C 205.453125 20.394531 207.933594 19.367188 209.761719 17.539062 C 211.589844 15.710938 212.617188 13.230469 212.617188 10.644531 L 212.617188 -237.183594 C 212.617188 -239.769531 211.589844 -242.25 209.761719 -244.078125 C 207.933594 -245.90625 205.453125 -246.933594 202.871094 -246.933594 L 10.113281 -246.933594 C 7.527344 -246.933594 5.046875 -245.90625 3.21875 -244.078125 C 1.390625 -242.25 0.363281 -239.769531 0.363281 -237.183594 Z M 0.363281 -237.183594 " clip-rule="nonzero"/></clipPath><clipPath id="5549c42b10"><rect x="0" width="212" y="0" height="19"/></clipPath><clipPath id="2f314e537a"><path d="M 155.363281 9.066406 L 367.703125 9.066406 L 367.703125 276.296875 L 155.363281 276.296875 Z M 155.363281 9.066406 " clip-rule="nonzero"/></clipPath><clipPath id="3a36dd0441"><path d="M 155.363281 18.816406 L 155.363281 266.644531 C 155.363281 269.230469 156.390625 271.710938 158.21875 273.539062 C 160.046875 275.367188 162.527344 276.394531 165.113281 276.394531 L 357.871094 276.394531 C 360.453125 276.394531 362.933594 275.367188 364.761719 273.539062 C 366.589844 271.710938 367.617188 269.230469 367.617188 266.644531 L 367.617188 18.816406 C 367.617188 16.230469 366.589844 13.75 364.761719 11.921875 C 362.933594 10.09375 360.453125 9.066406 357.871094 9.066406 L 165.113281 9.066406 C 162.527344 9.066406 160.046875 10.09375 158.21875 11.921875 C 156.390625 13.75 155.363281 16.230469 155.363281 18.816406 Z M 155.363281 18.816406 " clip-rule="nonzero"/></clipPath><clipPath id="11b02df8fb"><rect x="0" width="375" y="0" height="300"/></clipPath></defs><g clip-path="url(#c9a819d831)"><path fill="#ffffff" d="M 0.046875 0 L 449.933594 0 L 449.933594 299.921875 L 0.046875 299.921875 Z M 0.046875 0 " fill-opacity="1" fill-rule="nonzero"/><path fill="#ffffff" d="M 0.046875 0 L 449.933594 0 L 449.933594 299.921875 L 0.046875 299.921875 Z M 0.046875 0 " fill-opacity="1" fill-rule="nonzero"/><g transform="matrix(1, 0, 0, 1, 0.000000000000000007, 0)"><g clip-path="url(#11b02df8fb)"><g clip-path="url(#63dd70c519)"><g clip-path="url(#14b5e46ad3)"><path fill="#ffffff" d="M 61.285156 -5.125 L 64.390625 10.402344 L 64.390625 237.0625 L 61.285156 252.589844 L 258.285156 252.589844 L 255.183594 237.0625 L 255.183594 10.402344 L 258.285156 -5.125 Z M 61.285156 -5.125 " fill-opacity="1" fill-rule="nonzero"/></g></g><g clip-path="url(#e35c90dab3)"><g clip-path="url(#ec67e0b8fc)"><path fill="#0b1d3a" d="M 260.179688 254.144531 L 59.390625 254.144531 C 59.390625 254.144531 62.839844 236.910156 62.839844 236.910156 L 62.839844 10.554688 L 59.390625 -6.679688 L 260.179688 -6.679688 C 260.179688 -6.679688 256.734375 10.554688 256.734375 10.554688 L 256.734375 236.910156 C 256.734375 236.910156 260.179688 254.144531 260.179688 254.144531 Z M 63.179688 251.035156 L 256.390625 251.035156 C 256.390625 251.035156 253.628906 237.214844 253.628906 237.214844 L 253.628906 10.246094 C 253.628906 10.246094 256.394531 -3.574219 256.394531 -3.574219 L 63.179688 -3.574219 C 63.179688 -3.574219 65.941406 10.246094 65.941406 10.246094 L 65.941406 237.214844 Z M 63.179688 251.035156 " fill-opacity="1" fill-rule="nonzero"/></g></g><g clip-path="url(#8111bf4be2)"><g clip-path="url(#ad43005149)"><path fill="#0b1d3a" d="M 243.695312 237.839844 L 237.25 237.839844 L 237.25 236.285156 L 243.695312 236.285156 Z M 229.023438 237.839844 L 222.578125 237.839844 L 222.578125 236.285156 L 229.023438 236.285156 Z M 214.351562 237.839844 L 207.910156 237.839844 L 207.910156 236.285156 L 214.351562 236.285156 Z M 199.683594 237.839844 L 193.238281 237.839844 L 193.238281 236.285156 L 199.683594 236.285156 Z M 185.011719 237.839844 L 178.570312 237.839844 L 178.570312 236.285156 L 185.011719 236.285156 Z M 170.34375 237.839844 L 163.898438 237.839844 L 163.898438 236.285156 L 170.34375 236.285156 Z M 155.671875 237.839844 L 149.230469 237.839844 L 149.230469 236.285156 L 155.671875 236.285156 Z M 141.003906 237.839844 L 134.558594 237.839844 L 134.558594 236.285156 L 141.003906 236.285156 Z M 126.332031 237.839844 L 119.886719 237.839844 L 119.886719 236.285156 L 126.332031 236.285156 Z M 111.660156 237.839844 L 105.21875 237.839844 L 105.21875 236.285156 L 111.660156 236.285156 Z M 96.992188 237.839844 L 90.546875 237.839844 L 90.546875 236.285156 L 96.992188 236.285156 Z M 82.320312 237.839844 L 75.878906 237.839844 L 75.878906 236.285156 L 82.320312 236.285156 Z M 82.320312 237.839844 " fill-opacity="1" fill-rule="nonzero"/></g></g><g clip-path="url(#a51f72feaa)"><g clip-path="url(#a283ba0400)"><path fill="#0b1d3a" d="M 251.921875 236.289062 L 255.957031 236.289062 L 255.957031 237.84375 L 251.921875 237.84375 Z M 251.921875 236.289062 " fill-opacity="1" fill-rule="nonzero"/></g></g><g clip-path="url(#1ffb7a6554)"><g clip-path="url(#371e35647d)"><g mask="url(#9408d8851c)"><g transform="matrix(1, 0, 0, 1, 82, 38)"><g clip-path="url(#27fbcae37a)"><g clip-path="url(#f9e8ad72a6)"><g clip-path="url(#a52d5571ab)"><path fill="#0b1d3a" d="M 1.644531 0.433594 L 172.558594 0.433594 C 178.042969 0.433594 182.496094 4.886719 182.496094 10.371094 L 182.496094 214.589844 L -8.292969 214.589844 L -8.292969 10.371094 C -8.292969 4.886719 -3.839844 0.433594 1.644531 0.433594 Z M 1.644531 0.433594 " fill-opacity="1" fill-rule="nonzero"/></g></g></g></g></g></g></g><g clip-path="url(#a8b0444b80)"><g clip-path="url(#0945b637d0)"><path fill="#c9a14a" d="M 92.957031 27.683594 L 263.875 27.683594 C 269.359375 27.683594 273.8125 32.136719 273.8125 37.621094 L 273.8125 258.179688 C 273.8125 263.664062 269.359375 268.113281 263.875 268.113281 L 92.957031 268.113281 C 87.472656 268.113281 83.019531 263.664062 83.019531 258.179688 L 83.019531 37.621094 C 83.019531 32.136719 87.472656 27.683594 92.957031 27.683594 Z M 92.957031 27.683594 " fill-opacity="1" fill-rule="nonzero"/></g></g><g clip-path="url(#a338c647af)"><g clip-path="url(#6189f498ac)"><path fill="#ffffff" d="M 107.070312 47.632812 L 249.765625 47.632812 C 250.277344 47.632812 250.78125 47.683594 251.28125 47.78125 C 251.78125 47.882812 252.269531 48.03125 252.738281 48.226562 C 253.210938 48.421875 253.660156 48.660156 254.082031 48.941406 C 254.507812 49.226562 254.902344 49.550781 255.261719 49.910156 C 255.621094 50.269531 255.945312 50.664062 256.226562 51.085938 C 256.511719 51.511719 256.75 51.960938 256.945312 52.429688 C 257.140625 52.902344 257.289062 53.386719 257.386719 53.890625 C 257.488281 54.390625 257.539062 54.894531 257.539062 55.40625 L 257.539062 162.765625 C 257.539062 163.277344 257.488281 163.78125 257.386719 164.28125 C 257.289062 164.78125 257.140625 165.269531 256.945312 165.738281 C 256.75 166.210938 256.511719 166.660156 256.226562 167.082031 C 255.945312 167.507812 255.621094 167.902344 255.261719 168.261719 C 254.902344 168.621094 254.507812 168.945312 254.082031 169.226562 C 253.660156 169.511719 253.210938 169.75 252.738281 169.945312 C 252.269531 170.140625 251.78125 170.289062 251.28125 170.386719 C 250.78125 170.488281 250.277344 170.539062 249.765625 170.539062 L 107.070312 170.539062 C 106.558594 170.539062 106.054688 170.488281 105.554688 170.386719 C 105.050781 170.289062 104.566406 170.140625 104.09375 169.945312 C 103.625 169.75 103.175781 169.511719 102.75 169.226562 C 102.328125 168.945312 101.933594 168.621094 101.574219 168.261719 C 101.210938 167.902344 100.890625 167.507812 100.605469 167.082031 C 100.324219 166.660156 100.085938 166.210938 99.890625 165.738281 C 99.695312 165.269531 99.546875 164.78125 99.445312 164.28125 C 99.347656 163.78125 99.296875 163.277344 99.296875 162.765625 L 99.296875 55.40625 C 99.296875 54.894531 99.347656 54.390625 99.445312 53.890625 C 99.546875 53.386719 99.695312 52.902344 99.890625 52.429688 C 100.085938 51.960938 100.324219 51.511719 100.605469 51.085938 C 100.890625 50.664062 101.210938 50.269531 101.574219 49.910156 C 101.933594 49.550781 102.328125 49.226562 102.75 48.941406 C 103.175781 48.660156 103.625 48.421875 104.09375 48.226562 C 104.566406 48.03125 105.050781 47.882812 105.554688 47.78125 C 106.054688 47.683594 106.558594 47.632812 107.070312 47.632812 Z M 107.070312 47.632812 " fill-opacity="1" fill-rule="nonzero"/></g></g><g clip-path="url(#8eb22ed30d)"><g clip-path="url(#27c52fbc1b)"><path stroke-linecap="butt" transform="matrix(0.21223, 0, 0, 0.21223, -44.851366, -80.733691)" fill="none" stroke-linejoin="miter" d="M 715.835771 604.846758 L 1388.19807 604.846758 C 1390.609224 604.846758 1392.983566 605.086033 1395.339503 605.546177 C 1397.69544 606.024726 1399.99616 606.724145 1402.204851 607.644433 C 1404.431947 608.564721 1406.548609 609.687472 1408.536431 611.012686 C 1410.542659 612.356307 1412.40164 613.883984 1414.09497 615.577314 C 1415.788299 617.270644 1417.315977 619.129625 1418.641192 621.117447 C 1419.984812 623.123674 1421.107563 625.240336 1422.027851 627.449027 C 1422.948139 629.676124 1423.647557 631.958438 1424.107701 634.33278 C 1424.586251 636.688717 1424.825526 639.06306 1424.825526 641.474214 L 1424.825526 1147.338036 C 1424.825526 1149.74919 1424.586251 1152.123533 1424.107701 1154.47947 C 1423.647557 1156.835407 1422.948139 1159.136126 1422.027851 1161.344817 C 1421.107563 1163.571914 1419.984812 1165.688576 1418.641192 1167.676398 C 1417.315977 1169.682625 1415.788299 1171.541606 1414.09497 1173.234936 C 1412.40164 1174.928266 1410.542659 1176.455944 1408.536431 1177.781158 C 1406.548609 1179.124778 1404.431947 1180.247529 1402.204851 1181.167817 C 1399.99616 1182.088105 1397.69544 1182.787524 1395.339503 1183.247668 C 1392.983566 1183.726218 1390.609224 1183.965492 1388.19807 1183.965492 L 715.835771 1183.965492 C 713.424617 1183.965492 711.050274 1183.726218 708.694337 1183.247668 C 706.319994 1182.787524 704.037681 1182.088105 701.810584 1181.167817 C 699.601893 1180.247529 697.485231 1179.124778 695.479004 1177.781158 C 693.491182 1176.455944 691.6322 1174.928266 689.938871 1173.234936 C 688.227135 1171.541606 686.717863 1169.682625 685.374243 1167.676398 C 684.049029 1165.688576 682.926277 1163.571914 682.00599 1161.344817 C 681.085702 1159.136126 680.386283 1156.835407 679.907733 1154.47947 C 679.447589 1152.123533 679.208314 1149.74919 679.208314 1147.338036 L 679.208314 641.474214 C 679.208314 639.06306 679.447589 636.688717 679.907733 634.33278 C 680.386283 631.958438 681.085702 629.676124 682.00599 627.449027 C 682.926277 625.240336 684.049029 623.123674 685.374243 621.117447 C 686.717863 619.129625 688.227135 617.270644 689.938871 615.577314 C 691.6322 613.883984 693.491182 612.356307 695.479004 611.012686 C 697.485231 609.687472 699.601893 608.564721 701.810584 607.644433 C 704.037681 606.724145 706.319994 606.024726 708.694337 605.546177 C 711.050274 605.086033 713.424617 604.846758 715.835771 604.846758 Z M 715.835771 604.846758 " stroke="#010101" stroke-width="10" stroke-opacity="1" stroke-miterlimit="10"/></g></g><g clip-path="url(#ee7a22d721)"><g clip-path="url(#a42625467f)"><path fill="#0b1d3a" d="M 254.007812 193.070312 L 102.824219 193.070312 C 100.875 193.070312 99.296875 191.492188 99.296875 189.539062 C 99.296875 187.59375 100.875 186.011719 102.824219 186.011719 L 254.007812 186.011719 C 255.957031 186.011719 257.539062 187.589844 257.539062 189.539062 C 257.539062 191.488281 255.957031 193.070312 254.007812 193.070312 Z M 254.007812 193.070312 " fill-opacity="1" fill-rule="nonzero"/></g></g><g clip-path="url(#c41922b72d)"><g clip-path="url(#ad63450ca8)"><path fill="#0b1d3a" d="M 102.828125 214.246094 L 174.890625 214.246094 C 175.355469 214.246094 175.808594 214.335938 176.238281 214.511719 C 176.671875 214.691406 177.054688 214.949219 177.386719 215.277344 C 177.714844 215.609375 177.972656 215.992188 178.148438 216.421875 C 178.328125 216.855469 178.417969 217.304688 178.417969 217.773438 C 178.417969 218.242188 178.328125 218.691406 178.148438 219.125 C 177.972656 219.558594 177.714844 219.9375 177.386719 220.269531 C 177.054688 220.601562 176.671875 220.855469 176.238281 221.035156 C 175.808594 221.214844 175.355469 221.304688 174.890625 221.304688 L 102.828125 221.304688 C 102.359375 221.304688 101.910156 221.214844 101.476562 221.035156 C 101.042969 220.855469 100.660156 220.601562 100.332031 220.269531 C 100 219.9375 99.746094 219.558594 99.566406 219.125 C 99.386719 218.691406 99.296875 218.242188 99.296875 217.773438 C 99.296875 217.304688 99.386719 216.855469 99.566406 216.421875 C 99.746094 215.992188 100 215.609375 100.332031 215.277344 C 100.660156 214.949219 101.042969 214.691406 101.476562 214.511719 C 101.910156 214.335938 102.359375 214.246094 102.828125 214.246094 Z M 102.828125 214.246094 " fill-opacity="1" fill-rule="nonzero"/></g></g><g clip-path="url(#dcf4ee0e85)"><g clip-path="url(#9f2e493d02)"><path fill="#0b1d3a" d="M 102.828125 242.476562 L 135.328125 242.476562 C 135.796875 242.476562 136.246094 242.566406 136.679688 242.742188 C 137.109375 242.921875 137.492188 243.179688 137.824219 243.507812 C 138.152344 243.839844 138.410156 244.222656 138.589844 244.652344 C 138.765625 245.085938 138.855469 245.535156 138.855469 246.003906 C 138.855469 246.472656 138.765625 246.921875 138.589844 247.355469 C 138.410156 247.789062 138.152344 248.167969 137.824219 248.5 C 137.492188 248.832031 137.109375 249.085938 136.679688 249.265625 C 136.246094 249.445312 135.796875 249.535156 135.328125 249.535156 L 102.828125 249.535156 C 102.359375 249.535156 101.910156 249.445312 101.476562 249.265625 C 101.042969 249.085938 100.660156 248.832031 100.332031 248.5 C 100 248.167969 99.746094 247.789062 99.566406 247.355469 C 99.386719 246.921875 99.296875 246.472656 99.296875 246.003906 C 99.296875 245.535156 99.386719 245.085938 99.566406 244.652344 C 99.746094 244.222656 100 243.839844 100.332031 243.507812 C 100.660156 243.179688 101.042969 242.921875 101.476562 242.742188 C 101.910156 242.566406 102.359375 242.476562 102.828125 242.476562 Z M 102.828125 242.476562 " fill-opacity="1" fill-rule="nonzero"/></g></g><g clip-path="url(#b1f704764f)"><g clip-path="url(#487dc1417a)"><path fill="#0b1d3a" d="M 221.507812 242.476562 L 254.007812 242.476562 C 254.476562 242.476562 254.925781 242.566406 255.359375 242.742188 C 255.792969 242.921875 256.171875 243.179688 256.503906 243.507812 C 256.835938 243.839844 257.089844 244.222656 257.269531 244.652344 C 257.449219 245.085938 257.539062 245.535156 257.539062 246.003906 C 257.539062 246.472656 257.449219 246.921875 257.269531 247.355469 C 257.089844 247.789062 256.835938 248.167969 256.503906 248.5 C 256.171875 248.832031 255.792969 249.085938 255.359375 249.265625 C 254.925781 249.445312 254.476562 249.535156 254.007812 249.535156 L 221.507812 249.535156 C 221.039062 249.535156 220.589844 249.445312 220.15625 249.265625 C 219.722656 249.085938 219.34375 248.832031 219.011719 248.5 C 218.679688 248.167969 218.425781 247.789062 218.246094 247.355469 C 218.066406 246.921875 217.976562 246.472656 217.976562 246.003906 C 217.976562 245.535156 218.066406 245.085938 218.246094 244.652344 C 218.425781 244.222656 218.679688 243.839844 219.011719 243.507812 C 219.34375 243.179688 219.722656 242.921875 220.15625 242.742188 C 220.589844 242.566406 221.039062 242.476562 221.507812 242.476562 Z M 221.507812 242.476562 " fill-opacity="1" fill-rule="nonzero"/></g></g><g clip-path="url(#5e5856500a)"><g clip-path="url(#193d138bcf)"><path fill="#0b1d3a" d="M 254.007812 207.1875 L 102.824219 207.1875 C 100.875 207.1875 99.296875 205.605469 99.296875 203.65625 C 99.296875 201.707031 100.875 200.128906 102.824219 200.128906 L 254.007812 200.128906 C 255.957031 200.128906 257.539062 201.707031 257.539062 203.65625 C 257.539062 205.605469 255.957031 207.1875 254.007812 207.1875 Z M 254.007812 207.1875 " fill-opacity="1" fill-rule="nonzero"/></g></g><g clip-path="url(#14bd2a3cfb)"><g clip-path="url(#e518fb7d2d)"><path fill="#0b1d3a" d="M 238.777344 68.808594 L 118.054688 68.808594 C 116.109375 68.808594 114.527344 67.230469 114.527344 65.277344 C 114.527344 63.328125 116.105469 61.75 118.054688 61.75 L 238.777344 61.75 C 240.726562 61.75 242.304688 63.328125 242.304688 65.277344 C 242.304688 67.226562 240.726562 68.808594 238.777344 68.808594 Z M 238.777344 68.808594 " fill-opacity="1" fill-rule="nonzero"/></g></g><g clip-path="url(#ddb381433c)"><g clip-path="url(#a7de9825ab)"><g mask="url(#f54696aaa6)"><g transform="matrix(1, 0, 0, 1, 82, 251)"><g clip-path="url(#74fa1af9e7)"><g clip-path="url(#7888bb44e7)"><g clip-path="url(#907548e612)"><path fill="#0b1d3a" d="M 191.8125 0.96875 L 191.8125 7.179688 C 191.8125 12.664062 187.367188 17.113281 181.875 17.113281 L 10.957031 17.113281 C 5.472656 17.113281 1.019531 12.664062 1.019531 7.179688 L 1.019531 0.96875 C 1.019531 6.453125 5.472656 10.90625 10.957031 10.90625 L 181.875 10.90625 C 187.367188 10.90625 191.8125 6.453125 191.8125 0.96875 Z M 191.8125 0.96875 " fill-opacity="1" fill-rule="nonzero"/></g></g></g></g></g></g></g><g clip-path="url(#ba9116d914)"><g clip-path="url(#b3aec8b860)"><path fill="#0b1d3a" d="M 263.878906 269.667969 L 92.960938 269.667969 C 86.625 269.667969 81.46875 264.511719 81.46875 258.179688 L 81.46875 37.621094 C 81.46875 31.285156 86.625 26.128906 92.960938 26.128906 L 263.878906 26.128906 C 270.210938 26.128906 275.367188 31.285156 275.367188 37.621094 L 275.367188 258.179688 C 275.367188 264.511719 270.210938 269.667969 263.878906 269.667969 Z M 92.957031 29.238281 C 88.335938 29.238281 84.574219 33 84.574219 37.621094 L 84.574219 258.179688 C 84.574219 262.800781 88.335938 266.5625 92.957031 266.5625 L 263.875 266.5625 C 268.496094 266.5625 272.257812 262.800781 272.257812 258.179688 L 272.257812 37.621094 C 272.257812 33 268.496094 29.238281 263.875 29.238281 Z M 92.957031 29.238281 " fill-opacity="1" fill-rule="nonzero"/></g></g><g clip-path="url(#311e6344e7)"><g clip-path="url(#2b44da8003)"><path fill="#ffffff" d="M 91.742188 16.066406 L 94.847656 31.59375 L 94.847656 258.257812 L 91.742188 273.78125 L 288.746094 273.78125 L 285.640625 258.257812 L 285.640625 31.59375 L 288.746094 16.066406 Z M 91.742188 16.066406 " fill-opacity="1" fill-rule="nonzero"/></g></g><g clip-path="url(#6b6c418cac)"><g clip-path="url(#91a07c628a)"><path fill="#0b1d3a" d="M 290.640625 275.335938 L 89.851562 275.335938 C 89.851562 275.335938 93.296875 258.105469 93.296875 258.105469 L 93.296875 31.746094 L 89.851562 14.515625 L 290.640625 14.515625 C 290.640625 14.515625 287.191406 31.746094 287.191406 31.746094 L 287.191406 258.105469 C 287.191406 258.105469 290.640625 275.335938 290.640625 275.335938 Z M 93.636719 272.230469 L 286.851562 272.230469 C 286.851562 272.230469 284.089844 258.410156 284.089844 258.410156 L 284.089844 31.441406 C 284.089844 31.441406 286.851562 17.621094 286.851562 17.621094 L 93.636719 17.621094 C 93.636719 17.621094 96.402344 31.441406 96.402344 31.441406 L 96.402344 258.410156 Z M 93.636719 272.230469 " fill-opacity="1" fill-rule="nonzero"/></g></g><g clip-path="url(#b4700f8e14)"><g clip-path="url(#9ed152662b)"><path fill="#0b1d3a" d="M 274.152344 259.035156 L 267.710938 259.035156 L 267.710938 257.480469 L 274.152344 257.480469 Z M 259.480469 259.035156 L 253.039062 259.035156 L 253.039062 257.480469 L 259.480469 257.480469 Z M 244.8125 259.035156 L 238.371094 259.035156 L 238.371094 257.480469 L 244.8125 257.480469 Z M 230.140625 259.035156 L 223.699219 259.035156 L 223.699219 257.480469 L 230.140625 257.480469 Z M 215.472656 259.035156 L 209.027344 259.035156 L 209.027344 257.480469 L 215.472656 257.480469 Z M 200.800781 259.035156 L 194.359375 259.035156 L 194.359375 257.480469 L 200.800781 257.480469 Z M 186.132812 259.035156 L 179.6875 259.035156 L 179.6875 257.480469 L 186.132812 257.480469 Z M 171.460938 259.035156 L 165.019531 259.035156 L 165.019531 257.480469 L 171.460938 257.480469 Z M 156.789062 259.035156 L 150.347656 259.035156 L 150.347656 257.480469 L 156.789062 257.480469 Z M 142.121094 259.035156 L 135.679688 259.035156 L 135.679688 257.480469 L 142.121094 257.480469 Z M 127.449219 259.035156 L 121.007812 259.035156 L 121.007812 257.480469 L 127.449219 257.480469 Z M 112.78125 259.035156 L 106.335938 259.035156 L 106.335938 257.480469 L 112.78125 257.480469 Z M 112.78125 259.035156 " fill-opacity="1" fill-rule="nonzero"/></g></g><g clip-path="url(#ba93c87d17)"><g clip-path="url(#dcce022c5e)"><path fill="#0b1d3a" d="M 282.378906 257.480469 L 286.417969 257.480469 L 286.417969 259.035156 L 282.378906 259.035156 Z M 282.378906 257.480469 " fill-opacity="1" fill-rule="nonzero"/></g></g><g clip-path="url(#f05ce282fa)"><g clip-path="url(#16abbc9fba)"><g mask="url(#d82fa8fa14)"><g transform="matrix(1, 0, 0, 1, 112, 59)"><g clip-path="url(#92271ad189)"><g clip-path="url(#feb43a5293)"><g clip-path="url(#29bb953b2c)"><path fill="#0b1d3a" d="M 2.101562 0.625 L 173.019531 0.625 C 178.503906 0.625 182.957031 5.078125 182.957031 10.5625 L 182.957031 214.78125 L -7.835938 214.78125 L -7.835938 10.5625 C -7.835938 5.078125 -3.382812 0.625 2.101562 0.625 Z M 2.101562 0.625 " fill-opacity="1" fill-rule="nonzero"/></g></g></g></g></g></g></g><g clip-path="url(#fe3982c595)"><g clip-path="url(#b7f6a3d8db)"><path fill="#009b77" d="M 123.417969 48.875 L 294.335938 48.875 C 299.820312 48.875 304.269531 53.328125 304.269531 58.8125 L 304.269531 279.371094 C 304.269531 284.855469 299.820312 289.308594 294.335938 289.308594 L 123.417969 289.308594 C 117.933594 289.308594 113.480469 284.855469 113.480469 279.371094 L 113.480469 58.8125 C 113.480469 53.328125 117.933594 48.875 123.417969 48.875 Z M 123.417969 48.875 " fill-opacity="1" fill-rule="nonzero"/></g></g><g clip-path="url(#07848c5477)"><g clip-path="url(#043df40919)"><path fill="#ffffff" d="M 137.527344 68.828125 L 280.226562 68.828125 C 280.734375 68.828125 281.242188 68.875 281.742188 68.976562 C 282.242188 69.074219 282.726562 69.222656 283.199219 69.417969 C 283.671875 69.613281 284.117188 69.851562 284.542969 70.136719 C 284.96875 70.417969 285.359375 70.742188 285.722656 71.101562 C 286.082031 71.464844 286.402344 71.855469 286.6875 72.28125 C 286.972656 72.703125 287.210938 73.152344 287.40625 73.625 C 287.601562 74.09375 287.75 74.582031 287.847656 75.082031 C 287.949219 75.582031 287.996094 76.089844 287.996094 76.597656 L 287.996094 183.960938 C 287.996094 184.46875 287.949219 184.976562 287.847656 185.476562 C 287.75 185.976562 287.601562 186.460938 287.40625 186.933594 C 287.210938 187.40625 286.972656 187.851562 286.6875 188.277344 C 286.402344 188.699219 286.082031 189.09375 285.722656 189.453125 C 285.359375 189.816406 284.96875 190.136719 284.542969 190.421875 C 284.117188 190.703125 283.671875 190.945312 283.199219 191.140625 C 282.726562 191.335938 282.242188 191.480469 281.742188 191.582031 C 281.242188 191.679688 280.734375 191.730469 280.226562 191.730469 L 137.527344 191.730469 C 137.019531 191.730469 136.511719 191.679688 136.011719 191.582031 C 135.511719 191.480469 135.027344 191.335938 134.554688 191.140625 C 134.082031 190.945312 133.636719 190.703125 133.210938 190.421875 C 132.785156 190.136719 132.394531 189.816406 132.03125 189.453125 C 131.671875 189.09375 131.351562 188.699219 131.066406 188.277344 C 130.78125 187.851562 130.542969 187.40625 130.347656 186.933594 C 130.152344 186.460938 130.003906 185.976562 129.90625 185.476562 C 129.804688 184.976562 129.757812 184.46875 129.757812 183.960938 L 129.757812 76.597656 C 129.757812 76.089844 129.804688 75.582031 129.90625 75.082031 C 130.003906 74.582031 130.152344 74.09375 130.347656 73.625 C 130.542969 73.152344 130.78125 72.703125 131.066406 72.28125 C 131.351562 71.855469 131.671875 71.464844 132.03125 71.101562 C 132.394531 70.742188 132.785156 70.417969 133.210938 70.136719 C 133.636719 69.851562 134.082031 69.613281 134.554688 69.417969 C 135.027344 69.222656 135.511719 69.074219 136.011719 68.976562 C 136.511719 68.875 137.019531 68.828125 137.527344 68.828125 Z M 137.527344 68.828125 " fill-opacity="1" fill-rule="nonzero"/></g></g><g clip-path="url(#7a78f0bfe0)"><g clip-path="url(#940ce591ab)"><path stroke-linecap="butt" transform="matrix(0.21223, 0, 0, 0.21223, -14.391984, -59.540688)" fill="none" stroke-linejoin="miter" d="M 715.824694 604.857641 L 1388.205398 604.857641 C 1390.598147 604.857641 1392.990895 605.07851 1395.346832 605.557059 C 1397.702769 606.017203 1399.985083 606.716622 1402.212179 607.63691 C 1404.439276 608.557198 1406.537532 609.679949 1408.54376 611.023569 C 1410.549987 612.348784 1412.390563 613.876461 1414.102298 615.569791 C 1415.795628 617.281526 1417.3049 619.122102 1418.64852 621.12833 C 1419.992141 623.116151 1421.114892 625.232813 1422.03518 627.45991 C 1422.955467 629.668601 1423.654886 631.96932 1424.11503 634.325257 C 1424.59358 636.681194 1424.814449 639.073943 1424.814449 641.466691 L 1424.814449 1147.348919 C 1424.814449 1149.741667 1424.59358 1152.134416 1424.11503 1154.490353 C 1423.654886 1156.84629 1422.955467 1159.128603 1422.03518 1161.3557 C 1421.114892 1163.582797 1419.992141 1165.681053 1418.64852 1167.68728 C 1417.3049 1169.675102 1415.795628 1171.534084 1414.102298 1173.227413 C 1412.390563 1174.939149 1410.549987 1176.448421 1408.54376 1177.792041 C 1406.537532 1179.117255 1404.439276 1180.258412 1402.212179 1181.1787 C 1399.985083 1182.098988 1397.702769 1182.780001 1395.346832 1183.258551 C 1392.990895 1183.718695 1390.598147 1183.957969 1388.205398 1183.957969 L 715.824694 1183.957969 C 713.431945 1183.957969 711.039197 1183.718695 708.68326 1183.258551 C 706.327323 1182.780001 704.045009 1182.098988 701.817913 1181.1787 C 699.590816 1180.258412 697.49256 1179.117255 695.486332 1177.792041 C 693.480105 1176.448421 691.639529 1174.939149 689.927794 1173.227413 C 688.234464 1171.534084 686.725192 1169.675102 685.381572 1167.68728 C 684.037951 1165.681053 682.9152 1163.582797 681.994912 1161.3557 C 681.074625 1159.128603 680.375206 1156.84629 679.915062 1154.490353 C 679.436512 1152.134416 679.215643 1149.741667 679.215643 1147.348919 L 679.215643 641.466691 C 679.215643 639.073943 679.436512 636.681194 679.915062 634.325257 C 680.375206 631.96932 681.074625 629.668601 681.994912 627.45991 C 682.9152 625.232813 684.037951 623.116151 685.381572 621.12833 C 686.725192 619.122102 688.234464 617.281526 689.927794 615.569791 C 691.639529 613.876461 693.480105 612.348784 695.486332 611.023569 C 697.49256 609.679949 699.590816 608.557198 701.817913 607.63691 C 704.045009 606.716622 706.327323 606.017203 708.68326 605.557059 C 711.039197 605.07851 713.431945 604.857641 715.824694 604.857641 Z M 715.824694 604.857641 " stroke="#010101" stroke-width="10" stroke-opacity="1" stroke-miterlimit="10"/></g></g><g clip-path="url(#c9e1839586)"><g clip-path="url(#36e94fb6e6)"><path fill="#0b1d3a" d="M 284.46875 214.261719 L 133.285156 214.261719 C 131.335938 214.261719 129.753906 212.683594 129.753906 210.734375 C 129.753906 208.785156 131.332031 207.203125 133.285156 207.203125 L 284.46875 207.203125 C 286.417969 207.203125 287.996094 208.785156 287.996094 210.734375 C 287.996094 212.683594 286.417969 214.261719 284.46875 214.261719 Z M 284.46875 214.261719 " fill-opacity="1" fill-rule="nonzero"/></g></g><g clip-path="url(#e9923839cd)"><g clip-path="url(#d06c06676e)"><path fill="#0b1d3a" d="M 133.285156 235.4375 L 205.347656 235.4375 C 205.816406 235.4375 206.265625 235.527344 206.699219 235.707031 C 207.132812 235.886719 207.511719 236.140625 207.84375 236.472656 C 208.175781 236.800781 208.429688 237.183594 208.609375 237.617188 C 208.789062 238.046875 208.878906 238.5 208.878906 238.96875 C 208.878906 239.433594 208.789062 239.886719 208.609375 240.316406 C 208.429688 240.75 208.175781 241.132812 207.84375 241.460938 C 207.511719 241.792969 207.132812 242.046875 206.699219 242.226562 C 206.265625 242.40625 205.816406 242.496094 205.347656 242.496094 L 133.285156 242.496094 C 132.816406 242.496094 132.367188 242.40625 131.933594 242.226562 C 131.503906 242.046875 131.121094 241.792969 130.789062 241.460938 C 130.460938 241.132812 130.203125 240.75 130.023438 240.316406 C 129.847656 239.886719 129.757812 239.433594 129.757812 238.96875 C 129.757812 238.5 129.847656 238.046875 130.023438 237.617188 C 130.203125 237.183594 130.460938 236.800781 130.789062 236.472656 C 131.121094 236.140625 131.503906 235.886719 131.933594 235.707031 C 132.367188 235.527344 132.816406 235.4375 133.285156 235.4375 Z M 133.285156 235.4375 " fill-opacity="1" fill-rule="nonzero"/></g></g><g clip-path="url(#b98c430d94)"><g clip-path="url(#16bc2e584c)"><path fill="#0b1d3a" d="M 133.285156 263.667969 L 165.785156 263.667969 C 166.253906 263.667969 166.707031 263.757812 167.136719 263.9375 C 167.570312 264.117188 167.953125 264.371094 168.28125 264.703125 C 168.613281 265.03125 168.867188 265.414062 169.046875 265.847656 C 169.226562 266.28125 169.316406 266.730469 169.316406 267.199219 C 169.316406 267.664062 169.226562 268.117188 169.046875 268.546875 C 168.867188 268.980469 168.613281 269.363281 168.28125 269.691406 C 167.953125 270.023438 167.570312 270.277344 167.136719 270.457031 C 166.707031 270.636719 166.253906 270.726562 165.785156 270.726562 L 133.285156 270.726562 C 132.816406 270.726562 132.367188 270.636719 131.933594 270.457031 C 131.503906 270.277344 131.121094 270.023438 130.789062 269.691406 C 130.460938 269.363281 130.203125 268.980469 130.023438 268.546875 C 129.847656 268.117188 129.757812 267.664062 129.757812 267.199219 C 129.757812 266.730469 129.847656 266.28125 130.023438 265.847656 C 130.203125 265.414062 130.460938 265.03125 130.789062 264.703125 C 131.121094 264.371094 131.503906 264.117188 131.933594 263.9375 C 132.367188 263.757812 132.816406 263.667969 133.285156 263.667969 Z M 133.285156 263.667969 " fill-opacity="1" fill-rule="nonzero"/></g></g><g clip-path="url(#a4ee886013)"><g clip-path="url(#16c74d8be9)"><path fill="#0b1d3a" d="M 251.96875 263.667969 L 284.46875 263.667969 C 284.9375 263.667969 285.386719 263.757812 285.820312 263.9375 C 286.25 264.117188 286.632812 264.371094 286.964844 264.703125 C 287.292969 265.03125 287.550781 265.414062 287.730469 265.847656 C 287.90625 266.28125 287.996094 266.730469 287.996094 267.199219 C 287.996094 267.664062 287.90625 268.117188 287.730469 268.546875 C 287.550781 268.980469 287.292969 269.363281 286.964844 269.691406 C 286.632812 270.023438 286.25 270.277344 285.820312 270.457031 C 285.386719 270.636719 284.9375 270.726562 284.46875 270.726562 L 251.96875 270.726562 C 251.5 270.726562 251.046875 270.636719 250.617188 270.457031 C 250.183594 270.277344 249.800781 270.023438 249.472656 269.691406 C 249.140625 269.363281 248.886719 268.980469 248.707031 268.546875 C 248.527344 268.117188 248.4375 267.664062 248.4375 267.199219 C 248.4375 266.730469 248.527344 266.28125 248.707031 265.847656 C 248.886719 265.414062 249.140625 265.03125 249.472656 264.703125 C 249.800781 264.371094 250.183594 264.117188 250.617188 263.9375 C 251.046875 263.757812 251.5 263.667969 251.96875 263.667969 Z M 251.96875 263.667969 " fill-opacity="1" fill-rule="nonzero"/></g></g><g clip-path="url(#a9884fa8f2)"><g clip-path="url(#8c9cd82619)"><path fill="#0b1d3a" d="M 284.46875 228.378906 L 133.285156 228.378906 C 131.335938 228.378906 129.753906 226.800781 129.753906 224.847656 C 129.753906 222.902344 131.332031 221.320312 133.285156 221.320312 L 284.46875 221.320312 C 286.417969 221.320312 287.996094 222.898438 287.996094 224.847656 C 287.996094 226.796875 286.417969 228.378906 284.46875 228.378906 Z M 284.46875 228.378906 " fill-opacity="1" fill-rule="nonzero"/></g></g><g clip-path="url(#43e4f2d692)"><g clip-path="url(#358bddc209)"><path fill="#0b1d3a" d="M 269.234375 90 L 148.515625 90 C 146.566406 90 144.984375 88.421875 144.984375 86.472656 C 144.984375 84.523438 146.566406 82.941406 148.515625 82.941406 L 269.234375 82.941406 C 271.183594 82.941406 272.765625 84.519531 272.765625 86.472656 C 272.765625 88.417969 271.1875 90 269.234375 90 Z M 269.234375 90 " fill-opacity="1" fill-rule="nonzero"/></g></g><g clip-path="url(#f1d6275f5e)"><g clip-path="url(#a1807a2493)"><g mask="url(#709247236d)"><g transform="matrix(1, 0, 0, 1, 113, 272)"><g clip-path="url(#18c949fcfe)"><g clip-path="url(#97022859b4)"><g clip-path="url(#92c890a1d8)"><path fill="#0b1d3a" d="M 191.269531 1.160156 L 191.269531 7.371094 C 191.269531 12.855469 186.824219 17.308594 181.335938 17.308594 L 10.417969 17.308594 C 4.929688 17.308594 0.480469 12.855469 0.480469 7.371094 L 0.480469 1.160156 C 0.480469 6.648438 4.929688 11.097656 10.417969 11.097656 L 181.335938 11.097656 C 186.824219 11.097656 191.269531 6.648438 191.269531 1.160156 Z M 191.269531 1.160156 " fill-opacity="1" fill-rule="nonzero"/></g></g></g></g></g></g></g><g clip-path="url(#b45c580fe4)"><g clip-path="url(#0076b5048c)"><path fill="#0b1d3a" d="M 294.335938 290.859375 L 123.417969 290.859375 C 117.085938 290.859375 111.929688 285.707031 111.929688 279.371094 L 111.929688 58.8125 C 111.929688 52.476562 117.085938 47.324219 123.417969 47.324219 L 294.335938 47.324219 C 300.671875 47.324219 305.828125 52.476562 305.828125 58.8125 L 305.828125 279.371094 C 305.828125 285.707031 300.671875 290.859375 294.335938 290.859375 Z M 123.417969 50.429688 C 118.796875 50.429688 115.035156 54.191406 115.035156 58.8125 L 115.035156 279.371094 C 115.035156 283.992188 118.796875 287.753906 123.417969 287.753906 L 294.335938 287.753906 C 298.957031 287.753906 302.71875 283.992188 302.71875 279.371094 L 302.71875 58.8125 C 302.71875 54.191406 298.957031 50.429688 294.335938 50.429688 Z M 123.417969 50.429688 " fill-opacity="1" fill-rule="nonzero"/></g></g><g clip-path="url(#a86f15433b)"><g clip-path="url(#eab787b832)"><path fill="#e10600" d="M 132.1875 -25.765625 L 135.601562 -8.695312 L 135.601562 240.542969 L 132.1875 257.613281 L 348.808594 257.613281 L 345.394531 240.542969 L 345.394531 -8.695312 L 348.808594 -25.765625 Z M 132.1875 -25.765625 " fill-opacity="1" fill-rule="nonzero"/></g></g><g clip-path="url(#e48b556bbd)"><g clip-path="url(#74f4c6dc9b)"><path fill="#0b1d3a" d="M 350.890625 259.324219 L 130.105469 259.324219 C 130.105469 259.324219 133.894531 240.375 133.894531 240.375 L 133.894531 -8.527344 L 130.105469 -27.476562 L 350.890625 -27.476562 C 350.890625 -27.476562 347.101562 -8.527344 347.101562 -8.527344 L 347.101562 240.375 C 347.101562 240.375 350.890625 259.324219 350.890625 259.324219 Z M 134.269531 255.90625 L 346.726562 255.90625 C 346.726562 255.90625 343.6875 240.710938 343.6875 240.710938 L 343.6875 -8.863281 C 343.6875 -8.863281 346.730469 -24.0625 346.730469 -24.0625 L 134.269531 -24.0625 C 134.269531 -24.0625 137.308594 -8.863281 137.308594 -8.863281 L 137.308594 240.710938 Z M 134.269531 255.90625 " fill-opacity="1" fill-rule="nonzero"/></g></g><g clip-path="url(#8fb648fbe1)"><g clip-path="url(#02205a447e)"><path fill="#0b1d3a" d="M 332.765625 241.394531 L 325.679688 241.394531 L 325.679688 239.6875 L 332.765625 239.6875 Z M 316.632812 241.394531 L 309.546875 241.394531 L 309.546875 239.6875 L 316.632812 239.6875 Z M 300.5 241.394531 L 293.414062 241.394531 L 293.414062 239.6875 L 300.5 239.6875 Z M 284.367188 241.394531 L 277.285156 241.394531 L 277.285156 239.6875 L 284.367188 239.6875 Z M 268.238281 241.394531 L 261.152344 241.394531 L 261.152344 239.6875 L 268.238281 239.6875 Z M 252.109375 241.394531 L 245.023438 241.394531 L 245.023438 239.6875 L 252.109375 239.6875 Z M 235.976562 241.394531 L 228.890625 241.394531 L 228.890625 239.6875 L 235.976562 239.6875 Z M 219.84375 241.394531 L 212.757812 241.394531 L 212.757812 239.6875 L 219.84375 239.6875 Z M 203.710938 241.394531 L 196.625 241.394531 L 196.625 239.6875 L 203.710938 239.6875 Z M 187.582031 241.394531 L 180.496094 241.394531 L 180.496094 239.6875 L 187.582031 239.6875 Z M 171.449219 241.394531 L 164.363281 241.394531 L 164.363281 239.6875 L 171.449219 239.6875 Z M 155.320312 241.394531 L 148.234375 241.394531 L 148.234375 239.6875 L 155.320312 239.6875 Z M 155.320312 241.394531 " fill-opacity="1" fill-rule="nonzero"/></g></g><g clip-path="url(#1b3a7d816e)"><g clip-path="url(#c7514feb7f)"><path fill="#0b1d3a" d="M 341.808594 239.691406 L 346.246094 239.691406 L 346.246094 241.398438 L 341.808594 241.398438 Z M 341.808594 239.691406 " fill-opacity="1" fill-rule="nonzero"/></g></g><g clip-path="url(#c2ccd0d2e4)"><g clip-path="url(#290d86ff65)"><g mask="url(#c761f43c51)"><g transform="matrix(1, 0, 0, 1, 155, 21)"><g clip-path="url(#f9e15f4f89)"><g clip-path="url(#98953f853d)"><g clip-path="url(#df79df0c7a)"><path fill="#0b1d3a" d="M 1.773438 1.128906 L 189.710938 1.128906 C 195.742188 1.128906 200.636719 6.023438 200.636719 12.054688 L 200.636719 236.613281 L -9.152344 236.613281 L -9.152344 12.054688 C -9.152344 6.023438 -4.257812 1.128906 1.773438 1.128906 Z M 1.773438 1.128906 " fill-opacity="1" fill-rule="nonzero"/></g></g></g></g></g></g></g><g clip-path="url(#f36fe0d132)"><g clip-path="url(#2bd4da8186)"><path fill="#c9a14a" d="M 167.015625 10.308594 L 354.953125 10.308594 C 360.984375 10.308594 365.882812 15.203125 365.882812 21.234375 L 365.882812 263.757812 C 365.882812 269.789062 360.984375 274.6875 354.953125 274.6875 L 167.015625 274.6875 C 160.984375 274.6875 156.089844 269.789062 156.089844 263.757812 L 156.089844 21.234375 C 156.089844 15.203125 160.984375 10.308594 167.015625 10.308594 Z M 167.015625 10.308594 " fill-opacity="1" fill-rule="nonzero"/></g></g><g clip-path="url(#1b39cb136f)"><g clip-path="url(#9f8abed3aa)"><path fill="#ffffff" d="M 182.53125 32.246094 L 339.441406 32.246094 C 340 32.246094 340.558594 32.300781 341.109375 32.410156 C 341.65625 32.519531 342.191406 32.679688 342.710938 32.894531 C 343.230469 33.109375 343.722656 33.375 344.1875 33.683594 C 344.65625 33.996094 345.085938 34.351562 345.484375 34.75 C 345.878906 35.144531 346.234375 35.578125 346.546875 36.042969 C 346.859375 36.511719 347.121094 37.003906 347.335938 37.519531 C 347.550781 38.039062 347.710938 38.574219 347.824219 39.125 C 347.933594 39.675781 347.988281 40.230469 347.988281 40.792969 L 347.988281 158.84375 C 347.988281 159.40625 347.933594 159.960938 347.824219 160.511719 C 347.710938 161.0625 347.550781 161.597656 347.335938 162.113281 C 347.121094 162.632812 346.859375 163.125 346.546875 163.59375 C 346.234375 164.058594 345.878906 164.492188 345.484375 164.886719 C 345.085938 165.285156 344.65625 165.636719 344.1875 165.949219 C 343.722656 166.261719 343.230469 166.523438 342.710938 166.738281 C 342.191406 166.953125 341.65625 167.117188 341.109375 167.226562 C 340.558594 167.335938 340 167.390625 339.441406 167.390625 L 182.53125 167.390625 C 181.96875 167.390625 181.414062 167.335938 180.863281 167.226562 C 180.3125 167.117188 179.78125 166.953125 179.261719 166.738281 C 178.742188 166.523438 178.25 166.261719 177.785156 165.949219 C 177.316406 165.636719 176.886719 165.285156 176.488281 164.886719 C 176.09375 164.492188 175.738281 164.058594 175.425781 163.59375 C 175.113281 163.125 174.851562 162.632812 174.636719 162.113281 C 174.421875 161.597656 174.257812 161.0625 174.148438 160.511719 C 174.039062 159.960938 173.984375 159.40625 173.984375 158.84375 L 173.984375 40.792969 C 173.984375 40.230469 174.039062 39.675781 174.148438 39.125 C 174.257812 38.574219 174.421875 38.039062 174.636719 37.519531 C 174.851562 37.003906 175.113281 36.511719 175.425781 36.042969 C 175.738281 35.578125 176.09375 35.144531 176.488281 34.75 C 176.886719 34.351562 177.316406 33.996094 177.785156 33.683594 C 178.25 33.375 178.742188 33.109375 179.261719 32.894531 C 179.78125 32.679688 180.3125 32.519531 180.863281 32.410156 C 181.414062 32.300781 181.96875 32.246094 182.53125 32.246094 Z M 182.53125 32.246094 " fill-opacity="1" fill-rule="nonzero"/></g></g><g clip-path="url(#4f48155ffb)"><g clip-path="url(#60e22431a2)"><path stroke-linecap="butt" transform="matrix(0.233367, 0, 0, 0.233367, 15.480252, -108.906966)" fill="none" stroke-linejoin="miter" d="M 715.828896 604.853849 L 1388.203351 604.853849 C 1390.596977 604.853849 1392.990603 605.08819 1395.350751 605.556872 C 1397.694161 606.025554 1399.987354 606.711838 1402.213594 607.632463 C 1404.439833 608.553088 1406.548902 609.691316 1408.5408 611.013669 C 1410.549437 612.35276 1412.390687 613.875976 1414.098029 615.583317 C 1415.788631 617.27392 1417.311848 619.131909 1418.650939 621.123808 C 1419.99003 623.132444 1421.111519 625.241513 1422.032144 627.451014 C 1422.952769 629.677253 1423.639054 631.970447 1424.124474 634.330595 C 1424.593156 636.690743 1424.827497 639.06763 1424.827497 641.477995 L 1424.827497 1147.336453 C 1424.827497 1149.746817 1424.593156 1152.123704 1424.124474 1154.483853 C 1423.639054 1156.844001 1422.952769 1159.137195 1422.032144 1161.346695 C 1421.111519 1163.572935 1419.99003 1165.682003 1418.650939 1167.69064 C 1417.311848 1169.682538 1415.788631 1171.540528 1414.098029 1173.23113 C 1412.390687 1174.938472 1410.549437 1176.444949 1408.5408 1177.784041 C 1406.548902 1179.123132 1404.439833 1180.244621 1402.213594 1181.165246 C 1399.987354 1182.085871 1397.694161 1182.788894 1395.350751 1183.257576 C 1392.990603 1183.726258 1390.596977 1183.960599 1388.203351 1183.960599 L 715.828896 1183.960599 C 713.418532 1183.960599 711.041645 1183.726258 708.681496 1183.257576 C 706.321348 1182.788894 704.044893 1182.085871 701.818654 1181.165246 C 699.592414 1180.244621 697.483346 1179.123132 695.491447 1177.784041 C 693.482811 1176.444949 691.64156 1174.938472 689.934219 1173.23113 C 688.243616 1171.540528 686.7204 1169.682538 685.381308 1167.69064 C 684.042217 1165.682003 682.920728 1163.572935 682.000103 1161.346695 C 681.079478 1159.137195 680.376455 1156.844001 679.907773 1154.483853 C 679.439091 1152.123704 679.20475 1149.746817 679.20475 1147.336453 L 679.20475 641.477995 C 679.20475 639.06763 679.439091 636.690743 679.907773 634.330595 C 680.376455 631.970447 681.079478 629.677253 682.000103 627.451014 C 682.920728 625.241513 684.042217 623.132444 685.381308 621.123808 C 686.7204 619.131909 688.243616 617.27392 689.934219 615.583317 C 691.64156 613.875976 693.482811 612.35276 695.491447 611.013669 C 697.483346 609.691316 699.592414 608.553088 701.818654 607.632463 C 704.044893 606.711838 706.321348 606.025554 708.681496 605.556872 C 711.041645 605.08819 713.418532 604.853849 715.828896 604.853849 Z M 715.828896 604.853849 " stroke="#010101" stroke-width="10" stroke-opacity="1" stroke-miterlimit="10"/></g></g><g clip-path="url(#3a7c46be41)"><g clip-path="url(#238058ada2)"><path fill="#0b1d3a" d="M 344.105469 192.167969 L 177.863281 192.167969 C 175.722656 192.167969 173.984375 190.429688 173.984375 188.285156 C 173.984375 186.144531 175.71875 184.40625 177.863281 184.40625 L 344.105469 184.40625 C 346.246094 184.40625 347.988281 186.140625 347.988281 188.285156 C 347.988281 190.429688 346.25 192.167969 344.105469 192.167969 Z M 344.105469 192.167969 " fill-opacity="1" fill-rule="nonzero"/></g></g><g clip-path="url(#046e4f9c90)"><g clip-path="url(#2bf7dc9acd)"><path fill="#0b1d3a" d="M 177.867188 215.449219 L 257.105469 215.449219 C 257.621094 215.449219 258.117188 215.546875 258.589844 215.746094 C 259.066406 215.941406 259.488281 216.222656 259.851562 216.585938 C 260.214844 216.949219 260.496094 217.371094 260.691406 217.847656 C 260.890625 218.320312 260.988281 218.816406 260.988281 219.332031 C 260.988281 219.84375 260.890625 220.339844 260.691406 220.816406 C 260.496094 221.292969 260.214844 221.710938 259.851562 222.074219 C 259.488281 222.4375 259.066406 222.71875 258.589844 222.917969 C 258.117188 223.113281 257.621094 223.210938 257.105469 223.210938 L 177.867188 223.210938 C 177.351562 223.210938 176.855469 223.113281 176.382812 222.917969 C 175.90625 222.71875 175.484375 222.4375 175.121094 222.074219 C 174.757812 221.710938 174.476562 221.292969 174.28125 220.816406 C 174.085938 220.339844 173.984375 219.84375 173.984375 219.332031 C 173.984375 218.816406 174.085938 218.320312 174.28125 217.847656 C 174.476562 217.371094 174.757812 216.949219 175.121094 216.585938 C 175.484375 216.222656 175.90625 215.941406 176.382812 215.746094 C 176.855469 215.546875 177.351562 215.449219 177.867188 215.449219 Z M 177.867188 215.449219 " fill-opacity="1" fill-rule="nonzero"/></g></g><g clip-path="url(#a5ae95fe2c)"><g clip-path="url(#d9147d3818)"><path fill="#0b1d3a" d="M 177.867188 246.492188 L 213.605469 246.492188 C 214.117188 246.492188 214.613281 246.589844 215.089844 246.789062 C 215.566406 246.984375 215.984375 247.265625 216.347656 247.628906 C 216.710938 247.992188 216.992188 248.414062 217.191406 248.886719 C 217.386719 249.363281 217.484375 249.859375 217.484375 250.375 C 217.484375 250.886719 217.386719 251.382812 217.191406 251.859375 C 216.992188 252.335938 216.710938 252.753906 216.347656 253.117188 C 215.984375 253.480469 215.566406 253.761719 215.089844 253.960938 C 214.613281 254.15625 214.117188 254.253906 213.605469 254.253906 L 177.867188 254.253906 C 177.351562 254.253906 176.855469 254.15625 176.382812 253.957031 C 175.90625 253.761719 175.484375 253.480469 175.121094 253.117188 C 174.757812 252.753906 174.476562 252.335938 174.28125 251.859375 C 174.085938 251.382812 173.984375 250.886719 173.984375 250.375 C 173.984375 249.859375 174.085938 249.363281 174.28125 248.886719 C 174.476562 248.414062 174.757812 247.992188 175.121094 247.628906 C 175.484375 247.265625 175.90625 246.984375 176.382812 246.789062 C 176.855469 246.589844 177.351562 246.492188 177.867188 246.492188 Z M 177.867188 246.492188 " fill-opacity="1" fill-rule="nonzero"/></g></g><g clip-path="url(#8c2d31f15c)"><g clip-path="url(#9b73968ced)"><path fill="#0b1d3a" d="M 308.367188 246.492188 L 344.105469 246.492188 C 344.621094 246.492188 345.117188 246.589844 345.589844 246.789062 C 346.066406 246.984375 346.484375 247.265625 346.851562 247.628906 C 347.214844 247.992188 347.496094 248.414062 347.691406 248.886719 C 347.886719 249.363281 347.988281 249.859375 347.988281 250.375 C 347.988281 250.886719 347.886719 251.382812 347.691406 251.859375 C 347.496094 252.335938 347.214844 252.753906 346.851562 253.117188 C 346.484375 253.480469 346.066406 253.761719 345.589844 253.960938 C 345.117188 254.15625 344.621094 254.253906 344.105469 254.253906 L 308.367188 254.253906 C 307.851562 254.253906 307.359375 254.15625 306.882812 253.957031 C 306.40625 253.761719 305.988281 253.480469 305.625 253.117188 C 305.257812 252.753906 304.980469 252.335938 304.78125 251.859375 C 304.585938 251.382812 304.488281 250.886719 304.488281 250.375 C 304.488281 249.859375 304.585938 249.363281 304.78125 248.886719 C 304.980469 248.414062 305.257812 247.992188 305.625 247.628906 C 305.988281 247.265625 306.40625 246.984375 306.882812 246.789062 C 307.359375 246.589844 307.851562 246.492188 308.367188 246.492188 Z M 308.367188 246.492188 " fill-opacity="1" fill-rule="nonzero"/></g></g><g clip-path="url(#68c42b68d2)"><g clip-path="url(#eb026d0527)"><path fill="#0b1d3a" d="M 344.105469 207.6875 L 177.863281 207.6875 C 175.722656 207.6875 173.984375 205.953125 173.984375 203.808594 C 173.984375 201.664062 175.71875 199.925781 177.863281 199.925781 L 344.105469 199.925781 C 346.246094 199.925781 347.988281 201.664062 347.988281 203.808594 C 347.988281 205.949219 346.25 207.6875 344.105469 207.6875 Z M 344.105469 207.6875 " fill-opacity="1" fill-rule="nonzero"/></g></g><g clip-path="url(#9797ffdb86)"><g clip-path="url(#b6aa468fd9)"><path fill="#0b1d3a" d="M 327.355469 55.527344 L 194.613281 55.527344 C 192.46875 55.527344 190.730469 53.792969 190.730469 51.648438 C 190.730469 49.503906 192.46875 47.765625 194.613281 47.765625 L 327.355469 47.765625 C 329.5 47.765625 331.238281 49.503906 331.238281 51.648438 C 331.238281 53.789062 329.5 55.527344 327.355469 55.527344 Z M 327.355469 55.527344 " fill-opacity="1" fill-rule="nonzero"/></g></g><g clip-path="url(#133f1df453)"><g clip-path="url(#8ff7104734)"><g mask="url(#7efe05970e)"><g transform="matrix(1, 0, 0, 1, 155, 256)"><g clip-path="url(#5549c42b10)"><g clip-path="url(#0f9da85867)"><g clip-path="url(#573b223232)"><path fill="#0b1d3a" d="M 210.882812 0.929688 L 210.882812 7.757812 C 210.882812 13.792969 205.992188 18.6875 199.953125 18.6875 L 12.015625 18.6875 C 5.980469 18.6875 1.089844 13.792969 1.089844 7.757812 L 1.089844 0.929688 C 1.089844 6.964844 5.980469 11.855469 12.015625 11.855469 L 199.953125 11.855469 C 205.992188 11.855469 210.882812 6.964844 210.882812 0.929688 Z M 210.882812 0.929688 " fill-opacity="1" fill-rule="nonzero"/></g></g></g></g></g></g></g><g clip-path="url(#2f314e537a)"><g clip-path="url(#3a36dd0441)"><path fill="#0b1d3a" d="M 354.957031 276.394531 L 167.015625 276.394531 C 160.050781 276.394531 154.382812 270.726562 154.382812 263.757812 L 154.382812 21.234375 C 154.382812 14.269531 160.050781 8.601562 167.015625 8.601562 L 354.957031 8.601562 C 361.921875 8.601562 367.589844 14.269531 367.589844 21.234375 L 367.589844 263.757812 C 367.589844 270.726562 361.921875 276.394531 354.957031 276.394531 Z M 167.015625 12.015625 C 161.933594 12.015625 157.796875 16.152344 157.796875 21.234375 L 157.796875 263.757812 C 157.796875 268.84375 161.933594 272.976562 167.015625 272.976562 L 354.953125 272.976562 C 360.039062 272.976562 364.171875 268.84375 364.171875 263.757812 L 364.171875 21.234375 C 364.171875 16.152344 360.039062 12.015625 354.953125 12.015625 Z M 167.015625 12.015625 " fill-opacity="1" fill-rule="nonzero"/></g></g></g></g></g></svg>