<svg xmlns="http://www.w3.org/2000/svg" xmlns:xlink="http://www.w3.org/1999/xlink" width="600" zoomAndPan="magnify" viewBox="0 0 375 307.91998" height="400" preserveAspectRatio="xMidYMid meet" version="1.0"><defs><filter x="0%" y="0%" width="100%" height="100%" id="feadb9e424"><feColorMatrix values="0 0 0 0 1 0 0 0 0 1 0 0 0 0 1 0 0 0 1 0" color-interpolation-filters="sRGB"/></filter><clipPath id="223eef073c"><path d="M 0.046875 0 L 374.949219 0 L 374.949219 299.921875 L 0.046875 299.921875 Z M 0.046875 0 " clip-rule="nonzero"/></clipPath><mask id="58557d3c96"><g filter="url(#feadb9e424)"><rect x="-37.5" width="450" fill="#000000" y="-30.791998" height="369.503976" fill-opacity="0.5"/></g></mask><clipPath id="492f66e4ed"><path d="M 0.613281 0.0273438 L 179 0.0273438 L 179 19.941406 L 0.613281 19.941406 Z M 0.613281 0.0273438 " clip-rule="nonzero"/></clipPath><clipPath id="43fd21559e"><rect x="0" width="180" y="0" height="20"/></clipPath><clipPath id="7685a3b19c"><path d="M 130.941406 8.710938 L 319.144531 8.710938 L 319.144531 291.386719 L 130.941406 291.386719 Z M 130.941406 8.710938 " clip-rule="nonzero"/></clipPath><mask id="609a6e27eb"><g filter="url(#feadb9e424)"><rect x="-37.5" width="450" fill="#000000" y="-30.791998" height="369.503976" fill-opacity="0.5"/></g></mask><clipPath id="eb30c13fed"><path d="M 0.613281 1 L 179 1 L 179 20.894531 L 0.613281 20.894531 Z M 0.613281 1 " clip-rule="nonzero"/></clipPath><clipPath id="f1af7eb608"><rect x="0" width="180" y="0" height="21"/></clipPath><clipPath id="b9825f0fdd"><path d="M 146.261719 62.988281 L 301.46875 62.988281 L 301.46875 236.984375 L 146.261719 236.984375 Z M 146.261719 62.988281 " clip-rule="nonzero"/></clipPath><clipPath id="c569e14469"><path d="M 160.511719 62.988281 L 287.222656 62.988281 C 291 62.988281 294.625 64.488281 297.296875 67.160156 C 299.96875 69.832031 301.46875 73.457031 301.46875 77.234375 L 301.46875 222.6875 C 301.46875 226.46875 299.96875 230.089844 297.296875 232.761719 C 294.625 235.433594 291 236.933594 287.222656 236.933594 L 160.511719 236.933594 C 156.730469 236.933594 153.109375 235.433594 150.4375 232.761719 C 147.765625 230.089844 146.261719 226.46875 146.261719 222.6875 L 146.261719 77.234375 C 146.261719 73.457031 147.765625 69.832031 150.4375 67.160156 C 153.109375 64.488281 156.730469 62.988281 160.511719 62.988281 Z M 160.511719 62.988281 " clip-rule="nonzero"/></clipPath><clipPath id="a65fab6548"><path d="M 0.261719 0.988281 L 155.46875 0.988281 L 155.46875 174.984375 L 0.261719 174.984375 Z M 0.261719 0.988281 " clip-rule="nonzero"/></clipPath><clipPath id="d3ce461b51"><path d="M 14.511719 0.988281 L 141.222656 0.988281 C 145 0.988281 148.625 2.488281 151.296875 5.160156 C 153.96875 7.832031 155.46875 11.457031 155.46875 15.234375 L 155.46875 160.6875 C 155.46875 164.46875 153.96875 168.089844 151.296875 170.761719 C 148.625 173.433594 145 174.933594 141.222656 174.933594 L 14.511719 174.933594 C 10.730469 174.933594 7.109375 173.433594 4.4375 170.761719 C 1.765625 168.089844 0.261719 164.46875 0.261719 160.6875 L 0.261719 15.234375 C 0.261719 11.457031 1.765625 7.832031 4.4375 5.160156 C 7.109375 2.488281 10.730469 0.988281 14.511719 0.988281 Z M 14.511719 0.988281 " clip-rule="nonzero"/></clipPath><clipPath id="0229811e70"><rect x="0" width="156" y="0" height="175"/></clipPath></defs><g clip-path="url(#223eef073c)"><path fill="#ffffff" d="M 0.046875 0 L 449.933594 0 L 449.933594 299.921875 L 0.046875 299.921875 Z M 0.046875 0 " fill-opacity="1" fill-rule="nonzero"/><path fill="#ffffff" d="M 0.046875 0 L 449.933594 0 L 449.933594 299.921875 L 0.046875 299.921875 Z M 0.046875 0 " fill-opacity="1" fill-rule="nonzero"/></g><path fill="#ffffff" d="M 135.992188 47.101562 L 313.988281 47.101562 L 313.988281 252.816406 L 135.992188 252.816406 Z M 135.992188 47.101562 " fill-opacity="1" fill-rule="nonzero"/><g mask="url(#58557d3c96)"><g transform="matrix(1, 0, 0, 1, 135, 47)"><g clip-path="url(#43fd21559e)"><g clip-path="url(#492f66e4ed)"><path fill="#e5e5e5" d="M 0.988281 19.417969 L 0.988281 0.101562 L 178.984375 0.101562 L 178.984375 19.417969 C 178.984375 12.851562 173.667969 7.53125 167.109375 7.53125 L 12.867188 7.53125 C 6.304688 7.53125 0.988281 12.851562 0.988281 19.417969 Z M 0.988281 19.417969 " fill-opacity="1" fill-rule="nonzero"/></g></g></g></g><path fill="#ffffff" d="M 313.984375 47.101562 L 135.992188 47.101562 L 132.800781 33.757812 L 317.179688 33.757812 Z M 313.984375 47.101562 " fill-opacity="1" fill-rule="nonzero"/><path fill="#e5e5e5" d="M 132.800781 10.667969 L 317.183594 10.667969 L 317.183594 33.757812 L 132.800781 33.757812 Z M 132.800781 10.667969 " fill-opacity="1" fill-rule="nonzero"/><path fill="#ffffff" d="M 135.992188 252.8125 L 313.984375 252.8125 L 317.179688 266.152344 L 132.800781 266.152344 Z M 135.992188 252.8125 " fill-opacity="1" fill-rule="nonzero"/><path fill="#e5e5e5" d="M 317.179688 289.246094 L 132.796875 289.246094 L 132.796875 266.152344 L 317.179688 266.152344 Z M 317.179688 289.246094 " fill-opacity="1" fill-rule="nonzero"/><g clip-path="url(#7685a3b19c)"><path fill="#0b1d3a" d="M 318.984375 34.195312 C 318.984375 34.195312 318.988281 34.171875 318.992188 34.15625 C 318.996094 34.136719 319 34.117188 319.003906 34.097656 C 319.023438 33.984375 319.039062 33.878906 319.039062 33.765625 C 319.039062 33.765625 319.039062 33.765625 319.039062 33.761719 L 319.039062 10.671875 C 319.039062 9.644531 318.207031 8.8125 317.179688 8.8125 L 132.800781 8.8125 C 131.773438 8.8125 130.941406 9.644531 130.941406 10.671875 L 130.941406 33.761719 C 130.941406 33.761719 130.941406 33.761719 130.941406 33.765625 C 130.941406 33.878906 130.957031 33.988281 130.976562 34.101562 C 130.976562 34.121094 130.984375 34.136719 130.988281 34.15625 C 130.988281 34.167969 130.988281 34.183594 130.992188 34.195312 L 134.136719 47.320312 L 134.136719 252.589844 L 130.992188 265.71875 C 130.992188 265.71875 130.988281 265.746094 130.988281 265.753906 C 130.984375 265.773438 130.980469 265.792969 130.976562 265.8125 C 130.953125 265.921875 130.941406 266.035156 130.941406 266.144531 C 130.941406 266.144531 130.941406 266.144531 130.941406 266.148438 L 130.941406 289.242188 C 130.941406 290.265625 131.773438 291.097656 132.800781 291.097656 L 317.179688 291.097656 C 318.207031 291.097656 319.039062 290.265625 319.039062 289.242188 L 319.039062 266.148438 C 319.039062 266.148438 319.039062 266.148438 319.039062 266.144531 C 319.039062 266.035156 319.023438 265.921875 319.003906 265.816406 C 319 265.796875 318.996094 265.773438 318.992188 265.753906 C 318.992188 265.746094 318.992188 265.734375 318.984375 265.722656 L 315.84375 252.59375 L 315.84375 47.320312 Z M 315.324219 287.386719 L 301.027344 287.386719 L 301.027344 281.179688 C 301.027344 280.15625 300.195312 279.324219 299.167969 279.324219 C 298.144531 279.324219 297.3125 280.15625 297.3125 281.179688 L 297.3125 287.386719 L 289.617188 287.386719 L 289.617188 281.179688 C 289.617188 280.15625 288.785156 279.324219 287.757812 279.324219 C 286.734375 279.324219 285.902344 280.15625 285.902344 281.179688 L 285.902344 287.386719 L 278.207031 287.386719 L 278.207031 281.179688 C 278.207031 280.15625 277.375 279.324219 276.347656 279.324219 C 275.324219 279.324219 274.492188 280.15625 274.492188 281.179688 L 274.492188 287.386719 L 266.792969 287.386719 L 266.792969 281.179688 C 266.792969 280.15625 265.960938 279.324219 264.9375 279.324219 C 263.914062 279.324219 263.082031 280.15625 263.082031 281.179688 L 263.082031 287.386719 L 255.382812 287.386719 L 255.382812 281.179688 C 255.382812 280.15625 254.550781 279.324219 253.527344 279.324219 C 252.503906 279.324219 251.671875 280.15625 251.671875 281.179688 L 251.671875 287.386719 L 243.972656 287.386719 L 243.972656 281.179688 C 243.972656 280.15625 243.140625 279.324219 242.117188 279.324219 C 241.089844 279.324219 240.257812 280.15625 240.257812 281.179688 L 240.257812 287.386719 L 232.5625 287.386719 L 232.5625 281.179688 C 232.5625 280.15625 231.730469 279.324219 230.707031 279.324219 C 229.679688 279.324219 228.847656 280.15625 228.847656 281.179688 L 228.847656 287.386719 L 221.152344 287.386719 L 221.152344 281.179688 C 221.152344 280.15625 220.320312 279.324219 219.296875 279.324219 C 218.269531 279.324219 217.4375 280.15625 217.4375 281.179688 L 217.4375 287.386719 L 209.742188 287.386719 L 209.742188 281.179688 C 209.742188 280.15625 208.910156 279.324219 207.886719 279.324219 C 206.859375 279.324219 206.027344 280.15625 206.027344 281.179688 L 206.027344 287.386719 L 198.332031 287.386719 L 198.332031 281.179688 C 198.332031 280.15625 197.5 279.324219 196.472656 279.324219 C 195.449219 279.324219 194.617188 280.15625 194.617188 281.179688 L 194.617188 287.386719 L 186.921875 287.386719 L 186.921875 281.179688 C 186.921875 280.15625 186.089844 279.324219 185.0625 279.324219 C 184.039062 279.324219 183.207031 280.15625 183.207031 281.179688 L 183.207031 287.386719 L 175.511719 287.386719 L 175.511719 281.179688 C 175.511719 280.15625 174.679688 279.324219 173.652344 279.324219 C 172.628906 279.324219 171.796875 280.15625 171.796875 281.179688 L 171.796875 287.386719 L 164.101562 287.386719 L 164.101562 281.179688 C 164.101562 280.15625 163.269531 279.324219 162.242188 279.324219 C 161.21875 279.324219 160.386719 280.15625 160.386719 281.179688 L 160.386719 287.386719 L 152.691406 287.386719 L 152.691406 281.179688 C 152.691406 280.15625 151.859375 279.324219 150.832031 279.324219 C 149.808594 279.324219 148.976562 280.15625 148.976562 281.179688 L 148.976562 287.386719 L 134.679688 287.386719 L 134.679688 268.011719 L 315.34375 268.011719 L 315.34375 287.386719 Z M 137.457031 45.246094 L 135.152344 35.617188 L 314.828125 35.617188 L 312.527344 45.246094 Z M 312.128906 48.957031 L 312.128906 250.957031 L 137.847656 250.957031 L 137.847656 48.957031 Z M 137.457031 254.667969 L 312.523438 254.667969 L 314.824219 264.296875 L 135.148438 264.296875 L 137.453125 254.667969 Z M 315.324219 31.902344 L 134.65625 31.902344 L 134.65625 12.523438 L 148.953125 12.523438 L 148.953125 18.730469 C 148.953125 19.757812 149.785156 20.589844 150.808594 20.589844 C 151.835938 20.589844 152.667969 19.757812 152.667969 18.730469 L 152.667969 12.523438 L 160.363281 12.523438 L 160.363281 18.730469 C 160.363281 19.757812 161.195312 20.589844 162.21875 20.589844 C 163.246094 20.589844 164.078125 19.757812 164.078125 18.730469 L 164.078125 12.523438 L 171.773438 12.523438 L 171.773438 18.730469 C 171.773438 19.757812 172.605469 20.589844 173.632812 20.589844 C 174.65625 20.589844 175.488281 19.757812 175.488281 18.730469 L 175.488281 12.523438 L 183.183594 12.523438 L 183.183594 18.730469 C 183.183594 19.757812 184.015625 20.589844 185.042969 20.589844 C 186.066406 20.589844 186.898438 19.757812 186.898438 18.730469 L 186.898438 12.523438 L 194.59375 12.523438 L 194.59375 18.730469 C 194.59375 19.757812 195.425781 20.589844 196.453125 20.589844 C 197.476562 20.589844 198.308594 19.757812 198.308594 18.730469 L 198.308594 12.523438 L 206.003906 12.523438 L 206.003906 18.730469 C 206.003906 19.757812 206.835938 20.589844 207.863281 20.589844 C 208.886719 20.589844 209.71875 19.757812 209.71875 18.730469 L 209.71875 12.523438 L 217.417969 12.523438 L 217.417969 18.730469 C 217.417969 19.757812 218.25 20.589844 219.273438 20.589844 C 220.296875 20.589844 221.128906 19.757812 221.128906 18.730469 L 221.128906 12.523438 L 228.828125 12.523438 L 228.828125 18.730469 C 228.828125 19.757812 229.660156 20.589844 230.683594 20.589844 C 231.707031 20.589844 232.539062 19.757812 232.539062 18.730469 L 232.539062 12.523438 L 240.238281 12.523438 L 240.238281 18.730469 C 240.238281 19.757812 241.070312 20.589844 242.09375 20.589844 C 243.121094 20.589844 243.953125 19.757812 243.953125 18.730469 L 243.953125 12.523438 L 251.648438 12.523438 L 251.648438 18.730469 C 251.648438 19.757812 252.480469 20.589844 253.503906 20.589844 C 254.53125 20.589844 255.363281 19.757812 255.363281 18.730469 L 255.363281 12.523438 L 263.058594 12.523438 L 263.058594 18.730469 C 263.058594 19.757812 263.890625 20.589844 264.914062 20.589844 C 265.941406 20.589844 266.773438 19.757812 266.773438 18.730469 L 266.773438 12.523438 L 274.46875 12.523438 L 274.46875 18.730469 C 274.46875 19.757812 275.300781 20.589844 276.324219 20.589844 C 277.351562 20.589844 278.183594 19.757812 278.183594 18.730469 L 278.183594 12.523438 L 285.878906 12.523438 L 285.878906 18.730469 C 285.878906 19.757812 286.710938 20.589844 287.738281 20.589844 C 288.761719 20.589844 289.59375 19.757812 289.59375 18.730469 L 289.59375 12.523438 L 297.289062 12.523438 L 297.289062 18.730469 C 297.289062 19.757812 298.121094 20.589844 299.148438 20.589844 C 300.171875 20.589844 301.003906 19.757812 301.003906 18.730469 L 301.003906 12.523438 L 315.300781 12.523438 L 315.300781 31.902344 Z M 315.324219 31.902344 " fill-opacity="1" fill-rule="nonzero"/></g><path fill="#ffffff" d="M 283.03125 110.492188 C 251.972656 79.429688 201.613281 79.429688 170.554688 110.492188 C 166.027344 105.964844 161.503906 101.4375 156.976562 96.910156 C 195.535156 58.351562 258.050781 58.351562 296.609375 96.910156 C 292.082031 101.4375 287.558594 105.964844 283.03125 110.492188 Z M 283.03125 110.492188 " fill-opacity="1" fill-rule="nonzero"/><path fill="#0b1d3a" d="M 283.03125 112.347656 C 282.535156 112.347656 282.066406 112.152344 281.714844 111.804688 C 267.042969 97.132812 247.539062 89.054688 226.792969 89.054688 C 206.042969 89.054688 186.539062 97.132812 171.867188 111.804688 C 171.519531 112.15625 171.046875 112.347656 170.550781 112.347656 C 170.058594 112.347656 169.585938 112.152344 169.238281 111.804688 L 155.65625 98.226562 C 154.933594 97.503906 154.933594 96.324219 155.65625 95.601562 C 174.65625 76.601562 199.917969 66.136719 226.789062 66.136719 C 253.65625 66.136719 278.917969 76.601562 297.917969 95.601562 C 298.265625 95.949219 298.460938 96.421875 298.460938 96.914062 C 298.460938 97.410156 298.261719 97.882812 297.917969 98.230469 L 284.335938 111.808594 C 283.988281 112.160156 283.515625 112.351562 283.023438 112.351562 Z M 226.792969 85.339844 C 247.914062 85.339844 267.804688 93.332031 283.019531 107.878906 L 293.972656 96.925781 C 275.835938 79.453125 252.050781 69.851562 226.792969 69.851562 C 201.535156 69.851562 177.753906 79.453125 159.617188 96.925781 L 170.570312 107.878906 C 185.78125 93.332031 205.675781 85.339844 226.792969 85.339844 Z M 226.792969 85.339844 " fill-opacity="1" fill-rule="nonzero"/><path fill="#ffffff" d="M 156.230469 179.257812 L 293.75 179.257812 L 293.75 202.582031 L 156.230469 202.582031 Z M 156.230469 179.257812 " fill-opacity="1" fill-rule="nonzero"/><path fill="#0b1d3a" d="M 293.75 204.4375 L 156.230469 204.4375 C 155.203125 204.4375 154.371094 203.605469 154.371094 202.582031 L 154.371094 179.257812 C 154.371094 178.234375 155.203125 177.402344 156.230469 177.402344 L 293.75 177.402344 C 294.773438 177.402344 295.605469 178.234375 295.605469 179.257812 L 295.605469 202.582031 C 295.605469 203.605469 294.773438 204.4375 293.75 204.4375 Z M 158.085938 200.722656 L 291.894531 200.722656 L 291.894531 181.117188 L 158.085938 181.117188 Z M 158.085938 200.722656 " fill-opacity="1" fill-rule="nonzero"/><path fill="#ffffff" d="M 190.609375 216.511719 L 259.371094 216.511719 L 259.371094 231.917969 L 190.609375 231.917969 Z M 190.609375 216.511719 " fill-opacity="1" fill-rule="nonzero"/><path fill="#0b1d3a" d="M 259.371094 233.773438 L 190.609375 233.773438 C 189.585938 233.773438 188.753906 232.941406 188.753906 231.917969 L 188.753906 216.511719 C 188.753906 215.484375 189.585938 214.652344 190.609375 214.652344 L 259.371094 214.652344 C 260.394531 214.652344 261.226562 215.484375 261.226562 216.511719 L 261.226562 231.917969 C 261.226562 232.941406 260.394531 233.773438 259.371094 233.773438 Z M 192.464844 230.058594 L 257.511719 230.058594 L 257.511719 218.367188 L 192.464844 218.367188 Z M 192.464844 230.058594 " fill-opacity="1" fill-rule="nonzero"/><g mask="url(#609a6e27eb)"><g transform="matrix(1, 0, 0, 1, 135, 232)"><g clip-path="url(#f1af7eb608)"><g clip-path="url(#eb30c13fed)"><path fill="#0b1d3a" d="M 178.988281 1.496094 L 178.988281 20.8125 L 0.992188 20.8125 L 0.992188 1.496094 C 0.992188 8.058594 6.3125 13.382812 12.867188 13.382812 L 167.109375 13.382812 C 173.675781 13.382812 178.988281 8.058594 178.988281 1.496094 Z M 178.988281 1.496094 " fill-opacity="1" fill-rule="nonzero"/></g></g></g></g><g clip-path="url(#b9825f0fdd)"><g clip-path="url(#c569e14469)"><g transform="matrix(1, 0, 0, 1, 146, 62)"><g clip-path="url(#0229811e70)"><g clip-path="url(#a65fab6548)"><g clip-path="url(#d3ce461b51)"><path fill="#ffffff" d="M 0.261719 0.988281 L 155.46875 0.988281 L 155.46875 174.984375 L 0.261719 174.984375 Z M 0.261719 0.988281 " fill-opacity="1" fill-rule="nonzero"/></g></g></g></g></g></g></svg>