<svg xmlns="http://www.w3.org/2000/svg" xmlns:xlink="http://www.w3.org/1999/xlink" width="600" zoomAndPan="magnify" viewBox="0 0 375 307.91998" height="400" preserveAspectRatio="xMidYMid meet" version="1.0"><defs><filter x="0%" y="0%" width="100%" height="100%" id="295ab850e1"><feColorMatrix values="0 0 0 0 1 0 0 0 0 1 0 0 0 0 1 0 0 0 1 0" color-interpolation-filters="sRGB"/></filter><clipPath id="02c88b5549"><path d="M 0.046875 0 L 374.949219 0 L 374.949219 299.921875 L 0.046875 299.921875 Z M 0.046875 0 " clip-rule="nonzero"/></clipPath><clipPath id="b51d307f15"><path d="M 111.507812 4.78125 L 323 4.78125 L 323 279 L 111.507812 279 Z M 111.507812 4.78125 " clip-rule="nonzero"/></clipPath><mask id="197a3128d4"><g filter="url(#295ab850e1)"><rect x="-37.5" width="450" fill="#000000" y="-30.791998" height="369.503976" fill-opacity="0.5"/></g></mask><clipPath id="a143c1553e"><path d="M 0.257812 0.0664062 L 201.324219 0.0664062 L 201.324219 225.367188 L 0.257812 225.367188 Z M 0.257812 0.0664062 " clip-rule="nonzero"/></clipPath><clipPath id="29ca6fe4ad"><rect x="0" width="202" y="0" height="226"/></clipPath><clipPath id="489447811d"><path d="M 121 30 L 338.699219 30 L 338.699219 223 L 121 223 Z M 121 30 " clip-rule="nonzero"/></clipPath><mask id="376b3e970e"><g filter="url(#295ab850e1)"><rect x="-37.5" width="450" fill="#000000" y="-30.791998" height="369.503976" fill-opacity="0.5"/></g></mask><clipPath id="466aa5dd85"><path d="M 0.09375 0.167969 L 201 0.167969 L 201 17.683594 L 0.09375 17.683594 Z M 0.09375 0.167969 " clip-rule="nonzero"/></clipPath><clipPath id="3cfaa6cbb9"><rect x="0" width="202" y="0" height="18"/></clipPath><clipPath id="e5fb9be5d5"><path d="M 134 39 L 338.699219 39 L 338.699219 294.957031 L 134 294.957031 Z M 134 39 " clip-rule="nonzero"/></clipPath></defs><g clip-path="url(#02c88b5549)"><path fill="#ffffff" d="M 0.046875 0 L 449.933594 0 L 449.933594 299.921875 L 0.046875 299.921875 Z M 0.046875 0 " fill-opacity="1" fill-rule="nonzero"/><path fill="#ffffff" d="M 0.046875 0 L 449.933594 0 L 449.933594 299.921875 L 0.046875 299.921875 Z M 0.046875 0 " fill-opacity="1" fill-rule="nonzero"/></g><path fill="#009b77" d="M 113.515625 6.421875 L 116.777344 22.738281 L 116.777344 260.886719 L 113.515625 277.199219 L 320.503906 277.199219 L 317.242188 260.886719 L 317.242188 22.738281 L 320.503906 6.421875 Z M 113.515625 6.421875 " fill-opacity="1" fill-rule="nonzero"/><g clip-path="url(#b51d307f15)"><path fill="#0b1d3a" d="M 322.492188 278.832031 L 111.527344 278.832031 C 111.527344 278.832031 115.148438 260.726562 115.148438 260.726562 L 115.148438 22.898438 L 111.527344 4.792969 L 322.492188 4.792969 C 322.492188 4.792969 318.871094 22.898438 318.871094 22.898438 L 318.871094 260.726562 C 318.871094 260.726562 322.492188 278.832031 322.492188 278.832031 Z M 115.503906 275.566406 L 318.511719 275.566406 C 318.511719 275.566406 315.609375 261.046875 315.609375 261.046875 L 315.609375 22.574219 C 315.609375 22.574219 318.515625 8.054688 318.515625 8.054688 L 115.503906 8.054688 C 115.503906 8.054688 118.410156 22.574219 118.410156 22.574219 L 118.410156 261.046875 Z M 115.503906 275.566406 " fill-opacity="1" fill-rule="nonzero"/></g><path fill="#0b1d3a" d="M 115.964844 260.074219 L 120.207031 260.074219 L 120.207031 261.703125 L 115.964844 261.703125 Z M 115.964844 260.074219 " fill-opacity="1" fill-rule="nonzero"/><path fill="#0b1d3a" d="M 305.171875 261.703125 L 298.402344 261.703125 L 298.402344 260.070312 L 305.171875 260.070312 Z M 289.753906 261.703125 L 282.984375 261.703125 L 282.984375 260.070312 L 289.753906 260.070312 Z M 274.34375 261.703125 L 267.574219 261.703125 L 267.574219 260.070312 L 274.34375 260.070312 Z M 258.929688 261.703125 L 252.15625 261.703125 L 252.15625 260.070312 L 258.929688 260.070312 Z M 243.515625 261.703125 L 236.746094 261.703125 L 236.746094 260.070312 L 243.515625 260.070312 Z M 228.101562 261.703125 L 221.332031 261.703125 L 221.332031 260.070312 L 228.101562 260.070312 Z M 212.6875 261.703125 L 205.917969 261.703125 L 205.917969 260.070312 L 212.6875 260.070312 Z M 197.273438 261.703125 L 190.503906 261.703125 L 190.503906 260.070312 L 197.273438 260.070312 Z M 181.859375 261.703125 L 175.089844 261.703125 L 175.089844 260.070312 L 181.859375 260.070312 Z M 166.445312 261.703125 L 159.675781 261.703125 L 159.675781 260.070312 L 166.445312 260.070312 Z M 151.03125 261.703125 L 144.261719 261.703125 L 144.261719 260.070312 L 151.03125 260.070312 Z M 135.617188 261.703125 L 128.847656 261.703125 L 128.847656 260.070312 L 135.617188 260.070312 Z M 135.617188 261.703125 " fill-opacity="1" fill-rule="nonzero"/><path fill="#0b1d3a" d="M 313.8125 260.074219 L 318.054688 260.074219 L 318.054688 261.703125 L 313.8125 261.703125 Z M 313.8125 260.074219 " fill-opacity="1" fill-rule="nonzero"/><path fill="#0b1d3a" d="M 115.964844 21.921875 L 120.207031 21.921875 L 120.207031 23.554688 L 115.964844 23.554688 Z M 115.964844 21.921875 " fill-opacity="1" fill-rule="nonzero"/><path fill="#0b1d3a" d="M 305.171875 23.554688 L 298.402344 23.554688 L 298.402344 21.921875 L 305.171875 21.921875 Z M 289.753906 23.554688 L 282.984375 23.554688 L 282.984375 21.921875 L 289.753906 21.921875 Z M 274.34375 23.554688 L 267.574219 23.554688 L 267.574219 21.921875 L 274.34375 21.921875 Z M 258.929688 23.554688 L 252.15625 23.554688 L 252.15625 21.921875 L 258.929688 21.921875 Z M 243.515625 23.554688 L 236.746094 23.554688 L 236.746094 21.921875 L 243.515625 21.921875 Z M 228.101562 23.554688 L 221.332031 23.554688 L 221.332031 21.921875 L 228.101562 21.921875 Z M 212.6875 23.554688 L 205.917969 23.554688 L 205.917969 21.921875 L 212.6875 21.921875 Z M 197.273438 23.554688 L 190.503906 23.554688 L 190.503906 21.921875 L 197.273438 21.921875 Z M 181.859375 23.554688 L 175.089844 23.554688 L 175.089844 21.921875 L 181.859375 21.921875 Z M 166.445312 23.554688 L 159.675781 23.554688 L 159.675781 21.921875 L 166.445312 21.921875 Z M 151.03125 23.554688 L 144.261719 23.554688 L 144.261719 21.921875 L 151.03125 21.921875 Z M 135.617188 23.554688 L 128.847656 23.554688 L 128.847656 21.921875 L 135.617188 21.921875 Z M 135.617188 23.554688 " fill-opacity="1" fill-rule="nonzero"/><path fill="#0b1d3a" d="M 313.8125 21.921875 L 318.054688 21.921875 L 318.054688 23.554688 L 313.8125 23.554688 Z M 313.8125 21.921875 " fill-opacity="1" fill-rule="nonzero"/><g mask="url(#197a3128d4)"><g transform="matrix(1, 0, 0, 1, 126, 52)"><g clip-path="url(#29ca6fe4ad)"><g clip-path="url(#a143c1553e)"><path fill="#0b1d3a" d="M 11.007812 0.1875 L 190.585938 0.1875 C 196.351562 0.1875 201.027344 4.867188 201.027344 10.628906 L 201.027344 225.199219 L 0.566406 225.199219 L 0.566406 10.628906 C 0.566406 4.867188 5.246094 0.1875 11.007812 0.1875 Z M 11.007812 0.1875 " fill-opacity="1" fill-rule="nonzero"/></g></g></g></g><path fill="#c9a14a" d="M 146.796875 40.894531 L 326.375 40.894531 C 332.136719 40.894531 336.816406 45.574219 336.816406 51.335938 L 336.816406 283.070312 C 336.816406 288.832031 332.136719 293.511719 326.375 293.511719 L 146.796875 293.511719 C 141.03125 293.511719 136.355469 288.832031 136.355469 283.070312 L 136.355469 51.335938 C 136.355469 45.574219 141.03125 40.894531 146.796875 40.894531 Z M 146.796875 40.894531 " fill-opacity="1" fill-rule="nonzero"/><path fill="#ffffff" d="M 161.621094 61.855469 L 311.550781 61.855469 C 312.085938 61.855469 312.617188 61.90625 313.144531 62.011719 C 313.667969 62.117188 314.179688 62.273438 314.675781 62.476562 C 315.171875 62.683594 315.640625 62.933594 316.085938 63.230469 C 316.53125 63.53125 316.945312 63.867188 317.324219 64.246094 C 317.703125 64.625 318.042969 65.039062 318.339844 65.484375 C 318.636719 65.929688 318.890625 66.402344 319.09375 66.898438 C 319.300781 67.390625 319.453125 67.902344 319.558594 68.429688 C 319.664062 68.953125 319.714844 69.484375 319.714844 70.019531 L 319.714844 182.824219 C 319.714844 183.359375 319.664062 183.890625 319.558594 184.417969 C 319.453125 184.941406 319.300781 185.453125 319.09375 185.949219 C 318.890625 186.445312 318.636719 186.914062 318.339844 187.359375 C 318.042969 187.804688 317.703125 188.21875 317.324219 188.597656 C 316.945312 188.976562 316.53125 189.316406 316.085938 189.613281 C 315.640625 189.910156 315.171875 190.164062 314.675781 190.367188 C 314.179688 190.574219 313.667969 190.726562 313.144531 190.832031 C 312.617188 190.9375 312.085938 190.988281 311.550781 190.988281 L 161.621094 190.988281 C 161.085938 190.988281 160.554688 190.9375 160.027344 190.832031 C 159.503906 190.726562 158.992188 190.574219 158.496094 190.367188 C 158 190.164062 157.53125 189.910156 157.085938 189.613281 C 156.640625 189.316406 156.226562 188.976562 155.847656 188.597656 C 155.46875 188.21875 155.128906 187.804688 154.832031 187.359375 C 154.535156 186.914062 154.28125 186.445312 154.078125 185.949219 C 153.871094 185.453125 153.71875 184.941406 153.613281 184.417969 C 153.507812 183.890625 153.457031 183.359375 153.457031 182.824219 L 153.457031 70.019531 C 153.457031 69.484375 153.507812 68.953125 153.613281 68.429688 C 153.71875 67.902344 153.871094 67.390625 154.078125 66.898438 C 154.28125 66.402344 154.535156 65.929688 154.832031 65.484375 C 155.128906 65.039062 155.46875 64.625 155.847656 64.246094 C 156.226562 63.867188 156.640625 63.53125 157.085938 63.230469 C 157.53125 62.933594 158 62.683594 158.496094 62.476562 C 158.992188 62.273438 159.503906 62.117188 160.027344 62.011719 C 160.554688 61.90625 161.085938 61.855469 161.621094 61.855469 Z M 161.621094 61.855469 " fill-opacity="1" fill-rule="nonzero"/><g clip-path="url(#489447811d)"><path stroke-linecap="butt" transform="matrix(0.222986, 0, 0, 0.222986, 2.001092, -73.017471)" fill="none" stroke-linejoin="miter" d="M 715.829095 604.84885 L 1388.201174 604.84885 C 1390.601127 604.84885 1392.983561 605.076583 1395.348478 605.549566 C 1397.695876 606.022549 1399.990722 606.723266 1402.215495 607.634196 C 1404.440268 608.562645 1406.542417 609.683791 1408.539457 611.015151 C 1410.536498 612.36403 1412.393395 613.870569 1414.092632 615.569806 C 1415.791868 617.269042 1417.315926 619.125939 1418.647286 621.12298 C 1419.978647 623.120021 1421.11731 625.239687 1422.028241 627.46446 C 1422.95669 629.671716 1423.639888 631.966561 1424.112871 634.331478 C 1424.585855 636.678876 1424.813587 639.061311 1424.813587 641.461263 L 1424.813587 1147.34321 C 1424.813587 1149.743163 1424.585855 1152.125597 1424.112871 1154.490514 C 1423.639888 1156.837913 1422.95669 1159.132758 1422.028241 1161.357531 C 1421.11731 1163.582305 1419.978647 1165.684453 1418.647286 1167.681494 C 1417.315926 1169.678534 1415.791868 1171.535432 1414.092632 1173.234668 C 1412.393395 1174.933905 1410.536498 1176.457962 1408.539457 1177.789322 C 1406.542417 1179.120683 1404.440268 1180.259347 1402.215495 1181.170277 C 1399.990722 1182.098726 1397.695876 1182.781924 1395.348478 1183.254908 C 1392.983561 1183.727891 1390.601127 1183.955624 1388.201174 1183.955624 L 715.829095 1183.955624 C 713.429143 1183.955624 711.046708 1183.727891 708.681792 1183.254908 C 706.334393 1182.781924 704.039548 1182.098726 701.814774 1181.170277 C 699.590001 1180.259347 697.487853 1179.120683 695.490812 1177.789322 C 693.493771 1176.457962 691.636874 1174.933905 689.937638 1173.234668 C 688.238401 1171.535432 686.714344 1169.678534 685.382983 1167.681494 C 684.051623 1165.684453 682.912959 1163.582305 682.002028 1161.357531 C 681.07358 1159.132758 680.390381 1156.837913 679.917398 1154.490514 C 679.444415 1152.125597 679.216682 1149.743163 679.216682 1147.34321 L 679.216682 641.461263 C 679.216682 639.061311 679.444415 636.678876 679.917398 634.331478 C 680.390381 631.966561 681.07358 629.671716 682.002028 627.46446 C 682.912959 625.239687 684.051623 623.120021 685.382983 621.12298 C 686.714344 619.125939 688.238401 617.269042 689.937638 615.569806 C 691.636874 613.870569 693.493771 612.36403 695.490812 611.015151 C 697.487853 609.683791 699.590001 608.562645 701.814774 607.634196 C 704.039548 606.723266 706.334393 606.022549 708.681792 605.549566 C 711.046708 605.076583 713.429143 604.84885 715.829095 604.84885 Z M 715.829095 604.84885 " stroke="#010101" stroke-width="10" stroke-opacity="1" stroke-miterlimit="10"/></g><path fill="#0b1d3a" d="M 316.007812 214.664062 L 157.160156 214.664062 C 155.113281 214.664062 153.453125 213.003906 153.453125 210.957031 C 153.453125 208.910156 155.113281 207.246094 157.160156 207.246094 L 316.007812 207.246094 C 318.054688 207.246094 319.714844 208.90625 319.714844 210.957031 C 319.714844 213.003906 318.058594 214.664062 316.007812 214.664062 Z M 316.007812 214.664062 " fill-opacity="1" fill-rule="nonzero"/><path fill="#0b1d3a" d="M 157.164062 236.910156 L 232.878906 236.910156 C 233.371094 236.910156 233.84375 237.003906 234.296875 237.191406 C 234.753906 237.382812 235.152344 237.648438 235.5 237.996094 C 235.847656 238.34375 236.117188 238.746094 236.304688 239.199219 C 236.492188 239.65625 236.585938 240.128906 236.585938 240.621094 C 236.585938 241.109375 236.492188 241.585938 236.304688 242.039062 C 236.117188 242.492188 235.847656 242.894531 235.5 243.242188 C 235.152344 243.589844 234.753906 243.855469 234.296875 244.046875 C 233.84375 244.234375 233.371094 244.328125 232.878906 244.328125 L 157.164062 244.328125 C 156.671875 244.328125 156.199219 244.234375 155.746094 244.046875 C 155.289062 243.855469 154.890625 243.589844 154.542969 243.242188 C 154.195312 242.894531 153.925781 242.492188 153.738281 242.039062 C 153.550781 241.585938 153.457031 241.109375 153.457031 240.621094 C 153.457031 240.128906 153.550781 239.65625 153.738281 239.199219 C 153.925781 238.746094 154.195312 238.34375 154.542969 237.996094 C 154.890625 237.648438 155.289062 237.382812 155.746094 237.191406 C 156.199219 237.003906 156.671875 236.910156 157.164062 236.910156 Z M 157.164062 236.910156 " fill-opacity="1" fill-rule="nonzero"/><path fill="#0b1d3a" d="M 157.164062 266.574219 L 191.3125 266.574219 C 191.804688 266.574219 192.277344 266.667969 192.730469 266.855469 C 193.183594 267.042969 193.585938 267.3125 193.933594 267.660156 C 194.28125 268.007812 194.550781 268.40625 194.738281 268.863281 C 194.925781 269.316406 195.019531 269.789062 195.019531 270.28125 C 195.019531 270.773438 194.925781 271.246094 194.738281 271.699219 C 194.550781 272.152344 194.28125 272.554688 193.933594 272.902344 C 193.585938 273.25 193.183594 273.519531 192.730469 273.707031 C 192.277344 273.894531 191.804688 273.988281 191.3125 273.988281 L 157.164062 273.988281 C 156.671875 273.988281 156.199219 273.894531 155.746094 273.707031 C 155.289062 273.519531 154.890625 273.25 154.542969 272.902344 C 154.195312 272.554688 153.925781 272.152344 153.738281 271.699219 C 153.550781 271.246094 153.457031 270.773438 153.457031 270.28125 C 153.457031 269.789062 153.550781 269.316406 153.738281 268.863281 C 153.925781 268.40625 154.195312 268.007812 154.542969 267.660156 C 154.890625 267.3125 155.289062 267.042969 155.746094 266.855469 C 156.199219 266.667969 156.671875 266.574219 157.164062 266.574219 Z M 157.164062 266.574219 " fill-opacity="1" fill-rule="nonzero"/><path fill="#0b1d3a" d="M 281.859375 266.574219 L 316.007812 266.574219 C 316.5 266.574219 316.972656 266.667969 317.425781 266.855469 C 317.882812 267.042969 318.28125 267.3125 318.628906 267.660156 C 318.976562 268.007812 319.246094 268.40625 319.433594 268.863281 C 319.621094 269.316406 319.714844 269.789062 319.714844 270.28125 C 319.714844 270.773438 319.621094 271.246094 319.433594 271.699219 C 319.246094 272.152344 318.976562 272.554688 318.628906 272.902344 C 318.28125 273.25 317.882812 273.519531 317.425781 273.707031 C 316.972656 273.894531 316.5 273.988281 316.007812 273.988281 L 281.859375 273.988281 C 281.367188 273.988281 280.894531 273.894531 280.441406 273.707031 C 279.988281 273.519531 279.585938 273.25 279.238281 272.902344 C 278.890625 272.554688 278.621094 272.152344 278.433594 271.699219 C 278.246094 271.246094 278.152344 270.773438 278.152344 270.28125 C 278.152344 269.789062 278.246094 269.316406 278.433594 268.863281 C 278.621094 268.40625 278.890625 268.007812 279.238281 267.660156 C 279.585938 267.3125 279.988281 267.042969 280.441406 266.855469 C 280.894531 266.667969 281.367188 266.574219 281.859375 266.574219 Z M 281.859375 266.574219 " fill-opacity="1" fill-rule="nonzero"/><path fill="#0b1d3a" d="M 316.007812 229.496094 L 157.160156 229.496094 C 155.113281 229.496094 153.453125 227.835938 153.453125 225.785156 C 153.453125 223.738281 155.113281 222.078125 157.160156 222.078125 L 316.007812 222.078125 C 318.054688 222.078125 319.714844 223.738281 319.714844 225.785156 C 319.714844 227.832031 318.058594 229.496094 316.007812 229.496094 Z M 316.007812 229.496094 " fill-opacity="1" fill-rule="nonzero"/><path fill="#0b1d3a" d="M 300.003906 84.101562 L 173.164062 84.101562 C 171.117188 84.101562 169.457031 82.445312 169.457031 80.394531 C 169.457031 78.347656 171.117188 76.6875 173.164062 76.6875 L 300.003906 76.6875 C 302.050781 76.6875 303.710938 78.34375 303.710938 80.394531 C 303.710938 82.441406 302.054688 84.101562 300.003906 84.101562 Z M 300.003906 84.101562 " fill-opacity="1" fill-rule="nonzero"/><g mask="url(#376b3e970e)"><g transform="matrix(1, 0, 0, 1, 136, 276)"><g clip-path="url(#3cfaa6cbb9)"><g clip-path="url(#466aa5dd85)"><path fill="#0b1d3a" d="M 200.816406 0.546875 L 200.816406 7.070312 C 200.816406 12.835938 196.144531 17.511719 190.375 17.511719 L 10.796875 17.511719 C 5.03125 17.511719 0.355469 12.835938 0.355469 7.070312 L 0.355469 0.546875 C 0.355469 6.3125 5.03125 10.988281 10.796875 10.988281 L 190.375 10.988281 C 196.144531 10.988281 200.816406 6.3125 200.816406 0.546875 Z M 200.816406 0.546875 " fill-opacity="1" fill-rule="nonzero"/></g></g></g></g><g clip-path="url(#e5fb9be5d5)"><path fill="#0b1d3a" d="M 326.375 295.144531 L 146.796875 295.144531 C 140.140625 295.144531 134.726562 289.726562 134.726562 283.070312 L 134.726562 51.335938 C 134.726562 44.679688 140.140625 39.261719 146.796875 39.261719 L 326.375 39.261719 C 333.03125 39.261719 338.449219 44.679688 338.449219 51.335938 L 338.449219 283.070312 C 338.449219 289.726562 333.03125 295.144531 326.375 295.144531 Z M 146.796875 42.527344 C 141.9375 42.527344 137.988281 46.480469 137.988281 51.335938 L 137.988281 283.070312 C 137.988281 287.929688 141.9375 291.878906 146.796875 291.878906 L 326.375 291.878906 C 331.230469 291.878906 335.183594 287.929688 335.183594 283.070312 L 335.183594 51.335938 C 335.183594 46.480469 331.230469 42.527344 326.375 42.527344 Z M 146.796875 42.527344 " fill-opacity="1" fill-rule="nonzero"/></g></svg>